<?xml version="1.0" standalone="no"?>
<!DOCTYPE svg PUBLIC "-//W3C//DTD SVG 1.1//EN" "http://www.w3.org/Graphics/SVG/1.1/DTD/svg11.dtd" >
<svg xmlns="http://www.w3.org/2000/svg" xmlns:xlink="http://www.w3.org/1999/xlink" version="1.1">
<metadata>
Created by FontForge 20161003 at Wed Dec 27 17:13:54 2017
 By www-data
Latinotype
</metadata>
<defs>
<font id="corporativeblack" horiz-adv-x="604" >
  <font-face 
    font-family="corporativeblack"
    font-weight="900"
    font-stretch="normal"
    units-per-em="1000"
    panose-1="0 0 10 0 0 0 0 0 0 0"
    ascent="810"
    descent="-190"
    x-height="480"
    cap-height="710"
    bbox="-252 -236 1363 908"
    underline-thickness="50"
    underline-position="-150"
    unicode-range="U+0020-FB02"
  />
<missing-glyph horiz-adv-x="630" 
d="M100 710h430v-710h-430v710zM165 675l150 -278l150 278h-300zM293 355l-153 284v-568zM338 355l152 -284v568zM315 313l-150 -278h300z" />
    <glyph glyph-name="fi" unicode="fi" horiz-adv-x="636" 
d="M560 141q24 -6 56 -6l-2 -136q-39 -9 -110 -9q-69 0 -96.5 22.5t-27.5 83.5v238h-120v-334h-180v334h-80v146h80v44q0 196 224 196q99 0 168 -25l-8 -151q-60 20 -120 20q-84 0 -84 -64v-20h300v-339z" />
    <glyph glyph-name="fl" unicode="fl" horiz-adv-x="652" 
d="M574 141q24 -6 68 -6l-2 -136q-47 -9 -102 -9q-77 0 -110.5 27t-33.5 109v208h-134v-334h-180v334h-80v146h80v50q0 190 166 190q58 0 114 -20l-4 -148q-32 12 -56 12q-40 0 -40 -58v-26h134v230h180v-569z" />
    <glyph glyph-name=".notdef" horiz-adv-x="630" 
d="M100 710h430v-710h-430v710zM165 675l150 -278l150 278h-300zM293 355l-153 284v-568zM338 355l152 -284v568zM315 313l-150 -278h300z" />
    <glyph glyph-name=".null" horiz-adv-x="0" 
 />
    <glyph glyph-name="nonmarkingreturn" horiz-adv-x="333" 
 />
    <glyph glyph-name="space" unicode=" " horiz-adv-x="260" 
 />
    <glyph glyph-name="exclam" unicode="!" horiz-adv-x="272" 
d="M47 710l10 -454h160l10 454h-180zM136 -12q42 0 69 27t27 69t-27 69t-69 27t-69 -27t-27 -69t27 -69t69 -27z" />
    <glyph glyph-name="quotedbl" unicode="&#x22;" horiz-adv-x="480" 
d="M50 722l-10 -242h138l32 226zM280 722l-10 -242h138l32 226z" />
    <glyph glyph-name="numbersign" unicode="#" horiz-adv-x="712" 
d="M624 365h-90l-18 -80h92l-28 -120h-91l-24 -105h-130l24 105h-72l-24 -105h-130l24 105h-97l28 120h96l18 80h-98l28 120h97l24 105h130l-24 -105h72l24 105h130l-24 -105h91zM386 285l18 80h-72l-18 -80h72z" />
    <glyph glyph-name="dollar" unicode="$" horiz-adv-x="646" 
d="M596 210q0 -180 -202 -207l-2 -105h-174l4 107q-106 15 -158 51l12 168q32 -20 98 -41t142 -21q52 0 71 10t19 34q0 19 -26.5 32.5t-66 21.5t-85.5 24t-85.5 38t-66 66.5t-26.5 105.5q0 181 186 210l2 106h174l-4 -108q145 -27 166 -162l-180 -36q-9 46 -84 46
q-72 0 -72 -50q0 -23 19.5 -38t51.5 -24t70 -18t76 -23.5t70 -35.5t51.5 -60t19.5 -91z" />
    <glyph glyph-name="percent" unicode="%" horiz-adv-x="1013" 
d="M260 327q180 0 180 198q0 195 -180 195t-180 -197q0 -196 180 -196zM699 720l-514 -726l150 -6l514 726zM260 434q-27 0 -39 21t-12 68q0 46 12 67.5t39 21.5t39 -20.5t12 -66.5q0 -91 -51 -91zM773 -12q180 0 180 198q0 195 -180 195t-180 -197q0 -196 180 -196zM773 95
q-27 0 -39 21t-12 68q0 46 12 67.5t39 21.5t39 -20.5t12 -66.5q0 -91 -51 -91z" />
    <glyph glyph-name="ampersand" unicode="&#x26;" horiz-adv-x="826" 
d="M786 410q-46 -202 -140 -304l124 -118l-180 -20l-58 55q-93 -45 -224 -45q-268 0 -268 180q0 65 34 111.5t105 87.5q-71 73 -71 165q0 86 58 142t170 56q111 0 166.5 -45.5t55.5 -124.5q0 -138 -147 -221l117 -111q64 71 88 202zM334 580q-31 0 -46.5 -17t-15.5 -47
q0 -44 42 -91q38 21 59 44t21 57q0 54 -60 54zM322 132q47 0 83 10l-129 122q-46 -30 -46 -74q0 -26 23.5 -42t68.5 -16z" />
    <glyph glyph-name="quotesingle" unicode="'" horiz-adv-x="250" 
d="M50 722l-10 -242h138l32 226z" />
    <glyph glyph-name="parenleft" unicode="(" horiz-adv-x="438" 
d="M242 315q0 -255 156 -375l-26 -130q-52 20 -101 59.5t-93 100t-71 150.5t-27 195t27 195t71 150.5t93 100t101 59.5l26 -130q-156 -120 -156 -375z" />
    <glyph glyph-name="parenright" unicode=")" horiz-adv-x="438" 
d="M196 315q0 255 -156 375l26 130q52 -20 101 -59.5t93 -100t71 -150.5t27 -195t-27 -195t-71 -150.5t-93 -100t-101 -59.5l-26 130q156 120 156 375z" />
    <glyph glyph-name="asterisk" unicode="*" horiz-adv-x="476" 
d="M316 583l100 -37l-54 -98l-76 56l8 -86h-112l8 86l-76 -56l-54 98l100 37l-100 37l54 98l76 -56l-8 86h112l-8 -86l76 56l54 -98z" />
    <glyph glyph-name="plus" unicode="+" horiz-adv-x="536" 
d="M476 390v-146h-128v-136h-160v136h-128v146h128v136h160v-136h128z" />
    <glyph glyph-name="comma" unicode="," horiz-adv-x="274" 
d="M234 38q0 65 -28 97.5t-76 32.5q-44 0 -67 -28t-23 -80q72 0 72 -60q0 -27 -11.5 -47t-23 -28t-31.5 -19l44 -68q65 24 104.5 75t39.5 125z" />
    <glyph glyph-name="hyphen" unicode="-" horiz-adv-x="400" 
d="M350 357h-300v-140h300v140z" />
    <glyph glyph-name="period" unicode="." horiz-adv-x="272" 
d="M136 -12q42 0 69 27t27 69t-27 69t-69 27t-69 -27t-27 -69t27 -69t69 -27z" />
    <glyph glyph-name="slash" unicode="/" horiz-adv-x="490" 
d="M320 810l-320 -990h170l320 990h-170z" />
    <glyph glyph-name="zero" unicode="0" horiz-adv-x="664" 
d="M332 -12q150 0 221 96.5t71 269.5t-71 269.5t-221 96.5t-221 -96.5t-71 -269.5t71 -269.5t221 -96.5zM332 142q-58 0 -84 49t-26 163q0 113 27 162.5t83 49.5q58 0 84 -49t26 -163t-26 -163t-84 -49z" />
    <glyph glyph-name="one" unicode="1" horiz-adv-x="474" 
d="M368 146h81v-146h-395v146h130v386q-51 -41 -161 -76l-33 154q118 38 196 100h182v-564z" />
    <glyph glyph-name="two" unicode="2" horiz-adv-x="562" 
d="M537 496q0 -58 -28 -106.5t-70.5 -82t-86 -60t-82 -52.5t-50.5 -47h317v-148h-518v92q0 51 18.5 93.5t48 71.5t65 54t71 45.5t65 40.5t48 45t18.5 54q0 70 -75 70q-76 0 -81 -67l-182 31q25 190 264 190q123 0 190.5 -55.5t67.5 -168.5z" />
    <glyph glyph-name="three" unicode="3" horiz-adv-x="567" 
d="M435 376q53 -21 77.5 -59.5t24.5 -106.5q0 -98 -72.5 -160t-197.5 -62q-206 0 -257 160l168 58q16 -64 91 -64q42 0 65 20t23 60q0 45 -22.5 64.5t-74.5 19.5h-55v128h53q40 0 59 18.5t19 47.5t-18.5 47.5t-54.5 18.5q-66 0 -75 -56l-174 36q12 88 78 131t173 43
q113 0 182 -52t69 -147q0 -101 -81 -145z" />
    <glyph glyph-name="four" unicode="4" horiz-adv-x="627" 
d="M517 324h100v-150h-100v-174h-184v174h-282l-51 137l337 399h180v-386zM191 324h142v167z" />
    <glyph glyph-name="five" unicode="5" horiz-adv-x="550" 
d="M266 456q264 0 264 -227q0 -112 -72 -176.5t-196 -64.5q-103 0 -159.5 35t-82.5 115l154 56q18 -52 88 -52q88 0 88 90q0 92 -122 92q-60 0 -180 -20l20 406h432v-154h-284l-6 -103q32 3 56 3z" />
    <glyph glyph-name="six" unicode="6" horiz-adv-x="606" 
d="M344 452q106 0 174 -57.5t68 -160.5q0 -110 -69.5 -178t-196.5 -68q-134 0 -207 94.5t-73 259.5q0 109 27.5 191t94.5 134.5t168 52.5t161.5 -44t75.5 -127l-168 -27q-11 27 -28.5 37.5t-48.5 10.5q-50 0 -73 -31t-27 -111q48 24 122 24zM326 142q84 0 84 84
q0 44 -22.5 67t-61.5 23q-58 0 -103 -26q7 -86 31.5 -117t71.5 -31z" />
    <glyph glyph-name="seven" unicode="7" horiz-adv-x="465" 
d="M-15 710h490v-152q-106 -151 -167 -272.5t-105 -285.5h-186q86 290 279 556h-311v154z" />
    <glyph glyph-name="eight" unicode="8" horiz-adv-x="599" 
d="M446 379q71 -40 97 -82t26 -103q0 -94 -66 -150t-206 -56q-267 0 -267 188q0 57 27 100t87 80q-54 31 -76 72.5t-22 103.5q0 84 66 136t184 52q117 0 182 -49.5t65 -130.5q0 -52 -22 -90t-75 -71zM298 580q-73 0 -73 -55q0 -25 15.5 -42t68.5 -41q34 23 45.5 41.5
t11.5 44.5q0 52 -68 52zM296 128q94 0 94 68q0 31 -20.5 55t-81.5 48q-82 -42 -82 -101q0 -70 90 -70z" />
    <glyph glyph-name="nine" unicode="9" horiz-adv-x="606" 
d="M286 720q131 0 205.5 -93t74.5 -249q0 -84 -16 -152.5t-50 -123t-93 -84.5t-139 -30q-103 0 -159 42t-71 126l166 40q9 -31 26.5 -44.5t49.5 -13.5q45 0 69 32t33 118q-59 -32 -128 -32q-109 0 -171.5 59.5t-62.5 160.5q0 110 69 177t197 67zM196 480q0 -88 90 -88
q62 0 99 30q-3 83 -30 115.5t-73 32.5q-86 0 -86 -90z" />
    <glyph glyph-name="colon" unicode=":" horiz-adv-x="272" 
d="M136 300q42 0 69 27t27 69t-27 69t-69 27t-69 -27t-27 -69t27 -69t69 -27zM136 -12q42 0 69 27t27 69t-27 69t-69 27t-69 -27t-27 -69t27 -69t69 -27z" />
    <glyph glyph-name="semicolon" unicode=";" horiz-adv-x="274" 
d="M136 301q42 0 69 27t27 69t-27 69t-69 27t-69 -27t-27 -69t27 -69t69 -27zM234 38q0 65 -28 97.5t-76 32.5q-44 0 -67 -28t-23 -80q72 0 72 -60q0 -27 -11.5 -47t-23 -28t-31.5 -19l44 -68q65 24 104.5 75t39.5 125z" />
    <glyph glyph-name="less" unicode="&#x3c;" horiz-adv-x="514" 
d="M434 418l-218 -101l218 -101l-2 -160l-372 186v150l372 186z" />
    <glyph glyph-name="equal" unicode="=" horiz-adv-x="540" 
d="M480 470h-420v-124h420v124zM480 288h-420v-124h420v124z" />
    <glyph glyph-name="greater" unicode="&#x3e;" horiz-adv-x="514" 
d="M82 578l372 -186v-150l-372 -186l-2 160l218 101l-218 101z" />
    <glyph glyph-name="question" unicode="?" horiz-adv-x="514" 
d="M20 582l134 -42q9 50 70 50q68 0 68 -76q0 -23 -9.5 -45t-31.5 -44.5t-37 -36t-47 -38.5t-41 -32l18 -88h130l4 46q40 25 62.5 42.5t53 50t45.5 74.5t15 95q0 89 -57 135.5t-167 46.5q-174 0 -210 -138zM219 -12q42 0 69 27t27 69t-27 69t-69 27t-69 -27t-27 -69t27 -69
t69 -27z" />
    <glyph glyph-name="at" unicode="@" horiz-adv-x="1108" 
d="M554 730q106 0 194 -26t156 -78.5t106 -140.5t38 -205q0 -280 -228 -280q-91 0 -146 57q-60 -57 -152 -57q-109 0 -166.5 61.5t-57.5 170.5q0 107 61 177.5t161 70.5q71 0 129 -35l7 25h150v-262q0 -34 8.5 -47t29.5 -13q27 0 43.5 27t16.5 105q0 154 -99 233t-257 79
q-167 0 -250.5 -91.5t-83.5 -248.5q0 -175 77.5 -249.5t216.5 -74.5q101 0 210 46l16 -134q-105 -50 -242 -50q-200 0 -316 116t-116 346q0 149 65 258.5t176 164.5t253 55zM550 148q76 0 76 74v85q-34 17 -68 17q-40 0 -59 -25.5t-19 -66.5q0 -84 70 -84z" />
    <glyph glyph-name="A" unicode="A" horiz-adv-x="768" 
d="M686 164q27 -9 72 -9l-2 -156q-33 -7 -84 -7q-65 0 -96.5 17t-49.5 67l-22 63h-253l-47 -139h-194l263 702l186 24zM302 289h148l-76 213z" />
    <glyph glyph-name="B" unicode="B" horiz-adv-x="725" 
d="M597 389q103 -49 103 -169q0 -111 -71 -165.5t-219 -54.5h-316v550h-74v152q52 12 116 12q68 0 102 -31q72 37 172 37q116 0 183 -53.5t67 -144.5q0 -86 -63 -133zM480 486q0 70 -106 70q-46 0 -96 -8v-128h116q86 0 86 66zM438 160q78 0 78 60t-78 60h-160v-120h160z
" />
    <glyph glyph-name="C" unicode="C" horiz-adv-x="710" 
d="M440 164q-96 0 -147 50t-51 149q0 100 37 148.5t101 48.5q103 0 112 -114l188 28q0 116 -76.5 181t-222.5 65q-155 0 -243 -94.5t-88 -275.5q0 -173 92.5 -267.5t263.5 -94.5t264 58l-44 168q-93 -50 -186 -50z" />
    <glyph glyph-name="D" unicode="D" horiz-adv-x="764" 
d="M386 720q149 0 238.5 -93t89.5 -263q0 -179 -109 -271.5t-295 -92.5h-216v550h-74v152q52 12 116 12q69 0 101 -31q68 37 149 37zM310 168q108 0 163 46t55 148q0 94 -44 143t-130 49q-36 0 -76 -7v-379h32z" />
    <glyph glyph-name="E" unicode="E" horiz-adv-x="590" 
d="M264 268v-104h306v-164h-490v710h490l-10 -164h-296v-128h266v-150h-266z" />
    <glyph glyph-name="F" unicode="F" horiz-adv-x="557" 
d="M540 550h-276v-132h256v-150h-256v-268h-184v710h470z" />
    <glyph glyph-name="G" unicode="G" horiz-adv-x="798" 
d="M658 396q38 0 59 -19t21 -53v-324h-150l-7 55q-81 -67 -189 -67q-158 0 -250 97t-92 269q0 180 92.5 273t263.5 93q140 0 217.5 -56.5t98.5 -155.5l-194 -39q-20 89 -122 89q-164 0 -164 -204q0 -202 176 -202q65 0 102.5 26.5t37.5 65.5v14h-156v138h256z" />
    <glyph glyph-name="H" unicode="H" horiz-adv-x="812" 
d="M722 164q21 -9 70 -9l-2 -156q-45 -7 -114 -7q-75 0 -106.5 30t-31.5 118v118h-274v-258h-184v710h184v-284h274v284h184v-546z" />
    <glyph glyph-name="I" unicode="I" horiz-adv-x="344" 
d="M80 710v-710h184v710h-184z" />
    <glyph glyph-name="J" unicode="J" horiz-adv-x="534" 
d="M454 710h-184v-468q0 -57 -21.5 -75.5t-82.5 -18.5q-74 0 -130 28l-16 -160q56 -28 164 -28q58 0 102.5 11t84.5 39t61.5 82.5t21.5 133.5v456z" />
    <glyph glyph-name="K" unicode="K" horiz-adv-x="733" 
d="M608 198q23 -28 42.5 -35.5t77.5 -7.5l-10 -158q-36 -6 -74 -6q-58 0 -96 19.5t-92 91.5l-116 156h-76v-258h-184v710h184v-264h76l180 274l204 -18l-243 -345z" />
    <glyph glyph-name="L" unicode="L" horiz-adv-x="585" 
d="M264 166h316v-166h-500v710h184v-544z" />
    <glyph glyph-name="M" unicode="M" horiz-adv-x="998" 
d="M908 162q35 -7 70 -7l-2 -156q-33 -7 -100 -7q-80 0 -115.5 33t-39.5 131l-10 262l-147 -324h-138l-147 324l-15 -418h-184l26 702l228 24l163 -380l165 364h220z" />
    <glyph glyph-name="N" unicode="N" horiz-adv-x="818" 
d="M554 710h184v-710h-178l-296 402v-402h-184v702l176 24l298 -411v395z" />
    <glyph glyph-name="O" unicode="O" horiz-adv-x="800" 
d="M400 -12q164 0 257 102t93 264t-93 264t-257 102t-257 -102t-93 -264t93 -264t257 -102zM400 152q-82 0 -122 54.5t-40 147.5q0 92 41 147t121 55q82 0 122 -54.5t40 -147.5t-40 -147.5t-122 -54.5z" />
    <glyph glyph-name="P" unicode="P" horiz-adv-x="674" 
d="M392 720q136 0 204 -67.5t68 -190.5q0 -119 -78.5 -185.5t-215.5 -66.5h-92v-210h-184v550h-74v152q52 12 116 12q68 0 102 -31q70 37 154 37zM370 370q108 0 108 92q0 94 -118 94q-44 0 -82 -7v-179h92z" />
    <glyph glyph-name="Q" unicode="Q" horiz-adv-x="800" 
d="M564 18q14 -30 36.5 -42t65.5 -12q34 0 82 12l-12 -142q-49 -14 -108 -14q-86 0 -137.5 30t-92.5 117l-10 21q-159 4 -248.5 105.5t-89.5 260.5q0 162 93 264t257 102t257 -102t93 -264q0 -115 -48.5 -203t-139.5 -130zM238 354q0 -93 40 -147.5t122 -54.5t122 54.5
t40 147.5t-40 147.5t-122 54.5q-80 0 -121 -55t-41 -147z" />
    <glyph glyph-name="R" unicode="R" horiz-adv-x="716" 
d="M607 182q13 -18 30.5 -22.5t68.5 -4.5l-12 -158q-30 -6 -75 -6q-59 0 -88.5 16t-59.5 63l-96 152h-97v-222h-184v550h-74v152q52 12 116 12q67 0 101 -30q65 36 155 36q131 0 202.5 -65.5t71.5 -178.5q0 -73 -28.5 -130t-82.5 -89zM278 549v-167h82q62 0 91 19t29 61
q0 94 -110 94q-45 0 -92 -7z" />
    <glyph glyph-name="S" unicode="S" horiz-adv-x="650" 
d="M224 508q0 28 23.5 44t66.5 16q44 0 68 -14t30 -54l184 28q-13 192 -282 192q-274 0 -274 -218q0 -79 40 -126.5t96.5 -64.5t113 -27t96.5 -28t40 -54q0 -27 -27 -39.5t-89 -12.5q-131 0 -240 62l-20 -164q107 -60 260 -60q300 0 300 228q0 60 -21.5 101.5t-55.5 61.5
t-75 32t-82 18t-75 13t-55.5 23t-21.5 43z" />
    <glyph glyph-name="T" unicode="T" horiz-adv-x="564" 
d="M564 710v-160h-190v-550h-184v550h-190v152q88 8 160 8h404z" />
    <glyph glyph-name="U" unicode="U" horiz-adv-x="774" 
d="M700 710h-184v-414q0 -76 -33.5 -112t-90.5 -36q-120 0 -120 152v292q0 120 -134 120q-72 0 -124 -8v-154h74v-266q0 -146 77 -221t227 -75q144 0 226 82t82 216v424z" />
    <glyph glyph-name="V" unicode="V" horiz-adv-x="724" 
d="M540 726l194 -24l-272 -702h-192l-216 550h-74v152q67 14 124 14q99 0 130 -88l133 -368z" />
    <glyph glyph-name="W" unicode="W" horiz-adv-x="1034" 
d="M833 726l206 -24l-205 -702h-180l-118 420l-118 -420h-180l-179 550h-74v154q60 12 144 12q100 0 119 -80l86 -349l114 423h176l112 -416z" />
    <glyph glyph-name="X" unicode="X" horiz-adv-x="703" 
d="M460 364l168 -201q24 -8 70 -8l-2 -156q-35 -7 -81 -7q-59 0 -87.5 21.5t-83.5 96.5l-94 127l-140 -237h-204l230 364l-151 186h-80v152q56 12 112 12q75 0 129 -74l104 -141l148 227l200 -24z" />
    <glyph glyph-name="Y" unicode="Y" horiz-adv-x="666" 
d="M488 726l188 -24l-264 -442v-260h-184v260l-174 290h-74v154q42 12 112 12q84 0 112 -52l118 -228z" />
    <glyph glyph-name="Z" unicode="Z" horiz-adv-x="620" 
d="M600 580l-320 -420h318v-160h-549l-9 130l318 420h-304v152q90 8 175 8h362z" />
    <glyph glyph-name="bracketleft" unicode="[" horiz-adv-x="420" 
d="M380 670h-140v-710h140v-140h-300v990h300v-140z" />
    <glyph glyph-name="backslash" unicode="\" horiz-adv-x="490" 
d="M170 810h-170l320 -990h170z" />
    <glyph glyph-name="bracketright" unicode="]" horiz-adv-x="420" 
d="M340 810v-990h-300v140h140v710h-140v140h300z" />
    <glyph glyph-name="underscore" unicode="_" horiz-adv-x="460" 
d="M420 0h-380v-140h380v140z" />
    <glyph glyph-name="grave" unicode="`" horiz-adv-x="424" 
d="M256 716l-176 -14l108 -152h156z" />
    <glyph glyph-name="a" unicode="a" horiz-adv-x="584" 
d="M508 139q27 -6 56 -6l-2 -135q-38 -7 -81 -7q-85 0 -119 50q-58 -53 -158 -53q-81 0 -125.5 40t-44.5 110q0 71 57 111.5t167 40.5q43 0 76 -6v16q0 60 -64 60q-55 0 -62 -40l-160 28q15 69 63.5 105.5t160.5 36.5q120 0 178 -46.5t58 -145.5v-159zM252 110q35 0 58.5 19
t23.5 61v2q-28 4 -62 4q-68 0 -68 -46q0 -40 48 -40z" />
    <glyph glyph-name="b" unicode="b" horiz-adv-x="610" 
d="M360 490q95 0 152.5 -62t57.5 -182t-70.5 -189t-217.5 -69q-138 0 -232 50v672h180v-263q49 43 130 43zM296 136q92 0 92 106q0 49 -21 74.5t-57 25.5q-38 0 -59 -22t-21 -60v-108q24 -16 66 -16z" />
    <glyph glyph-name="c" unicode="c" horiz-adv-x="556" 
d="M474 180q-73 -42 -160 -42q-92 0 -92 108q0 96 70 96q54 0 58 -72l162 20q0 39 -10.5 72.5t-34 63t-68 47t-105.5 17.5q-123 0 -188.5 -66.5t-65.5 -177.5q0 -258 266 -258q134 0 212 54z" />
    <glyph glyph-name="d" unicode="d" horiz-adv-x="626" 
d="M560 139q27 -6 56 -6l-2 -135q-40 -8 -74 -8q-91 0 -130 69q-64 -71 -162 -71q-90 0 -149 64t-59 182q0 119 65 187.5t173 68.5q58 0 102 -13v233h180v-571zM290 136q38 0 64 27.5t26 78.5v79q-33 21 -76 21q-84 0 -84 -108q0 -98 70 -98z" />
    <glyph glyph-name="e" unicode="e" horiz-adv-x="566" 
d="M222 200q15 -66 98 -66q94 0 152 40l46 -130q-18 -18 -76.5 -37t-131.5 -19q-134 0 -202 69.5t-68 190.5q0 107 67.5 174.5t179.5 67.5q114 0 176.5 -66.5t62.5 -176.5v-47h-304zM285 355q-28 0 -43.5 -15.5t-20.5 -50.5h125q-6 66 -61 66z" />
    <glyph glyph-name="f" unicode="f" horiz-adv-x="394" 
d="M314 564q-54 0 -54 -60v-24h120v-146h-120v-334h-180v334h-80v146h80v50q0 190 180 190q70 0 134 -23l-8 -149q-43 16 -72 16z" />
    <glyph glyph-name="g" unicode="g" horiz-adv-x="562" 
d="M392 139q81 0 120.5 -39.5t39.5 -111.5q0 -75 -68 -126.5t-202 -51.5q-252 0 -252 128q0 63 45 103q-26 28 -26 72q0 58 65 111q-54 39 -54 110t58 113t162 42q35 0 59 -4q37 106 173 109l18 -138q-48 -2 -69 -23q38 -38 38 -97q0 -73 -57 -113t-162 -40q-38 0 -65 4
q-14 -11 -14 -26q0 -22 30 -22h161zM280 382q-23 0 -36.5 -14t-13.5 -39t13.5 -39t36.5 -14t36 14t13 39t-13 39t-36 14zM284 -70q106 0 106 44q0 32 -43 32h-154q-11 -14 -11 -34q0 -42 102 -42z" />
    <glyph glyph-name="h" unicode="h" horiz-adv-x="622" 
d="M546 141q24 -6 56 -6l-2 -136q-36 -9 -96 -9q-72 0 -105 26.5t-33 101.5v132q0 47 -16.5 65.5t-47.5 18.5q-32 0 -52 -22t-20 -60v-252h-180v710h180v-271q56 51 138 51q178 0 178 -208v-141z" />
    <glyph glyph-name="i" unicode="i" horiz-adv-x="296" 
d="M130 524q49 0 78.5 28t29.5 76t-29.5 76t-78.5 28q-48 0 -78 -28.5t-30 -75.5t30 -75.5t78 -28.5zM220 141v339h-180v-384q0 -61 27.5 -83.5t96.5 -22.5q71 0 110 9l2 136q-32 0 -56 6z" />
    <glyph glyph-name="j" unicode="j" horiz-adv-x="326" 
d="M176 524q49 0 78.5 28t29.5 76t-29.5 76t-78.5 28q-48 0 -78 -28.5t-30 -75.5t30 -75.5t78 -28.5zM266 480h-180v-460q0 -31 -12.5 -42.5t-37.5 -11.5q-28 0 -52 12l-4 -154q28 -14 94 -14q92 0 142 44t50 156v470z" />
    <glyph glyph-name="k" unicode="k" horiz-adv-x="567" 
d="M484 137q27 -12 76 -12l-2 -126q-29 -9 -80 -9q-45 0 -71.5 13t-46.5 41l-95 135l-35 -37v-142h-180v710h180v-358l126 138l202 -10l-184 -189z" />
    <glyph glyph-name="l" unicode="l" horiz-adv-x="308" 
d="M50 710v-584q0 -82 33.5 -109t110.5 -27q55 0 102 9l2 136q-44 0 -68 6v569h-180z" />
    <glyph glyph-name="m" unicode="m" horiz-adv-x="926" 
d="M850 141q24 -6 56 -6l-2 -136q-36 -9 -88 -9q-74 0 -110 28t-36 108v132q0 41 -13 58.5t-43 17.5q-28 0 -46 -19t-18 -57v-258h-180v258q0 41 -13 58.5t-43 17.5q-28 0 -46 -19t-18 -57v-258h-180v335q-22 5 -50 5l2 136q56 14 84 14q87 0 123 -73q58 73 145 73
q107 0 150 -81q57 81 150 81q87 0 131.5 -54t44.5 -154v-141z" />
    <glyph glyph-name="n" unicode="n" horiz-adv-x="642" 
d="M566 141q24 -6 56 -6l-2 -136q-36 -9 -96 -9q-72 0 -105 26.5t-33 101.5v132q0 47 -16.5 65.5t-47.5 18.5q-32 0 -52 -22t-20 -60v-252h-180v335q-22 5 -50 5l2 136q56 14 84 14q92 0 126 -70q58 70 156 70q178 0 178 -208v-141z" />
    <glyph glyph-name="o" unicode="o" 
d="M40 238q0 -119 70.5 -184.5t191.5 -65.5t191.5 65.5t70.5 184.5t-70.5 185.5t-191.5 66.5q-122 0 -192 -66t-70 -186zM222 238q0 104 80 104t80 -104q0 -102 -80 -102t-80 102z" />
    <glyph glyph-name="p" unicode="p" horiz-adv-x="630" 
d="M378 490q94 0 153 -62.5t59 -173.5q0 -133 -73 -199.5t-205 -66.5q-30 0 -62 5v-173h-180v515q-22 5 -50 5l2 136q35 14 82 14q77 0 118 -71q51 71 156 71zM302 136q53 0 79.5 24t26.5 84q0 52 -23.5 75t-56.5 23t-55.5 -19t-22.5 -63v-118q24 -6 52 -6z" />
    <glyph glyph-name="q" unicode="q" 
d="M312 490q55 0 108 -13.5t75 -23.5t59 -29v-604h-180v207q-54 -39 -126 -39q-92 0 -150 59.5t-58 180.5q0 130 70.5 196t201.5 66zM288 136q37 0 61.5 26.5t24.5 55.5v106q-30 18 -70 18q-84 0 -84 -110q0 -96 68 -96z" />
    <glyph glyph-name="r" unicode="r" horiz-adv-x="399" 
d="M338 490q38 0 54 -8l-10 -166q-20 8 -50 8q-82 0 -82 -118v-206h-180v335q-22 5 -50 5l2 136q39 14 82 14q78 0 118 -74q42 74 116 74z" />
    <glyph glyph-name="s" unicode="s" horiz-adv-x="540" 
d="M256 490q-108 0 -162 -41.5t-54 -116.5q0 -51 28.5 -84t69.5 -45.5t82 -19.5t69.5 -14t28.5 -21q0 -12 -12 -18t-46 -6q-56 0 -109.5 16.5t-84.5 34.5l-22 -137q86 -50 222 -50q119 0 176.5 40.5t57.5 113.5q0 56 -29 90.5t-70.5 46.5t-83 18t-70.5 15t-29 28q0 30 44 30
q27 0 39.5 -9.5t16.5 -34.5l172 20q-6 144 -234 144z" />
    <glyph glyph-name="t" unicode="t" horiz-adv-x="390" 
d="M390 334h-120v-148q0 -22 8.5 -32t31.5 -10q32 0 62 10l10 -150q-59 -16 -138 -16q-84 0 -119 37t-35 131v178h-90v146h90v140h180v-140h120v-146z" />
    <glyph glyph-name="u" unicode="u" horiz-adv-x="638" 
d="M562 139q24 -6 56 -6l-2 -135q-32 -8 -78 -8q-91 0 -129 71q-55 -73 -167 -73q-85 0 -128.5 44.5t-43.5 161.5v141q-20 5 -50 5l2 136q28 10 90 10q31 0 52.5 -4.5t42.5 -17t32 -39t11 -66.5v-135q0 -80 56 -80q37 0 56.5 24t19.5 82v230h180v-341z" />
    <glyph glyph-name="v" unicode="v" horiz-adv-x="554" 
d="M374 490l174 -14l-200 -476h-152l-145 334q-22 5 -53 5l5 136q39 14 75 14q50 0 77 -19.5t45 -68.5l72 -200z" />
    <glyph glyph-name="w" unicode="w" horiz-adv-x="765" 
d="M576 490l178 -14l-156 -476h-140l-78 241l-78 -241h-140l-111 334q-24 5 -53 5l5 136q34 14 89 14q43 0 65.5 -15.5t35.5 -61.5l49 -174l74 242h128l72 -236z" />
    <glyph glyph-name="x" unicode="x" horiz-adv-x="564" 
d="M388 240l86 -109q22 -6 70 -6l-2 -126q-22 -9 -85 -9q-50 0 -73.5 9t-39.5 33l-66 100l-86 -132h-180l158 223l-98 110q-27 6 -62 6l5 136q36 14 85 14q34 0 54 -8.5t38 -30.5l86 -105l98 145l178 -14z" />
    <glyph glyph-name="y" unicode="y" horiz-adv-x="580" 
d="M394 490l180 -14l-230 -526q-35 -79 -88.5 -109.5t-131.5 -30.5q-54 0 -78 8l-14 150q43 -10 78 -10q71 0 99 58l-145 318q-25 5 -56 5l5 136q34 14 87 14q87 0 114 -69l77 -194z" />
    <glyph glyph-name="z" unicode="z" horiz-adv-x="458" 
d="M438 346l-199 -206h199v-140h-408l-10 134l199 206h-184v140h393z" />
    <glyph glyph-name="braceleft" unicode="{" horiz-adv-x="444" 
d="M334 680q-56 0 -56 -56q0 -22 36 -90.5t36 -115.5q0 -37 -18 -61.5t-64 -41.5q46 -17 64 -41.5t18 -61.5q0 -47 -36 -115.5t-36 -90.5q0 -50 56 -50h70v-136h-146q-64 0 -99 34.5t-35 91.5q0 46 36 130.5t36 117.5q0 49 -76 49h-40v144h40q76 0 76 49q0 33 -36 117.5
t-36 130.5q0 57 35 91.5t99 34.5h146v-130h-70z" />
    <glyph glyph-name="bar" unicode="|" horiz-adv-x="340" 
d="M80 810v-990h180v990h-180z" />
    <glyph glyph-name="braceright" unicode="}" horiz-adv-x="444" 
d="M324 387h40v-144h-40q-76 0 -76 -49q0 -33 36 -117.5t36 -130.5q0 -57 -35 -91.5t-99 -34.5h-146v136h70q56 0 56 50q0 22 -36 90.5t-36 115.5q0 37 18 61.5t64 41.5q-46 17 -64 41.5t-18 61.5q0 47 36 115.5t36 90.5q0 56 -56 56h-70v130h146q64 0 99 -34.5t35 -91.5
q0 -46 -36 -130.5t-36 -117.5q0 -49 76 -49z" />
    <glyph glyph-name="asciitilde" unicode="~" horiz-adv-x="592" 
d="M532 408q-8 -178 -126 -178q-41 0 -100.5 15t-77.5 15q-35 0 -44 -54l-124 20q8 178 126 178q41 0 100.5 -15t77.5 -15q20 0 30 11.5t14 42.5z" />
    <glyph glyph-name="exclamdown" unicode="&#xa1;" horiz-adv-x="272" 
d="M136 328q42 0 69 27t27 69t-27 69t-69 27t-69 -27t-27 -69t27 -69t69 -27zM46 -180h180l-10 422h-160z" />
    <glyph glyph-name="cent" unicode="&#xa2;" horiz-adv-x="578" 
d="M528 158q-61 -43 -162 -52l-2 -106h-144l3 113q-173 41 -173 255q0 98 46.5 161.5t137.5 81.5l2 109h144l-2 -110q76 -18 110 -71t34 -121l-162 -20q-4 72 -58 72q-70 0 -70 -102q0 -62 22 -87t74 -25q87 0 156 40z" />
    <glyph glyph-name="sterling" unicode="&#xa3;" horiz-adv-x="590" 
d="M304 234v-84h220v-150h-474v150h70v84h-70v150h70v98q0 113 66 175.5t190 62.5q103 0 164 -44l-44 -158q-52 38 -104 38q-41 0 -64.5 -25.5t-23.5 -66.5v-80h146v-150h-146z" />
    <glyph glyph-name="currency" unicode="&#xa4;" horiz-adv-x="728" 
d="M612 358q0 -78 -32 -134l98 -105l-102 -102l-103 110q-48 -22 -109 -22t-109 22l-103 -110l-102 102l98 105q-32 56 -32 134q0 75 32 136l-98 105l102 102l103 -110q48 22 109 22q57 0 109 -22l103 110l102 -102l-99 -105q33 -60 33 -136zM364 250q45 0 71.5 27t26.5 81
q0 55 -26.5 82.5t-71.5 27.5t-71.5 -27.5t-26.5 -82.5q0 -54 26.5 -81t71.5 -27z" />
    <glyph glyph-name="yen" unicode="&#xa5;" horiz-adv-x="736" 
d="M676 710l-204 -340h128v-110h-140v-36h140v-110h-140v-114h-184v114h-140v110h140v36h-140v110h128l-204 340h184l124 -222l124 222h184z" />
    <glyph glyph-name="brokenbar" unicode="&#xa6;" horiz-adv-x="340" 
d="M80 810v-400h180v400h-180zM80 220v-400h180v400h-180z" />
    <glyph glyph-name="section" unicode="&#xa7;" horiz-adv-x="668" 
d="M524 142q64 -42 64 -132q0 -101 -65 -141.5t-195 -40.5q-82 0 -147 20t-94 42l14 152q33 -26 96 -50t127 -24q52 0 73 7.5t21 28.5q0 20 -25 33t-62.5 20t-81.5 20.5t-81.5 32t-62.5 57t-25 93.5q0 95 85 148q-81 48 -81 144q0 84 60 136t188 52q115 0 175 -36t73 -114
l-164 -34q-16 44 -76 44q-76 0 -76 -50q0 -22 24 -38t59.5 -26t77.5 -27t77.5 -37t59.5 -59t24 -91q0 -83 -62 -130zM256 280q0 -37 28 -55t83 -32q49 23 49 67q0 36 -28 56t-83 37q-49 -21 -49 -73z" />
    <glyph glyph-name="dieresis" unicode="&#xa8;" horiz-adv-x="608" 
d="M180 528q45 0 72.5 27.5t27.5 72.5t-27.5 72.5t-72.5 27.5t-72.5 -27.5t-27.5 -72.5t27.5 -72.5t72.5 -27.5zM428 528q45 0 72.5 27.5t27.5 72.5t-27.5 72.5t-72.5 27.5t-72.5 -27.5t-27.5 -72.5t27.5 -72.5t72.5 -27.5z" />
    <glyph glyph-name="copyright" unicode="&#xa9;" horiz-adv-x="1070" 
d="M50 328q0 -228 133 -355.5t352 -127.5t352 127.5t133 355.5t-132.5 355.5t-352.5 127.5t-352.5 -127.5t-132.5 -355.5zM190 328q0 179 92.5 269t252.5 90t252.5 -90t92.5 -269t-92.5 -269t-252.5 -90t-252.5 90t-92.5 269zM715 269q-73 -42 -160 -42q-92 0 -92 108
q0 96 70 96q54 0 58 -72l162 20q0 39 -10.5 72.5t-34 63t-68 47t-105.5 17.5q-123 0 -188.5 -66.5t-65.5 -177.5q0 -258 266 -258q134 0 212 54z" />
    <glyph glyph-name="ordfeminine" unicode="&#xaa;" horiz-adv-x="418" 
d="M362 462q11 -6 36 -6l-1 -80q-24 -6 -48 -6q-65 0 -86 38q-41 -39 -107 -39q-57 0 -86.5 27t-29.5 76q0 111 150 111q37 0 62 -5v10q0 48 -52 48q-44 0 -51 -35l-103 17q14 102 155 102q161 0 161 -134v-124zM187 444q26 0 45.5 15.5t19.5 48.5v6q-25 5 -46 5
q-60 0 -60 -39q0 -36 41 -36z" />
    <glyph glyph-name="guillemotleft" unicode="&#xab;" horiz-adv-x="568" 
d="M284 380l-97 -97l97 -97l-88 -90l-166 174v26l166 174zM508 380l-97 -97l97 -97l-88 -90l-166 174v26l166 174z" />
    <glyph glyph-name="registered" unicode="&#xae;" horiz-adv-x="560" 
d="M280 728q95 0 152.5 -53.5t57.5 -150.5t-57.5 -150.5t-152.5 -53.5t-152.5 53.5t-57.5 150.5t57.5 150.5t152.5 53.5zM280 358q77 0 121.5 41t44.5 125t-44.5 125t-121.5 41t-121.5 -41t-44.5 -125t44.5 -125t121.5 -41zM364 476q9 -14 31 -14v-52q-16 -4 -39 -4
q-34 0 -48 24l-30 54h-15v-75h-80v175h-18v56h130q95 0 95 -78q0 -49 -38 -67zM263 584v-44h19q24 0 24 22t-24 22h-19z" />
    <glyph glyph-name="macron" unicode="&#xaf;" horiz-adv-x="480" 
d="M80 698v-140h320v140h-320z" />
    <glyph glyph-name="degree" unicode="&#xb0;" horiz-adv-x="398" 
d="M199 464q63 0 101 37t38 97t-38 97t-101 37t-101 -37t-38 -97t38 -97t101 -37zM199 558q-17 0 -27.5 11t-10.5 29t10.5 29t27.5 11t27.5 -11t10.5 -29t-10.5 -29t-27.5 -11z" />
    <glyph glyph-name="plusminus" unicode="&#xb1;" horiz-adv-x="560" 
d="M188 165v136h-128v146h128v136h160v-136h128v-146h-128v-136h-160zM60 150h440v-150h-440v150z" />
    <glyph glyph-name="acute" unicode="&#xb4;" horiz-adv-x="424" 
d="M168 716l-88 -166h156l108 152z" />
    <glyph glyph-name="paragraph" unicode="&#xb6;" horiz-adv-x="763" 
d="M385 236v399q0 47 -17.5 66t-67.5 19q-103 0 -166.5 -63.5t-63.5 -178.5q0 -117 69.5 -179.5t197.5 -62.5h48zM589 720q-134 0 -134 -120v-700h184v658h74v154q-52 8 -124 8z" />
    <glyph glyph-name="periodcentered" unicode="&#xb7;" horiz-adv-x="272" 
d="M136 215q42 0 69 27t27 69t-27 69t-69 27t-69 -27t-27 -69t27 -69t69 -27z" />
    <glyph glyph-name="cedilla" unicode="&#xb8;" horiz-adv-x="378" 
d="M222 -30l10 58h-112l-20 -108q64 0 64 -18q0 -22 -70 -22l-14 -76q124 0 171 25.5t47 78.5q0 62 -76 62z" />
    <glyph glyph-name="ordmasculine" unicode="&#xba;" horiz-adv-x="444" 
d="M41 544q0 -82 52 -128.5t138 -46.5t138 46.5t52 128.5q0 83 -52 129.5t-138 46.5t-138 -46t-52 -130zM171 544q0 76 60 76q29 0 44.5 -20.5t15.5 -55.5q0 -75 -60 -75t-60 75z" />
    <glyph glyph-name="guillemotright" unicode="&#xbb;" horiz-adv-x="568" 
d="M314 296v-26l-166 -174l-88 90l97 97l-97 97l88 90zM372 470l166 -174v-26l-166 -174l-88 90l97 97l-97 97z" />
    <glyph glyph-name="onequarter" unicode="&#xbc;" horiz-adv-x="1034" 
d="M720 720l150 -6l-514 -726l-150 6zM126 432h85v162q-43 -18 -111 -35l-20 100q85 27 131 57h118v-284h69v-98h-272v98zM908 182h66v-93h-66v-89h-116v89h-164l-25 81l189 212h116v-200zM721 182h71v81z" />
    <glyph glyph-name="onehalf" unicode="&#xbd;" horiz-adv-x="1057" 
d="M720 720l150 -6l-514 -726l-150 6zM126 432h85v162q-43 -18 -111 -35l-20 100q85 27 131 57h118v-284h69v-98h-272v98zM803 98h185v-98h-328v64q0 34 20 60t48 41.5t56 29t48 28.5t20 33q0 32 -36 32q-38 0 -44 -28l-122 20q14 59 52.5 83.5t117.5 24.5q83 0 122.5 -29.5
t39.5 -100.5q0 -30 -12.5 -54t-35.5 -40.5t-43.5 -27t-48.5 -21.5t-39 -17z" />
    <glyph glyph-name="threequarters" unicode="&#xbe;" horiz-adv-x="1034" 
d="M388 443q0 -51 -41 -84t-114 -33q-58 0 -100 22.5t-53 67.5l94 29q14 -30 56 -30q54 0 54 36q0 38 -57 38h-35v85h34q44 0 44 32q0 11 -10 20t-31 9q-36 0 -46 -22l-100 21q11 48 48 67t99 19q142 0 142 -104q0 -58 -53 -81q35 -12 52 -33.5t17 -58.5zM720 720l150 -6
l-514 -726l-150 6zM908 182h66v-93h-66v-89h-116v89h-164l-25 81l189 212h116v-200zM721 182h71v81z" />
    <glyph glyph-name="questiondown" unicode="&#xbf;" horiz-adv-x="540" 
d="M300 328q42 0 69 27t27 69t-27 69t-69 27t-69 -27t-27 -69t27 -69t69 -27zM520 -42l-131 43q-8 -25 -33 -42t-56 -17q-70 0 -70 62q0 16 4 30.5t15 28.5t19.5 24t27.5 24t29 21t34 22.5t33 21.5l-16 92h-152l-8 -44q-2 -2 -30.5 -24.5t-37 -30.5t-31 -32.5t-31 -43.5
t-17.5 -49t-9 -62q0 -84 58 -128t168 -44q54 0 99 12t84 46.5t51 89.5z" />
    <glyph glyph-name="Agrave" unicode="&#xc0;" horiz-adv-x="768" 
d="M454 742l-162 -10l-106 114l206 26zM686 164q27 -9 72 -9l-2 -156q-33 -7 -84 -7q-65 0 -96.5 17t-49.5 67l-22 63h-253l-47 -139h-194l263 702l186 24zM302 289h148l-76 213z" />
    <glyph glyph-name="Aacute" unicode="&#xc1;" horiz-adv-x="768" 
d="M552 846l-106 -114l-162 10l62 130zM686 164q27 -9 72 -9l-2 -156q-33 -7 -84 -7q-65 0 -96.5 17t-49.5 67l-22 63h-253l-47 -139h-194l263 702l186 24zM302 289h148l-76 213z" />
    <glyph glyph-name="Acircumflex" unicode="&#xc2;" horiz-adv-x="768" 
d="M382 781l-37 -51l-128 18l82 106h166l82 -106l-128 -18zM686 164q27 -9 72 -9l-2 -156q-33 -7 -84 -7q-65 0 -96.5 17t-49.5 67l-22 63h-253l-47 -139h-194l263 702l186 24zM302 289h148l-76 213z" />
    <glyph glyph-name="Atilde" unicode="&#xc3;" horiz-adv-x="768" 
d="M326 764q-25 0 -28 -36l-92 10q8 130 98 130q29 0 65.5 -16t48.5 -16q25 0 28 36l92 -10q-8 -130 -98 -130q-29 0 -65.5 16t-48.5 16zM686 164q27 -9 72 -9l-2 -156q-33 -7 -84 -7q-65 0 -96.5 17t-49.5 67l-22 63h-253l-47 -139h-194l263 702l186 24zM302 289h148
l-76 213z" />
    <glyph glyph-name="Adieresis" unicode="&#xc4;" horiz-adv-x="768" 
d="M255 732q-38 0 -60 22.5t-22 59.5t22 59.5t60 22.5t60 -22.5t22 -59.5t-22 -59.5t-60 -22.5zM489 732q-38 0 -60 22.5t-22 59.5t22 59.5t60 22.5t60 -22.5t22 -59.5t-22 -59.5t-60 -22.5zM686 164q27 -9 72 -9l-2 -156q-33 -7 -84 -7q-65 0 -96.5 17t-49.5 67l-22 63
h-253l-47 -139h-194l263 702l186 24zM302 289h148l-76 213z" />
    <glyph glyph-name="Aring" unicode="&#xc5;" horiz-adv-x="768" 
d="M372 720q-53 0 -81.5 25t-28.5 69t28.5 69t81.5 25t81.5 -25t28.5 -69t-28.5 -69t-81.5 -25zM372 836q-20 0 -20 -22t20 -22t20 22t-20 22zM686 164q27 -9 72 -9l-2 -156q-33 -7 -84 -7q-65 0 -96.5 17t-49.5 67l-22 63h-253l-47 -139h-194l263 702l186 24zM302 289h148
l-76 213z" />
    <glyph glyph-name="AE" unicode="&#xc6;" horiz-adv-x="1012" 
d="M726 268v-104h266v-164h-450v268h-215l-117 -268h-194l326 710h650l-10 -164h-256v-128h226v-150h-226zM392 418h150v128h-94z" />
    <glyph glyph-name="Ccedilla" unicode="&#xc7;" horiz-adv-x="710" 
d="M670 46q-85 -54 -241 -58l-3 -18q76 0 76 -62q0 -53 -47 -78.5t-171 -25.5l14 76q70 0 70 22q0 18 -64 18l14 75q-130 23 -199 114.5t-69 240.5q0 181 88 275.5t243 94.5q146 0 222.5 -65t76.5 -181l-188 -28q-9 114 -112 114q-64 0 -101 -48.5t-37 -148.5q0 -99 51 -149
t147 -50q93 0 186 50z" />
    <glyph glyph-name="Egrave" unicode="&#xc8;" horiz-adv-x="590" 
d="M404 742l-162 -10l-106 114l206 26zM264 268v-104h306v-164h-490v710h490l-10 -164h-296v-128h266v-150h-266z" />
    <glyph glyph-name="Eacute" unicode="&#xc9;" horiz-adv-x="590" 
d="M502 846l-106 -114l-162 10l62 130zM264 268v-104h306v-164h-490v710h490l-10 -164h-296v-128h266v-150h-266z" />
    <glyph glyph-name="Ecircumflex" unicode="&#xca;" horiz-adv-x="590" 
d="M332 781l-37 -51l-128 18l82 106h166l82 -106l-128 -18zM264 268v-104h306v-164h-490v710h490l-10 -164h-296v-128h266v-150h-266z" />
    <glyph glyph-name="Edieresis" unicode="&#xcb;" horiz-adv-x="590" 
d="M205 732q-38 0 -60 22.5t-22 59.5t22 59.5t60 22.5t60 -22.5t22 -59.5t-22 -59.5t-60 -22.5zM439 732q-38 0 -60 22.5t-22 59.5t22 59.5t60 22.5t60 -22.5t22 -59.5t-22 -59.5t-60 -22.5zM264 268v-104h306v-164h-490v710h490l-10 -164h-296v-128h266v-150h-266z" />
    <glyph glyph-name="Igrave" unicode="&#xcc;" horiz-adv-x="344" 
d="M192 872l-206 -26l106 -114l162 10zM80 710v-710h184v710h-184z" />
    <glyph glyph-name="Iacute" unicode="&#xcd;" horiz-adv-x="344" 
d="M146 872l-62 -130l162 -10l106 114zM80 710v-710h184v710h-184z" />
    <glyph glyph-name="Icircumflex" unicode="&#xce;" horiz-adv-x="344" 
d="M182 781l-37 -51l-128 18l82 106h166l82 -106l-128 -18zM80 0v710h184v-710h-184z" />
    <glyph glyph-name="Idieresis" unicode="&#xcf;" horiz-adv-x="344" 
d="M55 732q38 0 60 22.5t22 59.5t-22 59.5t-60 22.5t-60 -22.5t-22 -59.5t22 -59.5t60 -22.5zM289 732q38 0 60 22.5t22 59.5t-22 59.5t-60 22.5t-60 -22.5t-22 -59.5t22 -59.5t60 -22.5zM80 710v-710h184v710h-184z" />
    <glyph glyph-name="Eth" unicode="&#xd0;" horiz-adv-x="764" 
d="M386 720q149 0 238.5 -93t89.5 -263q0 -179 -109 -271.5t-295 -92.5h-216v280h-74v140h74v130h-74v152q52 12 116 12q69 0 101 -31q68 37 149 37zM310 168q108 0 163 46t55 148q0 94 -44 143t-130 49q-36 0 -76 -7v-127h102v-140h-102v-112h32z" />
    <glyph glyph-name="Ntilde" unicode="&#xd1;" horiz-adv-x="818" 
d="M374 764q-25 0 -28 -36l-92 10q8 130 98 130q29 0 65.5 -16t48.5 -16q25 0 28 36l92 -10q-8 -130 -98 -130q-29 0 -65.5 16t-48.5 16zM554 710h184v-710h-178l-296 402v-402h-184v702l176 24l298 -411v395z" />
    <glyph glyph-name="Ograve" unicode="&#xd2;" horiz-adv-x="800" 
d="M420 872l-206 -26l106 -114l162 10zM400 -12q164 0 257 102t93 264t-93 264t-257 102t-257 -102t-93 -264t93 -264t257 -102zM400 152q-82 0 -122 54.5t-40 147.5q0 92 41 147t121 55q82 0 122 -54.5t40 -147.5t-40 -147.5t-122 -54.5z" />
    <glyph glyph-name="Oacute" unicode="&#xd3;" horiz-adv-x="800" 
d="M374 872l-62 -130l162 -10l106 114zM400 -12q164 0 257 102t93 264t-93 264t-257 102t-257 -102t-93 -264t93 -264t257 -102zM400 152q-82 0 -122 54.5t-40 147.5q0 92 41 147t121 55q82 0 122 -54.5t40 -147.5t-40 -147.5t-122 -54.5z" />
    <glyph glyph-name="Ocircumflex" unicode="&#xd4;" horiz-adv-x="800" 
d="M410 781l-37 -51l-128 18l82 106h166l82 -106l-128 -18zM400 720q164 0 257 -102t93 -264t-93 -264t-257 -102t-257 102t-93 264t93 264t257 102zM400 152q82 0 122 54.5t40 147.5t-40 147.5t-122 54.5q-80 0 -121 -55t-41 -147q0 -93 40 -147.5t122 -54.5z" />
    <glyph glyph-name="Otilde" unicode="&#xd5;" horiz-adv-x="800" 
d="M566 862q-8 -130 -98 -130q-29 0 -65.5 16t-48.5 16q-25 0 -28 -36l-92 10q8 130 98 130q29 0 65.5 -16t48.5 -16q25 0 28 36zM400 -12q164 0 257 102t93 264t-93 264t-257 102t-257 -102t-93 -264t93 -264t257 -102zM400 152q-82 0 -122 54.5t-40 147.5q0 92 41 147
t121 55q82 0 122 -54.5t40 -147.5t-40 -147.5t-122 -54.5z" />
    <glyph glyph-name="Odieresis" unicode="&#xd6;" horiz-adv-x="800" 
d="M283 732q38 0 60 22.5t22 59.5t-22 59.5t-60 22.5t-60 -22.5t-22 -59.5t22 -59.5t60 -22.5zM517 732q38 0 60 22.5t22 59.5t-22 59.5t-60 22.5t-60 -22.5t-22 -59.5t22 -59.5t60 -22.5zM400 -12q164 0 257 102t93 264t-93 264t-257 102t-257 -102t-93 -264t93 -264
t257 -102zM400 152q-82 0 -122 54.5t-40 147.5q0 92 41 147t121 55q82 0 122 -54.5t40 -147.5t-40 -147.5t-122 -54.5z" />
    <glyph glyph-name="multiply" unicode="&#xd7;" horiz-adv-x="520" 
d="M460 430l-113 -113l113 -113l-87 -87l-113 113l-113 -113l-87 87l113 113l-113 113l87 87l113 -113l113 113z" />
    <glyph glyph-name="Oslash" unicode="&#xd8;" horiz-adv-x="800" 
d="M657 618q93 -99 93 -264q0 -162 -93 -264t-257 -102q-86 0 -156 31l-28 -41l-150 12l72 105q-88 100 -88 259q0 162 93 264t257 102q82 0 150 -28l34 50l150 -12zM238 354q0 -55 13 -95l200 290q-21 7 -51 7q-80 0 -121 -55t-41 -147zM400 152q82 0 122 54.5t40 147.5
q0 61 -16 103l-204 -296q26 -9 58 -9z" />
    <glyph glyph-name="Ugrave" unicode="&#xd9;" horiz-adv-x="774" 
d="M396 872l-206 -26l106 -114l162 10zM700 710h-184v-414q0 -76 -33.5 -112t-90.5 -36q-120 0 -120 152v292q0 120 -134 120q-72 0 -124 -8v-154h74v-266q0 -146 77 -221t227 -75q144 0 226 82t82 216v424z" />
    <glyph glyph-name="Uacute" unicode="&#xda;" horiz-adv-x="774" 
d="M350 872l-62 -130l162 -10l106 114zM700 710h-184v-414q0 -76 -33.5 -112t-90.5 -36q-120 0 -120 152v292q0 120 -134 120q-72 0 -124 -8v-154h74v-266q0 -146 77 -221t227 -75q144 0 226 82t82 216v424z" />
    <glyph glyph-name="Ucircumflex" unicode="&#xdb;" horiz-adv-x="774" 
d="M386 781l-37 -51l-128 18l82 106h166l82 -106l-128 -18zM516 710h184v-424q0 -134 -82 -216t-226 -82q-150 0 -227 75t-77 221v266h-74v154q52 8 124 8q134 0 134 -120v-292q0 -152 120 -152q57 0 90.5 36t33.5 112v414z" />
    <glyph glyph-name="Udieresis" unicode="&#xdc;" horiz-adv-x="774" 
d="M259 732q38 0 60 22.5t22 59.5t-22 59.5t-60 22.5t-60 -22.5t-22 -59.5t22 -59.5t60 -22.5zM493 732q38 0 60 22.5t22 59.5t-22 59.5t-60 22.5t-60 -22.5t-22 -59.5t22 -59.5t60 -22.5zM700 710h-184v-414q0 -76 -33.5 -112t-90.5 -36q-120 0 -120 152v292
q0 120 -134 120q-72 0 -124 -8v-154h74v-266q0 -146 77 -221t227 -75q144 0 226 82t82 216v424z" />
    <glyph glyph-name="Yacute" unicode="&#xdd;" horiz-adv-x="666" 
d="M500 846l-106 -114l-162 10l62 130zM488 726l188 -24l-264 -442v-260h-184v260l-174 290h-74v154q42 12 112 12q84 0 112 -52l118 -228z" />
    <glyph glyph-name="Thorn" unicode="&#xde;" horiz-adv-x="660" 
d="M322 619q138 0 213 -66.5t75 -186.5t-75 -186.5t-213 -66.5h-58v-113h-184v710h184v-91h58zM316 273q53 0 80.5 24.5t27.5 68.5q0 43 -27.5 68t-80.5 25h-52v-186h52z" />
    <glyph glyph-name="germandbls" unicode="&#xdf;" horiz-adv-x="656" 
d="M452 350q0 -10 13.5 -18.5t34 -15t44.5 -19.5t44.5 -29.5t34 -47t13.5 -70.5q0 -78 -55 -120t-147 -42q-111 0 -164 32l6 152q54 -42 126 -42q50 0 50 30q0 16 -24.5 32.5t-53.5 29.5t-53.5 37.5t-24.5 54.5q0 36 32 97t32 99q0 29 -16 44.5t-44 15.5q-35 0 -52.5 -21
t-17.5 -72v-477h-180v472q0 248 242 248q120 0 183 -44t63 -124q0 -40 -13.5 -74t-29.5 -52.5t-29.5 -39t-13.5 -36.5z" />
    <glyph glyph-name="agrave" unicode="&#xe0;" horiz-adv-x="584" 
d="M350 550h-156l-108 152l176 14zM508 139q27 -6 56 -6l-2 -135q-38 -7 -81 -7q-85 0 -119 50q-58 -53 -158 -53q-81 0 -125.5 40t-44.5 110q0 71 57 111.5t167 40.5q43 0 76 -6v16q0 60 -64 60q-55 0 -62 -40l-160 28q15 69 63.5 105.5t160.5 36.5q120 0 178 -46.5
t58 -145.5v-159zM252 110q35 0 58.5 19t23.5 61v2q-28 4 -62 4q-68 0 -68 -46q0 -40 48 -40z" />
    <glyph glyph-name="aacute" unicode="&#xe1;" horiz-adv-x="584" 
d="M444 702l-108 -152h-156l88 166zM508 139q27 -6 56 -6l-2 -135q-38 -7 -81 -7q-85 0 -119 50q-58 -53 -158 -53q-81 0 -125.5 40t-44.5 110q0 71 57 111.5t167 40.5q43 0 76 -6v16q0 60 -64 60q-55 0 -62 -40l-160 28q15 69 63.5 105.5t160.5 36.5q120 0 178 -46.5
t58 -145.5v-159zM252 110q35 0 58.5 19t23.5 61v2q-28 4 -62 4q-68 0 -68 -46q0 -40 48 -40z" />
    <glyph glyph-name="acircumflex" unicode="&#xe2;" horiz-adv-x="584" 
d="M274 623l-47 -61l-140 2l124 160h126l124 -160l-140 -2zM508 139q27 -6 56 -6l-2 -135q-38 -7 -81 -7q-85 0 -119 50q-58 -53 -158 -53q-81 0 -125.5 40t-44.5 110q0 71 57 111.5t167 40.5q43 0 76 -6v16q0 60 -64 60q-55 0 -62 -40l-160 28q15 69 63.5 105.5t160.5 36.5
q120 0 178 -46.5t58 -145.5v-159zM252 110q35 0 58.5 19t23.5 61v2q-28 4 -62 4q-68 0 -68 -46q0 -40 48 -40z" />
    <glyph glyph-name="atilde" unicode="&#xe3;" horiz-adv-x="584" 
d="M196 600q-26 0 -32 -42l-104 12q3 67 34.5 108.5t85.5 41.5q37 0 86.5 -16t67.5 -16q29 0 34 42l104 -12q-2 -62 -34 -106t-86 -44q-43 0 -93 16t-63 16zM508 139q27 -6 56 -6l-2 -135q-38 -7 -81 -7q-85 0 -119 50q-58 -53 -158 -53q-81 0 -125.5 40t-44.5 110
q0 71 57 111.5t167 40.5q43 0 76 -6v16q0 60 -64 60q-55 0 -62 -40l-160 28q15 69 63.5 105.5t160.5 36.5q120 0 178 -46.5t58 -145.5v-159zM252 110q35 0 58.5 19t23.5 61v2q-28 4 -62 4q-68 0 -68 -46q0 -40 48 -40z" />
    <glyph glyph-name="adieresis" unicode="&#xe4;" horiz-adv-x="584" 
d="M150 528q-45 0 -72.5 27.5t-27.5 72.5t27.5 72.5t72.5 27.5t72.5 -27.5t27.5 -72.5t-27.5 -72.5t-72.5 -27.5zM398 528q-45 0 -72.5 27.5t-27.5 72.5t27.5 72.5t72.5 27.5t72.5 -27.5t27.5 -72.5t-27.5 -72.5t-72.5 -27.5zM508 139q27 -6 56 -6l-2 -135q-38 -7 -81 -7
q-85 0 -119 50q-58 -53 -158 -53q-81 0 -125.5 40t-44.5 110q0 71 57 111.5t167 40.5q43 0 76 -6v16q0 60 -64 60q-55 0 -62 -40l-160 28q15 69 63.5 105.5t160.5 36.5q120 0 178 -46.5t58 -145.5v-159zM252 110q35 0 58.5 19t23.5 61v2q-28 4 -62 4q-68 0 -68 -46
q0 -40 48 -40z" />
    <glyph glyph-name="aring" unicode="&#xe5;" horiz-adv-x="584" 
d="M274 534q-46 0 -77 27.5t-31 74.5t31 74.5t77 27.5t77 -27.5t31 -74.5t-31 -74.5t-77 -27.5zM274 670q-14 0 -24 -9t-10 -25t10 -25t24 -9t24 9t10 25t-10 25t-24 9zM508 139q27 -6 56 -6l-2 -135q-38 -7 -81 -7q-85 0 -119 50q-58 -53 -158 -53q-81 0 -125.5 40
t-44.5 110q0 71 57 111.5t167 40.5q43 0 76 -6v16q0 60 -64 60q-55 0 -62 -40l-160 28q15 69 63.5 105.5t160.5 36.5q120 0 178 -46.5t58 -145.5v-159zM252 110q35 0 58.5 19t23.5 61v2q-28 4 -62 4q-68 0 -68 -46q0 -40 48 -40z" />
    <glyph glyph-name="ae" unicode="&#xe6;" horiz-adv-x="864" 
d="M520 200q15 -66 98 -66q94 0 152 40l46 -130q-18 -18 -76.5 -37t-131.5 -19q-140 0 -210 78q-62 -78 -182 -78q-86 0 -131 40t-45 110q0 71 57 111.5t167 40.5q43 0 76 -6v16q0 60 -64 60q-55 0 -62 -40l-160 28q15 69 63.5 105.5t160.5 36.5q108 0 166 -37q59 37 141 37
q114 0 176.5 -66.5t62.5 -176.5v-47h-304zM583 355q-28 0 -43.5 -15.5t-20.5 -50.5h125q-6 66 -61 66zM258 110q35 0 58.5 19t23.5 61v2q-28 4 -62 4q-68 0 -68 -46q0 -40 48 -40z" />
    <glyph glyph-name="ccedilla" unicode="&#xe7;" horiz-adv-x="556" 
d="M338 -30q76 0 76 -62q0 -53 -47 -78.5t-171 -25.5l14 76q70 0 70 22q0 18 -64 18l14 74q-190 35 -190 252q0 111 65.5 177.5t188.5 66.5q61 0 105.5 -17.5t68 -47t34 -63t10.5 -72.5l-162 -20q-4 72 -58 72q-70 0 -70 -96q0 -108 92 -108q87 0 160 42l44 -138
q-66 -46 -177 -53z" />
    <glyph glyph-name="egrave" unicode="&#xe8;" horiz-adv-x="566" 
d="M370 550h-156l-108 152l176 14zM222 200q15 -66 98 -66q94 0 152 40l46 -130q-18 -18 -76.5 -37t-131.5 -19q-134 0 -202 69.5t-68 190.5q0 107 67.5 174.5t179.5 67.5q114 0 176.5 -66.5t62.5 -176.5v-47h-304zM285 355q-28 0 -43.5 -15.5t-20.5 -50.5h125q-6 66 -61 66
z" />
    <glyph glyph-name="eacute" unicode="&#xe9;" horiz-adv-x="566" 
d="M464 702l-108 -152h-156l88 166zM222 200q15 -66 98 -66q94 0 152 40l46 -130q-18 -18 -76.5 -37t-131.5 -19q-134 0 -202 69.5t-68 190.5q0 107 67.5 174.5t179.5 67.5q114 0 176.5 -66.5t62.5 -176.5v-47h-304zM285 355q-28 0 -43.5 -15.5t-20.5 -50.5h125
q-6 66 -61 66z" />
    <glyph glyph-name="ecircumflex" unicode="&#xea;" horiz-adv-x="566" 
d="M294 623l-47 -61l-140 2l124 160h126l124 -160l-140 -2zM222 200q15 -66 98 -66q94 0 152 40l46 -130q-18 -18 -76.5 -37t-131.5 -19q-134 0 -202 69.5t-68 190.5q0 107 67.5 174.5t179.5 67.5q114 0 176.5 -66.5t62.5 -176.5v-47h-304zM285 355q-28 0 -43.5 -15.5
t-20.5 -50.5h125q-6 66 -61 66z" />
    <glyph glyph-name="edieresis" unicode="&#xeb;" horiz-adv-x="566" 
d="M170 528q-45 0 -72.5 27.5t-27.5 72.5t27.5 72.5t72.5 27.5t72.5 -27.5t27.5 -72.5t-27.5 -72.5t-72.5 -27.5zM418 528q-45 0 -72.5 27.5t-27.5 72.5t27.5 72.5t72.5 27.5t72.5 -27.5t27.5 -72.5t-27.5 -72.5t-72.5 -27.5zM222 200q15 -66 98 -66q94 0 152 40l46 -130
q-18 -18 -76.5 -37t-131.5 -19q-134 0 -202 69.5t-68 190.5q0 107 67.5 174.5t179.5 67.5q114 0 176.5 -66.5t62.5 -176.5v-47h-304zM285 355q-28 0 -43.5 -15.5t-20.5 -50.5h125q-6 66 -61 66z" />
    <glyph glyph-name="igrave" unicode="&#xec;" horiz-adv-x="296" 
d="M118 716l-176 -14l108 -152h156zM220 141v339h-180v-384q0 -61 27.5 -83.5t96.5 -22.5q71 0 110 9l2 136q-32 0 -56 6z" />
    <glyph glyph-name="iacute" unicode="&#xed;" horiz-adv-x="296" 
d="M124 716l-88 -166h156l108 152zM220 141v339h-180v-384q0 -61 27.5 -83.5t96.5 -22.5q71 0 110 9l2 136q-32 0 -56 6z" />
    <glyph glyph-name="icircumflex" unicode="&#xee;" horiz-adv-x="296" 
d="M130 623l-47 -61l-140 2l124 160h126l124 -160l-140 -2zM220 480v-339q24 -6 56 -6l-2 -136q-39 -9 -110 -9q-69 0 -96.5 22.5t-27.5 83.5v384h180z" />
    <glyph glyph-name="idieresis" unicode="&#xef;" horiz-adv-x="296" 
d="M6 528q45 0 72.5 27.5t27.5 72.5t-27.5 72.5t-72.5 27.5t-72.5 -27.5t-27.5 -72.5t27.5 -72.5t72.5 -27.5zM254 528q45 0 72.5 27.5t27.5 72.5t-27.5 72.5t-72.5 27.5t-72.5 -27.5t-27.5 -72.5t27.5 -72.5t72.5 -27.5zM220 141v339h-180v-384q0 -61 27.5 -83.5
t96.5 -22.5q71 0 110 9l2 136q-32 0 -56 6z" />
    <glyph glyph-name="eth" unicode="&#xf0;" 
d="M457 600q107 -118 107 -352q0 -137 -73.5 -198.5t-188.5 -61.5q-121 0 -191.5 64t-70.5 176t70.5 177t181.5 65q34 0 75 -13q-21 50 -54 82l-149 -63l-18 96l59 25q-41 11 -99 11l20 112q147 0 245 -53l125 53l18 -96zM302 136q41 0 60.5 25.5t19.5 66.5t-19.5 67.5
t-60.5 26.5t-60.5 -26.5t-19.5 -67.5t19.5 -66.5t60.5 -25.5z" />
    <glyph glyph-name="ntilde" unicode="&#xf1;" horiz-adv-x="642" 
d="M240 600q-26 0 -32 -42l-104 12q3 67 34.5 108.5t85.5 41.5q37 0 86.5 -16t67.5 -16q29 0 34 42l104 -12q-2 -62 -34 -106t-86 -44q-43 0 -93 16t-63 16zM566 141q24 -6 56 -6l-2 -136q-36 -9 -96 -9q-72 0 -105 26.5t-33 101.5v132q0 47 -16.5 65.5t-47.5 18.5
q-32 0 -52 -22t-20 -60v-252h-180v335q-22 5 -50 5l2 136q56 14 84 14q92 0 126 -70q58 70 156 70q178 0 178 -208v-141z" />
    <glyph glyph-name="ograve" unicode="&#xf2;" 
d="M290 716l-176 -14l108 -152h156zM40 238q0 -119 70.5 -184.5t191.5 -65.5t191.5 65.5t70.5 184.5t-70.5 185.5t-191.5 66.5q-122 0 -192 -66t-70 -186zM222 238q0 104 80 104t80 -104q0 -102 -80 -102t-80 102z" />
    <glyph glyph-name="oacute" unicode="&#xf3;" 
d="M296 716l-88 -166h156l108 152zM40 238q0 -119 70.5 -184.5t191.5 -65.5t191.5 65.5t70.5 184.5t-70.5 185.5t-191.5 66.5q-122 0 -192 -66t-70 -186zM222 238q0 104 80 104t80 -104q0 -102 -80 -102t-80 102z" />
    <glyph glyph-name="ocircumflex" unicode="&#xf4;" 
d="M302 623l-47 -61l-140 2l124 160h126l124 -160l-140 -2zM302 490q121 0 191.5 -66.5t70.5 -185.5t-70.5 -184.5t-191.5 -65.5t-191.5 65.5t-70.5 184.5q0 120 70 186t192 66zM302 136q80 0 80 102q0 104 -80 104t-80 -104q0 -102 80 -102z" />
    <glyph glyph-name="otilde" unicode="&#xf5;" 
d="M500 718q-2 -62 -34 -106t-86 -44q-43 0 -93 16t-63 16q-26 0 -32 -42l-104 12q3 67 34.5 108.5t85.5 41.5q37 0 86.5 -16t67.5 -16q29 0 34 42zM40 238q0 -119 70.5 -184.5t191.5 -65.5t191.5 65.5t70.5 184.5t-70.5 185.5t-191.5 66.5q-122 0 -192 -66t-70 -186z
M222 238q0 104 80 104t80 -104q0 -102 -80 -102t-80 102z" />
    <glyph glyph-name="odieresis" unicode="&#xf6;" 
d="M178 528q45 0 72.5 27.5t27.5 72.5t-27.5 72.5t-72.5 27.5t-72.5 -27.5t-27.5 -72.5t27.5 -72.5t72.5 -27.5zM426 528q45 0 72.5 27.5t27.5 72.5t-27.5 72.5t-72.5 27.5t-72.5 -27.5t-27.5 -72.5t27.5 -72.5t72.5 -27.5zM40 238q0 -119 70.5 -184.5t191.5 -65.5
t191.5 65.5t70.5 184.5t-70.5 185.5t-191.5 66.5q-122 0 -192 -66t-70 -186zM222 238q0 104 80 104t80 -104q0 -102 -80 -102t-80 102z" />
    <glyph glyph-name="divide" unicode="&#xf7;" horiz-adv-x="580" 
d="M290 403q42 0 68.5 25t26.5 66t-26.5 66t-68.5 25t-68.5 -25t-26.5 -66t26.5 -66t68.5 -25zM520 382h-460v-130h460v130zM290 49q42 0 68.5 25t26.5 66t-26.5 66t-68.5 25t-68.5 -25t-26.5 -66t26.5 -66t68.5 -25z" />
    <glyph glyph-name="oslash" unicode="&#xf8;" 
d="M478 437q86 -67 86 -199q0 -119 -70.5 -184.5t-191.5 -65.5q-52 0 -95 12l-27 -44l-100 12l45 73q-85 66 -85 197q0 120 70 186t192 66q52 0 94 -12l28 44l100 -12zM222 238q0 -20 3 -36l87 140h-10q-80 0 -80 -104zM302 136q80 0 80 102q0 20 -3 38l-87 -140h10z" />
    <glyph glyph-name="ugrave" unicode="&#xf9;" horiz-adv-x="638" 
d="M396 550h-156l-108 152l176 14zM562 139q24 -6 56 -6l-2 -135q-32 -8 -78 -8q-91 0 -129 71q-55 -73 -167 -73q-85 0 -128.5 44.5t-43.5 161.5v141q-20 5 -50 5l2 136q28 10 90 10q31 0 52.5 -4.5t42.5 -17t32 -39t11 -66.5v-135q0 -80 56 -80q37 0 56.5 24t19.5 82v230
h180v-341z" />
    <glyph glyph-name="uacute" unicode="&#xfa;" horiz-adv-x="638" 
d="M490 702l-108 -152h-156l88 166zM562 139q24 -6 56 -6l-2 -135q-32 -8 -78 -8q-91 0 -129 71q-55 -73 -167 -73q-85 0 -128.5 44.5t-43.5 161.5v141q-20 5 -50 5l2 136q28 10 90 10q31 0 52.5 -4.5t42.5 -17t32 -39t11 -66.5v-135q0 -80 56 -80q37 0 56.5 24t19.5 82v230
h180v-341z" />
    <glyph glyph-name="ucircumflex" unicode="&#xfb;" horiz-adv-x="638" 
d="M320 623l-47 -61l-140 2l124 160h126l124 -160l-140 -2zM562 139q24 -6 56 -6l-2 -135q-32 -8 -78 -8q-91 0 -129 71q-55 -73 -167 -73q-85 0 -128.5 44.5t-43.5 161.5v141q-20 5 -50 5l2 136q28 10 90 10q31 0 52.5 -4.5t42.5 -17t32 -39t11 -66.5v-135q0 -80 56 -80
q37 0 56.5 24t19.5 82v230h180v-341z" />
    <glyph glyph-name="udieresis" unicode="&#xfc;" horiz-adv-x="638" 
d="M196 528q-45 0 -72.5 27.5t-27.5 72.5t27.5 72.5t72.5 27.5t72.5 -27.5t27.5 -72.5t-27.5 -72.5t-72.5 -27.5zM444 528q-45 0 -72.5 27.5t-27.5 72.5t27.5 72.5t72.5 27.5t72.5 -27.5t27.5 -72.5t-27.5 -72.5t-72.5 -27.5zM562 139q24 -6 56 -6l-2 -135q-32 -8 -78 -8
q-91 0 -129 71q-55 -73 -167 -73q-85 0 -128.5 44.5t-43.5 161.5v141q-20 5 -50 5l2 136q28 10 90 10q31 0 52.5 -4.5t42.5 -17t32 -39t11 -66.5v-135q0 -80 56 -80q37 0 56.5 24t19.5 82v230h180v-341z" />
    <glyph glyph-name="yacute" unicode="&#xfd;" horiz-adv-x="580" 
d="M464 702l-108 -152h-156l88 166zM394 490l180 -14l-230 -526q-35 -79 -88.5 -109.5t-131.5 -30.5q-54 0 -78 8l-14 150q43 -10 78 -10q71 0 99 58l-145 318q-25 5 -56 5l5 136q34 14 87 14q87 0 114 -69l77 -194z" />
    <glyph glyph-name="thorn" unicode="&#xfe;" horiz-adv-x="610" 
d="M360 490q99 0 154.5 -64t55.5 -178q0 -128 -73.5 -194t-202.5 -66q-32 0 -64 5v-173h-180v890h180v-264q51 44 130 44zM282 136q53 0 79.5 24.5t26.5 85.5q0 46 -21.5 71t-58.5 25q-35 0 -56.5 -21t-21.5 -61v-118q24 -6 52 -6z" />
    <glyph glyph-name="ydieresis" unicode="&#xff;" horiz-adv-x="580" 
d="M170 528q-45 0 -72.5 27.5t-27.5 72.5t27.5 72.5t72.5 27.5t72.5 -27.5t27.5 -72.5t-27.5 -72.5t-72.5 -27.5zM418 528q-45 0 -72.5 27.5t-27.5 72.5t27.5 72.5t72.5 27.5t72.5 -27.5t27.5 -72.5t-27.5 -72.5t-72.5 -27.5zM394 490l180 -14l-230 -526
q-35 -79 -88.5 -109.5t-131.5 -30.5q-54 0 -78 8l-14 150q43 -10 78 -10q71 0 99 58l-145 318q-25 5 -56 5l5 136q34 14 87 14q87 0 114 -69l77 -194z" />
    <glyph glyph-name="Amacron" unicode="&#x100;" horiz-adv-x="768" 
d="M522 862v-120h-300v120h300zM686 164q27 -9 72 -9l-2 -156q-33 -7 -84 -7q-65 0 -96.5 17t-49.5 67l-22 63h-253l-47 -139h-194l263 702l186 24zM302 289h148l-76 213z" />
    <glyph glyph-name="amacron" unicode="&#x101;" horiz-adv-x="584" 
d="M434 698v-140h-320v140h320zM508 139q27 -6 56 -6l-2 -135q-38 -7 -81 -7q-85 0 -119 50q-58 -53 -158 -53q-81 0 -125.5 40t-44.5 110q0 71 57 111.5t167 40.5q43 0 76 -6v16q0 60 -64 60q-55 0 -62 -40l-160 28q15 69 63.5 105.5t160.5 36.5q120 0 178 -46.5t58 -145.5
v-159zM252 110q35 0 58.5 19t23.5 61v2q-28 4 -62 4q-68 0 -68 -46q0 -40 48 -40z" />
    <glyph glyph-name="Abreve" unicode="&#x102;" horiz-adv-x="768" 
d="M372 730q-65 0 -107 31t-45 93l106 8q3 -24 13.5 -34t32.5 -10t32.5 10t13.5 34l106 -8q-3 -62 -45 -93t-107 -31zM686 164q27 -9 72 -9l-2 -156q-33 -7 -84 -7q-65 0 -96.5 17t-49.5 67l-22 63h-253l-47 -139h-194l263 702l186 24zM302 289h148l-76 213z" />
    <glyph glyph-name="abreve" unicode="&#x103;" horiz-adv-x="584" 
d="M274 544q-154 0 -160 158l110 8q3 -56 50 -56t50 56l110 -8q-6 -158 -160 -158zM508 139q27 -6 56 -6l-2 -135q-38 -7 -81 -7q-85 0 -119 50q-58 -53 -158 -53q-81 0 -125.5 40t-44.5 110q0 71 57 111.5t167 40.5q43 0 76 -6v16q0 60 -64 60q-55 0 -62 -40l-160 28
q15 69 63.5 105.5t160.5 36.5q120 0 178 -46.5t58 -145.5v-159zM252 110q35 0 58.5 19t23.5 61v2q-28 4 -62 4q-68 0 -68 -46q0 -40 48 -40z" />
    <glyph glyph-name="Aogonek" unicode="&#x104;" horiz-adv-x="768" 
d="M756 -1q-86 -53 -86 -86q0 -18 24 -18q19 0 46 10l8 -94q-42 -14 -106 -14q-104 0 -104 78q0 73 77 121q-34 6 -55 24t-34 56l-22 63h-253l-47 -139h-194l263 702l186 24l227 -562q27 -9 72 -9zM302 289h148l-76 213z" />
    <glyph glyph-name="aogonek" unicode="&#x105;" horiz-adv-x="584" 
d="M562 -2q-86 -53 -86 -86q0 -18 24 -18q19 0 46 10l8 -94q-42 -14 -106 -14q-104 0 -104 78q0 75 82 124q-42 12 -64 43q-58 -53 -158 -53q-81 0 -125.5 40t-44.5 110q0 71 57 111.5t167 40.5q43 0 76 -6v16q0 60 -64 60q-55 0 -62 -40l-160 28q15 69 63.5 105.5
t160.5 36.5q120 0 178 -46.5t58 -145.5v-159q27 -6 56 -6zM252 110q35 0 58.5 19t23.5 61v2q-28 4 -62 4q-68 0 -68 -46q0 -40 48 -40z" />
    <glyph glyph-name="Cacute" unicode="&#x106;" horiz-adv-x="710" 
d="M352 872l-62 -130l162 -10l106 114zM440 164q-96 0 -147 50t-51 149q0 100 37 148.5t101 48.5q103 0 112 -114l188 28q0 116 -76.5 181t-222.5 65q-155 0 -243 -94.5t-88 -275.5q0 -173 92.5 -267.5t263.5 -94.5t264 58l-44 168q-93 -50 -186 -50z" />
    <glyph glyph-name="cacute" unicode="&#x107;" horiz-adv-x="556" 
d="M286 716l-88 -166h156l108 152zM474 180q-73 -42 -160 -42q-92 0 -92 108q0 96 70 96q54 0 58 -72l162 20q0 39 -10.5 72.5t-34 63t-68 47t-105.5 17.5q-123 0 -188.5 -66.5t-65.5 -177.5q0 -258 266 -258q134 0 212 54z" />
    <glyph glyph-name="Cdotaccent" unicode="&#x10a;" horiz-adv-x="710" 
d="M378 739q44 0 68 21.5t24 61.5t-24 61.5t-68 21.5t-68 -21.5t-24 -61.5t24 -61.5t68 -21.5zM440 164q-96 0 -147 50t-51 149q0 100 37 148.5t101 48.5q103 0 112 -114l188 28q0 116 -76.5 181t-222.5 65q-155 0 -243 -94.5t-88 -275.5q0 -173 92.5 -267.5t263.5 -94.5
t264 58l-44 168q-93 -50 -186 -50z" />
    <glyph glyph-name="cdotaccent" unicode="&#x10b;" horiz-adv-x="556" 
d="M292 524q49 0 78.5 28t29.5 76t-29.5 76t-78.5 28q-48 0 -78 -28.5t-30 -75.5t30 -75.5t78 -28.5zM474 180q-73 -42 -160 -42q-92 0 -92 108q0 96 70 96q54 0 58 -72l162 20q0 39 -10.5 72.5t-34 63t-68 47t-105.5 17.5q-123 0 -188.5 -66.5t-65.5 -177.5
q0 -258 266 -258q134 0 212 54z" />
    <glyph glyph-name="Ccaron" unicode="&#x10c;" horiz-adv-x="710" 
d="M461 738h-166l-82 106l128 18l37 -51l37 51l128 -18zM440 164q93 0 186 50l44 -168q-93 -58 -264 -58t-263.5 94.5t-92.5 267.5q0 181 88 275.5t243 94.5q146 0 222.5 -65t76.5 -181l-188 -28q-9 114 -112 114q-64 0 -101 -48.5t-37 -148.5q0 -99 51 -149t147 -50z" />
    <glyph glyph-name="ccaron" unicode="&#x10d;" horiz-adv-x="556" 
d="M355 550h-126l-124 160l140 2l47 -61l47 61l140 -2zM474 180l44 -138q-78 -54 -212 -54q-266 0 -266 258q0 111 65.5 177.5t188.5 66.5q61 0 105.5 -17.5t68 -47t34 -63t10.5 -72.5l-162 -20q-4 72 -58 72q-70 0 -70 -96q0 -108 92 -108q87 0 160 42z" />
    <glyph glyph-name="Dcaron" unicode="&#x10e;" horiz-adv-x="764" 
d="M467 738h-166l-82 106l128 18l37 -51l37 51l128 -18zM386 720q149 0 238.5 -93t89.5 -263q0 -179 -109 -271.5t-295 -92.5h-216v550h-74v152q52 12 116 12q69 0 101 -31q68 37 149 37zM310 168q108 0 163 46t55 148q0 94 -44 143t-130 49q-36 0 -76 -7v-379h32z" />
    <glyph glyph-name="dcaron" unicode="&#x10f;" horiz-adv-x="688" 
d="M628 720l140 -10l-38 -202l-130 10zM560 710v-571q27 -6 56 -6l-2 -135q-40 -8 -74 -8q-91 0 -130 69q-64 -71 -162 -71q-90 0 -149 64t-59 182q0 119 65 187.5t173 68.5q58 0 102 -13v233h180zM290 136q38 0 64 27.5t26 78.5v79q-33 21 -76 21q-84 0 -84 -108
q0 -98 70 -98z" />
    <glyph glyph-name="Dcroat" unicode="&#x110;" horiz-adv-x="764" 
d="M386 720q149 0 238.5 -93t89.5 -263q0 -179 -109 -271.5t-295 -92.5h-216v280h-74v140h74v130h-74v152q52 12 116 12q69 0 101 -31q68 37 149 37zM310 168q108 0 163 46t55 148q0 94 -44 143t-130 49q-36 0 -76 -7v-127h102v-140h-102v-112h32z" />
    <glyph glyph-name="dcroat" unicode="&#x111;" horiz-adv-x="626" 
d="M616 524h-56v-385q27 -6 56 -6l-2 -135q-40 -8 -74 -8q-91 0 -130 69q-64 -71 -162 -71q-90 0 -149 64t-59 182q0 119 65 187.5t173 68.5q58 0 102 -13v47h-104v120h104v66h180v-66h56v-120zM290 136q38 0 64 27.5t26 78.5v79q-33 21 -76 21q-84 0 -84 -108q0 -98 70 -98
z" />
    <glyph glyph-name="Emacron" unicode="&#x112;" horiz-adv-x="590" 
d="M472 862v-120h-300v120h300zM264 268v-104h306v-164h-490v710h490l-10 -164h-296v-128h266v-150h-266z" />
    <glyph glyph-name="emacron" unicode="&#x113;" horiz-adv-x="566" 
d="M454 698v-140h-320v140h320zM222 200q15 -66 98 -66q94 0 152 40l46 -130q-18 -18 -76.5 -37t-131.5 -19q-134 0 -202 69.5t-68 190.5q0 107 67.5 174.5t179.5 67.5q114 0 176.5 -66.5t62.5 -176.5v-47h-304zM285 355q-28 0 -43.5 -15.5t-20.5 -50.5h125q-6 66 -61 66z
" />
    <glyph glyph-name="Edotaccent" unicode="&#x116;" horiz-adv-x="590" 
d="M322 739q-44 0 -68 21.5t-24 61.5t24 61.5t68 21.5t68 -21.5t24 -61.5t-24 -61.5t-68 -21.5zM264 268v-104h306v-164h-490v710h490l-10 -164h-296v-128h266v-150h-266z" />
    <glyph glyph-name="edotaccent" unicode="&#x117;" horiz-adv-x="566" 
d="M294 524q-48 0 -78 28.5t-30 75.5t30 75.5t78 28.5q49 0 78.5 -28t29.5 -76t-29.5 -76t-78.5 -28zM222 200q15 -66 98 -66q94 0 152 40l46 -130q-18 -18 -76.5 -37t-131.5 -19q-134 0 -202 69.5t-68 190.5q0 107 67.5 174.5t179.5 67.5q114 0 176.5 -66.5t62.5 -176.5
v-47h-304zM285 355q-28 0 -43.5 -15.5t-20.5 -50.5h125q-6 66 -61 66z" />
    <glyph glyph-name="Eogonek" unicode="&#x118;" horiz-adv-x="590" 
d="M264 268v-104h306v-164q-86 -53 -86 -86q0 -18 24 -18q19 0 46 10l8 -94q-42 -14 -106 -14q-104 0 -104 78q0 75 82 124h-354v710h490l-10 -164h-296v-128h266v-150h-266z" />
    <glyph glyph-name="eogonek" unicode="&#x119;" horiz-adv-x="566" 
d="M222 200q15 -66 98 -66q94 0 152 40l46 -130q-10 -10 -41 -24q-86 -53 -86 -86q0 -18 24 -18q19 0 46 10l8 -94q-42 -14 -106 -14q-104 0 -104 78q0 51 41 92q-129 3 -194.5 72t-65.5 188q0 107 67.5 174.5t179.5 67.5q114 0 176.5 -66.5t62.5 -176.5v-47h-304zM285 355
q-28 0 -43.5 -15.5t-20.5 -50.5h125q-6 66 -61 66z" />
    <glyph glyph-name="Ecaron" unicode="&#x11a;" horiz-adv-x="590" 
d="M405 738h-166l-82 106l128 18l37 -51l37 51l128 -18zM264 268v-104h306v-164h-490v710h490l-10 -164h-296v-128h266v-150h-266z" />
    <glyph glyph-name="ecaron" unicode="&#x11b;" horiz-adv-x="566" 
d="M357 550h-126l-124 160l140 2l47 -61l47 61l140 -2zM222 200q15 -66 98 -66q94 0 152 40l46 -130q-18 -18 -76.5 -37t-131.5 -19q-134 0 -202 69.5t-68 190.5q0 107 67.5 174.5t179.5 67.5q114 0 176.5 -66.5t62.5 -176.5v-47h-304zM285 355q-28 0 -43.5 -15.5
t-20.5 -50.5h125q-6 66 -61 66z" />
    <glyph glyph-name="Gbreve" unicode="&#x11e;" horiz-adv-x="798" 
d="M391 730q-65 0 -107 31t-45 93l106 8q3 -24 13.5 -34t32.5 -10t32.5 10t13.5 34l106 -8q-3 -62 -45 -93t-107 -31zM658 396q38 0 59 -19t21 -53v-324h-150l-7 55q-81 -67 -189 -67q-158 0 -250 97t-92 269q0 180 92.5 273t263.5 93q140 0 217.5 -56.5t98.5 -155.5
l-194 -39q-20 89 -122 89q-164 0 -164 -204q0 -202 176 -202q65 0 102.5 26.5t37.5 65.5v14h-156v138h256z" />
    <glyph glyph-name="gbreve" unicode="&#x11f;" horiz-adv-x="562" 
d="M274 544q-154 0 -160 158l110 8q3 -56 50 -56t50 56l110 -8q-6 -158 -160 -158zM392 139q81 0 120.5 -39.5t39.5 -111.5q0 -75 -68 -126.5t-202 -51.5q-252 0 -252 128q0 63 45 103q-26 28 -26 72q0 58 65 111q-54 39 -54 110t58 113t162 42q35 0 59 -4q37 106 173 109
l18 -138q-48 -2 -69 -23q38 -38 38 -97q0 -73 -57 -113t-162 -40q-38 0 -65 4q-14 -11 -14 -26q0 -22 30 -22h161zM280 382q-23 0 -36.5 -14t-13.5 -39t13.5 -39t36.5 -14t36 14t13 39t-13 39t-36 14zM284 -70q106 0 106 44q0 32 -43 32h-154q-11 -14 -11 -34q0 -42 102 -42
z" />
    <glyph glyph-name="Gdotaccent" unicode="&#x120;" horiz-adv-x="798" 
d="M391 739q-44 0 -68 21.5t-24 61.5t24 61.5t68 21.5t68 -21.5t24 -61.5t-24 -61.5t-68 -21.5zM658 396q38 0 59 -19t21 -53v-324h-150l-7 55q-81 -67 -189 -67q-158 0 -250 97t-92 269q0 180 92.5 273t263.5 93q140 0 217.5 -56.5t98.5 -155.5l-194 -39q-20 89 -122 89
q-164 0 -164 -204q0 -202 176 -202q65 0 102.5 26.5t37.5 65.5v14h-156v138h256z" />
    <glyph glyph-name="gdotaccent" unicode="&#x121;" horiz-adv-x="562" 
d="M274 524q-48 0 -78 28.5t-30 75.5t30 75.5t78 28.5q49 0 78.5 -28t29.5 -76t-29.5 -76t-78.5 -28zM392 139q81 0 120.5 -39.5t39.5 -111.5q0 -75 -68 -126.5t-202 -51.5q-252 0 -252 128q0 63 45 103q-26 28 -26 72q0 58 65 111q-54 39 -54 110t58 113t162 42q35 0 59 -4
q37 106 173 109l18 -138q-48 -2 -69 -23q38 -38 38 -97q0 -73 -57 -113t-162 -40q-38 0 -65 4q-14 -11 -14 -26q0 -22 30 -22h161zM280 382q-23 0 -36.5 -14t-13.5 -39t13.5 -39t36.5 -14t36 14t13 39t-13 39t-36 14zM284 -70q106 0 106 44q0 32 -43 32h-154
q-11 -14 -11 -34q0 -42 102 -42z" />
    <glyph glyph-name="Gcommaaccent" unicode="&#x122;" horiz-adv-x="798" 
d="M658 396q38 0 59 -19t21 -53v-324h-150l-7 55q-81 -67 -189 -67q-158 0 -250 97t-92 269q0 180 92.5 273t263.5 93q140 0 217.5 -56.5t98.5 -155.5l-194 -39q-20 89 -122 89q-164 0 -164 -204q0 -202 176 -202q65 0 102.5 26.5t37.5 65.5v14h-156v138h256zM398 -20
q46 0 69 -23t23 -65q0 -60 -41 -92.5t-99 -35.5l-16 64q36 7 49 17.5t13 26.5q-78 0 -78 54q0 26 21.5 40t58.5 14z" />
    <glyph glyph-name="gcommaaccent" unicode="&#x123;" horiz-adv-x="562" 
d="M282 562q-46 0 -69 23t-23 65q0 60 41 92.5t99 35.5l16 -64q-36 -7 -49 -17.5t-13 -26.5q78 0 78 -54q0 -26 -21.5 -40t-58.5 -14zM392 139q81 0 120.5 -39.5t39.5 -111.5q0 -75 -68 -126.5t-202 -51.5q-252 0 -252 128q0 63 45 103q-26 28 -26 72q0 58 65 111
q-54 39 -54 110t58 113t162 42q35 0 59 -4q37 106 173 109l18 -138q-48 -2 -69 -23q38 -38 38 -97q0 -73 -57 -113t-162 -40q-38 0 -65 4q-14 -11 -14 -26q0 -22 30 -22h161zM280 382q-23 0 -36.5 -14t-13.5 -39t13.5 -39t36.5 -14t36 14t13 39t-13 39t-36 14zM284 -70
q106 0 106 44q0 32 -43 32h-154q-11 -14 -11 -34q0 -42 102 -42z" />
    <glyph glyph-name="Hbar" unicode="&#x126;" horiz-adv-x="812" 
d="M802 524h-80v-360q21 -9 70 -9l-2 -156q-45 -7 -114 -7q-75 0 -106.5 30t-31.5 118v118h-274v-258h-184v524h-80v120h80v66h184v-66h274v66h184v-66h80v-120zM538 426v98h-274v-98h274z" />
    <glyph glyph-name="hbar" unicode="&#x127;" horiz-adv-x="622" 
d="M546 141q24 -6 56 -6l-2 -136q-36 -9 -96 -9q-72 0 -105 26.5t-33 101.5v132q0 47 -16.5 65.5t-47.5 18.5q-32 0 -52 -22t-20 -60v-252h-180v524h-50v120h50v66h180v-66h110v-120h-110v-85q56 51 138 51q178 0 178 -208v-141z" />
    <glyph glyph-name="Itilde" unicode="&#x128;" horiz-adv-x="344" 
d="M338 862q-8 -130 -98 -130q-29 0 -65.5 16t-48.5 16q-25 0 -28 -36l-92 10q8 130 98 130q29 0 65.5 -16t48.5 -16q25 0 28 36zM80 710v-710h184v710h-184z" />
    <glyph glyph-name="itilde" unicode="&#x129;" horiz-adv-x="296" 
d="M328 718q-2 -62 -34 -106t-86 -44q-43 0 -93 16t-63 16q-26 0 -32 -42l-104 12q3 67 34.5 108.5t85.5 41.5q37 0 86.5 -16t67.5 -16q29 0 34 42zM220 141v339h-180v-384q0 -61 27.5 -83.5t96.5 -22.5q71 0 110 9l2 136q-32 0 -56 6z" />
    <glyph glyph-name="Imacron" unicode="&#x12a;" horiz-adv-x="344" 
d="M52 862v-120h240v120h-240zM80 710v-710h184v710h-184z" />
    <glyph glyph-name="imacron" unicode="&#x12b;" horiz-adv-x="296" 
d="M-14 698v-140h288v140h-288zM220 141v339h-180v-384q0 -61 27.5 -83.5t96.5 -22.5q71 0 110 9l2 136q-32 0 -56 6z" />
    <glyph glyph-name="Iogonek" unicode="&#x12e;" horiz-adv-x="344" 
d="M264 0q-86 -53 -86 -86q0 -18 24 -18q19 0 46 10l8 -94q-42 -14 -106 -14q-104 0 -104 78q0 75 82 124h-48v710h184v-710z" />
    <glyph glyph-name="iogonek" unicode="&#x12f;" horiz-adv-x="296" 
d="M130 524q-48 0 -78 28.5t-30 75.5t30 75.5t78 28.5q49 0 78.5 -28t29.5 -76t-29.5 -76t-78.5 -28zM274 -1q-86 -53 -86 -86q0 -18 24 -18q19 0 46 10l8 -94q-42 -14 -106 -14q-104 0 -104 78q0 68 71 117q-47 5 -67 28.5t-20 75.5v384h180v-339q24 -6 56 -6z" />
    <glyph glyph-name="Idotaccent" unicode="&#x130;" horiz-adv-x="344" 
d="M172 739q44 0 68 21.5t24 61.5t-24 61.5t-68 21.5t-68 -21.5t-24 -61.5t24 -61.5t68 -21.5zM80 710v-710h184v710h-184z" />
    <glyph glyph-name="dotlessi" unicode="&#x131;" horiz-adv-x="296" 
d="M220 141v339h-180v-384q0 -61 27.5 -83.5t96.5 -22.5q71 0 110 9l2 136q-32 0 -56 6z" />
    <glyph glyph-name="IJ" unicode="&#x132;" horiz-adv-x="838" 
d="M80 710v-710h184v710h-184zM758 710h-184v-468q0 -57 -21.5 -75.5t-82.5 -18.5q-74 0 -130 28l-16 -160q56 -28 164 -28q58 0 102.5 11t84.5 39t61.5 82.5t21.5 133.5v456z" />
    <glyph glyph-name="ij" unicode="&#x133;" horiz-adv-x="612" 
d="M130 524q49 0 78.5 28t29.5 76t-29.5 76t-78.5 28q-48 0 -78 -28.5t-30 -75.5t30 -75.5t78 -28.5zM462 524q49 0 78.5 28t29.5 76t-29.5 76t-78.5 28q-48 0 -78 -28.5t-30 -75.5t30 -75.5t78 -28.5zM220 141v339h-180v-384q0 -61 27.5 -83.5t96.5 -22.5q71 0 110 9l2 136
q-32 0 -56 6zM552 480h-180v-460q0 -31 -12.5 -42.5t-37.5 -11.5q-28 0 -52 12l-4 -154q28 -14 94 -14q92 0 142 44t50 156v470z" />
    <glyph glyph-name="Kcommaaccent" unicode="&#x136;" horiz-adv-x="733" 
d="M608 198q23 -28 42.5 -35.5t77.5 -7.5l-10 -158q-36 -6 -74 -6q-58 0 -96 19.5t-92 91.5l-116 156h-76v-258h-184v710h184v-264h76l180 274l204 -18l-243 -345zM384 -20q46 0 69 -23t23 -65q0 -60 -41 -92.5t-99 -35.5l-16 64q36 7 49 17.5t13 26.5q-78 0 -78 54
q0 26 21.5 40t58.5 14z" />
    <glyph glyph-name="kcommaaccent" unicode="&#x137;" horiz-adv-x="567" 
d="M484 137q27 -12 76 -12l-2 -126q-29 -9 -80 -9q-45 0 -71.5 13t-46.5 41l-95 135l-35 -37v-142h-180v710h180v-358l126 138l202 -10l-184 -189zM272 -20q46 0 69 -23t23 -65q0 -60 -41 -92.5t-99 -35.5l-16 64q36 7 49 17.5t13 26.5q-78 0 -78 54q0 26 21.5 40t58.5 14z
" />
    <glyph glyph-name="kgreenlandic" unicode="&#x138;" horiz-adv-x="570" 
d="M484 137q27 -12 76 -12l-2 -126q-29 -9 -80 -9q-80 0 -112 46l-101 144l-35 -36v-144h-180v486h180v-132l122 136l196 -10l-176 -186z" />
    <glyph glyph-name="Lacute" unicode="&#x139;" horiz-adv-x="585" 
d="M346 846l-106 -114l-162 10l62 130zM264 166h316v-166h-500v710h184v-544z" />
    <glyph glyph-name="lacute" unicode="&#x13a;" horiz-adv-x="308" 
d="M114 872l-62 -130l162 -10l106 114zM50 710v-584q0 -82 33.5 -109t110.5 -27q55 0 102 9l2 136q-44 0 -68 6v569h-180z" />
    <glyph glyph-name="Lcommaaccent" unicode="&#x13b;" horiz-adv-x="585" 
d="M264 166h316v-166h-500v710h184v-544zM328 -20q46 0 69 -23t23 -65q0 -60 -41 -92.5t-99 -35.5l-16 64q36 7 49 17.5t13 26.5q-78 0 -78 54q0 26 21.5 40t58.5 14z" />
    <glyph glyph-name="lcommaaccent" unicode="&#x13c;" horiz-adv-x="308" 
d="M50 710v-584q0 -82 33.5 -109t110.5 -27q55 0 102 9l2 136q-44 0 -68 6v569h-180zM250 -108q0 -60 -41 -92.5t-99 -35.5l-16 64q36 7 49 17.5t13 26.5q-78 0 -78 54q0 26 21.5 40t58.5 14q46 0 69 -23t23 -65z" />
    <glyph glyph-name="Lcaron" unicode="&#x13d;" horiz-adv-x="585" 
d="M544 710l-38 -202l-130 10l28 202zM264 166h316v-166h-500v710h184v-544z" />
    <glyph glyph-name="lcaron" unicode="&#x13e;" horiz-adv-x="358" 
d="M438 710l-140 10l-28 -202l130 -10zM50 710v-584q0 -82 33.5 -109t110.5 -27q55 0 102 9l2 136q-44 0 -68 6v569h-180z" />
    <glyph glyph-name="Ldot" unicode="&#x13f;" horiz-adv-x="585" 
d="M264 166h316v-166h-500v710h184v-544zM426 215q-42 0 -69 27t-27 69t27 69t69 27t69 -27t27 -69t-27 -69t-69 -27z" />
    <glyph glyph-name="ldot" unicode="&#x140;" horiz-adv-x="517" 
d="M50 710v-584q0 -82 33.5 -109t110.5 -27q55 0 102 9l2 136q-44 0 -68 6v569h-180zM391 215q42 0 69 27t27 69t-27 69t-69 27t-69 -27t-27 -69t27 -69t69 -27z" />
    <glyph glyph-name="Lslash" unicode="&#x141;" horiz-adv-x="585" 
d="M264 166h316v-166h-500v262l-70 -22v130l70 22v318h184v-259l124 39v-130l-124 -39v-155z" />
    <glyph glyph-name="lslash" unicode="&#x142;" horiz-adv-x="338" 
d="M328 360l-78 -29v-190q24 -6 68 -6l-2 -136q-47 -9 -102 -9q-77 0 -110.5 27t-33.5 109v137l-60 -23v130l60 23v317h180v-249l78 29v-130z" />
    <glyph glyph-name="Nacute" unicode="&#x143;" horiz-adv-x="818" 
d="M600 846l-106 -114l-162 10l62 130zM554 710h184v-710h-178l-296 402v-402h-184v702l176 24l298 -411v395z" />
    <glyph glyph-name="nacute" unicode="&#x144;" horiz-adv-x="642" 
d="M488 702l-108 -152h-156l88 166zM566 141q24 -6 56 -6l-2 -136q-36 -9 -96 -9q-72 0 -105 26.5t-33 101.5v132q0 47 -16.5 65.5t-47.5 18.5q-32 0 -52 -22t-20 -60v-252h-180v335q-22 5 -50 5l2 136q56 14 84 14q92 0 126 -70q58 70 156 70q178 0 178 -208v-141z" />
    <glyph glyph-name="Ncommaaccent" unicode="&#x145;" horiz-adv-x="818" 
d="M554 710h184v-710h-178l-296 402v-402h-184v702l176 24l298 -411v395zM414 -20q46 0 69 -23t23 -65q0 -60 -41 -92.5t-99 -35.5l-16 64q36 7 49 17.5t13 26.5q-78 0 -78 54q0 26 21.5 40t58.5 14z" />
    <glyph glyph-name="ncommaaccent" unicode="&#x146;" horiz-adv-x="642" 
d="M566 141q24 -6 56 -6l-2 -136q-36 -9 -96 -9q-72 0 -105 26.5t-33 101.5v132q0 47 -16.5 65.5t-47.5 18.5q-32 0 -52 -22t-20 -60v-252h-180v335q-22 5 -50 5l2 136q56 14 84 14q92 0 126 -70q58 70 156 70q178 0 178 -208v-141zM329 -20q45 0 68.5 -23t23.5 -65
q0 -60 -41 -92.5t-99 -35.5l-16 64q36 7 49 17.5t13 26.5q-78 0 -78 54q0 26 21.5 40t58.5 14z" />
    <glyph glyph-name="Ncaron" unicode="&#x147;" horiz-adv-x="818" 
d="M503 738h-166l-82 106l128 18l37 -51l37 51l128 -18zM554 710h184v-710h-178l-296 402v-402h-184v702l176 24l298 -411v395z" />
    <glyph glyph-name="ncaron" unicode="&#x148;" horiz-adv-x="642" 
d="M381 550h-126l-124 160l140 2l47 -61l47 61l140 -2zM566 141q24 -6 56 -6l-2 -136q-36 -9 -96 -9q-72 0 -105 26.5t-33 101.5v132q0 47 -16.5 65.5t-47.5 18.5q-32 0 -52 -22t-20 -60v-252h-180v335q-22 5 -50 5l2 136q56 14 84 14q92 0 126 -70q58 70 156 70
q178 0 178 -208v-141z" />
    <glyph glyph-name="Eng" unicode="&#x14a;" horiz-adv-x="818" 
d="M554 710h184v-710q0 -106 -48 -148t-130 -42q-66 0 -108 14l4 154q24 -12 52 -12q42 0 48 39l-292 397v-402h-184v702l176 24l298 -411v395z" />
    <glyph glyph-name="eng" unicode="&#x14b;" horiz-adv-x="608" 
d="M388 490q178 0 178 -208v-282q0 -106 -48 -148t-130 -42q-66 0 -108 14l4 154q24 -12 52 -12q25 0 37.5 12.5t12.5 47.5v224q0 47 -16.5 65.5t-47.5 18.5q-32 0 -52 -22t-20 -60v-252h-180v335q-22 5 -50 5l2 136q56 14 84 14q92 0 126 -70q58 70 156 70z" />
    <glyph glyph-name="Omacron" unicode="&#x14c;" horiz-adv-x="800" 
d="M250 862v-120h300v120h-300zM400 -12q164 0 257 102t93 264t-93 264t-257 102t-257 -102t-93 -264t93 -264t257 -102zM400 152q-82 0 -122 54.5t-40 147.5q0 92 41 147t121 55q82 0 122 -54.5t40 -147.5t-40 -147.5t-122 -54.5z" />
    <glyph glyph-name="omacron" unicode="&#x14d;" 
d="M142 698v-140h320v140h-320zM40 238q0 -119 70.5 -184.5t191.5 -65.5t191.5 65.5t70.5 184.5t-70.5 185.5t-191.5 66.5q-122 0 -192 -66t-70 -186zM222 238q0 104 80 104t80 -104q0 -102 -80 -102t-80 102z" />
    <glyph glyph-name="Ohungarumlaut" unicode="&#x150;" horiz-adv-x="800" 
d="M242 872l-62 -130l162 -10l106 114zM472 872l-62 -130l162 -10l106 114zM400 -12q164 0 257 102t93 264t-93 264t-257 102t-257 -102t-93 -264t93 -264t257 -102zM400 152q-82 0 -122 54.5t-40 147.5q0 92 41 147t121 55q82 0 122 -54.5t40 -147.5t-40 -147.5t-122 -54.5
z" />
    <glyph glyph-name="ohungarumlaut" unicode="&#x151;" 
d="M180 716l-88 -166h156l108 152zM386 716l-88 -166h156l108 152zM40 238q0 -119 70.5 -184.5t191.5 -65.5t191.5 65.5t70.5 184.5t-70.5 185.5t-191.5 66.5q-122 0 -192 -66t-70 -186zM222 238q0 104 80 104t80 -104q0 -102 -80 -102t-80 102z" />
    <glyph glyph-name="OE" unicode="&#x152;" horiz-adv-x="1072" 
d="M746 268v-104h306v-164h-490v21q-72 -33 -162 -33q-164 0 -257 102t-93 264t93 264t257 102q90 0 162 -33v23h490l-10 -164h-296v-128h266v-150h-266zM400 152q82 0 122 54.5t40 147.5t-40 147.5t-122 54.5q-80 0 -121 -55t-41 -147q0 -93 40 -147.5t122 -54.5z" />
    <glyph glyph-name="oe" unicode="&#x153;" horiz-adv-x="908" 
d="M564 200q15 -66 98 -66q94 0 152 40l46 -130q-18 -18 -76.5 -37t-131.5 -19q-110 0 -178 49q-67 -49 -172 -49q-121 0 -191.5 65.5t-70.5 184.5q0 120 70 186t192 66q102 0 170 -48q66 48 157 48q114 0 176.5 -66.5t62.5 -176.5v-47h-304zM627 355q-28 0 -43.5 -15.5
t-20.5 -50.5h125q-6 66 -61 66zM302 136q80 0 80 102q0 104 -80 104t-80 -104q0 -102 80 -102z" />
    <glyph glyph-name="Racute" unicode="&#x154;" horiz-adv-x="716" 
d="M560 846l-106 -114l-162 10l62 130zM607 182q13 -18 30.5 -22.5t68.5 -4.5l-12 -158q-30 -6 -75 -6q-59 0 -88.5 16t-59.5 63l-96 152h-97v-222h-184v550h-74v152q52 12 116 12q67 0 101 -30q65 36 155 36q131 0 202.5 -65.5t71.5 -178.5q0 -73 -28.5 -130t-82.5 -89z
M278 549v-167h82q62 0 91 19t29 61q0 94 -110 94q-45 0 -92 -7z" />
    <glyph glyph-name="racute" unicode="&#x155;" horiz-adv-x="399" 
d="M382 702l-108 -152h-156l88 166zM338 490q38 0 54 -8l-10 -166q-20 8 -50 8q-82 0 -82 -118v-206h-180v335q-22 5 -50 5l2 136q39 14 82 14q78 0 118 -74q42 74 116 74z" />
    <glyph glyph-name="Rcommaaccent" unicode="&#x156;" horiz-adv-x="716" 
d="M607 182q13 -18 30.5 -22.5t68.5 -4.5l-12 -158q-30 -6 -75 -6q-59 0 -88.5 16t-59.5 63l-96 152h-97v-222h-184v550h-74v152q52 12 116 12q67 0 101 -30q65 36 155 36q131 0 202.5 -65.5t71.5 -178.5q0 -73 -28.5 -130t-82.5 -89zM278 549v-167h82q62 0 91 19t29 61
q0 94 -110 94q-45 0 -92 -7zM384 -20q46 0 69 -23t23 -65q0 -60 -41 -92.5t-99 -35.5l-16 64q36 7 49 17.5t13 26.5q-78 0 -78 54q0 26 21.5 40t58.5 14z" />
    <glyph glyph-name="rcommaaccent" unicode="&#x157;" horiz-adv-x="399" 
d="M338 490q38 0 54 -8l-10 -166q-20 8 -50 8q-82 0 -82 -118v-206h-180v335q-22 5 -50 5l2 136q39 14 82 14q78 0 118 -74q42 74 116 74zM160 -20q46 0 69 -23t23 -65q0 -60 -41 -92.5t-99 -35.5l-16 64q36 7 49 17.5t13 26.5q-78 0 -78 54q0 26 21.5 40t58.5 14z" />
    <glyph glyph-name="Rcaron" unicode="&#x158;" horiz-adv-x="716" 
d="M463 738h-166l-82 106l128 18l37 -51l37 51l128 -18zM607 182q13 -18 30.5 -22.5t68.5 -4.5l-12 -158q-30 -6 -75 -6q-59 0 -88.5 16t-59.5 63l-96 152h-97v-222h-184v550h-74v152q52 12 116 12q67 0 101 -30q65 36 155 36q131 0 202.5 -65.5t71.5 -178.5
q0 -73 -28.5 -130t-82.5 -89zM278 549v-167h82q62 0 91 19t29 61q0 94 -110 94q-45 0 -92 -7z" />
    <glyph glyph-name="rcaron" unicode="&#x159;" horiz-adv-x="399" 
d="M275 550h-126l-124 160l140 2l47 -61l47 61l140 -2zM222 416q42 74 116 74q38 0 54 -8l-10 -166q-20 8 -50 8q-82 0 -82 -118v-206h-180v335q-22 5 -50 5l2 136q39 14 82 14q78 0 118 -74z" />
    <glyph glyph-name="Sacute" unicode="&#x15a;" horiz-adv-x="650" 
d="M282 872l-62 -130l162 -10l106 114zM224 508q0 28 23.5 44t66.5 16q44 0 68 -14t30 -54l184 28q-13 192 -282 192q-274 0 -274 -218q0 -79 40 -126.5t96.5 -64.5t113 -27t96.5 -28t40 -54q0 -27 -27 -39.5t-89 -12.5q-131 0 -240 62l-20 -164q107 -60 260 -60
q300 0 300 228q0 60 -21.5 101.5t-55.5 61.5t-75 32t-82 18t-75 13t-55.5 23t-21.5 43z" />
    <glyph glyph-name="sacute" unicode="&#x15b;" horiz-adv-x="540" 
d="M242 716l-88 -166h156l108 152zM256 490q-108 0 -162 -41.5t-54 -116.5q0 -51 28.5 -84t69.5 -45.5t82 -19.5t69.5 -14t28.5 -21q0 -12 -12 -18t-46 -6q-56 0 -109.5 16.5t-84.5 34.5l-22 -137q86 -50 222 -50q119 0 176.5 40.5t57.5 113.5q0 56 -29 90.5t-70.5 46.5
t-83 18t-70.5 15t-29 28q0 30 44 30q27 0 39.5 -9.5t16.5 -34.5l172 20q-6 144 -234 144z" />
    <glyph glyph-name="Scedilla" unicode="&#x15e;" horiz-adv-x="650" 
d="M610 216q0 -204 -238 -225l-4 -21q76 0 76 -62q0 -53 -47 -78.5t-171 -25.5l14 76q70 0 70 22q0 18 -64 18l13 70q-120 8 -209 58l20 164q109 -62 240 -62q62 0 89 12.5t27 39.5q0 36 -40 54t-96.5 28t-113 27t-96.5 64.5t-40 126.5q0 218 274 218q269 0 282 -192
l-184 -28q-6 40 -30 54t-68 14q-43 0 -66.5 -16t-23.5 -44q0 -27 21.5 -43t55.5 -23t75 -13t82 -18t75 -32t55.5 -61.5t21.5 -101.5z" />
    <glyph glyph-name="scedilla" unicode="&#x15f;" horiz-adv-x="540" 
d="M500 142q0 -136 -187 -152l-3 -20q76 0 76 -62q0 -53 -47 -78.5t-171 -25.5l14 76q70 0 70 22q0 18 -64 18l13 71q-89 8 -157 47l22 137q31 -18 84.5 -34.5t109.5 -16.5q34 0 46 6t12 18q0 14 -28.5 21t-69.5 14t-82 19.5t-69.5 45.5t-28.5 84q0 75 54 116.5t162 41.5
q228 0 234 -144l-172 -20q-4 25 -16.5 34.5t-39.5 9.5q-44 0 -44 -30q0 -19 29 -28t70.5 -15t83 -18t70.5 -46.5t29 -90.5z" />
    <glyph glyph-name="Scaron" unicode="&#x160;" horiz-adv-x="650" 
d="M391 738h-166l-82 106l128 18l37 -51l37 51l128 -18zM224 508q0 -27 21.5 -43t55.5 -23t75 -13t82 -18t75 -32t55.5 -61.5t21.5 -101.5q0 -228 -300 -228q-153 0 -260 60l20 164q109 -62 240 -62q62 0 89 12.5t27 39.5q0 36 -40 54t-96.5 28t-113 27t-96.5 64.5
t-40 126.5q0 218 274 218q269 0 282 -192l-184 -28q-6 40 -30 54t-68 14q-43 0 -66.5 -16t-23.5 -44z" />
    <glyph glyph-name="scaron" unicode="&#x161;" horiz-adv-x="540" 
d="M311 550h-126l-124 160l140 2l47 -61l47 61l140 -2zM218 340q0 -19 29 -28t70.5 -15t83 -18t70.5 -46.5t29 -90.5q0 -73 -57.5 -113.5t-176.5 -40.5q-136 0 -222 50l22 137q31 -18 84.5 -34.5t109.5 -16.5q34 0 46 6t12 18q0 14 -28.5 21t-69.5 14t-82 19.5t-69.5 45.5
t-28.5 84q0 75 54 116.5t162 41.5q228 0 234 -144l-172 -20q-4 25 -16.5 34.5t-39.5 9.5q-44 0 -44 -30z" />
    <glyph glyph-name="uni0162" unicode="&#x162;" horiz-adv-x="564" 
d="M374 0h-36l-5 -30q76 0 76 -62q0 -53 -47 -78.5t-171 -25.5l14 76q70 0 70 22q0 18 -64 18l15 80h-36v550h-190v152q88 8 160 8h404v-160h-190v-550z" />
    <glyph glyph-name="uni0163" unicode="&#x163;" horiz-adv-x="390" 
d="M390 334h-120v-148q0 -22 8.5 -32t31.5 -10q32 0 62 10l10 -150q-43 -11 -89 -14l-3 -20q76 0 76 -62q0 -53 -47 -78.5t-171 -25.5l14 76q70 0 70 22q0 18 -64 18l14 74q-49 11 -70.5 49t-21.5 113v178h-90v146h90v140h180v-140h120v-146z" />
    <glyph glyph-name="Tcaron" unicode="&#x164;" horiz-adv-x="564" 
d="M365 738h-166l-82 106l128 18l37 -51l37 51l128 -18zM564 710v-160h-190v-550h-184v550h-190v152q88 8 160 8h404z" />
    <glyph glyph-name="tcaron" unicode="&#x165;" horiz-adv-x="450" 
d="M390 712l140 -10l-38 -202l-130 10zM270 620v-140h120v-146h-120v-148q0 -22 8.5 -32t31.5 -10q32 0 62 10l10 -150q-59 -16 -138 -16q-84 0 -119 37t-35 131v178h-90v146h90v140h180z" />
    <glyph glyph-name="Tbar" unicode="&#x166;" horiz-adv-x="564" 
d="M564 550h-190v-130h88v-140h-88v-280h-184v280h-88v140h88v130h-190v152q88 8 160 8h404v-160z" />
    <glyph glyph-name="tbar" unicode="&#x167;" horiz-adv-x="410" 
d="M390 334h-120v-19h100v-124h-100v-5q0 -22 8.5 -32t31.5 -10q32 0 62 10l10 -150q-59 -16 -138 -16q-84 0 -119 37t-35 131v35h-90v124h90v19h-90v146h90v140h180v-140h120v-146z" />
    <glyph glyph-name="Utilde" unicode="&#x168;" horiz-adv-x="774" 
d="M542 862q-8 -130 -98 -130q-29 0 -65.5 16t-48.5 16q-25 0 -28 -36l-92 10q8 130 98 130q29 0 65.5 -16t48.5 -16q25 0 28 36zM700 710h-184v-414q0 -76 -33.5 -112t-90.5 -36q-120 0 -120 152v292q0 120 -134 120q-72 0 -124 -8v-154h74v-266q0 -146 77 -221t227 -75
q144 0 226 82t82 216v424z" />
    <glyph glyph-name="utilde" unicode="&#x169;" horiz-adv-x="638" 
d="M242 600q-26 0 -32 -42l-104 12q3 67 34.5 108.5t85.5 41.5q37 0 86.5 -16t67.5 -16q29 0 34 42l104 -12q-2 -62 -34 -106t-86 -44q-43 0 -93 16t-63 16zM562 139q24 -6 56 -6l-2 -135q-32 -8 -78 -8q-91 0 -129 71q-55 -73 -167 -73q-85 0 -128.5 44.5t-43.5 161.5v141
q-20 5 -50 5l2 136q28 10 90 10q31 0 52.5 -4.5t42.5 -17t32 -39t11 -66.5v-135q0 -80 56 -80q37 0 56.5 24t19.5 82v230h180v-341z" />
    <glyph glyph-name="Umacron" unicode="&#x16a;" horiz-adv-x="774" 
d="M226 862v-120h300v120h-300zM700 710h-184v-414q0 -76 -33.5 -112t-90.5 -36q-120 0 -120 152v292q0 120 -134 120q-72 0 -124 -8v-154h74v-266q0 -146 77 -221t227 -75q144 0 226 82t82 216v424z" />
    <glyph glyph-name="umacron" unicode="&#x16b;" horiz-adv-x="638" 
d="M480 698v-140h-320v140h320zM562 139q24 -6 56 -6l-2 -135q-32 -8 -78 -8q-91 0 -129 71q-55 -73 -167 -73q-85 0 -128.5 44.5t-43.5 161.5v141q-20 5 -50 5l2 136q28 10 90 10q31 0 52.5 -4.5t42.5 -17t32 -39t11 -66.5v-135q0 -80 56 -80q37 0 56.5 24t19.5 82v230h180
v-341z" />
    <glyph glyph-name="Uring" unicode="&#x16e;" horiz-adv-x="774" 
d="M376 720q53 0 81.5 25t28.5 69t-28.5 69t-81.5 25t-81.5 -25t-28.5 -69t28.5 -69t81.5 -25zM376 792q-20 0 -20 22t20 22t20 -22t-20 -22zM700 710h-184v-414q0 -76 -33.5 -112t-90.5 -36q-120 0 -120 152v292q0 120 -134 120q-72 0 -124 -8v-154h74v-266q0 -146 77 -221
t227 -75q144 0 226 82t82 216v424z" />
    <glyph glyph-name="uring" unicode="&#x16f;" horiz-adv-x="638" 
d="M320 534q-46 0 -77 27.5t-31 74.5t31 74.5t77 27.5t77 -27.5t31 -74.5t-31 -74.5t-77 -27.5zM320 670q-14 0 -24 -9t-10 -25t10 -25t24 -9t24 9t10 25t-10 25t-24 9zM562 139q24 -6 56 -6l-2 -135q-32 -8 -78 -8q-91 0 -129 71q-55 -73 -167 -73q-85 0 -128.5 44.5
t-43.5 161.5v141q-20 5 -50 5l2 136q28 10 90 10q31 0 52.5 -4.5t42.5 -17t32 -39t11 -66.5v-135q0 -80 56 -80q37 0 56.5 24t19.5 82v230h180v-341z" />
    <glyph glyph-name="Uhungarumlaut" unicode="&#x170;" horiz-adv-x="774" 
d="M218 872l-62 -130l162 -10l106 114zM448 872l-62 -130l162 -10l106 114zM700 710h-184v-414q0 -76 -33.5 -112t-90.5 -36q-120 0 -120 152v292q0 120 -134 120q-72 0 -124 -8v-154h74v-266q0 -146 77 -221t227 -75q144 0 226 82t82 216v424z" />
    <glyph glyph-name="uhungarumlaut" unicode="&#x171;" horiz-adv-x="638" 
d="M374 702l-108 -152h-156l88 166zM472 550h-156l88 166l176 -14zM562 139q24 -6 56 -6l-2 -135q-32 -8 -78 -8q-91 0 -129 71q-55 -73 -167 -73q-85 0 -128.5 44.5t-43.5 161.5v141q-20 5 -50 5l2 136q28 10 90 10q31 0 52.5 -4.5t42.5 -17t32 -39t11 -66.5v-135
q0 -80 56 -80q37 0 56.5 24t19.5 82v230h180v-341z" />
    <glyph glyph-name="Uogonek" unicode="&#x172;" horiz-adv-x="774" 
d="M516 710h184v-424q0 -101 -47 -174t-134 -104q-85 -50 -85 -85q0 -18 24 -18q19 0 46 10l8 -94q-42 -14 -106 -14q-104 0 -104 78q0 59 54 104q-133 9 -200.5 83.5t-67.5 211.5v266h-74v154q52 8 124 8q134 0 134 -120v-292q0 -152 120 -152q57 0 90.5 36t33.5 112v414z
" />
    <glyph glyph-name="uogonek" unicode="&#x173;" horiz-adv-x="638" 
d="M616 -2q-86 -53 -86 -86q0 -18 24 -18q19 0 46 10l8 -94q-42 -14 -106 -14q-104 0 -104 78q0 76 83 125q-47 16 -72 62q-55 -73 -167 -73q-85 0 -128.5 44.5t-43.5 161.5v141q-20 5 -50 5l2 136q28 10 90 10q31 0 52.5 -4.5t42.5 -17t32 -39t11 -66.5v-135q0 -80 56 -80
q37 0 56.5 24t19.5 82v230h180v-341q24 -6 56 -6z" />
    <glyph glyph-name="Wcircumflex" unicode="&#x174;" horiz-adv-x="1034" 
d="M546 781l-37 -51l-128 18l82 106h166l82 -106l-128 -18zM833 726l206 -24l-205 -702h-180l-118 420l-118 -420h-180l-179 550h-74v154q60 12 144 12q100 0 119 -80l86 -349l114 423h176l112 -416z" />
    <glyph glyph-name="wcircumflex" unicode="&#x175;" horiz-adv-x="765" 
d="M380 623l-47 -61l-140 2l124 160h126l124 -160l-140 -2zM576 490l178 -14l-156 -476h-140l-78 241l-78 -241h-140l-111 334q-24 5 -53 5l5 136q34 14 89 14q43 0 65.5 -15.5t35.5 -61.5l49 -174l74 242h128l72 -236z" />
    <glyph glyph-name="Ycircumflex" unicode="&#x176;" horiz-adv-x="666" 
d="M330 781l-37 -51l-128 18l82 106h166l82 -106l-128 -18zM488 726l188 -24l-264 -442v-260h-184v260l-174 290h-74v154q42 12 112 12q84 0 112 -52l118 -228z" />
    <glyph glyph-name="ycircumflex" unicode="&#x177;" horiz-adv-x="580" 
d="M294 623l-47 -61l-140 2l124 160h126l124 -160l-140 -2zM394 490l180 -14l-230 -526q-35 -79 -88.5 -109.5t-131.5 -30.5q-54 0 -78 8l-14 150q43 -10 78 -10q71 0 99 58l-145 318q-25 5 -56 5l5 136q34 14 87 14q87 0 114 -69l77 -194z" />
    <glyph glyph-name="Ydieresis" unicode="&#x178;" horiz-adv-x="666" 
d="M203 732q-38 0 -60 22.5t-22 59.5t22 59.5t60 22.5t60 -22.5t22 -59.5t-22 -59.5t-60 -22.5zM437 732q-38 0 -60 22.5t-22 59.5t22 59.5t60 22.5t60 -22.5t22 -59.5t-22 -59.5t-60 -22.5zM488 726l188 -24l-264 -442v-260h-184v260l-174 290h-74v154q42 12 112 12
q84 0 112 -52l118 -228z" />
    <glyph glyph-name="Zacute" unicode="&#x179;" horiz-adv-x="620" 
d="M515 846l-106 -114l-162 10l62 130zM600 580l-320 -420h318v-160h-549l-9 130l318 420h-304v152q90 8 175 8h362z" />
    <glyph glyph-name="zacute" unicode="&#x17a;" horiz-adv-x="458" 
d="M402 702l-108 -152h-156l88 166zM438 346l-199 -206h199v-140h-408l-10 134l199 206h-184v140h393z" />
    <glyph glyph-name="Zdotaccent" unicode="&#x17b;" horiz-adv-x="620" 
d="M335 739q-44 0 -68 21.5t-24 61.5t24 61.5t68 21.5t68 -21.5t24 -61.5t-24 -61.5t-68 -21.5zM600 580l-320 -420h318v-160h-549l-9 130l318 420h-304v152q90 8 175 8h362z" />
    <glyph glyph-name="zdotaccent" unicode="&#x17c;" horiz-adv-x="458" 
d="M232 524q-48 0 -78 28.5t-30 75.5t30 75.5t78 28.5q49 0 78.5 -28t29.5 -76t-29.5 -76t-78.5 -28zM438 346l-199 -206h199v-140h-408l-10 134l199 206h-184v140h393z" />
    <glyph glyph-name="Zcaron" unicode="&#x17d;" horiz-adv-x="620" 
d="M418 738h-166l-82 106l128 18l37 -51l37 51l128 -18zM600 580l-320 -420h318v-160h-549l-9 130l318 420h-304v152q90 8 175 8h362z" />
    <glyph glyph-name="zcaron" unicode="&#x17e;" horiz-adv-x="458" 
d="M295 550h-126l-124 160l140 2l47 -61l47 61l140 -2zM438 346l-199 -206h199v-140h-408l-10 134l199 206h-184v140h393z" />
    <glyph glyph-name="uni01EA" unicode="&#x1ea;" horiz-adv-x="800" 
d="M533 10q-85 -53 -85 -86q0 -18 24 -18q19 0 46 10l8 -94q-42 -14 -106 -14q-104 0 -104 78q0 59 53 103q-150 10 -234.5 110.5t-84.5 254.5q0 162 93 264t257 102t257 -102t93 -264q0 -125 -56.5 -216.5t-160.5 -127.5zM238 354q0 -93 40 -147.5t122 -54.5t122 54.5
t40 147.5t-40 147.5t-122 54.5q-80 0 -121 -55t-41 -147z" />
    <glyph glyph-name="uni01EB" unicode="&#x1eb;" 
d="M427 11q-84 -53 -84 -85q0 -18 24 -18q19 0 46 10l8 -94q-42 -14 -106 -14q-104 0 -104 78q0 56 51 102q-104 11 -163 75.5t-59 172.5q0 120 70 186t192 66q121 0 191.5 -66.5t70.5 -185.5q0 -84 -36 -142t-101 -85zM222 238q0 -102 80 -102t80 102q0 104 -80 104
t-80 -104z" />
    <glyph glyph-name="AEacute" unicode="&#x1fc;" horiz-adv-x="1012" 
d="M826 846l-106 -114l-162 10l62 130zM726 268v-104h266v-164h-450v268h-215l-117 -268h-194l326 710h650l-10 -164h-256v-128h226v-150h-226zM392 418h150v128h-94z" />
    <glyph glyph-name="aeacute" unicode="&#x1fd;" horiz-adv-x="864" 
d="M620 702l-108 -152h-156l88 166zM520 200q15 -66 98 -66q94 0 152 40l46 -130q-18 -18 -76.5 -37t-131.5 -19q-140 0 -210 78q-62 -78 -182 -78q-86 0 -131 40t-45 110q0 71 57 111.5t167 40.5q43 0 76 -6v16q0 60 -64 60q-55 0 -62 -40l-160 28q15 69 63.5 105.5
t160.5 36.5q108 0 166 -37q59 37 141 37q114 0 176.5 -66.5t62.5 -176.5v-47h-304zM583 355q-28 0 -43.5 -15.5t-20.5 -50.5h125q-6 66 -61 66zM258 110q35 0 58.5 19t23.5 61v2q-28 4 -62 4q-68 0 -68 -46q0 -40 48 -40z" />
    <glyph glyph-name="Oslashacute" unicode="&#x1fe;" horiz-adv-x="800" 
d="M580 846l-106 -114l-162 10l62 130zM657 618q93 -99 93 -264q0 -162 -93 -264t-257 -102q-86 0 -156 31l-28 -41l-150 12l72 105q-88 100 -88 259q0 162 93 264t257 102q82 0 150 -28l34 50l150 -12zM238 354q0 -55 13 -95l200 290q-21 7 -51 7q-80 0 -121 -55t-41 -147z
M400 152q82 0 122 54.5t40 147.5q0 61 -16 103l-204 -296q26 -9 58 -9z" />
    <glyph glyph-name="oslashacute" unicode="&#x1ff;" 
d="M472 702l-108 -152h-156l88 166zM478 437q86 -67 86 -199q0 -119 -70.5 -184.5t-191.5 -65.5q-52 0 -95 12l-27 -44l-100 12l45 73q-85 66 -85 197q0 120 70 186t192 66q52 0 94 -12l28 44l100 -12zM222 238q0 -20 3 -36l87 140h-10q-80 0 -80 -104zM302 136q80 0 80 102
q0 20 -3 38l-87 -140h10z" />
    <glyph glyph-name="Scommaaccent" unicode="&#x218;" horiz-adv-x="650" 
d="M224 508q0 28 23.5 44t66.5 16q44 0 68 -14t30 -54l184 28q-13 192 -282 192q-274 0 -274 -218q0 -79 40 -126.5t96.5 -64.5t113 -27t96.5 -28t40 -54q0 -27 -27 -39.5t-89 -12.5q-131 0 -240 62l-20 -164q107 -60 260 -60q300 0 300 228q0 60 -21.5 101.5t-55.5 61.5
t-75 32t-82 18t-75 13t-55.5 23t-21.5 43zM408 -108q0 -60 -41 -92.5t-99 -35.5l-16 64q36 7 49 17.5t13 26.5q-78 0 -78 54q0 26 21.5 40t58.5 14q46 0 69 -23t23 -65z" />
    <glyph glyph-name="scommaaccent" unicode="&#x219;" horiz-adv-x="540" 
d="M256 490q-108 0 -162 -41.5t-54 -116.5q0 -51 28.5 -84t69.5 -45.5t82 -19.5t69.5 -14t28.5 -21q0 -12 -12 -18t-46 -6q-56 0 -109.5 16.5t-84.5 34.5l-22 -137q86 -50 222 -50q119 0 176.5 40.5t57.5 113.5q0 56 -29 90.5t-70.5 46.5t-83 18t-70.5 15t-29 28q0 30 44 30
q27 0 39.5 -9.5t16.5 -34.5l172 20q-6 144 -234 144zM350 -108q0 -60 -41 -92.5t-99 -35.5l-16 64q36 7 49 17.5t13 26.5q-78 0 -78 54q0 26 21.5 40t58.5 14q46 0 69 -23t23 -65z" />
    <glyph glyph-name="uni021A" unicode="&#x21a;" horiz-adv-x="564" 
d="M564 710v-160h-190v-550h-184v550h-190v152q88 8 160 8h404zM281 -20q45 0 68.5 -23t23.5 -65q0 -60 -41 -92.5t-99 -35.5l-16 64q36 7 49 17.5t13 26.5q-78 0 -78 54q0 26 21.5 40t58.5 14z" />
    <glyph glyph-name="uni021B" unicode="&#x21b;" horiz-adv-x="390" 
d="M390 334h-120v-148q0 -22 8.5 -32t31.5 -10q32 0 62 10l10 -150q-59 -16 -138 -16q-84 0 -119 37t-35 131v178h-90v146h90v140h180v-140h120v-146zM238 -20q46 0 69 -23t23 -65q0 -60 -41 -92.5t-99 -35.5l-16 64q36 7 49 17.5t13 26.5q-78 0 -78 54q0 26 21.5 40
t58.5 14z" />
    <glyph glyph-name="uni0237" unicode="&#x237;" horiz-adv-x="326" 
d="M266 480h-180v-460q0 -31 -12.5 -42.5t-37.5 -11.5q-28 0 -52 12l-4 -154q28 -14 94 -14q92 0 142 44t50 156v470z" />
    <glyph glyph-name="circumflex" unicode="&#x2c6;" horiz-adv-x="534" 
d="M454 564l-140 -2l-47 61l-47 -61l-140 2l124 160h126z" />
    <glyph glyph-name="caron" unicode="&#x2c7;" horiz-adv-x="534" 
d="M314 712l140 -2l-124 -160h-126l-124 160l140 2l47 -61z" />
    <glyph glyph-name="breve" unicode="&#x2d8;" horiz-adv-x="480" 
d="M290 710q-3 -56 -50 -56t-50 56l-110 -8q6 -158 160 -158t160 158z" />
    <glyph glyph-name="dotaccent" unicode="&#x2d9;" horiz-adv-x="376" 
d="M188 524q49 0 78.5 28t29.5 76t-29.5 76t-78.5 28q-48 0 -78 -28.5t-30 -75.5t30 -75.5t78 -28.5z" />
    <glyph glyph-name="ring" unicode="&#x2da;" horiz-adv-x="376" 
d="M188 534q46 0 77 27.5t31 74.5t-31 74.5t-77 27.5t-77 -27.5t-31 -74.5t31 -74.5t77 -27.5zM188 602q-14 0 -24 9t-10 25t10 25t24 9t24 -9t10 -25t-10 -25t-24 -9z" />
    <glyph glyph-name="ogonek" unicode="&#x2db;" horiz-adv-x="378" 
d="M80 -124q0 -78 104 -78q64 0 106 14l-8 94q-27 -10 -46 -10q-24 0 -24 18q0 33 86 86l-104 16q-45 -18 -79.5 -54.5t-34.5 -85.5z" />
    <glyph glyph-name="tilde" unicode="&#x2dc;" horiz-adv-x="572" 
d="M492 718q-2 -62 -34 -106t-86 -44q-43 0 -93 16t-63 16q-26 0 -32 -42l-104 12q3 67 34.5 108.5t85.5 41.5q37 0 86.5 -16t67.5 -16q29 0 34 42z" />
    <glyph glyph-name="hungarumlaut" unicode="&#x2dd;" horiz-adv-x="622" 
d="M168 716l-88 -166h156l108 152zM374 716l-88 -166h156l108 152z" />
    <glyph glyph-name="uni0326" unicode="&#x326;" horiz-adv-x="0" 
d="M-80 -108q0 -60 -41 -92.5t-99 -35.5l-16 64q36 7 49 17.5t13 26.5q-78 0 -78 54q0 26 21.5 40t58.5 14q46 0 69 -23t23 -65z" />
    <glyph glyph-name="Wgrave" unicode="&#x1e80;" horiz-adv-x="1034" 
d="M618 742l-162 -10l-106 114l206 26zM833 726l206 -24l-205 -702h-180l-118 420l-118 -420h-180l-179 550h-74v154q60 12 144 12q100 0 119 -80l86 -349l114 423h176l112 -416z" />
    <glyph glyph-name="wgrave" unicode="&#x1e81;" horiz-adv-x="765" 
d="M456 550h-156l-108 152l176 14zM576 490l178 -14l-156 -476h-140l-78 241l-78 -241h-140l-111 334q-24 5 -53 5l5 136q34 14 89 14q43 0 65.5 -15.5t35.5 -61.5l49 -174l74 242h128l72 -236z" />
    <glyph glyph-name="Wacute" unicode="&#x1e82;" horiz-adv-x="1034" 
d="M716 846l-106 -114l-162 10l62 130zM833 726l206 -24l-205 -702h-180l-118 420l-118 -420h-180l-179 550h-74v154q60 12 144 12q100 0 119 -80l86 -349l114 423h176l112 -416z" />
    <glyph glyph-name="wacute" unicode="&#x1e83;" horiz-adv-x="765" 
d="M550 702l-108 -152h-156l88 166zM576 490l178 -14l-156 -476h-140l-78 241l-78 -241h-140l-111 334q-24 5 -53 5l5 136q34 14 89 14q43 0 65.5 -15.5t35.5 -61.5l49 -174l74 242h128l72 -236z" />
    <glyph glyph-name="Wdieresis" unicode="&#x1e84;" horiz-adv-x="1034" 
d="M419 732q-38 0 -60 22.5t-22 59.5t22 59.5t60 22.5t60 -22.5t22 -59.5t-22 -59.5t-60 -22.5zM653 732q-38 0 -60 22.5t-22 59.5t22 59.5t60 22.5t60 -22.5t22 -59.5t-22 -59.5t-60 -22.5zM833 726l206 -24l-205 -702h-180l-118 420l-118 -420h-180l-179 550h-74v154
q60 12 144 12q100 0 119 -80l86 -349l114 423h176l112 -416z" />
    <glyph glyph-name="wdieresis" unicode="&#x1e85;" horiz-adv-x="765" 
d="M256 528q-45 0 -72.5 27.5t-27.5 72.5t27.5 72.5t72.5 27.5t72.5 -27.5t27.5 -72.5t-27.5 -72.5t-72.5 -27.5zM504 528q-45 0 -72.5 27.5t-27.5 72.5t27.5 72.5t72.5 27.5t72.5 -27.5t27.5 -72.5t-27.5 -72.5t-72.5 -27.5zM576 490l178 -14l-156 -476h-140l-78 241
l-78 -241h-140l-111 334q-24 5 -53 5l5 136q34 14 89 14q43 0 65.5 -15.5t35.5 -61.5l49 -174l74 242h128l72 -236z" />
    <glyph glyph-name="Ygrave" unicode="&#x1ef2;" horiz-adv-x="666" 
d="M402 742l-162 -10l-106 114l206 26zM488 726l188 -24l-264 -442v-260h-184v260l-174 290h-74v154q42 12 112 12q84 0 112 -52l118 -228z" />
    <glyph glyph-name="ygrave" unicode="&#x1ef3;" horiz-adv-x="580" 
d="M370 550h-156l-108 152l176 14zM394 490l180 -14l-230 -526q-35 -79 -88.5 -109.5t-131.5 -30.5q-54 0 -78 8l-14 150q43 -10 78 -10q71 0 99 58l-145 318q-25 5 -56 5l5 136q34 14 87 14q87 0 114 -69l77 -194z" />
    <glyph glyph-name="uni1EF8" unicode="&#x1ef8;" horiz-adv-x="666" 
d="M274 764q-25 0 -28 -36l-92 10q8 130 98 130q29 0 65.5 -16t48.5 -16q25 0 28 36l92 -10q-8 -130 -98 -130q-29 0 -65.5 16t-48.5 16zM488 726l188 -24l-264 -442v-260h-184v260l-174 290h-74v154q42 12 112 12q84 0 112 -52l118 -228z" />
    <glyph glyph-name="uni1EF9" unicode="&#x1ef9;" horiz-adv-x="580" 
d="M216 600q-26 0 -32 -42l-104 12q3 67 34.5 108.5t85.5 41.5q37 0 86.5 -16t67.5 -16q29 0 34 42l104 -12q-2 -62 -34 -106t-86 -44q-43 0 -93 16t-63 16zM394 490l180 -14l-230 -526q-35 -79 -88.5 -109.5t-131.5 -30.5q-54 0 -78 8l-14 150q43 -10 78 -10q71 0 99 58
l-145 318q-25 5 -56 5l5 136q34 14 87 14q87 0 114 -69l77 -194z" />
    <glyph glyph-name="endash" unicode="&#x2013;" horiz-adv-x="586" 
d="M536 357h-486v-140h486v140z" />
    <glyph glyph-name="emdash" unicode="&#x2014;" horiz-adv-x="876" 
d="M826 357h-776v-140h776v140z" />
    <glyph glyph-name="quoteleft" unicode="&#x2018;" horiz-adv-x="284" 
d="M50 568q0 -65 28 -97.5t76 -32.5q44 0 67 28t23 80q-72 0 -72 60q0 27 11.5 47t23 28t31.5 19l-44 68q-65 -24 -104.5 -75t-39.5 -125z" />
    <glyph glyph-name="quoteright" unicode="&#x2019;" horiz-adv-x="284" 
d="M244 602q0 65 -28 97.5t-76 32.5q-44 0 -67 -28t-23 -80q72 0 72 -60q0 -27 -11.5 -47t-23 -28t-31.5 -19l44 -68q65 24 104.5 75t39.5 125z" />
    <glyph glyph-name="quotesinglbase" unicode="&#x201a;" horiz-adv-x="274" 
d="M234 38q0 65 -28 97.5t-76 32.5q-44 0 -67 -28t-23 -80q72 0 72 -60q0 -27 -11.5 -47t-23 -28t-31.5 -19l44 -68q65 24 104.5 75t39.5 125z" />
    <glyph glyph-name="quotedblleft" unicode="&#x201c;" horiz-adv-x="542" 
d="M50 568q0 -65 28 -97.5t76 -32.5q44 0 67 28t23 80q-72 0 -72 60q0 27 11.5 47t23 28t31.5 19l-44 68q-65 -24 -104.5 -75t-39.5 -125zM308 568q0 -65 28 -97.5t76 -32.5q44 0 67 28t23 80q-72 0 -72 60q0 27 11.5 47t23 28t31.5 19l-44 68q-65 -24 -104.5 -75
t-39.5 -125z" />
    <glyph glyph-name="quotedblright" unicode="&#x201d;" horiz-adv-x="542" 
d="M244 602q0 65 -28 97.5t-76 32.5q-44 0 -67 -28t-23 -80q72 0 72 -60q0 -27 -11.5 -47t-23 -28t-31.5 -19l44 -68q65 24 104.5 75t39.5 125zM502 602q0 65 -28 97.5t-76 32.5q-44 0 -67 -28t-23 -80q72 0 72 -60q0 -27 -11.5 -47t-23 -28t-31.5 -19l44 -68
q65 24 104.5 75t39.5 125z" />
    <glyph glyph-name="quotedblbase" unicode="&#x201e;" horiz-adv-x="532" 
d="M234 38q0 65 -28 97.5t-76 32.5q-44 0 -67 -28t-23 -80q72 0 72 -60q0 -27 -11.5 -47t-23 -28t-31.5 -19l44 -68q65 24 104.5 75t39.5 125zM492 38q0 65 -28 97.5t-76 32.5q-44 0 -67 -28t-23 -80q72 0 72 -60q0 -27 -11.5 -47t-23 -28t-31.5 -19l44 -68q65 24 104.5 75
t39.5 125z" />
    <glyph glyph-name="dagger" unicode="&#x2020;" horiz-adv-x="644" 
d="M564 537l-8 -162l-154 13l8 -388h-176l8 388l-154 -13l-8 162l159 -12l-13 185h192l-13 -185z" />
    <glyph glyph-name="daggerdbl" unicode="&#x2021;" horiz-adv-x="620" 
d="M532 331l8 -162l-147 10l7 -179h-180l7 179l-147 -10l8 162l142 -10v108l-142 -10l-8 162l145 -10l-11 139h192l-11 -139l145 10l-8 -162l-142 10v-108z" />
    <glyph glyph-name="bullet" unicode="&#x2022;" horiz-adv-x="386" 
d="M193 159q62 0 102.5 40.5t40.5 102.5t-40.5 102.5t-102.5 40.5t-102.5 -40.5t-40.5 -102.5t40.5 -102.5t102.5 -40.5z" />
    <glyph glyph-name="ellipsis" unicode="&#x2026;" horiz-adv-x="788" 
d="M136 -12q42 0 69 27t27 69t-27 69t-69 27t-69 -27t-27 -69t27 -69t69 -27zM394 -12q42 0 69 27t27 69t-27 69t-69 27t-69 -27t-27 -69t27 -69t69 -27zM652 -12q42 0 69 27t27 69t-27 69t-69 27t-69 -27t-27 -69t27 -69t69 -27z" />
    <glyph glyph-name="perthousand" unicode="&#x2030;" horiz-adv-x="1423" 
d="M260 327q180 0 180 198q0 195 -180 195t-180 -197q0 -196 180 -196zM699 720l-514 -726l150 -6l514 726zM260 434q-27 0 -39 21t-12 68q0 46 12 67.5t39 21.5t39 -20.5t12 -66.5q0 -91 -51 -91zM773 -12q180 0 180 198q0 195 -180 195t-180 -197q0 -196 180 -196z
M1183 -12q180 0 180 198q0 195 -180 195t-180 -197q0 -196 180 -196zM773 95q-27 0 -39 21t-12 68q0 46 12 67.5t39 21.5t39 -20.5t12 -66.5q0 -91 -51 -91zM1183 95q-27 0 -39 21t-12 68q0 46 12 67.5t39 21.5t39 -20.5t12 -66.5q0 -91 -51 -91z" />
    <glyph glyph-name="guilsinglleft" unicode="&#x2039;" horiz-adv-x="344" 
d="M284 380l-97 -97l97 -97l-88 -90l-166 174v26l166 174z" />
    <glyph glyph-name="guilsinglright" unicode="&#x203a;" horiz-adv-x="344" 
d="M148 470l166 -174v-26l-166 -174l-88 90l97 97l-97 97z" />
    <glyph glyph-name="fraction" unicode="&#x2044;" horiz-adv-x="464" 
d="M414 720l-514 -726l150 -6l514 726z" />
    <glyph glyph-name="Euro" unicode="&#x20ac;" horiz-adv-x="692" 
d="M546 472l-14 -110h-493l14 110h65q45 248 296 248q152 0 215 -50l-27 -164q-75 44 -166 44q-95 0 -125 -78h235zM616 206l26 -170q-26 -16 -82 -32t-134 -16q-256 0 -305 232h-96l14 110h491l-14 -110h-198q32 -62 118 -62q49 0 85.5 8t54 16.5t40.5 23.5z" />
    <glyph glyph-name="trademark" unicode="&#x2122;" horiz-adv-x="780" 
d="M710 519q9 -3 30 -3v-88q-30 -6 -65 -6q-38 0 -55 12.5t-18 43.5l-3 87l-59 -121h-68l-59 121l-4 -139h-108l6 184h-73v-184h-110v184h-84v90h400l66 -137l66 137h132z" />
    <glyph glyph-name="minus" unicode="&#x2212;" horiz-adv-x="560" 
d="M500 387h-440v-150h440v150z" />
    <glyph glyph-name="approxequal" unicode="&#x2248;" horiz-adv-x="592" 
d="M532 518q-8 -178 -126 -178q-41 0 -100.5 15t-77.5 15q-35 0 -44 -54l-124 20q8 178 126 178q41 0 100.5 -15t77.5 -15q20 0 30 11.5t14 42.5zM532 298q-8 -178 -126 -178q-41 0 -100.5 15t-77.5 15q-35 0 -44 -54l-124 20q8 178 126 178q41 0 100.5 -15t77.5 -15
q20 0 30 11.5t14 42.5z" />
    <glyph glyph-name="notequal" unicode="&#x2260;" horiz-adv-x="540" 
d="M480 346h-111l-18 -58h129v-124h-166l-24 -80h-140l24 80h-114v124h151l18 58h-169v124h206l24 80h140l-24 -80h74v-124z" />
    <glyph glyph-name="uniF8FF" unicode="&#xf8ff;" horiz-adv-x="1451" 
d="M691 583q0 26 17.5 44t43.5 18t44 -18t18 -44t-18 -43.5t-44 -17.5t-43.5 18t-17.5 43zM219 270h-119q0 134 9 314h100q10 -200 10 -314zM694 270q0 92 3 147h-61l3 -65q4 -4 15 -4q13 0 18 5v-74q-14 -15 -68 -15q-82 0 -82 66q0 12 2 49t2 38h-22v79l119 30l1 -17h178
q10 -64 10 -239h-118zM328 265q-92 0 -92 114q0 135 134 135q124 0 124 -117v-127h-83l-8 61q-6 -33 -23.5 -49.5t-51.5 -16.5zM1090 270h-114q0 26 1 56t1 37q0 29 -15 29q-18 0 -18 -29q0 -7 1.5 -37t1.5 -56h-114q0 175 10 239h80q6 -44 6 -76q2 15 6.5 30t24 33t49.5 18
q42 0 58.5 -25t18.5 -81zM1351 391q0 -126 -123 -126q-122 0 -122 124q0 125 124 125q121 0 121 -123zM390 375q0 26 -24 26q-22 0 -22 -26q0 -30 22 -30q24 0 24 30zM1251 375q0 26 -23 26q-21 0 -21 -26q0 -30 21 -30q23 0 23 30zM428 238h104q10 -52 10 -138
q0 -81 -33.5 -115.5t-118.5 -34.5q-61 0 -88 17v83q24 -16 70 -16q21 0 34 6t16.5 11.5t3.5 10.5q-16 -11 -49 -11q-90 0 -90 83v13h-55l3 -65q6 -4 15 -4q13 0 18 5v-73q-19 -15 -68 -15q-45 0 -63 17t-18 54q0 39 3 81h-18v80l117 29l-1 -18h177v-119q0 -16 3 -21.5
t12 -5.5q16 0 16 27v119zM733 243q37 0 58.5 -29t21.5 -84q0 -135 -137 -135q1 -15 1 -39h-119q0 142 10 282h78q7 -42 7 -76q17 81 80 81zM1070 127q0 -21 -3 -35h-124q11 -18 50 -18q34 0 55 12v-75q-23 -16 -78 -16q-141 0 -141 122q0 59 32.5 92.5t92.5 33.5
q55 0 85.5 -30t30.5 -86zM978 109q3 27 -17 27q-23 0 -23 -27h40zM670 72q5 0 12.5 2.5t16 11.5t8.5 23q0 23 -20 23q-22 0 -22 -31q0 -14 5 -29zM1074 13q0 -23 24 -23t24 23t-24 23t-24 -23zM1080 13q0 18 18 18t18 -18t-18 -18t-18 18zM1108 2l-6 9q7 0 7 7t-10 7h-11
v-23h5v9h5l4 -9h6zM1100 15h-7v6h7q4 0 4 -3t-4 -3z" />
    <glyph glyph-name="i.loclTRK" horiz-adv-x="296" 
d="M130 524q49 0 78.5 28t29.5 76t-29.5 76t-78.5 28q-48 0 -78 -28.5t-30 -75.5t30 -75.5t78 -28.5zM220 141v339h-180v-384q0 -61 27.5 -83.5t96.5 -22.5q71 0 110 9l2 136q-32 0 -56 6z" />
    <glyph glyph-name="f_t" horiz-adv-x="674" 
d="M674 334h-120v-148q0 -22 8.5 -32t31.5 -10q32 0 62 10l10 -150q-59 -16 -138 -16q-84 0 -119 37t-35 131v178h-114v-334h-180v334h-80v146h80v50q0 94 43.5 142t122.5 48q60 0 102 -14l-8 -150q-20 8 -42 8q-38 0 -38 -46v-38h114v140h180v-140h120v-146z" />
    <glyph glyph-name="caron.alt" horiz-adv-x="328" 
d="M248 710l-140 10l-28 -202l130 -10z" />
    <glyph glyph-name="acute.case" horiz-adv-x="418" 
d="M142 872l-62 -130l162 -10l106 114z" />
    <glyph glyph-name="breve.case" horiz-adv-x="464" 
d="M278 862q-3 -24 -13.5 -34t-32.5 -10t-32.5 10t-13.5 34l-106 -8q3 -62 45 -93t107 -31t107 31t45 93z" />
    <glyph glyph-name="caron.case" horiz-adv-x="490" 
d="M282 862l128 -18l-82 -106h-166l-82 106l128 18l37 -51z" />
    <glyph glyph-name="circumflex.case" horiz-adv-x="470" 
d="M410 748l-128 -18l-37 51l-37 -51l-128 18l82 106h166z" />
    <glyph glyph-name="dieresis.case" horiz-adv-x="558" 
d="M162 732q38 0 60 22.5t22 59.5t-22 59.5t-60 22.5t-60 -22.5t-22 -59.5t22 -59.5t60 -22.5zM396 732q38 0 60 22.5t22 59.5t-22 59.5t-60 22.5t-60 -22.5t-22 -59.5t22 -59.5t60 -22.5z" />
    <glyph glyph-name="dotaccent.case" horiz-adv-x="344" 
d="M172 739q44 0 68 21.5t24 61.5t-24 61.5t-68 21.5t-68 -21.5t-24 -61.5t24 -61.5t68 -21.5z" />
    <glyph glyph-name="grave.case" horiz-adv-x="418" 
d="M276 872l-206 -26l106 -114l162 10z" />
    <glyph glyph-name="hungarumlaut.case" horiz-adv-x="628" 
d="M122 872l-62 -130l162 -10l106 114zM352 872l-62 -130l162 -10l106 114z" />
    <glyph glyph-name="macron.case" horiz-adv-x="460" 
d="M80 862v-120h300v120h-300z" />
    <glyph glyph-name="ring.case" horiz-adv-x="380" 
d="M190 720q53 0 81.5 25t28.5 69t-28.5 69t-81.5 25t-81.5 -25t-28.5 -69t28.5 -69t81.5 -25zM190 792q-20 0 -20 22t20 22t20 -22t-20 -22z" />
    <glyph glyph-name="tilde.case" horiz-adv-x="492" 
d="M412 862q-8 -130 -98 -130q-29 0 -65.5 16t-48.5 16q-25 0 -28 -36l-92 10q8 130 98 130q29 0 65.5 -16t48.5 -16q25 0 28 36z" />
    <glyph glyph-name="IJacute" horiz-adv-x="838" 
d="M146 872l-62 -130l162 -10l106 114zM640 872l-62 -130l162 -10l106 114zM80 710v-710h184v710h-184zM758 710h-184v-468q0 -57 -21.5 -75.5t-82.5 -18.5q-74 0 -130 28l-16 -160q56 -28 164 -28q58 0 102.5 11t84.5 39t61.5 82.5t21.5 133.5v456z" />
    <glyph glyph-name="ijacute" horiz-adv-x="612" 
d="M124 716l-88 -166h156l108 152zM456 716l-88 -166h156l108 152zM220 141v339h-180v-384q0 -61 27.5 -83.5t96.5 -22.5q71 0 110 9l2 136q-32 0 -56 6zM552 480h-180v-460q0 -31 -12.5 -42.5t-37.5 -11.5q-28 0 -52 12l-4 -154q28 -14 94 -14q92 0 142 44t50 156v470z" />
    </font>
</defs>
</svg>
