<?xml version="1.0" standalone="no"?>
<!DOCTYPE svg PUBLIC "-//W3C//DTD SVG 1.1//EN" "http://www.w3.org/Graphics/SVG/1.1/DTD/svg11.dtd" >
<svg xmlns="http://www.w3.org/2000/svg" xmlns:xlink="http://www.w3.org/1999/xlink" version="1.1">
<metadata>
Created by FontForge 20161003 at Wed Dec 27 17:13:49 2017
 By www-data
Latinotype
</metadata>
<defs>
<font id="corporativebold" horiz-adv-x="764" >
  <font-face 
    font-family="corporativebold"
    font-weight="800"
    font-stretch="normal"
    units-per-em="1000"
    panose-1="0 0 9 0 0 0 0 0 0 0"
    ascent="810"
    descent="-190"
    x-height="480"
    cap-height="710"
    bbox="-235 -220 1351 895"
    underline-thickness="50"
    underline-position="-150"
    unicode-range="U+0020-FB02"
  />
<missing-glyph horiz-adv-x="630" 
d="M100 710h430v-710h-430v710zM165 675l150 -278l150 278h-300zM293 355l-153 284v-568zM338 355l152 -284v568zM315 313l-150 -278h300z" />
    <glyph glyph-name="fi" unicode="fi" horiz-adv-x="594" 
d="M508 106q24 -6 61 -6l-2 -102q-33 -7 -90 -7q-56 0 -79 19t-23 70v291h-153v-371h-133v371h-84v109h84v62q0 178 204 178q86 0 150 -24l-7 -113q-51 21 -116 21q-98 0 -98 -74v-50h286v-374z" />
    <glyph glyph-name="fl" unicode="fl" horiz-adv-x="605" 
d="M516 106q26 -6 74 -6l-2 -102q-38 -7 -87 -7q-63 0 -90.5 22t-27.5 88v270h-161v-371h-133v371h-84v109h84v66q0 174 151 174q55 0 106 -19l-5 -111q-34 14 -65 14q-54 0 -54 -69v-55h161v230h133v-604z" />
    <glyph glyph-name=".notdef" horiz-adv-x="630" 
d="M100 710h430v-710h-430v710zM165 675l150 -278l150 278h-300zM293 355l-153 284v-568zM338 355l152 -284v568zM315 313l-150 -278h300z" />
    <glyph glyph-name=".null" horiz-adv-x="0" 
 />
    <glyph glyph-name="nonmarkingreturn" horiz-adv-x="333" 
 />
    <glyph glyph-name="space" unicode=" " horiz-adv-x="269" 
 />
    <glyph glyph-name="exclam" unicode="!" horiz-adv-x="254" 
d="M58 710l8 -473h123l8 473h-139zM127 -12q35 0 58.5 23.5t23.5 58.5q0 36 -23.5 59.5t-58.5 23.5t-58.5 -23.5t-23.5 -59.5q0 -35 23.5 -58.5t58.5 -23.5z" />
    <glyph glyph-name="quotedbl" unicode="&#x22;" horiz-adv-x="414" 
d="M59 721l-10 -236h102l31 223zM242 721l-10 -236h102l31 223z" />
    <glyph glyph-name="numbersign" unicode="#" horiz-adv-x="715" 
d="M624 379h-104l-24 -108h105l-21 -92h-105l-27 -119h-102l27 119h-94l-27 -119h-102l27 119h-108l22 92h107l24 108h-109l22 92h108l27 119h102l-27 -119h94l27 119h102l-27 -119h104zM394 271l25 108h-95l-25 -108h95z" />
    <glyph glyph-name="dollar" unicode="$" horiz-adv-x="627" 
d="M572 200q0 -89 -54 -138.5t-153 -60.5l-2 -103h-125l3 103q-120 14 -177 55l12 126q19 -11 45.5 -23t80 -25.5t105.5 -13.5q69 0 98.5 17t29.5 58q0 30 -28 50.5t-70.5 30.5t-91.5 27t-91.5 37.5t-70.5 63t-28 103.5q0 87 51.5 139t149.5 62l2 102h125l-3 -105
q150 -23 173 -151l-131 -26q-14 65 -119 65q-112 0 -112 -84q0 -34 28 -56t70.5 -32.5t92 -26t92 -34.5t70.5 -60t28 -100z" />
    <glyph glyph-name="percent" unicode="%" horiz-adv-x="973" 
d="M256 327q176 0 176 197q0 196 -176 196t-176 -197q0 -196 176 -196zM696 720l-514 -727l115 -5l514 727zM256 410q-74 0 -74 113t74 113t74 -112q0 -114 -74 -114zM737 -12q176 0 176 198q0 195 -176 195t-176 -197q0 -196 176 -196zM737 72q-74 0 -74 112q0 113 74 113
t74 -111q0 -114 -74 -114z" />
    <glyph glyph-name="ampersand" unicode="&#x26;" horiz-adv-x="808" 
d="M763 411q-42 -207 -143 -312l118 -111l-140 -16l-64 60q-98 -54 -233 -54q-255 0 -255 174q0 67 36 112.5t111 86.5q-41 41 -60.5 80.5t-19.5 95.5q0 84 55 138.5t161 54.5q102 0 153.5 -46t51.5 -121q0 -142 -162 -223l157 -147q78 81 106 236zM328 611q-43 0 -66 -23.5
t-23 -63.5q0 -63 58 -122q52 27 81.5 56.5t29.5 74.5q0 37 -20.5 57.5t-59.5 20.5zM312 95q69 0 127 25l-170 160q-41 -23 -60.5 -47t-19.5 -60t30.5 -57t92.5 -21z" />
    <glyph glyph-name="quotesingle" unicode="'" horiz-adv-x="231" 
d="M59 721l-10 -236h102l31 223z" />
    <glyph glyph-name="parenleft" unicode="(" horiz-adv-x="438" 
d="M214 315q0 -85 17 -156t45.5 -118t56.5 -77.5t60 -51.5l-21 -102q-49 20 -96 60.5t-90.5 101t-70 150.5t-26.5 193t26.5 193t70 150.5t90.5 101t96 60.5l21 -102q-32 -21 -60 -51.5t-56.5 -77.5t-45.5 -118t-17 -156z" />
    <glyph glyph-name="parenright" unicode=")" horiz-adv-x="438" 
d="M224 315q0 85 -17 156t-45.5 118t-56.5 77.5t-60 51.5l21 102q49 -20 96 -60.5t90.5 -101t70 -150.5t26.5 -193t-26.5 -193t-70 -150.5t-90.5 -101t-96 -60.5l-21 102q32 21 60 51.5t56.5 77.5t45.5 118t17 156z" />
    <glyph glyph-name="asterisk" unicode="*" horiz-adv-x="457" 
d="M290 585l98 -42l-43 -77l-78 56l6 -88h-89l6 88l-78 -56l-43 77l99 42l-99 43l43 76l78 -56l-6 88h89l-6 -88l78 56l43 -76z" />
    <glyph glyph-name="plus" unicode="+" horiz-adv-x="537" 
d="M468 372v-110h-139v-147h-121v147h-139v110h139v147h121v-147h139z" />
    <glyph glyph-name="comma" unicode="," horiz-adv-x="251" 
d="M207 28q0 55 -23.5 83.5t-62.5 28.5q-37 0 -56.5 -23.5t-19.5 -65.5q63 0 63 -54q0 -25 -10.5 -43t-20 -25t-26.5 -17l36 -58q120 55 120 174z" />
    <glyph glyph-name="hyphen" unicode="-" horiz-adv-x="400" 
d="M345 341h-290v-108h290v108z" />
    <glyph glyph-name="period" unicode="." horiz-adv-x="254" 
d="M127 -12q35 0 58.5 23.5t23.5 58.5q0 36 -23.5 59.5t-58.5 23.5t-58.5 -23.5t-23.5 -59.5q0 -35 23.5 -58.5t58.5 -23.5z" />
    <glyph glyph-name="slash" unicode="/" horiz-adv-x="448" 
d="M320 810l-320 -990h128l320 990h-128z" />
    <glyph glyph-name="zero" unicode="0" horiz-adv-x="641" 
d="M321 -12q140 0 205.5 96.5t65.5 269.5t-65.5 269.5t-205.5 96.5t-206 -96.5t-66 -269.5t66 -269.5t206 -96.5zM321 105q-73 0 -104 60.5t-31 188.5q0 126 32 187.5t103 61.5q72 0 103 -60.5t31 -188.5t-31 -188.5t-103 -60.5z" />
    <glyph glyph-name="one" unicode="1" horiz-adv-x="444" 
d="M325 110h94v-110h-364v110h133v464q-25 -18 -77 -43t-97 -40l-24 115q125 45 199 104h136v-600z" />
    <glyph glyph-name="two" unicode="2" horiz-adv-x="547" 
d="M176 111h339v-111h-484v63q0 51 19 94t49.5 73t67.5 56.5t74 50t67.5 47t49.5 54t19 65.5q0 103 -111 103q-95 0 -109 -82l-133 23q14 87 77.5 130t166.5 43q117 0 181 -56t64 -161q0 -61 -31.5 -112.5t-78 -86.5t-94 -65t-86 -63t-47.5 -65z" />
    <glyph glyph-name="three" unicode="3" horiz-adv-x="555" 
d="M401 374q57 -21 86 -61t29 -111q0 -95 -68 -154.5t-188 -59.5q-194 0 -241 149l123 41q20 -76 120 -76q56 0 88.5 27t32.5 81q0 109 -128 109h-57v101h56q50 0 78 25t28 69q0 41 -26 66.5t-76 25.5q-90 0 -106 -72l-128 27q30 159 235 159q108 0 170.5 -52.5t62.5 -142.5
q0 -106 -91 -151z" />
    <glyph glyph-name="four" unicode="4" horiz-adv-x="594" 
d="M474 305h110v-112h-110v-193h-137v193h-302l-35 100l341 417h133v-405zM145 305h192v237z" />
    <glyph glyph-name="five" unicode="5" horiz-adv-x="542" 
d="M262 445q127 0 189 -58.5t62 -163.5q0 -107 -67 -171t-185 -64q-95 0 -151.5 34.5t-80.5 108.5l116 41q21 -70 117 -70q57 0 87.5 32t30.5 90q0 119 -146 119q-49 0 -167 -21l17 388h398v-116h-284l-7 -154q38 5 71 5z" />
    <glyph glyph-name="six" unicode="6" horiz-adv-x="590" 
d="M333 444q104 0 166 -59.5t62 -159.5q0 -105 -64 -171t-181 -66q-126 0 -196.5 91.5t-70.5 257.5q0 114 27.5 197.5t91 134.5t159.5 51q92 0 145.5 -41.5t67.5 -114.5l-125 -21q-17 65 -96 65q-64 0 -97 -48t-39 -158q61 42 150 42zM319 102q53 0 83.5 30t30.5 88
q0 57 -30 89t-83 32q-77 0 -136 -47q8 -109 42 -150.5t93 -41.5z" />
    <glyph glyph-name="seven" unicode="7" horiz-adv-x="439" 
d="M-17 710h466v-114q-193 -268 -281 -596h-138q95 323 287 594h-334v116z" />
    <glyph glyph-name="eight" unicode="8" horiz-adv-x="589" 
d="M418 373q73 -36 102.5 -79t29.5 -105q0 -92 -62.5 -146.5t-192.5 -54.5q-256 0 -256 188q0 115 123 185q-54 29 -77 70t-23 103q0 83 61 134.5t171 51.5q112 0 170 -49.5t58 -130.5q0 -108 -104 -167zM296 611q-103 0 -103 -80q0 -41 24 -64.5t94 -49.5q43 26 61.5 51.5
t18.5 62.5q0 80 -95 80zM295 97q122 0 122 95q0 42 -31.5 71t-115.5 56q-100 -51 -100 -128q0 -94 125 -94z" />
    <glyph glyph-name="nine" unicode="9" horiz-adv-x="591" 
d="M277 720q125 0 195 -89.5t70 -257.5q0 -115 -26.5 -198.5t-90.5 -135t-162 -51.5q-189 0 -215 160l121 29q9 -42 34 -59t68 -17q61 0 94.5 48.5t40.5 162.5q-66 -44 -151 -44q-105 0 -165.5 57.5t-60.5 157.5q0 106 64.5 171.5t183.5 65.5zM158 486q0 -116 119 -116
q77 0 131 48q-9 189 -134 189q-55 0 -85.5 -31t-30.5 -90z" />
    <glyph glyph-name="colon" unicode=":" horiz-adv-x="254" 
d="M127 329q35 0 58.5 23.5t23.5 59.5q0 35 -23.5 58.5t-58.5 23.5t-58.5 -23.5t-23.5 -58.5q0 -36 23.5 -59.5t58.5 -23.5zM127 -12q35 0 58.5 23.5t23.5 58.5q0 36 -23.5 59.5t-58.5 23.5t-58.5 -23.5t-23.5 -59.5q0 -35 23.5 -58.5t58.5 -23.5z" />
    <glyph glyph-name="semicolon" unicode=";" horiz-adv-x="255" 
d="M127 330q35 0 58.5 23.5t23.5 58.5q0 36 -23.5 59t-58.5 23t-58.5 -23t-23.5 -59q0 -35 23.5 -58.5t58.5 -23.5zM207 28q0 55 -23.5 83.5t-62.5 28.5q-37 0 -56.5 -23.5t-19.5 -65.5q63 0 63 -54q0 -25 -10.5 -43t-20 -25t-26.5 -17l36 -58q120 55 120 174z" />
    <glyph glyph-name="less" unicode="&#x3c;" horiz-adv-x="533" 
d="M443 446l-261 -129l261 -129l-2 -120l-372 192v114l372 192z" />
    <glyph glyph-name="equal" unicode="=" horiz-adv-x="559" 
d="M489 456h-420v-97h420v97zM489 275h-420v-97h420v97z" />
    <glyph glyph-name="greater" unicode="&#x3e;" horiz-adv-x="533" 
d="M91 566l372 -192v-114l-372 -192l-2 120l260 129l-260 129z" />
    <glyph glyph-name="question" unicode="?" horiz-adv-x="503" 
d="M29 590l104 -31q14 60 87 60q90 0 90 -98q0 -17 -5 -34t-11 -30.5t-19.5 -29t-22.5 -25t-28 -24.5t-27.5 -21.5t-30.5 -21.5t-28 -20l14 -94h101l5 61q79 52 110 85q65 71 65 173q0 87 -52.5 133.5t-156.5 46.5q-82 0 -129 -31.5t-66 -98.5zM208 -12q35 0 59 23.5
t24 58.5q0 36 -24 59.5t-59 23.5t-58.5 -23.5t-23.5 -59.5q0 -35 23.5 -58.5t58.5 -23.5z" />
    <glyph glyph-name="at" unicode="@" horiz-adv-x="1092" 
d="M550 725q215 0 344 -113.5t129 -331.5q0 -150 -57.5 -215t-150.5 -65q-94 0 -139 66q-63 -66 -162 -66q-102 0 -159 62t-57 170q0 107 61.5 177.5t161.5 70.5q79 0 139 -40l7 30h111v-281q0 -43 13.5 -61.5t42.5 -18.5q38 0 58.5 38t20.5 133q0 162 -100 251.5t-266 89.5
q-172 0 -266.5 -99t-94.5 -270q0 -97 24.5 -168t69 -110.5t100.5 -58t125 -18.5q112 0 210 49l11 -101q-86 -50 -231 -50q-194 0 -310 114t-116 343q0 148 64 256.5t172 162.5t245 54zM537 110q50 0 79 25.5t29 76.5v124q-40 29 -95 29q-56 0 -86.5 -35t-30.5 -98
q0 -122 104 -122z" />
    <glyph glyph-name="A" unicode="A" horiz-adv-x="744" 
d="M661 120q26 -8 71 -8l-2 -114q-26 -6 -71 -6q-51 0 -77 14t-41 55l-38 104h-291l-59 -165h-143l270 703l143 20zM252 277h210l-106 289z" />
    <glyph glyph-name="B" unicode="B" horiz-adv-x="694" 
d="M554 385q113 -51 113 -173q0 -105 -68 -158.5t-199 -53.5h-297v590h-78v112q50 12 101 12q56 0 84 -27q70 33 167 33q120 0 185 -52t65 -142q0 -93 -73 -141zM492 500q0 98 -134 98q-62 0 -118 -9v-177h133q119 0 119 88zM413 120q117 0 117 94q0 44 -30.5 67t-85.5 23
h-174v-184h173z" />
    <glyph glyph-name="C" unicode="C" horiz-adv-x="705" 
d="M430 117q-110 0 -171.5 62t-61.5 179q0 121 50 181.5t134 60.5q143 0 151 -134l139 19q0 109 -74 172t-215 63q-151 0 -239 -95.5t-88 -274.5q0 -172 93.5 -267t258.5 -95q163 0 255 61l-32 125q-95 -57 -200 -57z" />
    <glyph glyph-name="D" unicode="D" 
d="M360 720q162 0 255.5 -97t93.5 -264q0 -171 -104.5 -265t-286.5 -94h-215v590h-78v112q50 12 101 12q57 0 84 -27q70 33 150 33zM319 125q125 0 188 59t63 174q0 111 -57.5 174.5t-169.5 63.5q-49 0 -103 -9v-462h79z" />
    <glyph glyph-name="E" unicode="E" horiz-adv-x="581" 
d="M222 292v-170h334v-122h-471v710h471l-8 -122h-326v-182h299v-114h-299z" />
    <glyph glyph-name="F" unicode="F" horiz-adv-x="543" 
d="M527 592h-305v-186h283v-114h-283v-292h-137v710h450z" />
    <glyph glyph-name="G" unicode="G" horiz-adv-x="790" 
d="M663 387q31 0 47 -16t16 -42v-329h-110l-6 73q-85 -85 -216 -85q-156 0 -247.5 97.5t-91.5 268.5q0 179 92.5 272.5t258.5 93.5q131 0 205.5 -54t89.5 -151l-141 -28q-19 112 -154 112q-100 0 -154.5 -62t-54.5 -183q0 -118 56 -181t159 -63q82 0 132.5 38t50.5 104v30
h-186v105h254z" />
    <glyph glyph-name="H" unicode="H" horiz-adv-x="788" 
d="M692 120q24 -8 71 -8l-2 -114q-36 -6 -88 -6q-61 0 -89.5 24t-28.5 91v175h-333v-282h-137v710h137v-303h333v303h137v-590z" />
    <glyph glyph-name="I" unicode="I" horiz-adv-x="306" 
d="M85 710v-710h137v710h-137z" />
    <glyph glyph-name="J" unicode="J" horiz-adv-x="503" 
d="M418 710h-137v-491q0 -64 -25 -87.5t-90 -23.5q-70 0 -132 28l-13 -120q56 -28 156 -28q114 0 177.5 52t63.5 184v486z" />
    <glyph glyph-name="K" unicode="K" horiz-adv-x="691" 
d="M571 153q22 -27 40 -34t74 -7l-7 -115q-34 -6 -64 -6q-50 0 -81 15.5t-71 71.5l-150 204h-90v-282h-137v710h137v-292h90l216 301l151 -16l-262 -350z" />
    <glyph glyph-name="L" unicode="L" horiz-adv-x="568" 
d="M222 125h339v-125h-476v710h137v-585z" />
    <glyph glyph-name="M" unicode="M" horiz-adv-x="965" 
d="M870 119q32 -7 70 -7l-2 -114q-28 -6 -82 -6q-66 0 -94 24.5t-30 99.5l-12 384l-186 -406h-111l-186 406l-15 -500h-137l21 703l174 20l199 -450l199 437h172z" />
    <glyph glyph-name="N" unicode="N" horiz-adv-x="790" 
d="M569 710h136v-710h-130l-354 483v-483h-136v703l129 20l355 -490v477z" />
    <glyph glyph-name="O" unicode="O" horiz-adv-x="798" 
d="M399 -12q159 0 251.5 102.5t92.5 263.5t-92.5 263.5t-251.5 102.5t-251.5 -102.5t-92.5 -263.5t92.5 -263.5t251.5 -102.5zM399 111q-99 0 -151.5 66t-52.5 177t53 177t151 66q99 0 151.5 -66t52.5 -177t-52.5 -177t-151.5 -66z" />
    <glyph glyph-name="P" unicode="P" horiz-adv-x="641" 
d="M363 720q130 0 197.5 -65t67.5 -183q0 -113 -74 -175.5t-208 -62.5h-106v-234h-137v590h-78v112q50 12 101 12q56 0 84 -27q68 33 153 33zM346 353q146 0 146 119q0 126 -146 126q-60 0 -106 -9v-236h106z" />
    <glyph glyph-name="Q" unicode="Q" horiz-adv-x="798" 
d="M546 -1q22 -40 47 -54.5t69 -14.5q42 0 77 11l-10 -109q-45 -12 -95 -12q-77 0 -124.5 29t-89.5 110l-15 29h-6q-159 0 -251.5 102.5t-92.5 263.5t92.5 263.5t251.5 102.5t251.5 -102.5t92.5 -263.5q0 -121 -53.5 -211.5t-150.5 -129.5zM195 354q0 -111 52.5 -177
t151.5 -66t151.5 66t52.5 177t-52.5 177t-151.5 66q-98 0 -151 -66t-53 -177z" />
    <glyph glyph-name="R" unicode="R" horiz-adv-x="693" 
d="M582 144q13 -21 30.5 -26.5t68.5 -5.5l-10 -115q-30 -6 -61 -6q-49 0 -77.5 15t-57.5 59l-118 188h-117v-253h-137v590h-78v112q50 12 101 12q56 0 84 -27q68 33 158 33q131 0 200.5 -62t69.5 -173q0 -79 -36.5 -134.5t-102.5 -79.5zM240 589v-217h117q71 0 107 25t36 83
q0 118 -153 118q-55 0 -107 -9z" />
    <glyph glyph-name="S" unicode="S" horiz-adv-x="628" 
d="M180 517q0 90 123 90q58 0 89.5 -20t38.5 -67l135 22q-16 178 -263 178q-129 0 -193.5 -54t-64.5 -156q0 -58 22 -98t58 -60.5t78.5 -33t85.5 -21t79 -18.5t58 -31t22 -54q0 -85 -143 -85q-130 0 -236 64l-16 -124q104 -61 253 -61q278 0 278 214q0 58 -22.5 98.5t-58 60
t-78.5 31.5t-86 19.5t-78.5 17.5t-58 31.5t-22.5 56.5z" />
    <glyph glyph-name="T" unicode="T" horiz-adv-x="559" 
d="M557 710v-121h-209v-589h-137v589h-209v113q101 8 174 8h381z" />
    <glyph glyph-name="U" unicode="U" 
d="M685 710h-137v-424q0 -178 -159 -178q-79 0 -117 44t-38 137v327q0 96 -104 96q-58 0 -111 -8v-112h78v-312q0 -292 292 -292q142 0 219 77.5t77 214.5v430z" />
    <glyph glyph-name="V" unicode="V" horiz-adv-x="703" 
d="M565 723l144 -20l-275 -703h-147l-225 592h-77v111q66 12 105 12q81 0 106 -72l165 -459z" />
    <glyph glyph-name="W" unicode="W" horiz-adv-x="1004" 
d="M856 723l148 -20l-208 -703h-139l-135 493l-135 -493h-138l-182 592h-77v112q55 11 115 11q84 0 101 -68l114 -441l135 504h135l134 -502z" />
    <glyph glyph-name="X" unicode="X" horiz-adv-x="691" 
d="M612 120q24 -8 70 -8l-2 -114q-36 -6 -72 -6q-46 0 -68.5 17.5t-63.5 74.5l-130 185l-170 -269h-153l240 363l-173 228h-80v111q46 12 94 12q63 0 105 -59l138 -196l171 265l146 -20l-235 -341z" />
    <glyph glyph-name="Y" unicode="Y" horiz-adv-x="641" 
d="M508 723l138 -20l-259 -430v-273h-137v273l-188 319h-77v112q33 11 92 11q71 0 98 -48l144 -267z" />
    <glyph glyph-name="Z" unicode="Z" horiz-adv-x="619" 
d="M594 610l-376 -490h372v-120h-539l-9 102l374 488h-359v113q77 7 170 7h358z" />
    <glyph glyph-name="bracketleft" unicode="[" horiz-adv-x="396" 
d="M352 703h-140v-776h140v-107h-263v990h263v-107z" />
    <glyph glyph-name="backslash" unicode="\" horiz-adv-x="448" 
d="M128 810h-128l320 -990h128z" />
    <glyph glyph-name="bracketright" unicode="]" horiz-adv-x="396" 
d="M307 810v-990h-262v107h140v776h-140v107h262z" />
    <glyph glyph-name="underscore" unicode="_" horiz-adv-x="460" 
d="M415 0h-370v-107h370v107z" />
    <glyph glyph-name="grave" unicode="`" horiz-adv-x="401" 
d="M224 715l-135 -11l106 -154h117z" />
    <glyph glyph-name="a" unicode="a" horiz-adv-x="576" 
d="M491 105q25 -6 61 -6l-2 -101q-46 -7 -71 -7q-81 0 -106 60q-57 -63 -164 -63q-79 0 -123 39.5t-44 107.5q0 71 55 111.5t162 40.5q56 0 103 -10v25q0 87 -93 87q-79 0 -89 -61l-123 21q14 67 61.5 104t151.5 37q221 0 221 -189v-196zM244 83q49 0 83.5 30t34.5 81v7
q-45 8 -92 8q-100 0 -100 -67q0 -59 74 -59z" />
    <glyph glyph-name="b" unicode="b" horiz-adv-x="596" 
d="M330 490q100 0 158 -63t58 -184q0 -119 -67.5 -187t-205.5 -68q-126 0 -214 50v672h133v-273q51 53 138 53zM283 99q62 0 95.5 36.5t33.5 105.5q0 67 -29 102.5t-81 35.5q-50 0 -80 -29.5t-30 -73.5v-155q35 -22 91 -22z" />
    <glyph glyph-name="c" unicode="c" horiz-adv-x="550" 
d="M472 153q-76 -53 -164 -53q-59 0 -91.5 36t-32.5 107q0 67 29 101.5t79 34.5q80 0 83 -89l123 15q0 79 -49.5 132t-155.5 53q-117 0 -180.5 -67.5t-63.5 -179.5q0 -128 65.5 -191.5t188.5 -63.5q126 0 201 58z" />
    <glyph glyph-name="d" unicode="d" horiz-adv-x="614" 
d="M536 105q27 -6 63 -6l-2 -101q-42 -7 -70 -7q-83 0 -110 70q-59 -73 -161 -73q-90 0 -148.5 64t-58.5 182q0 119 65 187.5t171 68.5q68 0 119 -21v241h132v-605zM285 99q50 0 84.5 33.5t34.5 87.5v128q-45 31 -104 31q-53 0 -85 -36.5t-32 -108.5q0 -69 28 -102t74 -33z
" />
    <glyph glyph-name="e" unicode="e" horiz-adv-x="560" 
d="M184 208q14 -110 130 -110q49 0 91 15.5t63 32.5l34 -102q-22 -20 -76.5 -38t-121.5 -18q-125 0 -190 68t-65 190q0 108 64.5 176t171.5 68q109 0 167.5 -66t58.5 -171v-45h-327zM285 386q-86 0 -100 -100h193q-8 100 -93 100z" />
    <glyph glyph-name="f" unicode="f" horiz-adv-x="373" 
d="M290 604q-68 0 -68 -71v-53h137v-109h-137v-371h-133v371h-84v109h84v66q0 174 163 174q65 0 121 -21l-7 -111q-45 16 -76 16z" />
    <glyph glyph-name="g" unicode="g" horiz-adv-x="548" 
d="M387 116q77 0 114 -36t37 -100q0 -75 -65 -122.5t-193 -47.5q-241 0 -241 130q0 65 52 106q-29 26 -29 71q0 59 66 106q-53 41 -53 110q0 70 54.5 113t150.5 43q47 0 79 -8q31 99 154 102l14 -108q-60 -3 -83 -38q40 -39 40 -101q0 -72 -53 -112.5t-151 -40.5
q-46 0 -82 9q-23 -16 -23 -39q0 -37 47 -37h165zM280 405q-38 0 -58 -19.5t-20 -54.5q0 -71 78 -71t78 71q0 35 -20.5 54.5t-57.5 19.5zM284 -95q130 0 130 62q0 48 -63 48h-166h-4q-23 -18 -23 -51q0 -59 126 -59z" />
    <glyph glyph-name="h" unicode="h" horiz-adv-x="611" 
d="M525 106q24 -6 61 -6l-2 -102q-28 -7 -81 -7q-60 0 -85.5 20.5t-25.5 79.5v173q0 110 -92 110q-47 0 -77.5 -31.5t-30.5 -77.5v-265h-133v710h133v-285q58 65 152 65q91 0 136 -53t45 -151v-180z" />
    <glyph glyph-name="i" unicode="i" horiz-adv-x="263" 
d="M111 550q38 0 61 23t23 60t-23 59.5t-61 22.5q-37 0 -61 -23t-24 -59q0 -37 24 -60t61 -23zM178 106v374h-133v-400q0 -51 22.5 -70t78.5 -19q58 0 90 7l2 102q-36 0 -60 6z" />
    <glyph glyph-name="j" unicode="j" horiz-adv-x="288" 
d="M157 550q38 0 61 23t23 60t-23 59.5t-61 22.5q-37 0 -61 -23t-24 -59q0 -37 24 -60t61 -23zM224 480h-133v-499q0 -31 -12.5 -43t-38.5 -12q-25 0 -51 12l-4 -115q33 -13 82 -13q76 0 116.5 36.5t40.5 125.5v508z" />
    <glyph glyph-name="k" unicode="k" horiz-adv-x="538" 
d="M455 106q22 -11 75 -11l-2 -97q-26 -7 -69 -7q-68 0 -100 46l-111 165l-56 -56v-146h-133v710h133v-410l181 188l149 -8l-189 -192z" />
    <glyph glyph-name="l" unicode="l" horiz-adv-x="282" 
d="M59 710v-609q0 -65 27.5 -87.5t91.5 -22.5q48 0 87 7l2 102q-50 0 -75 6v604h-133z" />
    <glyph glyph-name="m" unicode="m" horiz-adv-x="920" 
d="M835 106q24 -6 61 -6l-2 -102q-30 -8 -77 -8q-62 0 -88.5 21.5t-26.5 82.5v176q0 53 -19.5 78.5t-63.5 25.5q-41 0 -68 -28.5t-27 -73.5v-272h-133v268q0 55 -19.5 80.5t-63.5 25.5q-41 0 -68.5 -29t-27.5 -73v-272h-133v370q-21 6 -54 6l2 102q40 11 67 11q85 0 108 -73
q57 74 146 74q112 0 154 -90q56 90 156 90q87 0 132 -53.5t45 -151.5v-179z" />
    <glyph glyph-name="n" unicode="n" horiz-adv-x="630" 
d="M544 106q24 -6 61 -6l-2 -102q-28 -7 -81 -7q-60 0 -85.5 20.5t-25.5 79.5v173q0 110 -92 110q-47 0 -77.5 -31.5t-30.5 -77.5v-265h-133v370q-20 6 -53 6l2 102q44 11 67 11q88 0 110 -73q57 74 160 74q90 0 135 -53t45 -151v-180z" />
    <glyph glyph-name="o" unicode="o" horiz-adv-x="604" 
d="M49 238q0 -118 69 -184t184 -66t184 66t69 184t-69 185t-184 67t-184 -66.5t-69 -185.5zM184 238q0 66 30.5 103.5t87.5 37.5t87.5 -37.5t30.5 -103.5t-30.5 -102.5t-87.5 -36.5t-87.5 36.5t-30.5 102.5z" />
    <glyph glyph-name="p" unicode="p" horiz-adv-x="616" 
d="M351 490q97 0 156 -63.5t59 -176.5q0 -129 -69 -195.5t-196 -66.5q-48 0 -89 11v-179h-133v550q-19 6 -54 6l2 102q29 11 68 11q73 0 103 -70q51 71 153 71zM294 99q138 0 138 144q0 70 -30.5 103t-81.5 33q-46 0 -77 -28t-31 -76v-161q38 -15 82 -15z" />
    <glyph glyph-name="q" unicode="q" horiz-adv-x="593" 
d="M308 490q124 0 225 -60v-610h-133v222q-57 -54 -144 -54q-92 0 -149.5 60.5t-57.5 180.5q0 127 68 194t191 67zM285 99q49 0 82 33t33 72v155q-45 20 -95 20q-55 0 -88.5 -35t-33.5 -112q0 -67 28 -100t74 -33z" />
    <glyph glyph-name="r" unicode="r" horiz-adv-x="372" 
d="M314 490q30 0 49 -8l-7 -125q-19 7 -45 7q-41 0 -70 -36t-29 -101v-227h-133v370q-19 6 -54 6l2 102q37 11 69 11q73 0 103 -80q44 81 115 81z" />
    <glyph glyph-name="s" unicode="s" horiz-adv-x="534" 
d="M253 490q-102 0 -153 -40t-51 -111q0 -52 31 -84t75 -43.5t88.5 -18.5t75.5 -19t31 -36t-20 -35t-70 -11q-103 0 -188 52l-19 -106q80 -50 211 -50q113 0 167 39.5t54 108.5q0 47 -22.5 78t-56 43t-73 21t-73 13.5t-56 18t-22.5 36.5q0 48 77 48q76 0 87 -56l127 16
q-3 66 -60 101t-160 35z" />
    <glyph glyph-name="t" unicode="t" horiz-adv-x="362" 
d="M362 371h-134v-214q0 -29 11.5 -41t37.5 -12q35 0 69 12l8 -112q-53 -16 -119 -16q-75 0 -107.5 33t-32.5 119v231h-90v109h90v140h133v-140h134v-109z" />
    <glyph glyph-name="u" unicode="u" horiz-adv-x="624" 
d="M538 105q24 -6 61 -6l-2 -101q-30 -7 -67 -7q-88 0 -113 75q-59 -78 -172 -78q-84 0 -125.5 44t-41.5 156v182q-20 6 -53 6l2 102q32 8 75 8q54 0 81.5 -21.5t27.5 -82.5v-172q0 -57 19.5 -81.5t61.5 -24.5q53 0 83.5 35t30.5 96v245h132v-375z" />
    <glyph glyph-name="v" unicode="v" horiz-adv-x="530" 
d="M394 488l130 -11l-202 -477h-113l-156 370q-22 5 -56 5l4 101q36 12 63 12q42 0 65 -16.5t39 -57.5l98 -262z" />
    <glyph glyph-name="w" unicode="w" horiz-adv-x="751" 
d="M607 488l132 -11l-157 -477h-109l-95 304l-95 -304h-109l-122 370q-21 5 -55 5l4 102q29 11 72 11q37 0 57.5 -14t31.5 -54l72 -245l91 305h106l91 -304z" />
    <glyph glyph-name="x" unicode="x" horiz-adv-x="534" 
d="M346 239l102 -139q22 -6 66 -6l-2 -96q-27 -8 -68 -8q-38 0 -57.5 8.5t-34.5 31.5l-88 133l-108 -163h-136l164 232l-107 137q-27 6 -62 6l3 102q36 11 70 11q29 0 46 -8t33 -29l99 -134l118 172l133 -11z" />
    <glyph glyph-name="y" unicode="y" horiz-adv-x="556" 
d="M413 488l137 -11l-236 -543q-31 -69 -77 -96.5t-115 -27.5q-46 0 -73 9l-10 113q46 -11 73 -11q75 0 99 59l10 27l-160 363q-25 5 -54 5l4 102q26 11 68 11q72 0 97 -61l107 -264z" />
    <glyph glyph-name="z" unicode="z" horiz-adv-x="463" 
d="M438 378l-253 -273h253v-105h-405l-8 102l253 273h-237v105h389z" />
    <glyph glyph-name="braceleft" unicode="{" horiz-adv-x="433" 
d="M313 710q-65 0 -65 -60q0 -28 34.5 -106t34.5 -125q0 -38 -17 -62.5t-60 -41.5q43 -17 60 -41.5t17 -62.5q0 -47 -34.5 -125t-34.5 -106q0 -57 65 -57h75v-103h-128q-62 0 -95 32.5t-33 88.5q0 46 35 133.5t35 123.5q0 30 -20.5 46.5t-55.5 16.5h-37v108h37
q35 0 55.5 16.5t20.5 46.5q0 36 -35 123.5t-35 133.5q0 56 33 88.5t95 32.5h128v-100h-75z" />
    <glyph glyph-name="bar" unicode="|" horiz-adv-x="312" 
d="M89 810v-990h133v990h-133z" />
    <glyph glyph-name="braceright" unicode="}" horiz-adv-x="433" 
d="M307 369h36v-108h-36q-36 0 -56 -16.5t-20 -46.5q0 -36 35 -123.5t35 -133.5q0 -56 -33 -88.5t-95 -32.5h-128v103h74q66 0 66 57q0 28 -34.5 106t-34.5 125q0 37 17 62t59 42q-42 17 -59 42t-17 62q0 47 34.5 125t34.5 106q0 60 -66 60h-74v100h128q62 0 95 -32.5
t33 -88.5q0 -46 -35 -133.5t-35 -123.5q0 -30 20 -46.5t56 -16.5z" />
    <glyph glyph-name="asciitilde" unicode="~" horiz-adv-x="573" 
d="M504 394q-8 -145 -114 -145q-39 0 -101.5 15t-84.5 15q-35 0 -44 -53l-91 14q8 145 114 145q39 0 101.5 -15t84.5 -15q20 0 30 11.5t14 41.5z" />
    <glyph glyph-name="exclamdown" unicode="&#xa1;" horiz-adv-x="254" 
d="M127 351q35 0 58.5 23t23.5 59q0 35 -23.5 58.5t-58.5 23.5t-58.5 -23.5t-23.5 -58.5q0 -36 23.5 -59t58.5 -23zM58 -180h138l-8 441h-122z" />
    <glyph glyph-name="cent" unicode="&#xa2;" horiz-adv-x="566" 
d="M511 162q-60 -49 -168 -57l-3 -105h-106l3 110q-182 35 -182 255q0 102 49.5 168t143.5 81l2 106h106l-2 -107q77 -13 114 -63t37 -117l-122 -15q-2 41 -23.5 65t-62.5 24q-50 0 -78.5 -36t-28.5 -106q0 -148 126 -148q88 0 163 52z" />
    <glyph glyph-name="sterling" unicode="&#xa3;" horiz-adv-x="576" 
d="M262 251v-137h248v-114h-455v114h70v137h-70v114h70v130q0 106 59 165.5t174 59.5q102 0 163 -44l-34 -118q-58 39 -120 39q-105 0 -105 -119v-113h169v-114h-169z" />
    <glyph glyph-name="currency" unicode="&#xa4;" horiz-adv-x="709" 
d="M597 358q0 -85 -41 -148l98 -105l-73 -74l-103 109q-53 -29 -123 -29q-69 0 -124 29l-103 -109l-73 74l98 105q-41 63 -41 148q0 88 42 149l-99 106l73 74l103 -109q55 29 124 29q68 0 123 -29l103 109l73 -74l-99 -106q42 -62 42 -149zM229 358q0 -67 34 -102.5
t92 -35.5t91.5 35.5t33.5 102.5q0 69 -33.5 104.5t-91.5 35.5q-59 0 -92.5 -35.5t-33.5 -104.5z" />
    <glyph glyph-name="yen" unicode="&#xa5;" horiz-adv-x="708" 
d="M638 710l-209 -354h147v-88h-154v-51h154v-87h-154v-130h-137v130h-154v87h154v51h-154v88h148l-210 354h139l146 -261l146 261h138z" />
    <glyph glyph-name="brokenbar" unicode="&#xa6;" horiz-adv-x="312" 
d="M89 810v-400h133v400h-133zM89 220v-400h133v400h-133z" />
    <glyph glyph-name="section" unicode="&#xa7;" horiz-adv-x="647" 
d="M476 135q84 -42 84 -136q0 -171 -237 -171q-78 0 -139.5 20t-91.5 42l12 117q34 -26 93 -48t123 -22q112 0 112 61q0 29 -35.5 47t-86.5 30t-102.5 29t-87 57t-35.5 102q0 97 95 148q-91 47 -91 148q0 81 58 131t178 50q209 0 233 -149l-124 -26q-17 69 -104 69
q-108 0 -108 -76q0 -30 25 -51t62 -32t81 -27.5t81 -34.5t62 -54.5t25 -86.5q0 -90 -82 -137zM216 277q0 -45 33.5 -65.5t100.5 -36.5q80 27 80 88q0 23 -10 40t-32.5 29.5t-41 19t-53.5 17.5q-77 -23 -77 -92z" />
    <glyph glyph-name="dieresis" unicode="&#xa8;" horiz-adv-x="543" 
d="M167 552q34 0 55.5 21.5t21.5 56.5t-21.5 56.5t-55.5 21.5q-35 0 -56.5 -22t-21.5 -56t21.5 -56t56.5 -22zM376 552q34 0 56 22t22 56t-22 56t-56 22t-55.5 -22t-21.5 -56t21.5 -56t55.5 -22z" />
    <glyph glyph-name="copyright" unicode="&#xa9;" horiz-adv-x="1060" 
d="M55 328q0 -222 132 -350.5t343 -128.5t343 128.5t132 350.5q0 223 -131.5 351t-343.5 128t-343.5 -127.5t-131.5 -351.5zM165 328q0 185 99 283t266 98t266 -98t99 -283t-99 -283t-266 -98t-266 98t-99 283zM708 242q-76 -53 -164 -53q-59 0 -91.5 36t-32.5 107
q0 67 29 101.5t79 34.5q80 0 83 -89l123 15q0 79 -49.5 132t-155.5 53q-117 0 -180.5 -67.5t-63.5 -179.5q0 -128 65.5 -191.5t188.5 -63.5q126 0 201 58z" />
    <glyph glyph-name="ordfeminine" unicode="&#xaa;" horiz-adv-x="418" 
d="M354 447q17 -5 42 -5l-1 -66q-23 -5 -47 -5q-61 0 -76 42q-42 -44 -113 -44q-55 0 -84.5 27t-29.5 75q0 109 147 109q39 0 74 -7v16q0 62 -65 62q-57 0 -64 -46l-84 14q16 101 148 101q153 0 153 -133v-140zM183 431q34 0 58.5 21.5t24.5 58.5v8q-32 7 -61 7
q-74 0 -74 -49q0 -46 52 -46z" />
    <glyph glyph-name="guillemotleft" unicode="&#xab;" horiz-adv-x="522" 
d="M264 397l-113 -113l113 -110l-68 -69l-164 168v20l164 172zM458 397l-113 -113l113 -110l-68 -69l-164 168v20l164 172z" />
    <glyph glyph-name="registered" unicode="&#xae;" horiz-adv-x="557" 
d="M279 728q93 0 150.5 -54t57.5 -150t-57.5 -150t-150.5 -54q-94 0 -151.5 54t-57.5 150t57.5 150t151.5 54zM279 354q77 0 122.5 42.5t45.5 127.5t-45.5 127.5t-122.5 42.5t-123 -42.5t-46 -127.5t46 -127.5t123 -42.5zM357 466q7 -12 32 -12v-44q-16 -4 -33 -4
q-31 0 -45 24l-33 60h-23v-81h-66v183h-21v48h120q94 0 94 -75q0 -50 -43 -67zM255 592v-55h25q34 0 34 28q0 27 -34 27h-25z" />
    <glyph glyph-name="macron" unicode="&#xaf;" horiz-adv-x="489" 
d="M89 680v-104h311v104h-311z" />
    <glyph glyph-name="degree" unicode="&#xb0;" horiz-adv-x="395" 
d="M198 470q60 0 96 35.5t36 92.5t-36 92.5t-96 35.5t-96.5 -35.5t-36.5 -92.5t36.5 -92.5t96.5 -35.5zM198 544q-23 0 -38 15t-15 39t15 39t38 15t37.5 -15t14.5 -39t-14.5 -39t-37.5 -15z" />
    <glyph glyph-name="plusminus" unicode="&#xb1;" horiz-adv-x="560" 
d="M208 150v148h-139v110h139v147h121v-147h139v-110h-139v-148h-121zM69 112h422v-112h-422v112z" />
    <glyph glyph-name="acute" unicode="&#xb4;" horiz-adv-x="401" 
d="M177 715l-88 -165h118l105 154z" />
    <glyph glyph-name="paragraph" unicode="&#xb6;" horiz-adv-x="699" 
d="M364 276v366q0 43 -16.5 60.5t-61.5 17.5q-94 0 -152.5 -58.5t-58.5 -163.5q0 -108 64 -165t181 -57h44zM532 720q-103 0 -103 -96v-724h137v700h79v112q-51 8 -113 8z" />
    <glyph glyph-name="periodcentered" unicode="&#xb7;" horiz-adv-x="254" 
d="M127 226q35 0 58.5 23.5t23.5 58.5q0 36 -23.5 59.5t-58.5 23.5t-58.5 -23.5t-23.5 -59.5q0 -35 23.5 -58.5t58.5 -23.5z" />
    <glyph glyph-name="cedilla" unicode="&#xb8;" horiz-adv-x="369" 
d="M201 -32l9 53h-82l-20 -96q40 0 55.5 -5.5t15.5 -18.5q0 -29 -78 -29l-12 -66q105 0 147.5 24t42.5 75q0 63 -78 63z" />
    <glyph glyph-name="ordmasculine" unicode="&#xba;" horiz-adv-x="442" 
d="M45 544q0 -82 49.5 -128.5t130.5 -46.5q82 0 131.5 46.5t49.5 128.5q0 83 -49.5 129.5t-131.5 46.5q-81 0 -130.5 -46t-49.5 -130zM147 544q0 45 20 70.5t58 25.5t58.5 -25.5t20.5 -70.5t-20.5 -70t-58.5 -25t-58 25t-20 70z" />
    <glyph glyph-name="guillemotright" unicode="&#xbb;" horiz-adv-x="522" 
d="M296 293v-20l-164 -168l-68 69l113 110l-113 113l68 68zM326 465l164 -172v-20l-164 -168l-67 69l113 110l-113 113z" />
    <glyph glyph-name="onequarter" unicode="&#xbc;" horiz-adv-x="973" 
d="M712 720l115 -5l-514 -727l-115 5zM125 411h87v209q-33 -17 -116 -40l-16 80q83 24 132 56h95v-305h68v-77h-250v77zM848 172h65v-75h-65v-97h-93v97h-169l-21 66l191 219h92v-210zM660 172h95v108z" />
    <glyph glyph-name="onehalf" unicode="&#xbd;" horiz-adv-x="1002" 
d="M712 720l115 -5l-514 -727l-115 5zM125 411h87v209q-33 -17 -116 -40l-16 80q83 24 132 56h95v-305h68v-77h-250v77zM731 78h206v-78h-309v52q0 43 31.5 74.5t69.5 47.5t69.5 38t31.5 47q0 49 -54 49q-28 0 -40.5 -9t-17.5 -29l-95 17q13 53 49.5 77t105.5 24
q78 0 116 -30t38 -97q0 -42 -26.5 -73t-59.5 -46t-68.5 -32.5t-46.5 -31.5z" />
    <glyph glyph-name="threequarters" unicode="&#xbe;" horiz-adv-x="968" 
d="M373 442q0 -51 -39 -83.5t-110 -32.5q-120 0 -144 84l78 25q13 -36 65 -36q65 0 65 49q0 50 -68 50h-34v67h33q56 0 56 43q0 18 -13.5 30t-40.5 12q-45 0 -56 -32l-82 17q18 85 139 85q67 0 102 -27t35 -77q0 -59 -56 -81q70 -24 70 -93zM705 720l116 -5l-514 -727
l-116 5zM843 172h65v-75h-65v-97h-93v97h-169l-21 66l191 219h92v-210zM656 172h94v108z" />
    <glyph glyph-name="questiondown" unicode="&#xbf;" horiz-adv-x="518" 
d="M290 351q35 0 58.5 23t23.5 59q0 35 -23.5 58.5t-58.5 23.5t-59 -23.5t-24 -58.5q0 -36 23.5 -59t59.5 -23zM489 -54l-97 34q-21 -68 -103 -68q-45 0 -68.5 22.5t-23.5 62.5q0 14 2.5 27t9.5 26t12.5 22.5t18 21.5t19.5 19t24 19t24 17t26.5 18l25.5 17l-12 93h-114
l-7 -57q-3 -2 -25 -19t-30.5 -24.5t-28.5 -25.5t-29.5 -33t-21.5 -37t-17 -46.5t-5 -52.5q0 -83 55 -127.5t155 -44.5q78 0 135 32.5t75 103.5z" />
    <glyph glyph-name="Agrave" unicode="&#xc0;" horiz-adv-x="744" 
d="M418 742l-121 -7l-95 109l150 20zM661 120q26 -8 71 -8l-2 -114q-26 -6 -71 -6q-51 0 -77 14t-41 55l-38 104h-291l-59 -165h-143l270 703l143 20zM252 277h210l-106 289z" />
    <glyph glyph-name="Aacute" unicode="&#xc1;" horiz-adv-x="744" 
d="M505 844l-95 -109l-121 7l66 122zM661 120q26 -8 71 -8l-2 -114q-26 -6 -71 -6q-51 0 -77 14t-41 55l-38 104h-291l-59 -165h-143l270 703l143 20zM252 277h210l-106 289z" />
    <glyph glyph-name="Acircumflex" unicode="&#xc2;" horiz-adv-x="744" 
d="M361 796l-50 -61l-101 14l90 104h123l89 -104l-101 -14zM661 120q26 -8 71 -8l-2 -114q-26 -6 -71 -6q-51 0 -77 14t-41 55l-38 104h-291l-59 -165h-143l270 703l143 20zM252 277h210l-106 289z" />
    <glyph glyph-name="Atilde" unicode="&#xc3;" horiz-adv-x="744" 
d="M308 770q-27 0 -30 -39l-73 8q7 113 88 113q26 0 62 -13.5t49 -13.5q28 0 31 39l72 -9q-7 -113 -87 -113q-27 0 -63 14t-49 14zM661 120q26 -8 71 -8l-2 -114q-26 -6 -71 -6q-51 0 -77 14t-41 55l-38 104h-291l-59 -165h-143l270 703l143 20zM252 277h210l-106 289z" />
    <glyph glyph-name="Adieresis" unicode="&#xc4;" horiz-adv-x="744" 
d="M253 736q-30 0 -48.5 19t-18.5 48t18.5 47.5t48.5 18.5t48 -18.5t18 -47.5q0 -30 -18 -48.5t-48 -18.5zM458 736q-30 0 -48 18.5t-18 48.5q0 29 18 47.5t48 18.5t48.5 -18.5t18.5 -47.5t-18.5 -48t-48.5 -19zM661 120q26 -8 71 -8l-2 -114q-26 -6 -71 -6q-51 0 -77 14
t-41 55l-38 104h-291l-59 -165h-143l270 703l143 20zM252 277h210l-106 289z" />
    <glyph glyph-name="Aring" unicode="&#xc5;" horiz-adv-x="744" 
d="M356 724q-45 0 -70.5 23t-25.5 62q0 40 25.5 63t70.5 23q46 0 71 -23t25 -63t-25 -62.5t-71 -22.5zM356 840q-29 0 -29 -31q0 -30 29 -30q30 0 30 30q0 31 -30 31zM661 120q26 -8 71 -8l-2 -114q-26 -6 -71 -6q-51 0 -77 14t-41 55l-38 104h-291l-59 -165h-143l270 703
l143 20zM252 277h210l-106 289z" />
    <glyph glyph-name="AE" unicode="&#xc6;" horiz-adv-x="978" 
d="M659 292v-170h294v-122h-431v292h-231l-131 -292h-143l330 710h606l-8 -122h-286v-182h259v-114h-259zM342 406h180v182h-98z" />
    <glyph glyph-name="Ccedilla" unicode="&#xc7;" horiz-adv-x="705" 
d="M662 49q-89 -60 -246 -61l-3 -20q78 0 78 -63q0 -51 -42.5 -75t-147.5 -24l12 66q78 0 78 29q0 13 -15.5 18.5t-55.5 5.5l14 68q-132 20 -205.5 112.5t-73.5 244.5q0 179 88 274.5t239 95.5q141 0 215 -63t74 -172l-139 -19q-8 134 -151 134q-84 0 -134 -60.5t-50 -181.5
q0 -117 61.5 -179t171.5 -62q105 0 200 57z" />
    <glyph glyph-name="Egrave" unicode="&#xc8;" horiz-adv-x="581" 
d="M383 742l-121 -7l-95 109l150 20zM222 292v-170h334v-122h-471v710h471l-8 -122h-326v-182h299v-114h-299z" />
    <glyph glyph-name="Eacute" unicode="&#xc9;" horiz-adv-x="581" 
d="M470 844l-95 -109l-121 7l66 122zM222 292v-170h334v-122h-471v710h471l-8 -122h-326v-182h299v-114h-299z" />
    <glyph glyph-name="Ecircumflex" unicode="&#xca;" horiz-adv-x="581" 
d="M326 796l-50 -61l-101 14l90 104h123l89 -104l-101 -14zM222 292v-170h334v-122h-471v710h471l-8 -122h-326v-182h299v-114h-299z" />
    <glyph glyph-name="Edieresis" unicode="&#xcb;" horiz-adv-x="581" 
d="M218 736q-30 0 -48.5 19t-18.5 48t18.5 47.5t48.5 18.5t48 -18.5t18 -47.5q0 -30 -18 -48.5t-48 -18.5zM423 736q-30 0 -48 18.5t-18 48.5q0 29 18 47.5t48 18.5t48.5 -18.5t18.5 -47.5t-18.5 -48t-48.5 -19zM222 292v-170h334v-122h-471v710h471l-8 -122h-326v-182h299
v-114h-299z" />
    <glyph glyph-name="Igrave" unicode="&#xcc;" horiz-adv-x="306" 
d="M149 864l-150 -20l95 -109l121 7zM85 710v-710h137v710h-137z" />
    <glyph glyph-name="Iacute" unicode="&#xcd;" horiz-adv-x="306" 
d="M152 864l-66 -122l121 -7l95 109zM85 710v-710h137v710h-137z" />
    <glyph glyph-name="Icircumflex" unicode="&#xce;" horiz-adv-x="306" 
d="M158 796l-50 -61l-101 14l90 104h123l89 -104l-101 -14zM85 0v710h137v-710h-137z" />
    <glyph glyph-name="Idieresis" unicode="&#xcf;" horiz-adv-x="306" 
d="M50 736q30 0 48 18.5t18 48.5q0 29 -18 47.5t-48 18.5t-48.5 -18.5t-18.5 -47.5t18.5 -48t48.5 -19zM255 736q30 0 48.5 19t18.5 48t-18.5 47.5t-48.5 18.5t-48 -18.5t-18 -47.5q0 -30 18 -48.5t48 -18.5zM85 710v-710h137v710h-137z" />
    <glyph glyph-name="Eth" unicode="&#xd0;" 
d="M360 720q162 0 255.5 -97t93.5 -264q0 -171 -104.5 -265t-286.5 -94h-215v296h-78v108h78v186h-78v112q50 12 101 12q57 0 84 -27q70 33 150 33zM319 125q125 0 188 59t63 174q0 111 -57.5 174.5t-169.5 63.5q-49 0 -103 -9v-183h113v-108h-113v-171h79z" />
    <glyph glyph-name="Ntilde" unicode="&#xd1;" horiz-adv-x="790" 
d="M357 770q-27 0 -30 -39l-73 8q7 113 88 113q26 0 62 -13.5t49 -13.5q28 0 31 39l72 -9q-7 -113 -87 -113q-27 0 -63 14t-49 14zM569 710h136v-710h-130l-354 483v-483h-136v703l129 20l355 -490v477z" />
    <glyph glyph-name="Ograve" unicode="&#xd2;" horiz-adv-x="798" 
d="M395 864l-150 -20l95 -109l121 7zM399 -12q159 0 251.5 102.5t92.5 263.5t-92.5 263.5t-251.5 102.5t-251.5 -102.5t-92.5 -263.5t92.5 -263.5t251.5 -102.5zM399 111q-99 0 -151.5 66t-52.5 177t53 177t151 66q99 0 151.5 -66t52.5 -177t-52.5 -177t-151.5 -66z" />
    <glyph glyph-name="Oacute" unicode="&#xd3;" horiz-adv-x="798" 
d="M398 864l-66 -122l121 -7l95 109zM399 -12q159 0 251.5 102.5t92.5 263.5t-92.5 263.5t-251.5 102.5t-251.5 -102.5t-92.5 -263.5t92.5 -263.5t251.5 -102.5zM399 111q-99 0 -151.5 66t-52.5 177t53 177t151 66q99 0 151.5 -66t52.5 -177t-52.5 -177t-151.5 -66z" />
    <glyph glyph-name="Ocircumflex" unicode="&#xd4;" horiz-adv-x="798" 
d="M404 796l-50 -61l-101 14l90 104h123l89 -104l-101 -14zM399 720q159 0 251.5 -102.5t92.5 -263.5t-92.5 -263.5t-251.5 -102.5t-251.5 102.5t-92.5 263.5t92.5 263.5t251.5 102.5zM399 111q99 0 151.5 66t52.5 177t-52.5 177t-151.5 66q-98 0 -151 -66t-53 -177
t52.5 -177t151.5 -66z" />
    <glyph glyph-name="Otilde" unicode="&#xd5;" horiz-adv-x="798" 
d="M550 855q-7 -113 -87 -113q-27 0 -63 14t-49 14q-27 0 -30 -39l-73 8q7 113 88 113q26 0 62 -13.5t49 -13.5q28 0 31 39zM399 -12q159 0 251.5 102.5t92.5 263.5t-92.5 263.5t-251.5 102.5t-251.5 -102.5t-92.5 -263.5t92.5 -263.5t251.5 -102.5zM399 111
q-99 0 -151.5 66t-52.5 177t53 177t151 66q99 0 151.5 -66t52.5 -177t-52.5 -177t-151.5 -66z" />
    <glyph glyph-name="Odieresis" unicode="&#xd6;" horiz-adv-x="798" 
d="M296 736q30 0 48 18.5t18 48.5q0 29 -18 47.5t-48 18.5t-48.5 -18.5t-18.5 -47.5t18.5 -48t48.5 -19zM501 736q30 0 48.5 19t18.5 48t-18.5 47.5t-48.5 18.5t-48 -18.5t-18 -47.5q0 -30 18 -48.5t48 -18.5zM399 -12q159 0 251.5 102.5t92.5 263.5t-92.5 263.5
t-251.5 102.5t-251.5 -102.5t-92.5 -263.5t92.5 -263.5t251.5 -102.5zM399 111q-99 0 -151.5 66t-52.5 177t53 177t151 66q99 0 151.5 -66t52.5 -177t-52.5 -177t-151.5 -66z" />
    <glyph glyph-name="multiply" unicode="&#xd7;" horiz-adv-x="520" 
d="M451 439l-123 -122l123 -122l-69 -69l-122 123l-122 -123l-69 69l123 122l-123 122l69 69l122 -123l122 123z" />
    <glyph glyph-name="Oslash" unicode="&#xd8;" horiz-adv-x="798" 
d="M647 622q96 -102 96 -268q0 -161 -92.5 -263.5t-251.5 -102.5q-94 0 -167 38l-35 -51l-115 10l70 101q-97 100 -97 268q0 161 92.5 263.5t251.5 102.5q92 0 168 -38l43 63l116 -10zM195 354q0 -94 36 -154l263 377q-42 20 -95 20q-98 0 -151 -66t-53 -177zM399 111
q99 0 151.5 66t52.5 177q0 93 -36 153l-262 -376q42 -20 94 -20z" />
    <glyph glyph-name="Ugrave" unicode="&#xd9;" 
d="M373 864l-150 -20l95 -109l121 7zM685 710h-137v-424q0 -178 -159 -178q-79 0 -117 44t-38 137v327q0 96 -104 96q-58 0 -111 -8v-112h78v-312q0 -292 292 -292q142 0 219 77.5t77 214.5v430z" />
    <glyph glyph-name="Uacute" unicode="&#xda;" 
d="M376 864l-66 -122l121 -7l95 109zM685 710h-137v-424q0 -178 -159 -178q-79 0 -117 44t-38 137v327q0 96 -104 96q-58 0 -111 -8v-112h78v-312q0 -292 292 -292q142 0 219 77.5t77 214.5v430z" />
    <glyph glyph-name="Ucircumflex" unicode="&#xdb;" 
d="M382 796l-50 -61l-101 14l90 104h123l89 -104l-101 -14zM548 710h137v-430q0 -137 -77 -214.5t-219 -77.5q-292 0 -292 292v312h-78v112q53 8 111 8q104 0 104 -96v-327q0 -93 38 -137t117 -44q159 0 159 178v424z" />
    <glyph glyph-name="Udieresis" unicode="&#xdc;" 
d="M274 736q30 0 48 18.5t18 48.5q0 29 -18 47.5t-48 18.5t-48.5 -18.5t-18.5 -47.5t18.5 -48t48.5 -19zM479 736q30 0 48.5 19t18.5 48t-18.5 47.5t-48.5 18.5t-48 -18.5t-18 -47.5q0 -30 18 -48.5t48 -18.5zM685 710h-137v-424q0 -178 -159 -178q-79 0 -117 44t-38 137
v327q0 96 -104 96q-58 0 -111 -8v-112h78v-312q0 -292 292 -292q142 0 219 77.5t77 214.5v430z" />
    <glyph glyph-name="Yacute" unicode="&#xdd;" horiz-adv-x="641" 
d="M467 844l-95 -109l-121 7l66 122zM508 723l138 -20l-259 -430v-273h-137v273l-188 319h-77v112q33 11 92 11q71 0 98 -48l144 -267z" />
    <glyph glyph-name="Thorn" unicode="&#xde;" horiz-adv-x="629" 
d="M298 605q131 0 203.5 -62.5t72.5 -176.5t-72 -176.5t-204 -62.5h-76v-127h-137v710h137v-105h76zM295 246q143 0 143 120t-143 120h-73v-240h73z" />
    <glyph glyph-name="germandbls" unicode="&#xdf;" horiz-adv-x="616" 
d="M397 343q0 -16 30.5 -31t66.5 -29.5t66.5 -52t30.5 -92.5q0 -72 -49 -111t-134 -39q-105 0 -154 34l5 114q63 -42 130 -42q71 0 71 54q0 23 -27.5 44t-60.5 35.5t-60.5 38.5t-27.5 53q0 31 37.5 99.5t37.5 112.5q0 37 -20.5 57t-58.5 20q-88 0 -88 -108v-500h-133v495
q0 225 219 225q104 0 158.5 -42.5t54.5 -115.5q0 -40 -14.5 -76.5t-32.5 -58t-32.5 -44.5t-14.5 -40z" />
    <glyph glyph-name="agrave" unicode="&#xe0;" horiz-adv-x="576" 
d="M332 550h-118l-105 154l135 11zM491 105q25 -6 61 -6l-2 -101q-46 -7 -71 -7q-81 0 -106 60q-57 -63 -164 -63q-79 0 -123 39.5t-44 107.5q0 71 55 111.5t162 40.5q56 0 103 -10v25q0 87 -93 87q-79 0 -89 -61l-123 21q14 67 61.5 104t151.5 37q221 0 221 -189v-196z
M244 83q49 0 83.5 30t34.5 81v7q-45 8 -92 8q-100 0 -100 -67q0 -59 74 -59z" />
    <glyph glyph-name="aacute" unicode="&#xe1;" horiz-adv-x="576" 
d="M425 704l-105 -154h-118l88 165zM491 105q25 -6 61 -6l-2 -101q-46 -7 -71 -7q-81 0 -106 60q-57 -63 -164 -63q-79 0 -123 39.5t-44 107.5q0 71 55 111.5t162 40.5q56 0 103 -10v25q0 87 -93 87q-79 0 -89 -61l-123 21q14 67 61.5 104t151.5 37q221 0 221 -189v-196z
M244 83q49 0 83.5 30t34.5 81v7q-45 8 -92 8q-100 0 -100 -67q0 -59 74 -59z" />
    <glyph glyph-name="acircumflex" unicode="&#xe2;" horiz-adv-x="576" 
d="M270 644l-63 -82l-108 2l121 158h101l120 -158l-108 -2zM491 105q25 -6 61 -6l-2 -101q-46 -7 -71 -7q-81 0 -106 60q-57 -63 -164 -63q-79 0 -123 39.5t-44 107.5q0 71 55 111.5t162 40.5q56 0 103 -10v25q0 87 -93 87q-79 0 -89 -61l-123 21q14 67 61.5 104t151.5 37
q221 0 221 -189v-196zM244 83q49 0 83.5 30t34.5 81v7q-45 8 -92 8q-100 0 -100 -67q0 -59 74 -59z" />
    <glyph glyph-name="atilde" unicode="&#xe3;" horiz-adv-x="576" 
d="M191 617q-33 0 -39 -51l-80 10q4 61 32 97t76 36q36 0 84 -18.5t69 -18.5q33 0 39 50l79 -9q-2 -59 -30 -96t-77 -37q-39 0 -88 18.5t-65 18.5zM491 105q25 -6 61 -6l-2 -101q-46 -7 -71 -7q-81 0 -106 60q-57 -63 -164 -63q-79 0 -123 39.5t-44 107.5q0 71 55 111.5
t162 40.5q56 0 103 -10v25q0 87 -93 87q-79 0 -89 -61l-123 21q14 67 61.5 104t151.5 37q221 0 221 -189v-196zM244 83q49 0 83.5 30t34.5 81v7q-45 8 -92 8q-100 0 -100 -67q0 -59 74 -59z" />
    <glyph glyph-name="adieresis" unicode="&#xe4;" horiz-adv-x="576" 
d="M166 552q-34 0 -56 22t-22 56t22 56t56 22t55.5 -21.5t21.5 -56.5t-21.5 -56.5t-55.5 -21.5zM375 552q-34 0 -55.5 22t-21.5 56t21.5 56t55.5 22q35 0 56.5 -22t21.5 -56t-21.5 -56t-56.5 -22zM491 105q25 -6 61 -6l-2 -101q-46 -7 -71 -7q-81 0 -106 60
q-57 -63 -164 -63q-79 0 -123 39.5t-44 107.5q0 71 55 111.5t162 40.5q56 0 103 -10v25q0 87 -93 87q-79 0 -89 -61l-123 21q14 67 61.5 104t151.5 37q221 0 221 -189v-196zM244 83q49 0 83.5 30t34.5 81v7q-45 8 -92 8q-100 0 -100 -67q0 -59 74 -59z" />
    <glyph glyph-name="aring" unicode="&#xe5;" horiz-adv-x="576" 
d="M271 539q-45 0 -74.5 26.5t-29.5 70.5t29.5 70.5t74.5 26.5t74 -26.5t29 -70.5t-29 -70.5t-74 -26.5zM271 678q-19 0 -31 -11t-12 -31t12 -31t31 -11q18 0 30 11t12 31t-12 31t-30 11zM491 105q25 -6 61 -6l-2 -101q-46 -7 -71 -7q-81 0 -106 60q-57 -63 -164 -63
q-79 0 -123 39.5t-44 107.5q0 71 55 111.5t162 40.5q56 0 103 -10v25q0 87 -93 87q-79 0 -89 -61l-123 21q14 67 61.5 104t151.5 37q221 0 221 -189v-196zM244 83q49 0 83.5 30t34.5 81v7q-45 8 -92 8q-100 0 -100 -67q0 -59 74 -59z" />
    <glyph glyph-name="ae" unicode="&#xe6;" horiz-adv-x="879" 
d="M503 208q14 -110 130 -110q49 0 91 15.5t63 32.5l34 -102q-21 -20 -76 -38t-122 -18q-145 0 -209 91q-63 -91 -194 -91q-82 0 -126.5 39.5t-44.5 107.5q0 71 55 111.5t162 40.5q56 0 103 -10v25q0 87 -93 87q-79 0 -89 -61l-123 21q14 67 61.5 104t151.5 37
q117 0 172 -52q61 52 154 52q109 0 168 -66t59 -171v-45h-327zM603 386q-85 0 -99 -100h192q-7 100 -93 100zM250 83q50 0 84.5 29.5t34.5 81.5v7q-45 8 -92 8q-100 0 -100 -67q0 -59 73 -59z" />
    <glyph glyph-name="ccedilla" unicode="&#xe7;" horiz-adv-x="550" 
d="M325 -32q78 0 78 -63q0 -51 -42.5 -75t-147.5 -24l12 66q78 0 78 29q0 13 -15.5 18.5t-55.5 5.5l14 67q-197 28 -197 251q0 112 63.5 179.5t180.5 67.5q106 0 155.5 -53t49.5 -132l-123 -15q-3 89 -83 89q-50 0 -79 -34.5t-29 -101.5q0 -71 32.5 -107t91.5 -36
q88 0 164 53l32 -107q-65 -52 -176 -57z" />
    <glyph glyph-name="egrave" unicode="&#xe8;" horiz-adv-x="560" 
d="M350 550h-118l-105 154l135 11zM184 208q14 -110 130 -110q49 0 91 15.5t63 32.5l34 -102q-22 -20 -76.5 -38t-121.5 -18q-125 0 -190 68t-65 190q0 108 64.5 176t171.5 68q109 0 167.5 -66t58.5 -171v-45h-327zM285 386q-86 0 -100 -100h193q-8 100 -93 100z" />
    <glyph glyph-name="eacute" unicode="&#xe9;" horiz-adv-x="560" 
d="M443 704l-105 -154h-118l88 165zM184 208q14 -110 130 -110q49 0 91 15.5t63 32.5l34 -102q-22 -20 -76.5 -38t-121.5 -18q-125 0 -190 68t-65 190q0 108 64.5 176t171.5 68q109 0 167.5 -66t58.5 -171v-45h-327zM285 386q-86 0 -100 -100h193q-8 100 -93 100z" />
    <glyph glyph-name="ecircumflex" unicode="&#xea;" horiz-adv-x="560" 
d="M288 644l-63 -82l-108 2l121 158h101l120 -158l-108 -2zM184 208q14 -110 130 -110q49 0 91 15.5t63 32.5l34 -102q-22 -20 -76.5 -38t-121.5 -18q-125 0 -190 68t-65 190q0 108 64.5 176t171.5 68q109 0 167.5 -66t58.5 -171v-45h-327zM285 386q-86 0 -100 -100h193
q-8 100 -93 100z" />
    <glyph glyph-name="edieresis" unicode="&#xeb;" horiz-adv-x="560" 
d="M184 552q-34 0 -56 22t-22 56t22 56t56 22t55.5 -21.5t21.5 -56.5t-21.5 -56.5t-55.5 -21.5zM393 552q-34 0 -55.5 22t-21.5 56t21.5 56t55.5 22q35 0 56.5 -22t21.5 -56t-21.5 -56t-56.5 -22zM184 208q14 -110 130 -110q49 0 91 15.5t63 32.5l34 -102q-22 -20 -76.5 -38
t-121.5 -18q-125 0 -190 68t-65 190q0 108 64.5 176t171.5 68q109 0 167.5 -66t58.5 -171v-45h-327zM285 386q-86 0 -100 -100h193q-8 100 -93 100z" />
    <glyph glyph-name="igrave" unicode="&#xec;" horiz-adv-x="263" 
d="M85 715l-135 -11l105 -154h118zM178 106v374h-133v-400q0 -51 22.5 -70t78.5 -19q58 0 90 7l2 102q-36 0 -60 6z" />
    <glyph glyph-name="iacute" unicode="&#xed;" horiz-adv-x="263" 
d="M131 715l-88 -165h118l105 154zM178 106v374h-133v-400q0 -51 22.5 -70t78.5 -19q58 0 90 7l2 102q-36 0 -60 6z" />
    <glyph glyph-name="icircumflex" unicode="&#xee;" horiz-adv-x="263" 
d="M111 644l-63 -82l-108 2l121 158h101l120 -158l-108 -2zM178 480v-374q24 -6 60 -6l-2 -102q-32 -7 -90 -7q-56 0 -78.5 19t-22.5 70v400h133z" />
    <glyph glyph-name="idieresis" unicode="&#xef;" horiz-adv-x="263" 
d="M7 552q34 0 55.5 21.5t21.5 56.5t-21.5 56.5t-55.5 21.5q-35 0 -56.5 -22t-21.5 -56t21.5 -56t56.5 -22zM216 552q34 0 56 22t22 56t-22 56t-56 22t-55.5 -22t-21.5 -56t21.5 -56t55.5 -22zM178 106v374h-133v-400q0 -51 22.5 -70t78.5 -19q58 0 90 7l2 102q-36 0 -60 6z
" />
    <glyph glyph-name="eth" unicode="&#xf0;" horiz-adv-x="604" 
d="M441 606q114 -121 114 -362q0 -132 -70 -194t-183 -62q-115 0 -184 63t-69 177q0 115 68.5 178.5t179.5 63.5q50 0 103 -24q-26 71 -72 112l-161 -69l-14 79l94 41q-60 22 -131 22l16 89q144 0 240 -58l125 53l14 -79zM302 99q57 0 87.5 33.5t30.5 95.5t-30.5 96.5
t-87.5 34.5t-87.5 -34.5t-30.5 -96.5t30.5 -95.5t87.5 -33.5z" />
    <glyph glyph-name="ntilde" unicode="&#xf1;" horiz-adv-x="630" 
d="M237 617q-33 0 -39 -51l-80 10q4 61 32 97t76 36q36 0 84 -18.5t69 -18.5q33 0 39 50l79 -9q-2 -59 -30 -96t-77 -37q-39 0 -88 18.5t-65 18.5zM544 106q24 -6 61 -6l-2 -102q-28 -7 -81 -7q-60 0 -85.5 20.5t-25.5 79.5v173q0 110 -92 110q-47 0 -77.5 -31.5
t-30.5 -77.5v-265h-133v370q-20 6 -53 6l2 102q44 11 67 11q88 0 110 -73q57 74 160 74q90 0 135 -53t45 -151v-180z" />
    <glyph glyph-name="ograve" unicode="&#xf2;" horiz-adv-x="604" 
d="M276 715l-135 -11l105 -154h118zM49 238q0 -118 69 -184t184 -66t184 66t69 184t-69 185t-184 67t-184 -66.5t-69 -185.5zM184 238q0 66 30.5 103.5t87.5 37.5t87.5 -37.5t30.5 -103.5t-30.5 -102.5t-87.5 -36.5t-87.5 36.5t-30.5 102.5z" />
    <glyph glyph-name="oacute" unicode="&#xf3;" horiz-adv-x="604" 
d="M322 715l-88 -165h118l105 154zM49 238q0 -118 69 -184t184 -66t184 66t69 184t-69 185t-184 67t-184 -66.5t-69 -185.5zM184 238q0 66 30.5 103.5t87.5 37.5t87.5 -37.5t30.5 -103.5t-30.5 -102.5t-87.5 -36.5t-87.5 36.5t-30.5 102.5z" />
    <glyph glyph-name="ocircumflex" unicode="&#xf4;" horiz-adv-x="604" 
d="M302 644l-63 -82l-108 2l121 158h101l120 -158l-108 -2zM302 490q115 0 184 -67t69 -185t-69 -184t-184 -66t-184 66t-69 184q0 119 69 185.5t184 66.5zM302 99q57 0 87.5 36.5t30.5 102.5t-30.5 103.5t-87.5 37.5t-87.5 -37.5t-30.5 -103.5t30.5 -102.5t87.5 -36.5z" />
    <glyph glyph-name="otilde" unicode="&#xf5;" horiz-adv-x="604" 
d="M483 713q-2 -59 -30 -96t-77 -37q-39 0 -88 18.5t-65 18.5q-33 0 -39 -51l-80 10q4 61 32 97t76 36q36 0 84 -18.5t69 -18.5q33 0 39 50zM49 238q0 -118 69 -184t184 -66t184 66t69 184t-69 185t-184 67t-184 -66.5t-69 -185.5zM184 238q0 66 30.5 103.5t87.5 37.5
t87.5 -37.5t30.5 -103.5t-30.5 -102.5t-87.5 -36.5t-87.5 36.5t-30.5 102.5z" />
    <glyph glyph-name="odieresis" unicode="&#xf6;" horiz-adv-x="604" 
d="M197 552q34 0 55.5 21.5t21.5 56.5t-21.5 56.5t-55.5 21.5q-35 0 -56.5 -22t-21.5 -56t21.5 -56t56.5 -22zM406 552q34 0 56 22t22 56t-22 56t-56 22t-55.5 -22t-21.5 -56t21.5 -56t55.5 -22zM49 238q0 -118 69 -184t184 -66t184 66t69 184t-69 185t-184 67t-184 -66.5
t-69 -185.5zM184 238q0 66 30.5 103.5t87.5 37.5t87.5 -37.5t30.5 -103.5t-30.5 -102.5t-87.5 -36.5t-87.5 36.5t-30.5 102.5z" />
    <glyph glyph-name="divide" unicode="&#xf7;" horiz-adv-x="589" 
d="M295 409q35 0 57.5 22t22.5 56t-22.5 56.5t-57.5 22.5t-58 -22.5t-23 -56.5t23 -56t58 -22zM520 367h-451v-100h451v100zM295 68q35 0 57.5 22.5t22.5 56.5t-22.5 56t-57.5 22t-58 -22t-23 -56t23 -56.5t58 -22.5z" />
    <glyph glyph-name="oslash" unicode="&#xf8;" horiz-adv-x="604" 
d="M470 437q85 -68 85 -199q0 -118 -69 -184t-184 -66q-57 0 -101 16l-29 -47l-84 10l45 74q-84 67 -84 197q0 119 69 185.5t184 66.5q57 0 101 -16l29 47l84 -10zM184 238q0 -50 19 -85l138 220q-18 6 -39 6q-57 0 -87.5 -37.5t-30.5 -103.5zM302 99q57 0 87.5 36.5
t30.5 102.5q0 51 -19 87l-138 -221q20 -5 39 -5z" />
    <glyph glyph-name="ugrave" unicode="&#xf9;" horiz-adv-x="624" 
d="M372 550h-118l-105 154l135 11zM538 105q24 -6 61 -6l-2 -101q-30 -7 -67 -7q-88 0 -113 75q-59 -78 -172 -78q-84 0 -125.5 44t-41.5 156v182q-20 6 -53 6l2 102q32 8 75 8q54 0 81.5 -21.5t27.5 -82.5v-172q0 -57 19.5 -81.5t61.5 -24.5q53 0 83.5 35t30.5 96v245h132
v-375z" />
    <glyph glyph-name="uacute" unicode="&#xfa;" horiz-adv-x="624" 
d="M466 704l-105 -154h-118l88 165zM538 105q24 -6 61 -6l-2 -101q-30 -7 -67 -7q-88 0 -113 75q-59 -78 -172 -78q-84 0 -125.5 44t-41.5 156v182q-20 6 -53 6l2 102q32 8 75 8q54 0 81.5 -21.5t27.5 -82.5v-172q0 -57 19.5 -81.5t61.5 -24.5q53 0 83.5 35t30.5 96v245h132
v-375z" />
    <glyph glyph-name="ucircumflex" unicode="&#xfb;" horiz-adv-x="624" 
d="M310 644l-63 -82l-108 2l121 158h101l120 -158l-108 -2zM538 105q24 -6 61 -6l-2 -101q-30 -7 -67 -7q-88 0 -113 75q-59 -78 -172 -78q-84 0 -125.5 44t-41.5 156v182q-20 6 -53 6l2 102q32 8 75 8q54 0 81.5 -21.5t27.5 -82.5v-172q0 -57 19.5 -81.5t61.5 -24.5
q53 0 83.5 35t30.5 96v245h132v-375z" />
    <glyph glyph-name="udieresis" unicode="&#xfc;" horiz-adv-x="624" 
d="M206 552q-34 0 -56 22t-22 56t22 56t56 22t55.5 -21.5t21.5 -56.5t-21.5 -56.5t-55.5 -21.5zM415 552q-34 0 -55.5 22t-21.5 56t21.5 56t55.5 22q35 0 56.5 -22t21.5 -56t-21.5 -56t-56.5 -22zM538 105q24 -6 61 -6l-2 -101q-30 -7 -67 -7q-88 0 -113 75
q-59 -78 -172 -78q-84 0 -125.5 44t-41.5 156v182q-20 6 -53 6l2 102q32 8 75 8q54 0 81.5 -21.5t27.5 -82.5v-172q0 -57 19.5 -81.5t61.5 -24.5q53 0 83.5 35t30.5 96v245h132v-375z" />
    <glyph glyph-name="yacute" unicode="&#xfd;" horiz-adv-x="556" 
d="M439 704l-105 -154h-118l88 165zM413 488l137 -11l-236 -543q-31 -69 -77 -96.5t-115 -27.5q-46 0 -73 9l-10 113q46 -11 73 -11q75 0 99 59l10 27l-160 363q-25 5 -54 5l4 102q26 11 68 11q72 0 97 -61l107 -264z" />
    <glyph glyph-name="thorn" unicode="&#xfe;" horiz-adv-x="596" 
d="M333 490q98 0 155.5 -64t57.5 -178q0 -127 -69.5 -193.5t-194.5 -66.5q-51 0 -90 12v-180h-133v890h133v-274q51 54 141 54zM274 99q138 0 138 146q0 65 -30 99.5t-82 34.5q-46 0 -77 -29t-31 -75v-161q40 -15 82 -15z" />
    <glyph glyph-name="ydieresis" unicode="&#xff;" horiz-adv-x="556" 
d="M179 552q-35 0 -56.5 22t-21.5 56t21.5 56t56.5 22q34 0 55.5 -21.5t21.5 -56.5t-21.5 -56.5t-55.5 -21.5zM388 552q-34 0 -55.5 22t-21.5 56t21.5 56t55.5 22t56 -22t22 -56t-22 -56t-56 -22zM413 488l137 -11l-236 -543q-31 -69 -77 -96.5t-115 -27.5q-46 0 -73 9
l-10 113q46 -11 73 -11q75 0 99 59l10 27l-160 363q-25 5 -54 5l4 102q26 11 68 11q72 0 97 -61l107 -264z" />
    <glyph glyph-name="Amacron" unicode="&#x100;" horiz-adv-x="744" 
d="M501 842v-93h-291v93h291zM661 120q26 -8 71 -8l-2 -114q-26 -6 -71 -6q-51 0 -77 14t-41 55l-38 104h-291l-59 -165h-143l270 703l143 20zM252 277h210l-106 289z" />
    <glyph glyph-name="amacron" unicode="&#x101;" horiz-adv-x="576" 
d="M426 680v-104h-311v104h311zM491 105q25 -6 61 -6l-2 -101q-46 -7 -71 -7q-81 0 -106 60q-57 -63 -164 -63q-79 0 -123 39.5t-44 107.5q0 71 55 111.5t162 40.5q56 0 103 -10v25q0 87 -93 87q-79 0 -89 -61l-123 21q14 67 61.5 104t151.5 37q221 0 221 -189v-196zM244 83
q49 0 83.5 30t34.5 81v7q-45 8 -92 8q-100 0 -100 -67q0 -59 74 -59z" />
    <glyph glyph-name="Abreve" unicode="&#x102;" horiz-adv-x="744" 
d="M356 733q-61 0 -97.5 29.5t-40.5 90.5l81 7q4 -30 17 -43t40 -13t40.5 13t17.5 43l80 -7q-7 -120 -138 -120zM661 120q26 -8 71 -8l-2 -114q-26 -6 -71 -6q-51 0 -77 14t-41 55l-38 104h-291l-59 -165h-143l270 703l143 20zM252 277h210l-106 289z" />
    <glyph glyph-name="abreve" unicode="&#x103;" horiz-adv-x="576" 
d="M270 549q-145 0 -151 153l87 6q5 -73 64 -73t64 73l87 -6q-6 -153 -151 -153zM491 105q25 -6 61 -6l-2 -101q-46 -7 -71 -7q-81 0 -106 60q-57 -63 -164 -63q-79 0 -123 39.5t-44 107.5q0 71 55 111.5t162 40.5q56 0 103 -10v25q0 87 -93 87q-79 0 -89 -61l-123 21
q14 67 61.5 104t151.5 37q221 0 221 -189v-196zM244 83q49 0 83.5 30t34.5 81v7q-45 8 -92 8q-100 0 -100 -67q0 -59 74 -59z" />
    <glyph glyph-name="Aogonek" unicode="&#x104;" horiz-adv-x="744" 
d="M639 -96q0 -24 31 -24q18 0 46 10l6 -77q-39 -13 -90 -13q-99 0 -99 75q0 74 85 119q-29 5 -47 20t-30 47l-38 104h-291l-59 -165h-143l270 703l143 20l238 -603q26 -8 71 -8l-2 -114zM252 277h210l-106 289z" />
    <glyph glyph-name="aogonek" unicode="&#x105;" horiz-adv-x="576" 
d="M550 -2l-1 -1q-90 -52 -90 -93q0 -24 31 -24q18 0 46 10l6 -77q-39 -13 -90 -13q-99 0 -99 75q0 73 87 120q-49 11 -67 56q-57 -63 -164 -63q-79 0 -123 39.5t-44 107.5q0 71 55 111.5t162 40.5q56 0 103 -10v25q0 87 -93 87q-79 0 -89 -61l-123 21q14 67 61.5 104
t151.5 37q221 0 221 -189v-196q25 -6 61 -6zM244 83q49 0 83.5 30t34.5 81v7q-45 8 -92 8q-100 0 -100 -67q0 -59 74 -59z" />
    <glyph glyph-name="Cacute" unicode="&#x106;" horiz-adv-x="705" 
d="M380 864l-66 -122l121 -7l95 109zM430 117q-110 0 -171.5 62t-61.5 179q0 121 50 181.5t134 60.5q143 0 151 -134l139 19q0 109 -74 172t-215 63q-151 0 -239 -95.5t-88 -274.5q0 -172 93.5 -267t258.5 -95q163 0 255 61l-32 125q-95 -57 -200 -57z" />
    <glyph glyph-name="cacute" unicode="&#x107;" horiz-adv-x="550" 
d="M311 715l-88 -165h118l105 154zM472 153q-76 -53 -164 -53q-59 0 -91.5 36t-32.5 107q0 67 29 101.5t79 34.5q80 0 83 -89l123 15q0 79 -49.5 132t-155.5 53q-117 0 -180.5 -67.5t-63.5 -179.5q0 -128 65.5 -191.5t188.5 -63.5q126 0 201 58z" />
    <glyph glyph-name="Cdotaccent" unicode="&#x10a;" horiz-adv-x="705" 
d="M381 747q34 0 54.5 19t20.5 51t-20 51t-55 19t-55 -19t-20 -51t20.5 -51t54.5 -19zM430 117q-110 0 -171.5 62t-61.5 179q0 121 50 181.5t134 60.5q143 0 151 -134l139 19q0 109 -74 172t-215 63q-151 0 -239 -95.5t-88 -274.5q0 -172 93.5 -267t258.5 -95q163 0 255 61
l-32 125q-95 -57 -200 -57z" />
    <glyph glyph-name="cdotaccent" unicode="&#x10b;" horiz-adv-x="550" 
d="M291 550q38 0 61 23t23 60t-23 59.5t-61 22.5q-37 0 -61 -23t-24 -59q0 -37 24 -60t61 -23zM472 153q-76 -53 -164 -53q-59 0 -91.5 36t-32.5 107q0 67 29 101.5t79 34.5q80 0 83 -89l123 15q0 79 -49.5 132t-155.5 53q-117 0 -180.5 -67.5t-63.5 -179.5
q0 -128 65.5 -191.5t188.5 -63.5q126 0 201 58z" />
    <glyph glyph-name="Ccaron" unicode="&#x10c;" horiz-adv-x="705" 
d="M443 739h-123l-90 104l101 14l50 -61l50 61l101 -14zM430 117q105 0 200 57l32 -125q-92 -61 -255 -61q-165 0 -258.5 95t-93.5 267q0 179 88 274.5t239 95.5q141 0 215 -63t74 -172l-139 -19q-8 134 -151 134q-84 0 -134 -60.5t-50 -181.5q0 -117 61.5 -179t171.5 -62z
" />
    <glyph glyph-name="ccaron" unicode="&#x10d;" horiz-adv-x="550" 
d="M342 552h-101l-121 158l108 2l63 -82l63 82l108 -2zM472 153l32 -107q-75 -58 -201 -58q-123 0 -188.5 63.5t-65.5 191.5q0 112 63.5 179.5t180.5 67.5q106 0 155.5 -53t49.5 -132l-123 -15q-3 89 -83 89q-50 0 -79 -34.5t-29 -101.5q0 -71 32.5 -107t91.5 -36
q88 0 164 53z" />
    <glyph glyph-name="Dcaron" unicode="&#x10e;" 
d="M420 739h-123l-90 104l101 14l50 -61l50 61l101 -14zM360 720q162 0 255.5 -97t93.5 -264q0 -171 -104.5 -265t-286.5 -94h-215v590h-78v112q50 12 101 12q57 0 84 -27q70 33 150 33zM319 125q125 0 188 59t63 174q0 111 -57.5 174.5t-169.5 63.5q-49 0 -103 -9v-462h79z
" />
    <glyph glyph-name="dcaron" unicode="&#x10f;" horiz-adv-x="643" 
d="M603 718l111 -8l-36 -196l-103 8zM536 710v-605q27 -6 63 -6l-2 -101q-42 -7 -70 -7q-83 0 -110 70q-59 -73 -161 -73q-90 0 -148.5 64t-58.5 182q0 119 65 187.5t171 68.5q68 0 119 -21v241h132zM285 99q50 0 84.5 33.5t34.5 87.5v128q-45 31 -104 31q-53 0 -85 -36.5
t-32 -108.5q0 -69 28 -102t74 -33z" />
    <glyph glyph-name="Dcroat" unicode="&#x110;" 
d="M360 720q162 0 255.5 -97t93.5 -264q0 -171 -104.5 -265t-286.5 -94h-215v296h-78v108h78v186h-78v112q50 12 101 12q57 0 84 -27q70 33 150 33zM319 125q125 0 188 59t63 174q0 111 -57.5 174.5t-169.5 63.5q-49 0 -103 -9v-183h113v-108h-113v-171h79z" />
    <glyph glyph-name="dcroat" unicode="&#x111;" horiz-adv-x="614" 
d="M599 539h-63v-434q27 -6 63 -6l-2 -101q-42 -7 -70 -7q-83 0 -110 70q-59 -73 -161 -73q-90 0 -148.5 64t-58.5 182q0 119 65 187.5t171 68.5q68 0 119 -21v70h-136v92h136v79h132v-79h63v-92zM285 99q50 0 84.5 33.5t34.5 87.5v128q-45 31 -104 31q-53 0 -85 -36.5
t-32 -108.5q0 -69 28 -102t74 -33z" />
    <glyph glyph-name="Emacron" unicode="&#x112;" horiz-adv-x="581" 
d="M466 842v-93h-291v93h291zM222 292v-170h334v-122h-471v710h471l-8 -122h-326v-182h299v-114h-299z" />
    <glyph glyph-name="emacron" unicode="&#x113;" horiz-adv-x="560" 
d="M444 680v-104h-311v104h311zM184 208q14 -110 130 -110q49 0 91 15.5t63 32.5l34 -102q-22 -20 -76.5 -38t-121.5 -18q-125 0 -190 68t-65 190q0 108 64.5 176t171.5 68q109 0 167.5 -66t58.5 -171v-45h-327zM285 386q-86 0 -100 -100h193q-8 100 -93 100z" />
    <glyph glyph-name="Edotaccent" unicode="&#x116;" horiz-adv-x="581" 
d="M321 747q-34 0 -54.5 19t-20.5 51t20 51t55 19t55 -19t20 -51t-20.5 -51t-54.5 -19zM222 292v-170h334v-122h-471v710h471l-8 -122h-326v-182h299v-114h-299z" />
    <glyph glyph-name="edotaccent" unicode="&#x117;" horiz-adv-x="560" 
d="M288 550q-37 0 -61 23t-24 60q0 36 24 59t61 23q38 0 61 -22.5t23 -59.5t-23 -60t-61 -23zM184 208q14 -110 130 -110q49 0 91 15.5t63 32.5l34 -102q-22 -20 -76.5 -38t-121.5 -18q-125 0 -190 68t-65 190q0 108 64.5 176t171.5 68q109 0 167.5 -66t58.5 -171v-45h-327z
M285 386q-86 0 -100 -100h193q-8 100 -93 100z" />
    <glyph glyph-name="Eogonek" unicode="&#x118;" horiz-adv-x="581" 
d="M496 -118q18 0 46 10l6 -77q-39 -13 -90 -13q-99 0 -99 75q0 76 92 123h-366v710h471l-8 -122h-326v-182h299v-114h-299v-170h334v-122q-91 -53 -91 -94q0 -24 31 -24z" />
    <glyph glyph-name="eogonek" unicode="&#x119;" horiz-adv-x="560" 
d="M184 208q14 -110 130 -110q49 0 91 15.5t63 32.5l34 -102q-12 -12 -45 -26q-89 -52 -89 -93q0 -24 31 -24q18 0 46 10l6 -77q-39 -13 -90 -13q-99 0 -99 75q0 51 46 92h-4q-125 0 -190 68t-65 190q0 108 64.5 176t171.5 68q109 0 167.5 -66t58.5 -171v-45h-327zM285 386
q-86 0 -100 -100h193q-8 100 -93 100z" />
    <glyph glyph-name="Ecaron" unicode="&#x11a;" horiz-adv-x="581" 
d="M383 739h-123l-90 104l101 14l50 -61l50 61l101 -14zM222 292v-170h334v-122h-471v710h471l-8 -122h-326v-182h299v-114h-299z" />
    <glyph glyph-name="ecaron" unicode="&#x11b;" horiz-adv-x="560" 
d="M339 552h-101l-121 158l108 2l63 -82l63 82l108 -2zM184 208q14 -110 130 -110q49 0 91 15.5t63 32.5l34 -102q-22 -20 -76.5 -38t-121.5 -18q-125 0 -190 68t-65 190q0 108 64.5 176t171.5 68q109 0 167.5 -66t58.5 -171v-45h-327zM285 386q-86 0 -100 -100h193
q-8 100 -93 100z" />
    <glyph glyph-name="Gbreve" unicode="&#x11e;" horiz-adv-x="790" 
d="M390 733q-61 0 -97.5 29.5t-40.5 90.5l81 7q4 -30 17 -43t40 -13t40.5 13t17.5 43l80 -7q-7 -120 -138 -120zM663 387q31 0 47 -16t16 -42v-329h-110l-6 73q-85 -85 -216 -85q-156 0 -247.5 97.5t-91.5 268.5q0 179 92.5 272.5t258.5 93.5q131 0 205.5 -54t89.5 -151
l-141 -28q-19 112 -154 112q-100 0 -154.5 -62t-54.5 -183q0 -118 56 -181t159 -63q82 0 132.5 38t50.5 104v30h-186v105h254z" />
    <glyph glyph-name="gbreve" unicode="&#x11f;" horiz-adv-x="548" 
d="M278 549q-145 0 -151 153l87 6q5 -73 64 -73t64 73l87 -6q-6 -153 -151 -153zM387 116q77 0 114 -36t37 -100q0 -75 -65 -122.5t-193 -47.5q-241 0 -241 130q0 65 52 106q-29 26 -29 71q0 59 66 106q-53 41 -53 110q0 70 54.5 113t150.5 43q47 0 79 -8q31 99 154 102
l14 -108q-60 -3 -83 -38q40 -39 40 -101q0 -72 -53 -112.5t-151 -40.5q-46 0 -82 9q-23 -16 -23 -39q0 -37 47 -37h165zM280 405q-38 0 -58 -19.5t-20 -54.5q0 -71 78 -71t78 71q0 35 -20.5 54.5t-57.5 19.5zM284 -95q130 0 130 62q0 48 -63 48h-166h-4q-23 -18 -23 -51
q0 -59 126 -59z" />
    <glyph glyph-name="Gdotaccent" unicode="&#x120;" horiz-adv-x="790" 
d="M391 747q-34 0 -54.5 19t-20.5 51t20 51t55 19t55 -19t20 -51t-20.5 -51t-54.5 -19zM663 387q31 0 47 -16t16 -42v-329h-110l-6 73q-85 -85 -216 -85q-156 0 -247.5 97.5t-91.5 268.5q0 179 92.5 272.5t258.5 93.5q131 0 205.5 -54t89.5 -151l-141 -28q-19 112 -154 112
q-100 0 -154.5 -62t-54.5 -183q0 -118 56 -181t159 -63q82 0 132.5 38t50.5 104v30h-186v105h254z" />
    <glyph glyph-name="gdotaccent" unicode="&#x121;" horiz-adv-x="548" 
d="M278 550q-37 0 -61 23t-24 60q0 36 24 59t61 23q38 0 61 -22.5t23 -59.5t-23 -60t-61 -23zM387 116q77 0 114 -36t37 -100q0 -75 -65 -122.5t-193 -47.5q-241 0 -241 130q0 65 52 106q-29 26 -29 71q0 59 66 106q-53 41 -53 110q0 70 54.5 113t150.5 43q47 0 79 -8
q31 99 154 102l14 -108q-60 -3 -83 -38q40 -39 40 -101q0 -72 -53 -112.5t-151 -40.5q-46 0 -82 9q-23 -16 -23 -39q0 -37 47 -37h165zM280 405q-38 0 -58 -19.5t-20 -54.5q0 -71 78 -71t78 71q0 35 -20.5 54.5t-57.5 19.5zM284 -95q130 0 130 62q0 48 -63 48h-166h-4
q-23 -18 -23 -51q0 -59 126 -59z" />
    <glyph glyph-name="Gcommaaccent" unicode="&#x122;" horiz-adv-x="790" 
d="M663 387q31 0 47 -16t16 -42v-329h-110l-6 73q-85 -85 -216 -85q-156 0 -247.5 97.5t-91.5 268.5q0 179 92.5 272.5t258.5 93.5q131 0 205.5 -54t89.5 -151l-141 -28q-19 112 -154 112q-100 0 -154.5 -62t-54.5 -183q0 -118 56 -181t159 -63q82 0 132.5 38t50.5 104v30
h-186v105h254zM400 -26q79 0 79 -79q0 -53 -34.5 -81.5t-85.5 -33.5l-12 52q55 12 55 46q-68 0 -68 47q0 23 18 36t48 13z" />
    <glyph glyph-name="gcommaaccent" unicode="&#x123;" horiz-adv-x="553" 
d="M289 568q-79 0 -79 79q0 53 34.5 81.5t85.5 33.5l12 -52q-55 -12 -55 -46q67 0 67 -47q0 -23 -17.5 -36t-47.5 -13zM387 116q77 0 114 -36t37 -100q0 -75 -65 -122.5t-193 -47.5q-241 0 -241 130q0 65 52 106q-29 26 -29 71q0 59 66 106q-53 41 -53 110q0 70 54.5 113
t150.5 43q47 0 79 -8q31 99 154 102l14 -108q-60 -3 -83 -38q40 -39 40 -101q0 -72 -53 -112.5t-151 -40.5q-46 0 -82 9q-23 -16 -23 -39q0 -37 47 -37h165zM280 405q-38 0 -58 -19.5t-20 -54.5q0 -71 78 -71t78 71q0 35 -20.5 54.5t-57.5 19.5zM284 -95q130 0 130 62
q0 48 -63 48h-166h-4q-23 -18 -23 -51q0 -59 126 -59z" />
    <glyph glyph-name="Hbar" unicode="&#x126;" horiz-adv-x="787" 
d="M772 539h-80v-419q24 -8 71 -8l-2 -114q-36 -6 -88 -6q-61 0 -89.5 24t-28.5 91v175h-333v-282h-137v539h-80v92h80v79h137v-79h333v79h137v-79h80v-92zM555 407v132h-333v-132h333z" />
    <glyph glyph-name="hbar" unicode="&#x127;" horiz-adv-x="611" 
d="M525 106q24 -6 61 -6l-2 -102q-28 -7 -81 -7q-60 0 -85.5 20.5t-25.5 79.5v173q0 110 -92 110q-47 0 -77.5 -31.5t-30.5 -77.5v-265h-133v539h-59v92h59v79h133v-79h139v-92h-139v-114q58 65 152 65q91 0 136 -53t45 -151v-180z" />
    <glyph glyph-name="Itilde" unicode="&#x128;" horiz-adv-x="306" 
d="M304 855q-7 -113 -87 -113q-27 0 -63 14t-49 14q-27 0 -30 -39l-73 8q7 113 88 113q26 0 62 -13.5t49 -13.5q28 0 31 39zM85 710v-710h137v710h-137z" />
    <glyph glyph-name="itilde" unicode="&#x129;" horiz-adv-x="263" 
d="M292 713q-2 -59 -30 -96t-77 -37q-39 0 -88 18.5t-65 18.5q-33 0 -39 -51l-80 10q4 61 32 97t76 36q35 0 84 -18.5t69 -18.5q33 0 39 50zM178 106v374h-133v-400q0 -51 22.5 -70t78.5 -19q58 0 90 7l2 102q-36 0 -60 6z" />
    <glyph glyph-name="Imacron" unicode="&#x12a;" horiz-adv-x="306" 
d="M43 842v-93h219v93h-219zM85 710v-710h137v710h-137z" />
    <glyph glyph-name="imacron" unicode="&#x12b;" horiz-adv-x="263" 
d="M-22 680v-104h265v104h-265zM178 106v374h-133v-400q0 -51 22.5 -70t78.5 -19q58 0 90 7l2 102q-36 0 -60 6z" />
    <glyph glyph-name="Iogonek" unicode="&#x12e;" horiz-adv-x="306" 
d="M162 -118q18 0 46 10l6 -77q-39 -13 -90 -13q-99 0 -99 75q0 76 92 123h-32v710h137v-710q-91 -53 -91 -94q0 -24 31 -24z" />
    <glyph glyph-name="iogonek" unicode="&#x12f;" horiz-adv-x="263" 
d="M111 550q-37 0 -61 23t-24 60q0 36 24 59t61 23q38 0 61 -22.5t23 -59.5t-23 -60t-61 -23zM237 -2q-91 -53 -91 -94q0 -24 31 -24q18 0 46 10l6 -77q-39 -13 -90 -13q-99 0 -99 75q0 71 81 117q-41 4 -58.5 23.5t-17.5 64.5v400h133v-374q24 -6 60 -6l-2 -102h1z" />
    <glyph glyph-name="Idotaccent" unicode="&#x130;" horiz-adv-x="306" 
d="M153 747q34 0 54.5 19t20.5 51t-20 51t-55 19t-55 -19t-20 -51t20.5 -51t54.5 -19zM85 710v-710h137v710h-137z" />
    <glyph glyph-name="dotlessi" unicode="&#x131;" horiz-adv-x="263" 
d="M178 106v374h-133v-400q0 -51 22.5 -70t78.5 -19q58 0 90 7l2 102q-36 0 -60 6z" />
    <glyph glyph-name="IJ" unicode="&#x132;" horiz-adv-x="760" 
d="M85 710v-710h137v710h-137zM675 710h-137v-491q0 -64 -25 -87.5t-90 -23.5q-70 0 -132 28l-13 -120q56 -28 156 -28q114 0 177.5 52t63.5 184v486z" />
    <glyph glyph-name="ij" unicode="&#x133;" horiz-adv-x="537" 
d="M111 550q38 0 61 23t23 60t-23 59.5t-61 22.5q-37 0 -61 -23t-24 -59q0 -37 24 -60t61 -23zM406 550q38 0 61 23t23 60t-23 59.5t-61 22.5q-37 0 -61 -23t-24 -59q0 -37 24 -60t61 -23zM178 106v374h-133v-400q0 -51 22.5 -70t78.5 -19q58 0 90 7l2 102q-36 0 -60 6z
M473 480h-133v-499q0 -31 -12.5 -43t-38.5 -12q-25 0 -51 12l-4 -115q32 -13 82 -13q76 0 116.5 36.5t40.5 125.5v508z" />
    <glyph glyph-name="Kcommaaccent" unicode="&#x136;" horiz-adv-x="691" 
d="M571 153q22 -27 40 -34t74 -7l-7 -115q-34 -6 -64 -6q-50 0 -81 15.5t-71 71.5l-150 204h-90v-282h-137v710h137v-292h90l216 301l151 -16l-262 -350zM347 -26q79 0 79 -79q0 -53 -34.5 -81.5t-85.5 -33.5l-12 52q55 12 55 46q-68 0 -68 47q0 23 18 36t48 13z" />
    <glyph glyph-name="kcommaaccent" unicode="&#x137;" horiz-adv-x="538" 
d="M455 106q22 -11 75 -11l-2 -97q-26 -7 -69 -7q-68 0 -100 46l-111 165l-56 -56v-146h-133v710h133v-410l181 188l149 -8l-189 -192zM259 -26q79 0 79 -79q0 -53 -34.5 -81.5t-85.5 -33.5l-12 52q55 12 55 46q-68 0 -68 47q0 23 18 36t48 13z" />
    <glyph glyph-name="kgreenlandic" unicode="&#x138;" horiz-adv-x="542" 
d="M455 106q22 -11 75 -11l-2 -97q-26 -7 -69 -7q-68 0 -97 42l-115 171l-55 -57v-147h-133v485h133v-184l174 187l146 -8l-181 -189z" />
    <glyph glyph-name="Lacute" unicode="&#x139;" horiz-adv-x="568" 
d="M302 844l-95 -109l-121 7l66 122zM222 125h339v-125h-476v710h137v-585z" />
    <glyph glyph-name="lacute" unicode="&#x13a;" horiz-adv-x="282" 
d="M125 864l-66 -122l121 -7l95 109zM59 710v-609q0 -65 27.5 -87.5t91.5 -22.5q48 0 87 7l2 102q-50 0 -75 6v604h-133z" />
    <glyph glyph-name="Lcommaaccent" unicode="&#x13b;" horiz-adv-x="568" 
d="M222 125h339v-125h-476v710h137v-585zM317 -26q79 0 79 -79q0 -53 -34.5 -81.5t-85.5 -33.5l-12 52q55 12 55 46q-68 0 -68 47q0 23 18 36t48 13z" />
    <glyph glyph-name="lcommaaccent" unicode="&#x13c;" horiz-adv-x="282" 
d="M59 710v-609q0 -65 27.5 -87.5t91.5 -22.5q48 0 87 7l2 102q-50 0 -75 6v604h-133zM222 -105q0 -53 -34.5 -81.5t-85.5 -33.5l-12 52q55 12 55 46q-68 0 -68 47q0 23 18 36t48 13q79 0 79 -79z" />
    <glyph glyph-name="Lcaron" unicode="&#x13d;" horiz-adv-x="568" 
d="M496 710l-36 -196l-103 8l28 196zM222 125h339v-125h-476v710h137v-585z" />
    <glyph glyph-name="lcaron" unicode="&#x13e;" horiz-adv-x="302" 
d="M373 710l-111 8l-28 -196l103 -8zM59 710v-609q0 -65 27.5 -87.5t91.5 -22.5q48 0 87 7l2 102q-50 0 -75 6v604h-133z" />
    <glyph glyph-name="Ldot" unicode="&#x13f;" horiz-adv-x="568" 
d="M222 125h339v-125h-476v710h137v-585zM420 226q-35 0 -58.5 23.5t-23.5 58.5q0 36 23.5 59.5t58.5 23.5t58.5 -23.5t23.5 -59.5q0 -35 -23.5 -58.5t-58.5 -23.5z" />
    <glyph glyph-name="ldot" unicode="&#x140;" horiz-adv-x="464" 
d="M59 710v-609q0 -65 27.5 -87.5t91.5 -22.5q48 0 87 7l2 102q-50 0 -75 6v604h-133zM349 226q35 0 58.5 23.5t23.5 58.5q0 36 -23.5 59.5t-58.5 23.5t-58.5 -23.5t-23.5 -59.5q0 -35 23.5 -58.5t58.5 -23.5z" />
    <glyph glyph-name="Lslash" unicode="&#x141;" horiz-adv-x="572" 
d="M222 125h339v-125h-476v281l-75 -24v102l75 24v327h137v-283l145 47v-102l-145 -47v-200z" />
    <glyph glyph-name="lslash" unicode="&#x142;" horiz-adv-x="305" 
d="M290 371l-82 -31v-234q26 -6 74 -6l-2 -102q-38 -7 -87 -7q-63 0 -90.5 22t-27.5 88v188l-65 -25v102l65 25v319h133v-269l82 32v-102z" />
    <glyph glyph-name="Nacute" unicode="&#x143;" horiz-adv-x="790" 
d="M554 844l-95 -109l-121 7l66 122zM569 710h136v-710h-130l-354 483v-483h-136v703l129 20l355 -490v477z" />
    <glyph glyph-name="nacute" unicode="&#x144;" horiz-adv-x="630" 
d="M471 704l-105 -154h-118l88 165zM544 106q24 -6 61 -6l-2 -102q-28 -7 -81 -7q-60 0 -85.5 20.5t-25.5 79.5v173q0 110 -92 110q-47 0 -77.5 -31.5t-30.5 -77.5v-265h-133v370q-20 6 -53 6l2 102q44 11 67 11q88 0 110 -73q57 74 160 74q90 0 135 -53t45 -151v-180z" />
    <glyph glyph-name="Ncommaaccent" unicode="&#x145;" horiz-adv-x="790" 
d="M569 710h136v-710h-130l-354 483v-483h-136v703l129 20l355 -490v477zM394 -26q79 0 79 -79q0 -53 -34.5 -81.5t-85.5 -33.5l-12 52q55 12 55 46q-68 0 -68 47q0 23 18 36t48 13z" />
    <glyph glyph-name="ncommaaccent" unicode="&#x146;" horiz-adv-x="630" 
d="M544 106q24 -6 61 -6l-2 -102q-28 -7 -81 -7q-60 0 -85.5 20.5t-25.5 79.5v173q0 110 -92 110q-47 0 -77.5 -31.5t-30.5 -77.5v-265h-133v370q-20 6 -53 6l2 102q44 11 67 11q88 0 110 -73q57 74 160 74q90 0 135 -53t45 -151v-180zM323 -26q79 0 79 -79
q0 -53 -34.5 -81.5t-85.5 -33.5l-12 52q55 12 55 46q-68 0 -68 47q0 23 18 36t48 13z" />
    <glyph glyph-name="Ncaron" unicode="&#x147;" horiz-adv-x="790" 
d="M467 739h-123l-90 104l101 14l50 -61l50 61l101 -14zM569 710h136v-710h-130l-354 483v-483h-136v703l129 20l355 -490v477z" />
    <glyph glyph-name="ncaron" unicode="&#x148;" horiz-adv-x="630" 
d="M367 552h-101l-121 158l108 2l63 -82l63 82l108 -2zM544 106q24 -6 61 -6l-2 -102q-28 -7 -81 -7q-60 0 -85.5 20.5t-25.5 79.5v173q0 110 -92 110q-47 0 -77.5 -31.5t-30.5 -77.5v-265h-133v370q-20 6 -53 6l2 102q44 11 67 11q88 0 110 -73q57 74 160 74q90 0 135 -53
t45 -151v-180z" />
    <glyph glyph-name="Eng" unicode="&#x14a;" horiz-adv-x="790" 
d="M569 710h136v-738q0 -90 -39 -126t-110 -36q-54 0 -90 13l4 115q26 -12 51 -12q26 0 38.5 13.5t12.5 49.5v15l-351 479v-483h-136v703l129 20l355 -490v477z" />
    <glyph glyph-name="eng" unicode="&#x14b;" horiz-adv-x="591" 
d="M364 490q90 0 135 -53t45 -151v-314q0 -89 -38.5 -125.5t-109.5 -36.5q-55 0 -91 13l4 115q26 -12 51 -12q26 0 38.5 13.5t12.5 49.5v275q0 110 -92 110q-47 0 -77.5 -31.5t-30.5 -77.5v-265h-133v370q-20 6 -53 6l2 102q44 11 67 11q88 0 110 -73q57 74 160 74z" />
    <glyph glyph-name="Omacron" unicode="&#x14c;" horiz-adv-x="798" 
d="M253 842v-93h291v93h-291zM399 -12q159 0 251.5 102.5t92.5 263.5t-92.5 263.5t-251.5 102.5t-251.5 -102.5t-92.5 -263.5t92.5 -263.5t251.5 -102.5zM399 111q-99 0 -151.5 66t-52.5 177t53 177t151 66q99 0 151.5 -66t52.5 -177t-52.5 -177t-151.5 -66z" />
    <glyph glyph-name="omacron" unicode="&#x14d;" horiz-adv-x="604" 
d="M146 680v-104h311v104h-311zM49 238q0 -118 69 -184t184 -66t184 66t69 184t-69 185t-184 67t-184 -66.5t-69 -185.5zM184 238q0 66 30.5 103.5t87.5 37.5t87.5 -37.5t30.5 -103.5t-30.5 -102.5t-87.5 -36.5t-87.5 36.5t-30.5 102.5z" />
    <glyph glyph-name="Ohungarumlaut" unicode="&#x150;" horiz-adv-x="798" 
d="M291 864l-66 -122l121 -7l95 109zM474 864l-66 -122l121 -7l95 109zM399 -12q159 0 251.5 102.5t92.5 263.5t-92.5 263.5t-251.5 102.5t-251.5 -102.5t-92.5 -263.5t92.5 -263.5t251.5 -102.5zM399 111q-99 0 -151.5 66t-52.5 177t53 177t151 66q99 0 151.5 -66
t52.5 -177t-52.5 -177t-151.5 -66z" />
    <glyph glyph-name="ohungarumlaut" unicode="&#x151;" horiz-adv-x="604" 
d="M218 715l-88 -165h118l105 154zM393 715l-88 -165h118l105 154zM49 238q0 -118 69 -184t184 -66t184 66t69 184t-69 185t-184 67t-184 -66.5t-69 -185.5zM184 238q0 66 30.5 103.5t87.5 37.5t87.5 -37.5t30.5 -103.5t-30.5 -102.5t-87.5 -36.5t-87.5 36.5t-30.5 102.5z
" />
    <glyph glyph-name="OE" unicode="&#x152;" horiz-adv-x="1109" 
d="M750 292v-170h334v-122h-471v56q-89 -68 -214 -68q-159 0 -251.5 102.5t-92.5 263.5t92.5 263.5t251.5 102.5q125 0 214 -68v58h471l-8 -122h-326v-182h299v-114h-299zM399 111q99 0 151.5 66t52.5 177t-52.5 177t-151.5 66q-98 0 -151 -66t-53 -177t52.5 -177t151.5 -66
z" />
    <glyph glyph-name="oe" unicode="&#x153;" horiz-adv-x="931" 
d="M554 208q14 -110 131 -110q49 0 90.5 15.5t62.5 32.5l34 -102q-22 -20 -76.5 -38t-121.5 -18q-121 0 -188 67q-67 -67 -184 -67q-115 0 -184 66t-69 184q0 119 69 185.5t184 66.5t183 -66q64 66 170 66q109 0 167.5 -66t58.5 -171v-45h-327zM655 386q-86 0 -100 -100h193
q-7 100 -93 100zM302 99q57 0 87.5 36.5t30.5 102.5t-30.5 103.5t-87.5 37.5t-87.5 -37.5t-30.5 -103.5t30.5 -102.5t87.5 -36.5z" />
    <glyph glyph-name="Racute" unicode="&#x154;" horiz-adv-x="693" 
d="M506 844l-95 -109l-121 7l66 122zM582 144q13 -21 30.5 -26.5t68.5 -5.5l-10 -115q-30 -6 -61 -6q-49 0 -77.5 15t-57.5 59l-118 188h-117v-253h-137v590h-78v112q50 12 101 12q56 0 84 -27q68 33 158 33q131 0 200.5 -62t69.5 -173q0 -79 -36.5 -134.5t-102.5 -79.5z
M240 589v-217h117q71 0 107 25t36 83q0 118 -153 118q-55 0 -107 -9z" />
    <glyph glyph-name="racute" unicode="&#x155;" horiz-adv-x="372" 
d="M356 704l-105 -154h-118l88 165zM314 490q30 0 49 -8l-7 -125q-19 7 -45 7q-41 0 -70 -36t-29 -101v-227h-133v370q-19 6 -54 6l2 102q37 11 69 11q73 0 103 -80q44 81 115 81z" />
    <glyph glyph-name="Rcommaaccent" unicode="&#x156;" horiz-adv-x="693" 
d="M582 144q13 -21 30.5 -26.5t68.5 -5.5l-10 -115q-30 -6 -61 -6q-49 0 -77.5 15t-57.5 59l-118 188h-117v-253h-137v590h-78v112q50 12 101 12q56 0 84 -27q68 33 158 33q131 0 200.5 -62t69.5 -173q0 -79 -36.5 -134.5t-102.5 -79.5zM240 589v-217h117q71 0 107 25t36 83
q0 118 -153 118q-55 0 -107 -9zM359 -26q79 0 79 -79q0 -53 -34.5 -81.5t-85.5 -33.5l-12 52q55 12 55 46q-68 0 -68 47q0 23 18 36t48 13z" />
    <glyph glyph-name="rcommaaccent" unicode="&#x157;" horiz-adv-x="372" 
d="M314 490q30 0 49 -8l-7 -125q-19 7 -45 7q-41 0 -70 -36t-29 -101v-227h-133v370q-19 6 -54 6l2 102q37 11 69 11q73 0 103 -80q44 81 115 81zM146 -26q79 0 79 -79q0 -53 -34.5 -81.5t-85.5 -33.5l-12 52q55 12 55 46q-68 0 -68 47q0 23 18 36t48 13z" />
    <glyph glyph-name="Rcaron" unicode="&#x158;" horiz-adv-x="693" 
d="M418 739h-123l-90 104l101 14l50 -61l50 61l101 -14zM582 144q13 -21 30.5 -26.5t68.5 -5.5l-10 -115q-30 -6 -61 -6q-49 0 -77.5 15t-57.5 59l-118 188h-117v-253h-137v590h-78v112q50 12 101 12q56 0 84 -27q68 33 158 33q131 0 200.5 -62t69.5 -173
q0 -79 -36.5 -134.5t-102.5 -79.5zM240 589v-217h117q71 0 107 25t36 83q0 118 -153 118q-55 0 -107 -9z" />
    <glyph glyph-name="rcaron" unicode="&#x159;" horiz-adv-x="372" 
d="M251 552h-101l-121 158l108 2l63 -82l63 82l108 -2zM199 409q44 81 115 81q30 0 49 -8l-7 -125q-19 7 -45 7q-41 0 -70 -36t-29 -101v-227h-133v370q-19 6 -54 6l2 102q37 11 69 11q73 0 103 -80z" />
    <glyph glyph-name="Sacute" unicode="&#x15a;" horiz-adv-x="628" 
d="M296 864l-66 -122l121 -7l95 109zM180 517q0 90 123 90q58 0 89.5 -20t38.5 -67l135 22q-16 178 -263 178q-129 0 -193.5 -54t-64.5 -156q0 -58 22 -98t58 -60.5t78.5 -33t85.5 -21t79 -18.5t58 -31t22 -54q0 -85 -143 -85q-130 0 -236 64l-16 -124q104 -61 253 -61
q278 0 278 214q0 58 -22.5 98.5t-58 60t-78.5 31.5t-86 19.5t-78.5 17.5t-58 31.5t-22.5 56.5z" />
    <glyph glyph-name="sacute" unicode="&#x15b;" horiz-adv-x="534" 
d="M270 715l-88 -165h118l105 154zM253 490q-102 0 -153 -40t-51 -111q0 -52 31 -84t75 -43.5t88.5 -18.5t75.5 -19t31 -36t-20 -35t-70 -11q-103 0 -188 52l-19 -106q80 -50 211 -50q113 0 167 39.5t54 108.5q0 47 -22.5 78t-56 43t-73 21t-73 13.5t-56 18t-22.5 36.5
q0 48 77 48q76 0 87 -56l127 16q-3 66 -60 101t-160 35z" />
    <glyph glyph-name="Scedilla" unicode="&#x15e;" horiz-adv-x="628" 
d="M584 202q0 -197 -236 -213l-4 -21q78 0 78 -63q0 -51 -42.5 -75t-147.5 -24l12 66q78 0 78 29q0 13 -15.5 18.5t-55.5 5.5l13 64q-122 8 -211 60l16 124q106 -64 236 -64q143 0 143 85q0 33 -22 54t-58 31t-79 18.5t-85.5 21t-78.5 33t-58 60.5t-22 98q0 102 64.5 156
t193.5 54q247 0 263 -178l-135 -22q-7 47 -38.5 67t-89.5 20q-123 0 -123 -90q0 -35 22.5 -56.5t58 -31.5t78.5 -17.5t86 -19.5t78.5 -31.5t58 -60t22.5 -98.5z" />
    <glyph glyph-name="scedilla" unicode="&#x15f;" horiz-adv-x="534" 
d="M485 136q0 -134 -184 -147l-4 -21q78 0 78 -63q0 -51 -42.5 -75t-147.5 -24l12 66q78 0 78 29q0 13 -15.5 18.5t-55.5 5.5l13 65q-98 7 -164 48l19 106q85 -52 188 -52q50 0 70 11t20 35t-31 36t-75 19t-88.5 18.5t-75.5 43.5t-31 84q0 71 51 111t153 40q103 0 160 -35
t60 -101l-127 -16q-11 56 -87 56q-77 0 -77 -48q0 -23 22.5 -36.5t56 -18t73 -13.5t73 -21t56 -43t22.5 -78z" />
    <glyph glyph-name="Scaron" unicode="&#x160;" horiz-adv-x="628" 
d="M358 739h-123l-90 104l101 14l50 -61l50 61l101 -14zM180 517q0 -35 22.5 -56.5t58 -31.5t78.5 -17.5t86 -19.5t78.5 -31.5t58 -60t22.5 -98.5q0 -214 -278 -214q-149 0 -253 61l16 124q106 -64 236 -64q143 0 143 85q0 33 -22 54t-58 31t-79 18.5t-85.5 21t-78.5 33
t-58 60.5t-22 98q0 102 64.5 156t193.5 54q247 0 263 -178l-135 -22q-7 47 -38.5 67t-89.5 20q-123 0 -123 -90z" />
    <glyph glyph-name="scaron" unicode="&#x161;" horiz-adv-x="534" 
d="M301 552h-101l-121 158l108 2l63 -82l63 82l108 -2zM182 346q0 -23 22.5 -36.5t56 -18t73 -13.5t73 -21t56 -43t22.5 -78q0 -69 -54 -108.5t-167 -39.5q-131 0 -211 50l19 106q85 -52 188 -52q50 0 70 11t20 35t-31 36t-75 19t-88.5 18.5t-75.5 43.5t-31 84q0 71 51 111
t153 40q103 0 160 -35t60 -101l-127 -16q-11 56 -87 56q-77 0 -77 -48z" />
    <glyph glyph-name="uni0162" unicode="&#x162;" horiz-adv-x="559" 
d="M348 0h-27l-5 -32q78 0 78 -63q0 -51 -42.5 -75t-147.5 -24l12 66q78 0 78 29q0 13 -15.5 18.5t-55.5 5.5l16 75h-28v589h-209v113q101 8 174 8h381v-121h-209v-589z" />
    <glyph glyph-name="uni0163" unicode="&#x163;" horiz-adv-x="362" 
d="M362 371h-134v-214q0 -29 11.5 -41t37.5 -12q35 0 69 12l8 -112q-36 -11 -85 -15l-4 -21q78 0 78 -63q0 -51 -42.5 -75t-147.5 -24l12 66q78 0 78 29q0 13 -15.5 18.5t-55.5 5.5l14 67q-48 9 -69.5 43t-21.5 105v231h-90v109h90v140h133v-140h134v-109z" />
    <glyph glyph-name="Tcaron" unicode="&#x164;" horiz-adv-x="559" 
d="M341 739h-123l-90 104l101 14l50 -61l50 61l101 -14zM557 710v-121h-209v-589h-137v589h-209v113q101 8 174 8h381z" />
    <glyph glyph-name="tcaron" unicode="&#x165;" horiz-adv-x="404" 
d="M364 714l110 -8l-36 -197l-102 9zM228 620v-140h134v-109h-134v-214q0 -29 11.5 -41t37.5 -12q35 0 69 12l8 -112q-53 -16 -119 -16q-75 0 -107.5 33t-32.5 119v231h-90v109h90v140h133z" />
    <glyph glyph-name="Tbar" unicode="&#x166;" horiz-adv-x="559" 
d="M557 589h-209v-185h102v-108h-102v-296h-137v296h-103v108h103v185h-209v113q101 8 174 8h381v-121z" />
    <glyph glyph-name="tbar" unicode="&#x167;" horiz-adv-x="386" 
d="M362 371h-134v-60h118v-98h-118v-56q0 -29 11.5 -41t37.5 -12q35 0 69 12l8 -112q-53 -16 -119 -16q-75 0 -107.5 33t-32.5 119v73h-90v98h90v60h-90v109h90v140h133v-140h134v-109z" />
    <glyph glyph-name="Utilde" unicode="&#x168;" 
d="M528 855q-7 -113 -87 -113q-27 0 -63 14t-49 14q-27 0 -30 -39l-73 8q7 113 88 113q26 0 62 -13.5t49 -13.5q28 0 31 39zM685 710h-137v-424q0 -178 -159 -178q-79 0 -117 44t-38 137v327q0 96 -104 96q-58 0 -111 -8v-112h78v-312q0 -292 292 -292q142 0 219 77.5
t77 214.5v430z" />
    <glyph glyph-name="utilde" unicode="&#x169;" horiz-adv-x="624" 
d="M231 617q-33 0 -39 -51l-80 10q4 61 32 97t76 36q35 0 83.5 -18.5t69.5 -18.5q33 0 39 50l79 -9q-2 -59 -30 -96t-77 -37q-39 0 -88 18.5t-65 18.5zM538 105q24 -6 61 -6l-2 -101q-30 -7 -67 -7q-88 0 -113 75q-59 -78 -172 -78q-84 0 -125.5 44t-41.5 156v182
q-20 6 -53 6l2 102q32 8 75 8q54 0 81.5 -21.5t27.5 -82.5v-172q0 -57 19.5 -81.5t61.5 -24.5q53 0 83.5 35t30.5 96v245h132v-375z" />
    <glyph glyph-name="Umacron" unicode="&#x16a;" 
d="M231 842v-93h291v93h-291zM685 710h-137v-424q0 -178 -159 -178q-79 0 -117 44t-38 137v327q0 96 -104 96q-58 0 -111 -8v-112h78v-312q0 -292 292 -292q142 0 219 77.5t77 214.5v430z" />
    <glyph glyph-name="umacron" unicode="&#x16b;" horiz-adv-x="624" 
d="M466 680v-104h-311v104h311zM538 105q24 -6 61 -6l-2 -101q-30 -7 -67 -7q-88 0 -113 75q-59 -78 -172 -78q-84 0 -125.5 44t-41.5 156v182q-20 6 -53 6l2 102q32 8 75 8q54 0 81.5 -21.5t27.5 -82.5v-172q0 -57 19.5 -81.5t61.5 -24.5q53 0 83.5 35t30.5 96v245h132
v-375z" />
    <glyph glyph-name="Uring" unicode="&#x16e;" 
d="M377 724q46 0 71 22.5t25 62.5t-25 63t-71 23q-45 0 -70.5 -23t-25.5 -63q0 -39 25.5 -62t70.5 -23zM377 779q-29 0 -29 30q0 31 29 31q30 0 30 -31q0 -30 -30 -30zM685 710h-137v-424q0 -178 -159 -178q-79 0 -117 44t-38 137v327q0 96 -104 96q-58 0 -111 -8v-112h78
v-312q0 -292 292 -292q142 0 219 77.5t77 214.5v430z" />
    <glyph glyph-name="uring" unicode="&#x16f;" horiz-adv-x="624" 
d="M311 539q-45 0 -74.5 26.5t-29.5 70.5t29.5 70.5t74.5 26.5t74 -26.5t29 -70.5t-29 -70.5t-74 -26.5zM311 678q-19 0 -31 -11t-12 -31t12 -31t31 -11q18 0 30 11t12 31t-12 31t-30 11zM538 105q24 -6 61 -6l-2 -101q-30 -7 -67 -7q-88 0 -113 75q-59 -78 -172 -78
q-84 0 -125.5 44t-41.5 156v182q-20 6 -53 6l2 102q32 8 75 8q54 0 81.5 -21.5t27.5 -82.5v-172q0 -57 19.5 -81.5t61.5 -24.5q53 0 83.5 35t30.5 96v245h132v-375z" />
    <glyph glyph-name="Uhungarumlaut" unicode="&#x170;" 
d="M269 864l-66 -122l121 -7l95 109zM452 864l-66 -122l121 -7l95 109zM685 710h-137v-424q0 -178 -159 -178q-79 0 -117 44t-38 137v327q0 96 -104 96q-58 0 -111 -8v-112h78v-312q0 -292 292 -292q142 0 219 77.5t77 214.5v430z" />
    <glyph glyph-name="uhungarumlaut" unicode="&#x171;" horiz-adv-x="624" 
d="M362 704l-105 -154h-118l88 165zM432 550h-118l88 165l135 -11zM538 105q24 -6 61 -6l-2 -101q-30 -7 -67 -7q-88 0 -113 75q-59 -78 -172 -78q-84 0 -125.5 44t-41.5 156v182q-20 6 -53 6l2 102q32 8 75 8q54 0 81.5 -21.5t27.5 -82.5v-172q0 -57 19.5 -81.5t61.5 -24.5
q53 0 83.5 35t30.5 96v245h132v-375z" />
    <glyph glyph-name="Uogonek" unicode="&#x172;" 
d="M548 710h137v-430q0 -101 -43 -171t-124 -100q-91 -53 -91 -94q0 -24 31 -24q18 0 46 10l6 -77q-39 -13 -90 -13q-99 0 -99 75q0 58 58 102q-282 6 -282 292v312h-78v112q53 8 111 8q104 0 104 -96v-327q0 -93 38 -137t117 -44q159 0 159 178v424z" />
    <glyph glyph-name="uogonek" unicode="&#x173;" horiz-adv-x="624" 
d="M596 -3q-90 -52 -90 -93q0 -24 31 -24q18 0 46 10l6 -77q-39 -13 -90 -13q-99 0 -99 75t88 121q-52 15 -71 70q-59 -78 -172 -78q-84 0 -125.5 44t-41.5 156v182q-20 6 -53 6l2 102q32 8 75 8q54 0 81.5 -21.5t27.5 -82.5v-172q0 -57 19.5 -81.5t61.5 -24.5q53 0 83.5 35
t30.5 96v245h132v-375q24 -6 61 -6l-2 -101z" />
    <glyph glyph-name="Wcircumflex" unicode="&#x174;" horiz-adv-x="1004" 
d="M527 796l-50 -61l-101 14l90 104h123l89 -104l-101 -14zM856 723l148 -20l-208 -703h-139l-135 493l-135 -493h-138l-182 592h-77v112q55 11 115 11q84 0 101 -68l114 -441l135 504h135l134 -502z" />
    <glyph glyph-name="wcircumflex" unicode="&#x175;" horiz-adv-x="751" 
d="M378 644l-63 -82l-108 2l121 158h101l120 -158l-108 -2zM607 488l132 -11l-157 -477h-109l-95 304l-95 -304h-109l-122 370q-21 5 -55 5l4 102q29 11 72 11q37 0 57.5 -14t31.5 -54l72 -245l91 305h106l91 -304z" />
    <glyph glyph-name="Ycircumflex" unicode="&#x176;" horiz-adv-x="641" 
d="M323 796l-50 -61l-101 14l90 104h123l89 -104l-101 -14zM508 723l138 -20l-259 -430v-273h-137v273l-188 319h-77v112q33 11 92 11q71 0 98 -48l144 -267z" />
    <glyph glyph-name="ycircumflex" unicode="&#x177;" horiz-adv-x="556" 
d="M283 644l-63 -82l-108 2l121 158h101l120 -158l-108 -2zM413 488l137 -11l-236 -543q-31 -69 -77 -96.5t-115 -27.5q-46 0 -73 9l-10 113q46 -11 73 -11q75 0 99 59l10 27l-160 363q-25 5 -54 5l4 102q26 11 68 11q72 0 97 -61l107 -264z" />
    <glyph glyph-name="Ydieresis" unicode="&#x178;" horiz-adv-x="641" 
d="M215 736q-30 0 -48.5 19t-18.5 48t18.5 47.5t48.5 18.5t48 -18.5t18 -47.5q0 -30 -18 -48.5t-48 -18.5zM420 736q-30 0 -48 18.5t-18 48.5q0 29 18 47.5t48 18.5t48.5 -18.5t18.5 -47.5t-18.5 -48t-48.5 -19zM508 723l138 -20l-259 -430v-273h-137v273l-188 319h-77v112
q33 11 92 11q71 0 98 -48l144 -267z" />
    <glyph glyph-name="Zacute" unicode="&#x179;" horiz-adv-x="619" 
d="M477 844l-95 -109l-121 7l66 122zM594 610l-376 -490h372v-120h-539l-9 102l374 488h-359v113q77 7 170 7h358z" />
    <glyph glyph-name="zacute" unicode="&#x17a;" horiz-adv-x="463" 
d="M390 704l-105 -154h-118l88 165zM438 378l-253 -273h253v-105h-405l-8 102l253 273h-237v105h389z" />
    <glyph glyph-name="Zdotaccent" unicode="&#x17b;" horiz-adv-x="619" 
d="M328 747q-34 0 -54.5 19t-20.5 51t20 51t55 19t55 -19t20 -51t-20.5 -51t-54.5 -19zM594 610l-376 -490h372v-120h-539l-9 102l374 488h-359v113q77 7 170 7h358z" />
    <glyph glyph-name="zdotaccent" unicode="&#x17c;" horiz-adv-x="463" 
d="M235 550q-37 0 -61 23t-24 60q0 36 24 59t61 23q38 0 61 -22.5t23 -59.5t-23 -60t-61 -23zM438 378l-253 -273h253v-105h-405l-8 102l253 273h-237v105h389z" />
    <glyph glyph-name="Zcaron" unicode="&#x17d;" horiz-adv-x="619" 
d="M390 739h-123l-90 104l101 14l50 -61l50 61l101 -14zM594 610l-376 -490h372v-120h-539l-9 102l374 488h-359v113q77 7 170 7h358z" />
    <glyph glyph-name="zcaron" unicode="&#x17e;" horiz-adv-x="463" 
d="M285 552h-101l-121 158l108 2l63 -82l63 82l108 -2zM438 378l-253 -273h253v-105h-405l-8 102l253 273h-237v105h389z" />
    <glyph glyph-name="uni01EA" unicode="&#x1ea;" horiz-adv-x="798" 
d="M528 9q-90 -52 -90 -93q0 -24 31 -24q18 0 46 10l6 -77q-39 -13 -90 -13q-99 0 -99 75q0 58 57 101q-155 4 -244.5 105.5t-89.5 260.5q0 161 92.5 263.5t251.5 102.5t251.5 -102.5t92.5 -263.5q0 -124 -56.5 -216t-158.5 -129zM195 354q0 -111 52.5 -177t151.5 -66
t151.5 66t52.5 177t-52.5 177t-151.5 66q-98 0 -151 -66t-53 -177z" />
    <glyph glyph-name="uni01EB" unicode="&#x1eb;" horiz-adv-x="604" 
d="M422 11q-90 -52 -90 -93q0 -24 31 -24q18 0 46 10l6 -77q-39 -13 -90 -13q-99 0 -99 75q0 57 55 100q-106 6 -169 71.5t-63 177.5q0 119 69 185.5t184 66.5t184 -67t69 -185q0 -82 -35 -140.5t-98 -86.5zM184 238q0 -66 30.5 -102.5t87.5 -36.5t87.5 36.5t30.5 102.5
t-30.5 103.5t-87.5 37.5t-87.5 -37.5t-30.5 -103.5z" />
    <glyph glyph-name="AEacute" unicode="&#x1fc;" horiz-adv-x="978" 
d="M766 844l-95 -109l-121 7l66 122zM659 292v-170h294v-122h-431v292h-231l-131 -292h-143l330 710h606l-8 -122h-286v-182h259v-114h-259zM342 406h180v182h-98z" />
    <glyph glyph-name="aeacute" unicode="&#x1fd;" horiz-adv-x="879" 
d="M605 704l-105 -154h-118l88 165zM503 208q14 -110 130 -110q49 0 91 15.5t63 32.5l34 -102q-21 -20 -76 -38t-122 -18q-145 0 -209 91q-63 -91 -194 -91q-82 0 -126.5 39.5t-44.5 107.5q0 71 55 111.5t162 40.5q56 0 103 -10v25q0 87 -93 87q-79 0 -89 -61l-123 21
q14 67 61.5 104t151.5 37q117 0 172 -52q61 52 154 52q109 0 168 -66t59 -171v-45h-327zM603 386q-85 0 -99 -100h192q-7 100 -93 100zM250 83q50 0 84.5 29.5t34.5 81.5v7q-45 8 -92 8q-100 0 -100 -67q0 -59 73 -59z" />
    <glyph glyph-name="Oslashacute" unicode="&#x1fe;" horiz-adv-x="798" 
d="M548 844l-95 -109l-121 7l66 122zM647 622q96 -102 96 -268q0 -161 -92.5 -263.5t-251.5 -102.5q-94 0 -167 38l-35 -51l-115 10l70 101q-97 100 -97 268q0 161 92.5 263.5t251.5 102.5q92 0 168 -38l43 63l116 -10zM195 354q0 -94 36 -154l263 377q-42 20 -95 20
q-98 0 -151 -66t-53 -177zM399 111q99 0 151.5 66t52.5 177q0 93 -36 153l-262 -376q42 -20 94 -20z" />
    <glyph glyph-name="oslashacute" unicode="&#x1ff;" horiz-adv-x="604" 
d="M457 704l-105 -154h-118l88 165zM470 437q85 -68 85 -199q0 -118 -69 -184t-184 -66q-57 0 -101 16l-29 -47l-84 10l45 74q-84 67 -84 197q0 119 69 185.5t184 66.5q57 0 101 -16l29 47l84 -10zM184 238q0 -50 19 -85l138 220q-18 6 -39 6q-57 0 -87.5 -37.5
t-30.5 -103.5zM302 99q57 0 87.5 36.5t30.5 102.5q0 51 -19 87l-138 -221q20 -5 39 -5z" />
    <glyph glyph-name="Scommaaccent" unicode="&#x218;" horiz-adv-x="628" 
d="M180 517q0 90 123 90q58 0 89.5 -20t38.5 -67l135 22q-16 178 -263 178q-129 0 -193.5 -54t-64.5 -156q0 -58 22 -98t58 -60.5t78.5 -33t85.5 -21t79 -18.5t58 -31t22 -54q0 -85 -143 -85q-130 0 -236 64l-16 -124q104 -61 253 -61q278 0 278 214q0 58 -22.5 98.5t-58 60
t-78.5 31.5t-86 19.5t-78.5 17.5t-58 31.5t-22.5 56.5zM385 -105q0 -53 -34.5 -81.5t-85.5 -33.5l-12 52q55 12 55 46q-68 0 -68 47q0 23 18 36t48 13q79 0 79 -79z" />
    <glyph glyph-name="scommaaccent" unicode="&#x219;" horiz-adv-x="534" 
d="M253 490q-102 0 -153 -40t-51 -111q0 -52 31 -84t75 -43.5t88.5 -18.5t75.5 -19t31 -36t-20 -35t-70 -11q-103 0 -188 52l-19 -106q80 -50 211 -50q113 0 167 39.5t54 108.5q0 47 -22.5 78t-56 43t-73 21t-73 13.5t-56 18t-22.5 36.5q0 48 77 48q76 0 87 -56l127 16
q-3 66 -60 101t-160 35zM338 -105q0 -53 -34.5 -81.5t-85.5 -33.5l-12 52q55 12 55 46q-68 0 -68 47q0 23 18 36t48 13q79 0 79 -79z" />
    <glyph glyph-name="uni021A" unicode="&#x21a;" horiz-adv-x="559" 
d="M557 710v-121h-209v-589h-137v589h-209v113q101 8 174 8h381zM279 -26q79 0 79 -79q0 -53 -34.5 -81.5t-85.5 -33.5l-12 52q55 12 55 46q-68 0 -68 47q0 23 18 36t48 13z" />
    <glyph glyph-name="uni021B" unicode="&#x21b;" horiz-adv-x="362" 
d="M362 371h-134v-214q0 -29 11.5 -41t37.5 -12q35 0 69 12l8 -112q-53 -16 -119 -16q-75 0 -107.5 33t-32.5 119v231h-90v109h90v140h133v-140h134v-109zM227 -26q79 0 79 -79q0 -53 -34.5 -81.5t-85.5 -33.5l-12 52q55 12 55 46q-68 0 -68 47q0 23 18 36t48 13z" />
    <glyph glyph-name="uni0237" unicode="&#x237;" horiz-adv-x="288" 
d="M224 480h-133v-499q0 -31 -12.5 -43t-38.5 -12q-25 0 -51 12l-4 -115q33 -13 82 -13q76 0 116.5 36.5t40.5 125.5v508z" />
    <glyph glyph-name="circumflex" unicode="&#x2c6;" horiz-adv-x="521" 
d="M431 564l-108 -2l-63 82l-63 -82l-108 2l121 158h101z" />
    <glyph glyph-name="caron" unicode="&#x2c7;" horiz-adv-x="521" 
d="M323 712l108 -2l-120 -158h-101l-121 158l108 2l63 -82z" />
    <glyph glyph-name="breve" unicode="&#x2d8;" horiz-adv-x="480" 
d="M304 708q-5 -73 -64 -73t-64 73l-87 -6q6 -153 151 -153t151 153z" />
    <glyph glyph-name="dotaccent" unicode="&#x2d9;" horiz-adv-x="348" 
d="M174 550q38 0 61 23t23 60t-23 59.5t-61 22.5q-37 0 -61 -23t-24 -59q0 -37 24 -60t61 -23z" />
    <glyph glyph-name="ring" unicode="&#x2da;" horiz-adv-x="385" 
d="M193 539q45 0 74 26.5t29 70.5t-29 70.5t-74 26.5t-74.5 -26.5t-29.5 -70.5t29.5 -70.5t74.5 -26.5zM193 594q-19 0 -31 11t-12 31t12 31t31 11q18 0 30 -11t12 -31t-12 -31t-30 -11z" />
    <glyph glyph-name="ogonek" unicode="&#x2db;" horiz-adv-x="375" 
d="M89 -123q0 -75 99 -75q51 0 90 13l-6 77q-28 -10 -46 -10q-31 0 -31 24q0 41 91 94l-77 12q-47 -17 -83.5 -51.5t-36.5 -83.5z" />
    <glyph glyph-name="tilde" unicode="&#x2dc;" horiz-adv-x="558" 
d="M468 713q-2 -59 -30 -96t-77 -37q-39 0 -88 18.5t-65 18.5q-33 0 -39 -51l-80 10q4 61 32 97t76 36q35 0 84 -18.5t69 -18.5q33 0 39 50z" />
    <glyph glyph-name="hungarumlaut" unicode="&#x2dd;" horiz-adv-x="572" 
d="M177 715l-88 -165h118l105 154zM352 715l-88 -165h118l105 154z" />
    <glyph glyph-name="uni0326" unicode="&#x326;" horiz-adv-x="0" 
d="M-90 -105q0 -53 -34.5 -81.5t-85.5 -33.5l-12 52q55 12 55 46q-68 0 -68 47q0 23 18 36t48 13q79 0 79 -79z" />
    <glyph glyph-name="Wgrave" unicode="&#x1e80;" horiz-adv-x="1004" 
d="M584 742l-121 -7l-95 109l150 20zM856 723l148 -20l-208 -703h-139l-135 493l-135 -493h-138l-182 592h-77v112q55 11 115 11q84 0 101 -68l114 -441l135 504h135l134 -502z" />
    <glyph glyph-name="wgrave" unicode="&#x1e81;" horiz-adv-x="751" 
d="M440 550h-118l-105 154l135 11zM607 488l132 -11l-157 -477h-109l-95 304l-95 -304h-109l-122 370q-21 5 -55 5l4 102q29 11 72 11q37 0 57.5 -14t31.5 -54l72 -245l91 305h106l91 -304z" />
    <glyph glyph-name="Wacute" unicode="&#x1e82;" horiz-adv-x="1004" 
d="M672 844l-95 -109l-121 7l66 122zM856 723l148 -20l-208 -703h-139l-135 493l-135 -493h-138l-182 592h-77v112q55 11 115 11q84 0 101 -68l114 -441l135 504h135l134 -502z" />
    <glyph glyph-name="wacute" unicode="&#x1e83;" horiz-adv-x="751" 
d="M533 704l-105 -154h-118l88 165zM607 488l132 -11l-157 -477h-109l-95 304l-95 -304h-109l-122 370q-21 5 -55 5l4 102q29 11 72 11q37 0 57.5 -14t31.5 -54l72 -245l91 305h106l91 -304z" />
    <glyph glyph-name="Wdieresis" unicode="&#x1e84;" horiz-adv-x="1004" 
d="M420 736q-30 0 -48.5 19t-18.5 48t18.5 47.5t48.5 18.5t48 -18.5t18 -47.5q0 -30 -18 -48.5t-48 -18.5zM625 736q-30 0 -48 18.5t-18 48.5q0 29 18 47.5t48 18.5t48.5 -18.5t18.5 -47.5t-18.5 -48t-48.5 -19zM856 723l148 -20l-208 -703h-139l-135 493l-135 -493h-138
l-182 592h-77v112q55 11 115 11q84 0 101 -68l114 -441l135 504h135l134 -502z" />
    <glyph glyph-name="wdieresis" unicode="&#x1e85;" horiz-adv-x="751" 
d="M274 552q-34 0 -56 22t-22 56t22 56t56 22t55.5 -21.5t21.5 -56.5t-21.5 -56.5t-55.5 -21.5zM483 552q-34 0 -55.5 22t-21.5 56t21.5 56t55.5 22q35 0 56.5 -22t21.5 -56t-21.5 -56t-56.5 -22zM607 488l132 -11l-157 -477h-109l-95 304l-95 -304h-109l-122 370
q-21 5 -55 5l4 102q29 11 72 11q37 0 57.5 -14t31.5 -54l72 -245l91 305h106l91 -304z" />
    <glyph glyph-name="Ygrave" unicode="&#x1ef2;" horiz-adv-x="641" 
d="M380 742l-121 -7l-95 109l150 20zM508 723l138 -20l-259 -430v-273h-137v273l-188 319h-77v112q33 11 92 11q71 0 98 -48l144 -267z" />
    <glyph glyph-name="ygrave" unicode="&#x1ef3;" horiz-adv-x="556" 
d="M346 550h-118l-105 154l135 11zM413 488l137 -11l-236 -543q-31 -69 -77 -96.5t-115 -27.5q-46 0 -73 9l-10 113q46 -11 73 -11q75 0 99 59l10 27l-160 363q-25 5 -54 5l4 102q26 11 68 11q72 0 97 -61l107 -264z" />
    <glyph glyph-name="uni1EF8" unicode="&#x1ef8;" horiz-adv-x="641" 
d="M270 770q-27 0 -30 -39l-73 8q7 113 88 113q26 0 62 -13.5t49 -13.5q28 0 31 39l72 -9q-7 -113 -87 -113q-27 0 -63 14t-49 14zM508 723l138 -20l-259 -430v-273h-137v273l-188 319h-77v112q33 11 92 11q71 0 98 -48l144 -267z" />
    <glyph glyph-name="uni1EF9" unicode="&#x1ef9;" horiz-adv-x="556" 
d="M204 617q-33 0 -39 -51l-80 10q4 61 32 97t76 36q35 0 84 -18.5t69 -18.5q33 0 39 50l79 -9q-2 -59 -30 -96t-77 -37q-39 0 -88 18.5t-65 18.5zM413 488l137 -11l-236 -543q-31 -69 -77 -96.5t-115 -27.5q-46 0 -73 9l-10 113q46 -11 73 -11q75 0 99 59l10 27l-160 363
q-25 5 -54 5l4 102q26 11 68 11q72 0 97 -61l107 -264z" />
    <glyph glyph-name="endash" unicode="&#x2013;" horiz-adv-x="586" 
d="M531 341h-476v-108h476v108z" />
    <glyph glyph-name="emdash" unicode="&#x2014;" horiz-adv-x="876" 
d="M821 341h-766v-108h766v108z" />
    <glyph glyph-name="quoteleft" unicode="&#x2018;" horiz-adv-x="264" 
d="M58 578q0 -55 23 -83.5t63 -28.5q36 0 56 23.5t20 65.5q-64 0 -64 54q0 25 10 43t20 25t28 17l-37 58q-119 -54 -119 -174z" />
    <glyph glyph-name="quoteright" unicode="&#x2019;" horiz-adv-x="264" 
d="M220 610q0 55 -23.5 84t-63.5 29q-36 0 -55.5 -23.5t-19.5 -66.5q63 0 63 -53q0 -24 -10.5 -43t-19.5 -25.5t-27 -17.5l36 -57q120 55 120 173z" />
    <glyph glyph-name="quotesinglbase" unicode="&#x201a;" horiz-adv-x="251" 
d="M207 28q0 55 -23.5 83.5t-62.5 28.5q-37 0 -56.5 -23.5t-19.5 -65.5q63 0 63 -54q0 -25 -10.5 -43t-20 -25t-26.5 -17l36 -58q120 55 120 174z" />
    <glyph glyph-name="quotedblleft" unicode="&#x201c;" horiz-adv-x="489" 
d="M57 578q0 -55 23.5 -83.5t62.5 -28.5q37 0 56.5 23.5t19.5 65.5q-63 0 -63 54q0 25 10.5 43t20 25t26.5 17l-36 58q-120 -55 -120 -174zM283 578q0 -55 23 -83.5t63 -28.5q36 0 56 23.5t20 65.5q-64 0 -64 54q0 25 10 43t20 25t28 17l-37 58q-119 -54 -119 -174z" />
    <glyph glyph-name="quotedblright" unicode="&#x201d;" horiz-adv-x="489" 
d="M220 610q0 55 -23.5 84t-63.5 29q-36 0 -55.5 -23.5t-19.5 -66.5q63 0 63 -53q0 -24 -10.5 -43t-19.5 -25.5t-27 -17.5l36 -57q120 55 120 173zM445 611q0 55 -23.5 83.5t-62.5 28.5q-37 0 -56.5 -23.5t-19.5 -65.5q63 0 63 -54q0 -25 -10.5 -43t-20 -25t-26.5 -17
l36 -58q120 55 120 174z" />
    <glyph glyph-name="quotedblbase" unicode="&#x201e;" horiz-adv-x="476" 
d="M432 28q0 55 -23.5 83.5t-62.5 28.5q-37 0 -56.5 -23.5t-19.5 -65.5q63 0 63 -54q0 -25 -10.5 -43t-20 -25t-26.5 -17l36 -58q120 55 120 174zM207 28q0 55 -23.5 83.5t-62.5 28.5q-37 0 -56.5 -23.5t-19.5 -65.5q63 0 63 -54q0 -25 -10.5 -43t-20 -25t-26.5 -17l36 -58
q120 55 120 174z" />
    <glyph glyph-name="dagger" unicode="&#x2020;" horiz-adv-x="623" 
d="M539 525l-7 -125l-162 13l7 -413h-131l7 413l-161 -13l-7 125l166 -13l-13 198h147l-13 -198z" />
    <glyph glyph-name="daggerdbl" unicode="&#x2021;" horiz-adv-x="601" 
d="M509 312l7 -124l-155 11l7 -199h-135l7 199l-155 -11l7 124l150 -11v148l-150 -11l-7 124l154 -11l-12 159h147l-11 -159l153 11l-7 -124l-150 11v-148z" />
    <glyph glyph-name="bullet" unicode="&#x2022;" horiz-adv-x="364" 
d="M182 179q53 0 88 35t35 88t-35 88t-88 35t-88 -35t-35 -88t35 -88t88 -35z" />
    <glyph glyph-name="ellipsis" unicode="&#x2026;" horiz-adv-x="742" 
d="M371 -12q35 0 58.5 23.5t23.5 58.5q0 36 -23.5 59.5t-58.5 23.5t-58.5 -23.5t-23.5 -59.5q0 -35 23.5 -58.5t58.5 -23.5zM615 -12q35 0 58.5 23.5t23.5 58.5q0 36 -23.5 59.5t-58.5 23.5t-59 -23.5t-24 -59.5q0 -35 24 -58.5t59 -23.5zM127 -12q35 0 58.5 23.5t23.5 58.5
q0 36 -23.5 59.5t-58.5 23.5t-58.5 -23.5t-23.5 -59.5q0 -35 23.5 -58.5t58.5 -23.5z" />
    <glyph glyph-name="perthousand" unicode="&#x2030;" horiz-adv-x="1379" 
d="M256 327q176 0 176 197q0 196 -176 196t-176 -197q0 -196 176 -196zM696 720l-514 -727l115 -5l514 727zM256 410q-74 0 -74 113t74 113t74 -112q0 -114 -74 -114zM737 -12q176 0 176 198q0 195 -176 195t-176 -197q0 -196 176 -196zM1143 -12q176 0 176 198
q0 195 -176 195q-175 0 -175 -197q0 -196 175 -196zM737 72q-74 0 -74 112q0 113 74 113t74 -111q0 -114 -74 -114zM1143 72q-74 0 -74 112q0 113 74 113q75 0 75 -111q0 -114 -75 -114z" />
    <glyph glyph-name="guilsinglleft" unicode="&#x2039;" horiz-adv-x="328" 
d="M264 397l-113 -113l113 -110l-68 -69l-164 168v20l164 172z" />
    <glyph glyph-name="guilsinglright" unicode="&#x203a;" horiz-adv-x="328" 
d="M132 465l164 -172v-20l-164 -168l-67 69l113 110l-113 113z" />
    <glyph glyph-name="fraction" unicode="&#x2044;" horiz-adv-x="429" 
d="M414 720l-514 -727l115 -5l514 727z" />
    <glyph glyph-name="Euro" unicode="&#x20ac;" horiz-adv-x="696" 
d="M543 454l-11 -86h-492l12 86h73q20 137 98 201.5t197 64.5q141 0 207 -54l-23 -122q-78 51 -172 51q-135 0 -166 -141h277zM619 166l22 -125q-25 -18 -81 -35.5t-133 -17.5q-254 0 -300 248h-100l12 86h489l-11 -86h-247q36 -123 164 -123q112 0 185 53z" />
    <glyph glyph-name="trademark" unicode="&#x2122;" horiz-adv-x="731" 
d="M657 495q9 -3 29 -3v-65q-25 -5 -53 -5t-41.5 10.5t-14.5 36.5l-4 134l-73 -154h-51l-72 154l-6 -177h-79l6 208h-86v-208h-81v208h-86v66h358l72 -158l73 158h103z" />
    <glyph glyph-name="minus" unicode="&#x2212;" horiz-adv-x="560" 
d="M491 371h-422v-113h422v113z" />
    <glyph glyph-name="approxequal" unicode="&#x2248;" horiz-adv-x="573" 
d="M504 490q-8 -145 -114 -145q-39 0 -101.5 15t-84.5 15q-35 0 -44 -53l-91 14q8 145 114 145q39 0 101.5 -15t84.5 -15q20 0 30 11.5t14 41.5zM504 298q-8 -145 -114 -145q-39 0 -101.5 15t-84.5 15q-35 0 -44 -53l-91 14q8 145 114 145q39 0 101.5 -15t84.5 -15
q20 0 30 11.5t14 41.5z" />
    <glyph glyph-name="notequal" unicode="&#x2260;" horiz-adv-x="559" 
d="M489 359h-131l-27 -84h158v-97h-188l-28 -89h-109l28 89h-123v97h153l27 84h-180v97h210l28 89h109l-28 -89h101v-97z" />
    <glyph glyph-name="uniF8FF" unicode="&#xf8ff;" horiz-adv-x="1451" 
d="M691 583q0 26 17.5 44t43.5 18t44 -18t18 -44t-18 -43.5t-44 -17.5t-43.5 18t-17.5 43zM219 270h-119q0 134 9 314h100q10 -200 10 -314zM694 270q0 92 3 147h-61l3 -65q4 -4 15 -4q13 0 18 5v-74q-14 -15 -68 -15q-82 0 -82 66q0 12 2 49t2 38h-22v79l119 30l1 -17h178
q10 -64 10 -239h-118zM328 265q-92 0 -92 114q0 135 134 135q124 0 124 -117v-127h-83l-8 61q-6 -33 -23.5 -49.5t-51.5 -16.5zM1090 270h-114q0 26 1 56t1 37q0 29 -15 29q-18 0 -18 -29q0 -7 1.5 -37t1.5 -56h-114q0 175 10 239h80q6 -44 6 -76q2 15 6.5 30t24 33t49.5 18
q42 0 58.5 -25t18.5 -81zM1351 391q0 -126 -123 -126q-122 0 -122 124q0 125 124 125q121 0 121 -123zM390 375q0 26 -24 26q-22 0 -22 -26q0 -30 22 -30q24 0 24 30zM1251 375q0 26 -23 26q-21 0 -21 -26q0 -30 21 -30q23 0 23 30zM428 238h104q10 -52 10 -138
q0 -81 -33.5 -115.5t-118.5 -34.5q-61 0 -88 17v83q24 -16 70 -16q21 0 34 6t16.5 11.5t3.5 10.5q-16 -11 -49 -11q-90 0 -90 83v13h-55l3 -65q6 -4 15 -4q13 0 18 5v-73q-19 -15 -68 -15q-45 0 -63 17t-18 54q0 39 3 81h-18v80l117 29l-1 -18h177v-119q0 -16 3 -21.5
t12 -5.5q16 0 16 27v119zM733 243q37 0 58.5 -29t21.5 -84q0 -135 -137 -135q1 -15 1 -39h-119q0 142 10 282h78q7 -42 7 -76q17 81 80 81zM1070 127q0 -21 -3 -35h-124q11 -18 50 -18q34 0 55 12v-75q-23 -16 -78 -16q-141 0 -141 122q0 59 32.5 92.5t92.5 33.5
q55 0 85.5 -30t30.5 -86zM978 109q3 27 -17 27q-23 0 -23 -27h40zM670 72q5 0 12.5 2.5t16 11.5t8.5 23q0 23 -20 23q-22 0 -22 -31q0 -14 5 -29zM1074 13q0 -23 24 -23t24 23t-24 23t-24 -23zM1080 13q0 18 18 18t18 -18t-18 -18t-18 18zM1108 2l-6 9q7 0 7 7t-10 7h-11
v-23h5v9h5l4 -9h6zM1100 15h-7v6h7q4 0 4 -3t-4 -3z" />
    <glyph glyph-name="i.loclTRK" horiz-adv-x="263" 
d="M111 550q38 0 61 23t23 60t-23 59.5t-61 22.5q-37 0 -61 -23t-24 -59q0 -37 24 -60t61 -23zM178 106v374h-133v-400q0 -51 22.5 -70t78.5 -19q58 0 90 7l2 102q-36 0 -60 6z" />
    <glyph glyph-name="f_t" horiz-adv-x="639" 
d="M639 371h-134v-214q0 -29 11.5 -41t37.5 -12q35 0 69 12l8 -112q-53 -16 -119 -16q-75 0 -107.5 33t-32.5 119v231h-150v-371h-133v371h-84v109h84v66q0 86 39 130t110 44q51 0 93 -14l-7 -112q-26 10 -51 10q-51 0 -51 -62v-62h150v140h133v-140h134v-109z" />
    <glyph glyph-name="caron.alt" horiz-adv-x="318" 
d="M228 710l-111 8l-28 -196l103 -8z" />
    <glyph glyph-name="acute.case" horiz-adv-x="389" 
d="M155 864l-66 -122l121 -7l95 109z" />
    <glyph glyph-name="breve.case" horiz-adv-x="455" 
d="M285 860q-4 -30 -17.5 -43t-40.5 -13t-40 13t-17 43l-81 -7q4 -61 40.5 -90.5t97.5 -29.5q131 0 138 120z" />
    <glyph glyph-name="caron.case" horiz-adv-x="481" 
d="M290 857l101 -14l-89 -104h-123l-90 104l101 14l50 -61z" />
    <glyph glyph-name="circumflex.case" horiz-adv-x="470" 
d="M391 749l-101 -14l-50 61l-50 -61l-101 14l90 104h123z" />
    <glyph glyph-name="dieresis.case" horiz-adv-x="517" 
d="M156 736q30 0 48 18.5t18 48.5q0 29 -18 47.5t-48 18.5t-48.5 -18.5t-18.5 -47.5t18.5 -48t48.5 -19zM361 736q30 0 48.5 19t18.5 48t-18.5 47.5t-48.5 18.5t-48 -18.5t-18 -47.5q0 -30 18 -48.5t48 -18.5z" />
    <glyph glyph-name="dotaccent.case" horiz-adv-x="328" 
d="M164 747q34 0 54.5 19t20.5 51t-20 51t-55 19t-55 -19t-20 -51t20.5 -51t54.5 -19z" />
    <glyph glyph-name="grave.case" horiz-adv-x="389" 
d="M234 864l-150 -20l95 -109l120 7z" />
    <glyph glyph-name="hungarumlaut.case" horiz-adv-x="561" 
d="M145 864l-66 -122l120 -7l95 109zM328 864l-66 -122l120 -7l95 109z" />
    <glyph glyph-name="macron.case" horiz-adv-x="469" 
d="M89 842v-93h291v93h-291z" />
    <glyph glyph-name="ring.case" horiz-adv-x="371" 
d="M185 724q46 0 71 22.5t25 62.5t-25 63t-71 23q-45 0 -70.5 -23t-25.5 -63q0 -39 25.5 -62t70.5 -23zM185 779q-29 0 -29 30q0 31 29 31q30 0 30 -31q0 -30 -30 -30z" />
    <glyph glyph-name="tilde.case" horiz-adv-x="481" 
d="M391 855q-7 -113 -87 -113q-27 0 -63 14t-49 14q-27 0 -30 -39l-73 8q7 113 88 113q26 0 62 -13.5t49 -13.5q28 0 31 39z" />
    <glyph glyph-name="IJacute" horiz-adv-x="760" 
d="M152 864l-66 -122l121 -7l95 109zM606 864l-66 -122l121 -7l95 109zM85 710v-710h137v710h-137zM675 710h-137v-491q0 -64 -25 -87.5t-90 -23.5q-70 0 -132 28l-13 -120q56 -28 156 -28q114 0 177.5 52t63.5 184v486z" />
    <glyph glyph-name="ijacute" horiz-adv-x="537" 
d="M131 715l-88 -165h118l105 154zM425 715l-88 -165h118l105 154zM178 106v374h-133v-400q0 -51 22.5 -70t78.5 -19q58 0 90 7l2 102q-36 0 -60 6zM473 480h-133v-499q0 -31 -12.5 -43t-38.5 -12q-25 0 -51 12l-4 -115q32 -13 82 -13q76 0 116.5 36.5t40.5 125.5v508z" />
    </font>
</defs>
</svg>
