<?xml version="1.0" standalone="no"?>
<!DOCTYPE svg PUBLIC "-//W3C//DTD SVG 1.1//EN" "http://www.w3.org/Graphics/SVG/1.1/DTD/svg11.dtd" >
<svg xmlns="http://www.w3.org/2000/svg" xmlns:xlink="http://www.w3.org/1999/xlink" version="1.1">
<metadata>
Created by FontForge 20161003 at Wed Dec 27 17:14:15 2017
 By www-data
Latinotype
</metadata>
<defs>
<font id="corporativeregular" horiz-adv-x="603" >
  <font-face 
    font-family="corporativeregular"
    font-weight="400"
    font-stretch="normal"
    units-per-em="1000"
    panose-1="0 0 5 0 0 0 0 0 0 0"
    ascent="810"
    descent="-190"
    x-height="480"
    cap-height="710"
    bbox="-209 -199 1351 879"
    underline-thickness="50"
    underline-position="-150"
    unicode-range="U+0020-FB02"
  />
<missing-glyph horiz-adv-x="630" 
d="M100 710h430v-710h-430v710zM165 675l150 -278l150 278h-300zM293 355l-153 284v-568zM338 355l152 -284v568zM315 313l-150 -278h300z" />
    <glyph glyph-name="fi" unicode="fi" horiz-adv-x="541" 
d="M442 60q26 -6 68 -6l-2 -57q-28 -5 -66 -5q-40 0 -56 14t-16 52v361h-195v-419h-72v419h-92v61h92v87q0 153 174 153q73 0 126 -21l-5 -65q-42 21 -111 21q-112 0 -112 -87v-88h267v-420z" />
    <glyph glyph-name="fl" unicode="fl" horiz-adv-x="547" 
d="M442 60q24 -7 83 -7l-2 -57q-34 -4 -68 -4q-46 0 -65.5 16t-19.5 58v353h-195v-419h-72v419h-92v61h92v89q0 77 34.5 114t95.5 37q51 0 94 -18l-6 -63q-36 16 -74 16q-72 0 -72 -83v-92h195v230h72v-650z" />
    <glyph glyph-name=".notdef" horiz-adv-x="630" 
d="M100 710h430v-710h-430v710zM165 675l150 -278l150 278h-300zM293 355l-153 284v-568zM338 355l152 -284v568zM315 313l-150 -278h300z" />
    <glyph glyph-name=".null" horiz-adv-x="0" 
 />
    <glyph glyph-name="nonmarkingreturn" horiz-adv-x="333" 
 />
    <glyph glyph-name="space" unicode=" " horiz-adv-x="283" 
 />
    <glyph glyph-name="exclam" unicode="!" horiz-adv-x="226" 
d="M72 710l5 -499h72l6 499h-83zM113 -12q26 0 44 18t18 44t-18 44t-44 18t-44 -18t-18 -44t18 -44t44 -18z" />
    <glyph glyph-name="quotedbl" unicode="&#x22;" horiz-adv-x="339" 
d="M203 720l-10 -229h54l30 219zM73 720l-10 -229h54l30 219z" />
    <glyph glyph-name="numbersign" unicode="#" horiz-adv-x="718" 
d="M622 398h-120l-33 -146h122l-13 -54h-121l-31 -138h-64l31 138h-126l-31 -138h-64l31 138h-120l12 54h120l33 146h-121l12 54h122l31 138h64l-32 -138h127l31 138h64l-32 -138h121zM405 252l33 146h-126l-33 -146h126z" />
    <glyph glyph-name="dollar" unicode="$" horiz-adv-x="605" 
d="M544 186q0 -83 -57.5 -131.5t-158.5 -55.5l-2 -101h-63l2 101q-125 7 -200 57l11 71q84 -53 191 -61l5 260q-48 14 -78.5 26.5t-64.5 35t-51 56.5t-17 80q0 81 56.5 131.5t163.5 54.5l2 100h63l-2 -102q157 -17 184 -138l-69 -15q-17 76 -116 91l-6 -270q37 -11 62 -20
t55 -25t47.5 -34.5t30 -47t12.5 -63.5zM132 522q0 -51 36.5 -79t105.5 -49l5 254q-73 -4 -110 -37t-37 -89zM330 66q72 4 108 30.5t36 83.5q0 50 -36 78t-103 49z" />
    <glyph glyph-name="percent" unicode="%" horiz-adv-x="914" 
d="M249 326q170 0 170 197t-170 197q-87 0 -128 -52t-41 -145t41 -145t128 -52zM690 720l-514 -728l69 -4l514 728zM249 377q-105 0 -105 146q0 145 105 145q106 0 106 -145q0 -146 -106 -146zM685 -12q169 0 169 197t-169 197q-87 0 -128 -52t-41 -145t41 -145t128 -52z
M685 40q-105 0 -105 145q0 146 105 146t105 -146q0 -145 -105 -145z" />
    <glyph glyph-name="ampersand" unicode="&#x26;" horiz-adv-x="786" 
d="M735 412q-40 -216 -150 -324l109 -100l-85 -11l-74 70q-101 -69 -243 -69q-118 0 -178 42.5t-60 123.5q0 69 40 113.5t122 84.5q-49 48 -72.5 90t-23.5 102q0 80 51 133t150 53q92 0 137.5 -46.5t45.5 -116.5q0 -45 -16.5 -82.5t-46.5 -65t-56.5 -44t-62.5 -34.5
l209 -193q98 96 130 280zM196 535q0 -49 17 -83.5t64 -79.5q35 17 56.5 30t46.5 34t37 47.5t12 58.5q0 53 -29 82t-80 29q-58 0 -91 -32.5t-33 -85.5zM298 46q105 0 182 51l-219 203q-68 -37 -97.5 -68t-29.5 -81q0 -105 164 -105z" />
    <glyph glyph-name="quotesingle" unicode="'" horiz-adv-x="209" 
d="M73 720l-10 -229h54l30 219z" />
    <glyph glyph-name="parenleft" unicode="(" horiz-adv-x="438" 
d="M177 315q0 -91 20.5 -170t54 -132t67.5 -87t68 -53l-15 -63q-35 16 -70.5 44.5t-71.5 74t-64 100.5t-45.5 129.5t-17.5 156.5t17.5 156.5t45.5 129.5t64 100.5t71.5 74t70.5 44.5l15 -63q-34 -19 -68 -53t-67.5 -87t-54 -132t-20.5 -170z" />
    <glyph glyph-name="parenright" unicode=")" horiz-adv-x="438" 
d="M261 315q0 91 -20.5 170t-54 132t-67.5 87t-68 53l15 63q35 -16 70.5 -44.5t71.5 -74t64 -100.5t45.5 -129.5t17.5 -156.5t-17.5 -156.5t-45.5 -129.5t-64 -100.5t-71.5 -74t-70.5 -44.5l-15 63q34 19 68 53t67.5 87t54 132t20.5 170z" />
    <glyph glyph-name="asterisk" unicode="*" horiz-adv-x="437" 
d="M256 589l98 -51l-27 -47l-83 57l3 -94h-58l4 94l-83 -57l-27 47l97 51l-97 50l27 48l83 -58l-4 94h58l-3 -94l83 58l27 -48z" />
    <glyph glyph-name="plus" unicode="+" horiz-adv-x="541" 
d="M458 349v-64h-153v-162h-69v162h-153v64h153v162h69v-162h153z" />
    <glyph glyph-name="comma" unicode="," horiz-adv-x="220" 
d="M168 13q0 41 -16.5 63.5t-44.5 22.5t-42 -17t-14 -45q52 0 52 -44q0 -21 -8.5 -37.5t-16 -22t-21.5 -14.5l26 -41q85 54 85 135z" />
    <glyph glyph-name="hyphen" unicode="-" horiz-adv-x="400" 
d="M339 319h-278v-64h278v64z" />
    <glyph glyph-name="period" unicode="." horiz-adv-x="226" 
d="M113 -12q26 0 44 18t18 44t-18 44t-44 18t-44 -18t-18 -44t18 -44t44 -18z" />
    <glyph glyph-name="slash" unicode="/" horiz-adv-x="392" 
d="M320 810l-320 -990h72l320 990h-72z" />
    <glyph glyph-name="zero" unicode="0" horiz-adv-x="619" 
d="M309 -12q127 0 187 96.5t60 269.5t-60 269.5t-187 96.5t-186.5 -96.5t-59.5 -269.5t59.5 -269.5t186.5 -96.5zM309 56q-91 0 -130 76.5t-39 221.5q0 144 39.5 221t129.5 77q92 0 130.5 -76.5t38.5 -221.5q0 -146 -38.5 -222t-130.5 -76z" />
    <glyph glyph-name="one" unicode="1" horiz-adv-x="403" 
d="M268 63h110v-63h-323v63h137v568q-25 -18 -86 -48.5t-103 -45.5l-13 65q130 50 202 108h76v-647z" />
    <glyph glyph-name="two" unicode="2" horiz-adv-x="532" 
d="M123 63h366v-63h-442v28q0 50 20 93.5t52 75t70.5 60.5t77.5 56t71 55t52 64.5t20 78.5q0 67 -40 106.5t-117 39.5q-119 0 -145 -102l-70 13q15 72 70 112t147 40q111 0 169 -56t58 -152q0 -65 -35 -118.5t-85.5 -91t-102 -72t-91 -77t-45.5 -90.5z" />
    <glyph glyph-name="three" unicode="3" horiz-adv-x="542" 
d="M356 372q133 -41 133 -179q0 -91 -62 -148t-175 -57q-179 0 -219 134l65 20q11 -41 50.5 -66t104.5 -25q75 0 119.5 36t44.5 107q0 69 -46 106t-121 37h-60v64h60q62 0 102.5 33.5t40.5 96.5q0 57 -36 91.5t-105 34.5q-65 0 -98.5 -22.5t-46.5 -69.5l-68 14
q34 141 213 141q102 0 156.5 -52.5t54.5 -136.5q0 -116 -107 -159z" />
    <glyph glyph-name="four" unicode="4" horiz-adv-x="549" 
d="M419 280h120v-63h-120v-217h-75v217h-330l-14 53l348 440h71v-430zM84 280h260v330z" />
    <glyph glyph-name="five" unicode="5" horiz-adv-x="532" 
d="M256 428q112 0 172.5 -56.5t60.5 -156.5q0 -101 -60.5 -164t-169.5 -63q-175 0 -216 134l65 22q26 -93 153 -93q73 0 114.5 43t41.5 120q0 70 -43.5 111.5t-134.5 41.5q-50 0 -149 -22l12 365h357v-67h-288l-9 -223q43 8 94 8z" />
    <glyph glyph-name="six" unicode="6" horiz-adv-x="572" 
d="M318 432q102 0 157 -61t55 -158q0 -100 -57.5 -162.5t-161.5 -62.5q-117 0 -182.5 87t-65.5 256q0 182 64.5 285.5t195.5 103.5q80 0 125.5 -38.5t57.5 -99.5l-68 -13q-17 88 -123 88q-173 0 -180 -294q71 69 183 69zM311 51q66 0 109 42t43 120q0 74 -40 117.5
t-110 43.5q-107 0 -177 -78q11 -245 175 -245z" />
    <glyph glyph-name="seven" unicode="7" horiz-adv-x="407" 
d="M-21 710h438v-65q-193 -267 -295 -645h-76q108 366 298 643h-365v67z" />
    <glyph glyph-name="eight" unicode="8" horiz-adv-x="579" 
d="M382 367q77 -31 111 -75t34 -108q0 -90 -58.5 -143t-176.5 -53t-178.5 48.5t-60.5 139.5q0 121 136 192q-55 26 -80.5 66t-25.5 102q0 83 53.5 133.5t155.5 50.5q103 0 153.5 -49.5t50.5 -130.5q0 -117 -114 -173zM153 539q0 -61 35.5 -92.5t123.5 -56.5q3 0 4 -1
q109 51 109 146q0 57 -34.5 87.5t-96.5 30.5q-66 0 -103.5 -28.5t-37.5 -85.5zM294 55q76 0 118 33.5t42 98.5q0 56 -43.5 90.5t-144.5 62.5q-8 1 -17 5q-124 -63 -124 -162q0 -65 45.5 -96.5t123.5 -31.5z" />
    <glyph glyph-name="nine" unicode="9" horiz-adv-x="575" 
d="M265 720q117 0 182 -86t65 -267q0 -178 -62 -278.5t-193 -100.5q-84 0 -135 38.5t-60 109.5l63 16q19 -99 134 -99q173 0 180 293q-76 -63 -182 -63q-100 0 -157 54.5t-57 153.5q0 101 58 165t164 64zM265 341q104 0 174 72q-13 242 -176 242q-71 0 -111.5 -42
t-40.5 -120q0 -152 154 -152z" />
    <glyph glyph-name="colon" unicode=":" horiz-adv-x="226" 
d="M113 370q26 0 44 18t18 44t-18 44t-44 18t-44 -18t-18 -44t18 -44t44 -18zM113 -12q26 0 44 18t18 44t-18 44t-44 18t-44 -18t-18 -44t18 -44t44 -18z" />
    <glyph glyph-name="semicolon" unicode=";" horiz-adv-x="227" 
d="M113 370q26 0 44 18t18 44t-18 44t-44 18t-44 -18t-18 -44t18 -44t44 -18zM168 13q0 41 -16.5 63.5t-44.5 22.5t-42 -17t-14 -45q52 0 52 -44q0 -21 -8.5 -37.5t-16 -22t-21.5 -14.5l26 -41q85 54 85 135z" />
    <glyph glyph-name="less" unicode="&#x3c;" horiz-adv-x="558" 
d="M455 483l-310 -166l310 -166l-2 -66l-370 199v66l370 199z" />
    <glyph glyph-name="equal" unicode="=" horiz-adv-x="585" 
d="M503 437h-420v-60h420v60zM503 257h-420v-60h420v60z" />
    <glyph glyph-name="greater" unicode="&#x3e;" horiz-adv-x="558" 
d="M105 549l370 -199v-66l-370 -199l-2 66l310 166l-310 166z" />
    <glyph glyph-name="question" unicode="?" horiz-adv-x="490" 
d="M43 600l63 -16q20 75 109 75q120 0 120 -129q0 -19 -3 -36t-11 -33t-13.5 -27.5t-20.5 -26t-21.5 -21.5t-26.5 -21t-26 -18t-29 -19t-27 -17l7 -104h63l6 82l28.5 19t34.5 24.5t31 26t32 34.5t23.5 39.5t19 51t5.5 58.5q0 85 -47.5 131.5t-142.5 46.5q-73 0 -114 -28
t-60 -92zM197 -12q26 0 43.5 18t17.5 44t-17.5 44t-43.5 18t-44 -18t-18 -44t18 -44t44 -18z" />
    <glyph glyph-name="at" unicode="@" horiz-adv-x="1075" 
d="M547 719q207 0 326.5 -115.5t119.5 -323.5q0 -150 -51 -215t-131 -65q-99 0 -129 87q-56 -87 -175 -87q-94 0 -149.5 62.5t-55.5 169.5q0 109 61.5 178.5t161.5 69.5q88 0 151 -47l7 37h59v-305q0 -105 80 -105q53 0 80 51t27 169q0 174 -102.5 276.5t-279.5 102.5
q-180 0 -289 -109t-109 -298q0 -107 29 -186t79.5 -123t111.5 -64.5t133 -20.5q76 0 130.5 17t80.5 35l6 -59q-74 -50 -220 -50q-89 0 -163 26t-131.5 78.5t-89.5 141t-32 205.5q0 219 130.5 343t333.5 124zM521 61q66 0 107.5 35t41.5 103v173q-51 47 -130 47
q-75 0 -119.5 -48t-44.5 -139q0 -86 39.5 -128.5t105.5 -42.5z" />
    <glyph glyph-name="A" unicode="A" horiz-adv-x="714" 
d="M628 64q28 -8 70 -8l-2 -59q-18 -5 -54 -5q-33 0 -51.5 10t-29.5 39l-60 158h-338l-76 -199h-77l279 705l85 14zM188 262h289l-145 380z" />
    <glyph glyph-name="B" unicode="B" horiz-adv-x="654" 
d="M491 381q59 -22 95.5 -67.5t36.5 -111.5q0 -97 -63 -149.5t-179 -52.5h-268v642h-84v61q59 11 82 11q40 0 61 -21q74 27 158 27q125 0 189 -50.5t64 -139.5q0 -106 -92 -149zM507 518q0 135 -177 135q-74 0 -141 -12v-240h156q80 0 121 27t41 90zM377 67q170 0 170 138
q0 61 -44 96t-122 35h-192v-269h188z" />
    <glyph glyph-name="C" unicode="C" horiz-adv-x="698" 
d="M416 56q-128 0 -202.5 78t-74.5 218q0 148 66.5 224.5t176.5 76.5q195 0 201 -162l74 9q0 98 -70.5 159t-203.5 61q-144 0 -233 -97t-89 -273q0 -171 94 -266.5t252 -95.5q159 0 243 64l-17 69q-92 -65 -217 -65z" />
    <glyph glyph-name="D" unicode="D" horiz-adv-x="760" 
d="M325 720q178 0 276 -101.5t98 -264.5q0 -161 -98.5 -257.5t-275.5 -96.5h-212v642h-84v61q59 11 82 11q41 0 60 -21q71 27 154 27zM326 68q146 0 220.5 77.5t74.5 208.5q0 132 -75 215t-221 83q-59 0 -136 -11v-573h137z" />
    <glyph glyph-name="E" unicode="E" horiz-adv-x="569" 
d="M167 324v-257h370v-67h-446v710h446l-5 -67h-365v-254h340v-65h-340z" />
    <glyph glyph-name="F" unicode="F" horiz-adv-x="526" 
d="M510 647l-343 -2v-256h319v-65h-319v-324h-76v710h425z" />
    <glyph glyph-name="G" unicode="G" horiz-adv-x="779" 
d="M668 373q40 0 40 -38v-335h-58l-4 106q-75 -118 -250 -118q-154 0 -244.5 97.5t-90.5 268.5q0 177 93.5 271.5t251.5 94.5q119 0 188.5 -51.5t80.5 -145.5l-74 -13q-8 67 -59 105t-136 38q-126 0 -196.5 -78t-70.5 -221q0 -140 71 -219.5t195 -79.5q103 0 168.5 53
t65.5 156v48h-223v61h252z" />
    <glyph glyph-name="H" unicode="H" horiz-adv-x="757" 
d="M653 63q37 -7 73 -7l-2 -59q-23 -5 -59 -5q-42 0 -65 15t-23 55v250h-410v-312h-76v710h76v-328h410v328h76v-647z" />
    <glyph glyph-name="I" unicode="I" horiz-adv-x="258" 
d="M91 710v-710h76v710h-76z" />
    <glyph glyph-name="J" unicode="J" horiz-adv-x="463" 
d="M372 710h-76v-521q0 -73 -30.5 -103.5t-99.5 -30.5q-67 0 -136 28l-7 -67q56 -28 147 -28q101 0 151.5 45.5t50.5 151.5v525z" />
    <glyph glyph-name="K" unicode="K" horiz-adv-x="638" 
d="M524 95q20 -26 36.5 -32.5t68.5 -6.5l-2 -59q-25 -5 -52 -5q-38 0 -60 10.5t-46 44.5l-189 265h-113v-312h-76v710h76v-328h113l260 335l81 -12l-284 -355z" />
    <glyph glyph-name="L" unicode="L" horiz-adv-x="543" 
d="M167 70h368v-70h-444v710h76v-640z" />
    <glyph glyph-name="M" unicode="M" horiz-adv-x="923" 
d="M822 63q33 -7 70 -7l-2 -59q-23 -5 -62 -5q-45 0 -63 13.5t-19 57.5l-14 541l-238 -510h-73l-238 510l-16 -604h-76l17 705l102 14l248 -537l243 528h106z" />
    <glyph glyph-name="N" unicode="N" horiz-adv-x="753" 
d="M588 710h74v-710h-69l-428 587v-587h-74v705l69 14l428 -591v582z" />
    <glyph glyph-name="O" unicode="O" horiz-adv-x="796" 
d="M398 -12q153 0 245 103t92 263t-92 263t-245 103t-245 -103t-92 -263t92 -263t245 -103zM398 56q-121 0 -190 81.5t-69 216.5t69.5 216.5t189.5 81.5q121 0 190 -81.5t69 -216.5t-69 -216.5t-190 -81.5z" />
    <glyph glyph-name="P" unicode="P" horiz-adv-x="596" 
d="M323 720q123 0 190 -62t67 -172q0 -107 -69 -164t-198 -57h-124v-265h-76v642h-84v61q59 11 82 11q40 0 60 -20q71 26 152 26zM313 330q101 0 148 38t47 118q0 167 -185 167q-70 0 -134 -11v-1v-311h124z" />
    <glyph glyph-name="Q" unicode="Q" horiz-adv-x="796" 
d="M524 -24q33 -53 61 -72t72 -19q41 0 68 9l-5 -65q-38 -9 -79 -9q-63 0 -104.5 27t-83.5 100l-25 42q-10 -1 -30 -1q-153 0 -245 103t-92 263t92 263t245 103t245 -103t92 -263q0 -129 -61 -222.5t-168 -127.5zM139 354q0 -135 69 -216.5t190 -81.5t190 81.5t69 216.5
t-69 216.5t-190 81.5q-120 0 -189.5 -81.5t-69.5 -216.5z" />
    <glyph glyph-name="R" unicode="R" horiz-adv-x="663" 
d="M547 94q16 -24 33.5 -31t66.5 -7l-5 -59q-27 -5 -47 -5q-37 0 -62.5 13t-50.5 52l-148 235h-145v-292h-76v642h-84v61q59 11 82 11q40 0 61 -21q70 27 161 27q132 0 199 -58t67 -164q0 -87 -47.5 -138t-131.5 -64zM189 642v-1v-284h164q82 0 126.5 33.5t44.5 111.5
t-50.5 114.5t-155.5 36.5q-61 0 -129 -11z" />
    <glyph glyph-name="S" unicode="S" 
d="M124 529q0 128 164 128q154 0 169 -112l72 14q-10 79 -67.5 120t-173.5 41q-115 0 -175.5 -51.5t-60.5 -147.5q0 -57 23.5 -96t61 -58t83 -31.5t91 -21.5t83 -22t61 -39.5t23.5 -68.5q0 -64 -47 -96.5t-132 -32.5q-130 0 -232 68l-10 -73q99 -62 244 -62q251 0 251 196
q0 57 -23.5 95.5t-61.5 57.5t-83.5 31t-91 22t-83.5 24t-61.5 42.5t-23.5 72.5z" />
    <glyph glyph-name="T" unicode="T" horiz-adv-x="553" 
d="M547 710v-70h-233v-640h-76v640h-232v63q89 7 181 7h360z" />
    <glyph glyph-name="U" unicode="U" horiz-adv-x="747" 
d="M662 710h-76v-437q0 -217 -204 -217q-104 0 -151.5 53t-47.5 166v371q0 35 -15 50.5t-51 15.5q-54 0 -94 -8v-57h84v-372q0 -287 275 -287q138 0 209 72.5t71 212.5v437z" />
    <glyph glyph-name="V" unicode="V" horiz-adv-x="677" 
d="M599 719l77 -14l-279 -705h-87l-240 647h-79v57q50 10 80 10q57 0 75 -51l208 -575z" />
    <glyph glyph-name="W" unicode="W" horiz-adv-x="969" 
d="M887 719l76 -14l-214 -705h-83l-159 592l-159 -592h-83l-190 647h-79v57q47 10 80 10q32 0 49.5 -11.5t25.5 -40.5l155 -555l161 603h80l162 -604z" />
    <glyph glyph-name="X" unicode="X" horiz-adv-x="677" 
d="M591 64q24 -8 70 -8l-2 -59q-20 -5 -57 -5q-30 0 -45.5 11.5t-39.5 47.5l-173 261l-213 -312h-85l252 362l-202 283h-80v58q37 11 71 11q48 0 75 -40l181 -266l203 313l76 -14l-232 -345z" />
    <glyph glyph-name="Y" unicode="Y" horiz-adv-x="611" 
d="M536 719l74 -14l-256 -415v-290h-76v290l-208 357h-79v57q25 10 67 10q33 0 49 -9t30 -34l179 -316z" />
    <glyph glyph-name="Z" unicode="Z" horiz-adv-x="616" 
d="M584 651l-445 -584h439v-67h-525l-7 62l443 581h-428v61q60 6 156 6h360z" />
    <glyph glyph-name="bracketleft" unicode="[" horiz-adv-x="367" 
d="M316 747h-141v-864h141v-63h-213v990h213v-63z" />
    <glyph glyph-name="backslash" unicode="\" horiz-adv-x="392" 
d="M72 810h-72l320 -990h72z" />
    <glyph glyph-name="bracketright" unicode="]" horiz-adv-x="367" 
d="M265 810v-990h-214v63h142v864h-142v63h214z" />
    <glyph glyph-name="underscore" unicode="_" horiz-adv-x="460" 
d="M409 0h-358v-63h358v63z" />
    <glyph glyph-name="grave" unicode="`" horiz-adv-x="375" 
d="M182 714l-79 -7l103 -157h67z" />
    <glyph glyph-name="a" unicode="a" horiz-adv-x="567" 
d="M468 60q26 -6 68 -6l-2 -57q-35 -5 -59 -5q-41 0 -59 21t-18 63v4q-59 -92 -183 -92q-74 0 -117.5 39t-43.5 104q0 70 51.5 110.5t155.5 40.5q78 0 137 -16v38q0 125 -130 125q-112 0 -126 -92l-72 13q28 140 198 140q97 0 148.5 -47.5t51.5 -137.5v-245zM232 46
q68 0 117 45t49 107v14q-62 16 -131 16q-141 0 -141 -95q0 -87 106 -87z" />
    <glyph glyph-name="b" unicode="b" horiz-adv-x="579" 
d="M294 490q105 0 163.5 -64.5t58.5 -186.5q0 -116 -64 -183.5t-191 -67.5q-113 0 -188 51v671h72v-292q50 72 149 72zM266 51q85 0 130.5 48.5t45.5 140.5q0 90 -39 138.5t-113 48.5q-64 0 -104.5 -39.5t-40.5 -91.5v-215q46 -30 121 -30z" />
    <glyph glyph-name="c" unicode="c" horiz-adv-x="545" 
d="M470 116q-73 -65 -169 -65q-76 0 -120.5 47.5t-44.5 141.5q0 88 42.5 137.5t113.5 49.5q113 0 118 -112l70 9q-1 74 -48 120t-139 46q-109 0 -169.5 -69t-60.5 -182q0 -125 62.5 -188t173.5 -63q122 0 187 63z" />
    <glyph glyph-name="d" unicode="d" horiz-adv-x="597" 
d="M505 60q27 -6 71 -6l-2 -57q-35 -5 -65 -5q-34 0 -53.5 17.5t-22.5 63.5q-57 -85 -168 -85q-90 0 -146 64t-56 182t63 187t166 69q83 0 141 -35v255h72v-650zM279 51q64 0 109 42t45 98v193q-52 43 -137 43q-73 0 -116.5 -52t-43.5 -141q0 -94 40.5 -138.5t102.5 -44.5z
" />
    <glyph glyph-name="e" unicode="e" horiz-adv-x="553" 
d="M137 221q7 -170 170 -170q53 0 95.5 18.5t60.5 36.5l18 -63q-25 -21 -74.5 -38t-109.5 -17q-113 0 -173.5 66.5t-60.5 188.5q0 110 59.5 178.5t159.5 68.5q102 0 155.5 -65t53.5 -165v-39h-354zM284 427q-60 0 -98.5 -36t-47.5 -113h280q-4 76 -40 112.5t-94 36.5z" />
    <glyph glyph-name="f" unicode="f" horiz-adv-x="346" 
d="M258 655q-83 0 -83 -85v-90h158v-61h-158v-419h-72v419h-92v61h92v89q0 151 139 151q61 0 104 -18l-6 -63q-36 16 -82 16z" />
    <glyph glyph-name="g" unicode="g" horiz-adv-x="531" 
d="M381 88q69 0 103.5 -32.5t34.5 -85.5q0 -74 -61 -117t-180 -43q-225 0 -225 132q0 70 62 109q-36 27 -36 72q0 60 68 100q-53 41 -53 111q0 69 49.5 112.5t135.5 43.5q59 0 101 -20q22 93 133 97l8 -67q-75 -3 -98 -59q42 -42 42 -104q0 -69 -48.5 -110.5t-137.5 -41.5
q-53 0 -95 17q-42 -26 -42 -60q0 -54 70 -54h169zM279 436q-56 0 -85.5 -26.5t-29.5 -73.5q0 -97 115 -97q116 0 116 97q0 47 -30 73.5t-86 26.5zM284 -130q78 0 120.5 24t42.5 65q0 69 -89 69h-166q-7 0 -21 2q-46 -29 -46 -76q0 -84 159 -84z" />
    <glyph glyph-name="h" unicode="h" horiz-adv-x="597" 
d="M498 60q26 -6 68 -6l-2 -57q-27 -5 -63 -5q-44 0 -59.5 13t-15.5 52v225q0 143 -128 143q-65 0 -109 -43.5t-44 -99.5v-282h-72v710h72v-308q57 88 171 88q91 0 136.5 -52t45.5 -147v-231z" />
    <glyph glyph-name="i" unicode="i" horiz-adv-x="222" 
d="M88 584q22 0 37.5 15.5t15.5 38.5q0 22 -15.5 37.5t-37.5 15.5t-37.5 -15.5t-15.5 -37.5q0 -23 15.5 -38.5t37.5 -15.5zM123 60v420h-72v-422q0 -37 16.5 -51.5t55.5 -14.5t66 5l2 57q-43 0 -68 6z" />
    <glyph glyph-name="j" unicode="j" horiz-adv-x="241" 
d="M134 584q22 0 37.5 15.5t15.5 38.5q0 22 -15.5 37.5t-37.5 15.5t-37.5 -15.5t-15.5 -37.5q0 -23 15.5 -38.5t37.5 -15.5zM169 480h-72v-550q0 -30 -12 -42.5t-40 -12.5q-22 0 -50 10l-4 -63q30 -12 68 -12q56 0 83 26.5t27 87.5v556z" />
    <glyph glyph-name="k" unicode="k" horiz-adv-x="502" 
d="M418 65q18 -11 74 -11l-2 -57q-23 -5 -55 -5q-53 0 -76 37l-131 204l-83 -82v-151h-72v710h72v-475l250 251l81 -6l-198 -197z" />
    <glyph glyph-name="l" unicode="l" horiz-adv-x="249" 
d="M73 710v-644q0 -42 19.5 -58t65.5 -16q32 0 68 4l2 57q-59 0 -83 7v650h-72z" />
    <glyph glyph-name="m" unicode="m" horiz-adv-x="911" 
d="M812 59q26 -6 68 -6l-2 -57q-35 -5 -63 -5q-44 0 -59.5 13t-15.5 51v231q0 139 -118 139q-57 0 -95.5 -41.5t-38.5 -93.5v-290h-72v283q0 71 -28 106.5t-90 35.5q-57 0 -95.5 -41.5t-38.5 -93.5v-290h-72v416q-22 7 -61 7l2 57q26 8 46 8q41 0 61 -19t23 -62
q54 83 150 83q123 0 161 -105q22 47 64.5 76t97.5 29q86 0 131 -53t45 -148v-230z" />
    <glyph glyph-name="n" unicode="n" horiz-adv-x="615" 
d="M516 60q24 -6 67 -6l-2 -57q-25 -5 -63 -5q-43 0 -58.5 13t-15.5 52v225q0 143 -129 143q-65 0 -109 -43.5t-44 -99.5v-282h-72v416q-21 7 -59 7l2 57q32 8 46 8q82 0 83 -86q57 88 171 88q92 0 137.5 -52t45.5 -147v-231z" />
    <glyph glyph-name="o" unicode="o" 
d="M63 238q0 -117 66 -183.5t173 -66.5q106 0 172.5 66.5t66.5 183.5q0 118 -66.5 185t-172.5 67q-107 0 -173 -66.5t-66 -185.5zM136 238q0 90 44.5 139.5t121.5 49.5t121 -49.5t44 -139.5t-44 -138.5t-121 -48.5t-121.5 48.5t-44.5 138.5z" />
    <glyph glyph-name="p" unicode="p" horiz-adv-x="598" 
d="M317 490q101 0 159.5 -64.5t58.5 -180.5q0 -123 -64.5 -190t-184.5 -67q-69 0 -122 24v-192h-72v596q-20 7 -61 7l2 57q24 8 49 8q70 0 80 -75q51 77 155 77zM283 51q85 0 131.5 47t46.5 144q0 92 -39.5 138.5t-113.5 46.5q-63 0 -103.5 -39.5t-40.5 -93.5v-215
q56 -28 119 -28z" />
    <glyph glyph-name="q" unicode="q" horiz-adv-x="578" 
d="M305 490q124 0 201 -53v-617h-72v247q-58 -79 -168 -79q-92 0 -147.5 61.5t-55.5 180.5q0 123 64 191.5t178 68.5zM282 51q66 0 109 41t43 91v220q-61 24 -128 24q-78 0 -124 -50t-46 -145q0 -91 40 -136t106 -45z" />
    <glyph glyph-name="r" unicode="r" horiz-adv-x="336" 
d="M283 490q22 0 43 -7l-4 -71q-14 4 -38 4q-52 0 -86 -50.5t-34 -112.5v-253h-72v416q-20 7 -61 7l2 57q28 8 51 8q32 0 54.5 -25.5t25.5 -71.5q45 99 119 99z" />
    <glyph glyph-name="s" unicode="s" horiz-adv-x="527" 
d="M249 490q-93 0 -139.5 -39t-46.5 -103q0 -45 24.5 -74t60.5 -39.5t79 -19.5t79 -15t60.5 -24.5t24.5 -50.5q0 -39 -30.5 -57.5t-100.5 -18.5q-100 0 -181 54l-13 -65q72 -50 196 -50q202 0 202 140q0 54 -34 85t-82 40.5t-96 16.5t-82 26t-34 57q0 76 119 76
q111 0 126 -75l69 11q-4 52 -51.5 88.5t-149.5 36.5z" />
    <glyph glyph-name="t" unicode="t" horiz-adv-x="326" 
d="M326 419h-153v-300q0 -39 15.5 -53.5t46.5 -14.5q33 0 76 16l6 -63q-48 -16 -96 -16q-62 0 -91 28t-29 102v301h-90v61h90v140h72v-140h153v-61z" />
    <glyph glyph-name="u" unicode="u" horiz-adv-x="606" 
d="M507 60q24 -6 68 -6l-2 -57q-33 -5 -54 -5q-43 0 -63.5 20t-20.5 72q-61 -96 -186 -96q-82 0 -120.5 43.5t-38.5 149.5v235q-21 7 -59 7l2 57q30 6 54 6q41 0 58 -16.5t17 -58.5v-219q0 -76 25.5 -107.5t85.5 -31.5q75 0 118.5 49t43.5 114v264h72v-420z" />
    <glyph glyph-name="v" unicode="v" horiz-adv-x="499" 
d="M419 486l72 -8l-203 -478h-62l-169 417q-21 6 -61 6l2 55q24 8 47 8q32 0 50.5 -12.5t30.5 -43.5l131 -341z" />
    <glyph glyph-name="w" unicode="w" horiz-adv-x="731" 
d="M645 486l72 -8l-156 -478h-68l-118 388l-117 -388h-68l-135 417q-22 6 -59 6l2 57q27 6 51 6q29 0 46.5 -12.5t27.5 -43.5l102 -336l113 386h74l115 -389z" />
    <glyph glyph-name="x" unicode="x" horiz-adv-x="503" 
d="M421 60q21 -7 61 -7l-2 -57q-22 -5 -46 -5q-42 0 -65 34l-118 177l-138 -202h-77l169 240l-122 177q-27 6 -62 6l2 57q36 6 50 6q24 0 37.5 -6t26.5 -27l115 -175l147 209l74 -7l-175 -241z" />
    <glyph glyph-name="y" unicode="y" horiz-adv-x="523" 
d="M435 486l79 -8l-241 -566q-24 -55 -60 -78.5t-94 -23.5q-37 0 -65 10l-7 65q38 -12 68 -12q37 0 59.5 11.5t33.5 40.5l29 72l-180 420q-24 6 -51 6l2 57q21 6 44 6q29 0 46 -11.5t28 -39.5l147 -351z" />
    <glyph glyph-name="z" unicode="z" horiz-adv-x="468" 
d="M437 420l-320 -360h320v-60h-400l-6 60l320 360h-301v60h381z" />
    <glyph glyph-name="braceleft" unicode="{" horiz-adv-x="419" 
d="M286 750q-77 0 -77 -66q0 -38 33.5 -128t33.5 -135q0 -75 -69 -106q69 -31 69 -106q0 -45 -33.5 -135t-33.5 -128q0 -66 77 -66h82v-60h-105q-60 0 -90.5 30t-30.5 84q0 47 34.5 138t34.5 131q0 37 -20 59.5t-58 22.5h-30v60h30q38 0 58 22.5t20 59.5q0 40 -34.5 131
t-34.5 138q0 54 30.5 84t90.5 30h105v-60h-82z" />
    <glyph glyph-name="bar" unicode="|" horiz-adv-x="277" 
d="M103 810v-990h72v990h-72z" />
    <glyph glyph-name="braceright" unicode="}" horiz-adv-x="419" 
d="M286 345h30v-60h-30q-38 0 -58 -22.5t-20 -59.5q0 -40 34.5 -131t34.5 -138q0 -54 -30.5 -84t-90.5 -30h-105v60h82q76 0 76 66q0 38 -33 128t-33 135q0 75 69 106q-69 31 -69 106q0 45 33 135t33 128q0 66 -76 66h-82v60h105q60 0 90.5 -30t30.5 -84q0 -47 -34.5 -138
t-34.5 -131q0 -37 20 -59.5t58 -22.5z" />
    <glyph glyph-name="asciitilde" unicode="~" horiz-adv-x="552" 
d="M469 377q-10 -104 -97 -104q-36 0 -102 15t-92 15q-37 0 -46 -54l-49 8q10 104 97 104q36 0 102 -15t92 -15q21 0 31.5 11.5t14.5 42.5z" />
    <glyph glyph-name="exclamdown" unicode="&#xa1;" horiz-adv-x="226" 
d="M113 385q26 0 44 18t18 44t-18 44t-44 18t-44 -18t-18 -44t18 -44t44 -18zM72 -180h83l-6 467h-72z" />
    <glyph glyph-name="cent" unicode="&#xa2;" horiz-adv-x="550" 
d="M489 167q-64 -59 -177 -63l-2 -104h-58l2 107q-91 12 -142 76.5t-51 177.5q0 108 53.5 177.5t151.5 78.5l2 103h58l-2 -104q76 -8 116.5 -53t41.5 -111l-70 -9q-5 94 -90 109l-8 -384q89 3 158 64zM135 362q0 -81 32 -129t89 -61l8 381q-60 -10 -94.5 -60t-34.5 -131z
" />
    <glyph glyph-name="sterling" unicode="&#xa3;" horiz-adv-x="561" 
d="M208 274v-207h286v-67h-433v67h72v207h-72v67h72v170q0 96 51.5 152.5t154.5 56.5q97 0 161 -44l-22 -67q-69 43 -139 43q-131 0 -131 -155v-156h202v-67h-202z" />
    <glyph glyph-name="currency" unicode="&#xa4;" horiz-adv-x="686" 
d="M578 358q0 -97 -55 -162l102 -109l-38 -38l-104 111q-59 -41 -140 -41t-139 41l-105 -111l-38 38l102 109q-54 64 -54 162q0 100 55 164l-103 109l38 38l105 -111q58 41 139 41t139 -41l105 111l38 -38l-102 -110q55 -65 55 -163zM181 358q0 -84 43.5 -130t118.5 -46
t119 46.5t44 129.5q0 85 -44 131.5t-119 46.5t-118.5 -46t-43.5 -132z" />
    <glyph glyph-name="yen" unicode="&#xa5;" horiz-adv-x="676" 
d="M593 710l-217 -371h173v-56h-173v-74h173v-56h-173v-153h-76v153h-173v56h173v74h-173v56h173l-217 371h79l176 -312l176 312h79z" />
    <glyph glyph-name="brokenbar" unicode="&#xa6;" horiz-adv-x="277" 
d="M103 810v-400h72v400h-72zM103 220v-400h72v400h-72z" />
    <glyph glyph-name="section" unicode="&#xa7;" horiz-adv-x="622" 
d="M408 127q56 -21 86.5 -53t30.5 -89q0 -77 -54 -117t-154 -40q-132 0 -217 62l9 71q88 -66 206 -66q138 0 138 95q0 39 -37.5 62.5t-90.5 36.5t-106 29t-90.5 53t-37.5 96q0 103 116 147q-112 47 -112 154q0 77 55.5 124.5t165.5 47.5q190 0 213 -148l-72 -14
q-9 53 -43 77t-98 24q-70 0 -109.5 -27t-39.5 -83q0 -48 36.5 -77t89 -44t105 -31.5t89 -52t36.5 -92.5q0 -100 -115 -145zM163 273q0 -23 10.5 -41.5t22 -29.5t39.5 -22t43 -15.5t51 -14.5q59 19 90.5 44.5t31.5 72.5q0 35 -26 60t-49.5 33.5t-79.5 24.5q-4 2 -7 2.5
t-6 1.5q-120 -26 -120 -116z" />
    <glyph glyph-name="dieresis" unicode="&#xa8;" horiz-adv-x="461" 
d="M150 585q21 0 34.5 14t13.5 35q0 20 -13.5 34t-34.5 14q-20 0 -33.5 -14t-13.5 -34q0 -21 13.5 -35t33.5 -14zM310 585q21 0 34.5 14t13.5 35q0 20 -13.5 34t-34.5 14q-20 0 -33.5 -14t-13.5 -34q0 -21 13.5 -35t33.5 -14z" />
    <glyph glyph-name="copyright" unicode="&#xa9;" horiz-adv-x="1048" 
d="M61 328q0 -217 130.5 -345t332.5 -128t332.5 128t130.5 345t-130 345t-333 128q-204 0 -333.5 -127t-129.5 -346zM130 328q0 194 108 302.5t286 108.5t286 -108.5t108 -302.5t-108 -302.5t-286 -108.5t-286 108.5t-108 302.5zM700 205q-73 -65 -169 -65q-76 0 -120 47.5
t-44 141.5q0 88 42 137.5t113 49.5q113 0 118 -112l70 9q-1 74 -48 120t-139 46q-109 0 -169.5 -69t-60.5 -182q0 -125 63 -188t174 -63q120 0 187 63z" />
    <glyph glyph-name="ordfeminine" unicode="&#xaa;" horiz-adv-x="418" 
d="M343 426q17 -4 49 -4l-1 -47q-30 -3 -45 -3q-30 0 -44 13t-16 40q-43 -56 -124 -56q-52 0 -81.5 27t-29.5 73q0 49 36.5 77.5t107.5 28.5q53 0 91 -11v26q0 83 -84 83q-73 0 -84 -62l-57 10q10 47 42 73t99 26q141 0 141 -131v-163zM178 413q45 0 76.5 30t31.5 71v13
q-44 10 -83 10q-93 0 -93 -65q0 -59 68 -59z" />
    <glyph glyph-name="guillemotleft" unicode="&#xab;" horiz-adv-x="465" 
d="M394 419l-135 -135l135 -125l-40 -40l-164 158v12l164 170zM239 419l-135 -135l135 -125l-40 -40l-163 158v12l163 170z" />
    <glyph glyph-name="registered" unicode="&#xae;" horiz-adv-x="554" 
d="M277 728q92 0 149.5 -55t57.5 -149t-57.5 -149t-149.5 -55t-149.5 55t-57.5 149t57.5 149t149.5 55zM277 348q78 0 125.5 45t47.5 131t-47.5 131t-125.5 45t-125.5 -45t-47.5 -131t47.5 -131t125.5 -45zM348 452q6 -11 34 -11v-31q-16 -4 -25 -4q-27 0 -40 23l-38 68h-36
v-88h-45v196h-24v35h107q91 0 91 -72q0 -53 -51 -67zM243 605v-74h36q48 0 48 37t-48 37h-36z" />
    <glyph glyph-name="macron" unicode="&#xaf;" horiz-adv-x="503" 
d="M103 657v-58h297v58h-297z" />
    <glyph glyph-name="degree" unicode="&#xb0;" horiz-adv-x="392" 
d="M196 477q56 0 90 33.5t34 87.5t-34 87.5t-90 33.5t-90.5 -33.5t-34.5 -87.5t34.5 -87.5t90.5 -33.5zM196 525q-32 0 -52 20t-20 53t20 53t52 20t51.5 -20t19.5 -53t-19.5 -53t-51.5 -20z" />
    <glyph glyph-name="plusminus" unicode="&#xb1;" horiz-adv-x="563" 
d="M236 132v162h-153v63h153v163h69v-163h153v-63h-153v-162h-69zM83 63h397v-63h-397v63z" />
    <glyph glyph-name="acute" unicode="&#xb4;" horiz-adv-x="375" 
d="M193 714l-90 -164h66l104 157z" />
    <glyph glyph-name="paragraph" unicode="&#xb6;" horiz-adv-x="618" 
d="M338 325v326q0 38 -14.5 53.5t-54.5 15.5q-84 0 -136 -52t-52 -146q0 -95 57 -146t161 -51h39zM461 720q-35 0 -49.5 -15.5t-14.5 -50.5v-754h76v755h84v57q-32 8 -96 8z" />
    <glyph glyph-name="periodcentered" unicode="&#xb7;" horiz-adv-x="226" 
d="M113 242q26 0 44 18t18 44t-18 44t-44 18t-44 -18t-18 -44t18 -44t44 -18z" />
    <glyph glyph-name="cedilla" unicode="&#xb8;" horiz-adv-x="359" 
d="M175 -34l8 46h-45l-17 -79q42 0 60.5 -7.5t18.5 -25.5q0 -43 -90 -43l-7 -49q80 0 116.5 22.5t36.5 71.5q0 64 -81 64z" />
    <glyph glyph-name="ordmasculine" unicode="&#xba;" horiz-adv-x="438" 
d="M51 544q0 -82 46 -128.5t122 -46.5t122 46.5t46 128.5q0 83 -46 129.5t-122 46.5t-122 -46.5t-46 -129.5zM115 544q0 59 27.5 91t76.5 32q50 0 77.5 -32.5t27.5 -90.5t-27.5 -90t-77.5 -32t-77 32t-27 90z" />
    <glyph glyph-name="guillemotright" unicode="&#xbb;" horiz-adv-x="465" 
d="M275 289v-12l-164 -158l-40 40l135 125l-135 135l40 40zM266 459l163 -170v-12l-163 -158l-40 40l134 125l-134 135z" />
    <glyph glyph-name="onequarter" unicode="&#xbc;" horiz-adv-x="889" 
d="M697 720l69 -4l-514 -728l-69 4zM123 383h91v273q-36 -22 -123 -47l-11 52q85 24 134 55h62v-333h68v-49h-221v49zM764 158h65v-49h-65v-109h-60v109h-178l-15 45l195 228h58v-224zM575 158h129v150z" />
    <glyph glyph-name="onehalf" unicode="&#xbd;" horiz-adv-x="924" 
d="M697 720l69 -4l-514 -728l-69 4zM123 383h91v273q-36 -22 -123 -47l-11 52q85 24 134 55h62v-333h68v-49h-221v49zM645 50h219v-50h-283v35q0 36 22 64t53.5 45.5t63.5 34t54 37.5t22 47q0 73 -81 73q-34 0 -51 -11.5t-24 -38.5l-60 10q25 92 137 92q142 0 142 -123
q0 -44 -31.5 -77.5t-69.5 -50t-73 -39.5t-40 -48z" />
    <glyph glyph-name="threequarters" unicode="&#xbe;" horiz-adv-x="878" 
d="M353 439q0 -50 -37.5 -81.5t-103.5 -31.5q-105 0 -132 77l53 17q13 -44 80 -44q37 0 59.5 17t22.5 49q0 33 -23 50.5t-62 17.5h-33v43h32q32 0 52.5 16t20.5 44q0 26 -17.5 42t-53.5 16q-63 0 -73 -45l-55 12q16 82 128 82q62 0 95.5 -27t33.5 -75q0 -60 -60 -84
q73 -24 73 -95zM686 720l68 -4l-514 -728l-68 4zM753 158h65v-49h-65v-109h-61v109h-177l-15 45l194 228h59v-224zM564 158h128v150z" />
    <glyph glyph-name="questiondown" unicode="&#xbf;" horiz-adv-x="493" 
d="M277 385q26 0 44 18t18 44t-18 44t-44 18t-43.5 -18t-17.5 -44t17.5 -44t43.5 -18zM451 -70l-53 21q-26 -80 -122 -80q-58 0 -89.5 31.5t-31.5 86.5q0 29 11 55.5t22.5 44t39.5 40.5t41 32t48 32l-7 100h-63l-6 -78q-2 -2 -21 -15t-26 -18.5t-25 -21t-26.5 -26t-22 -29
t-20.5 -36t-12 -40.5t-5 -47q0 -83 49.5 -127.5t138.5 -44.5q141 0 180 120z" />
    <glyph glyph-name="Agrave" unicode="&#xc0;" horiz-adv-x="714" 
d="M367 742l-66 -4l-82 104l78 11zM628 64q28 -8 70 -8l-2 -59q-18 -5 -54 -5q-33 0 -51.5 10t-29.5 39l-60 158h-338l-76 -199h-77l279 705l85 14zM188 262h289l-145 380z" />
    <glyph glyph-name="Aacute" unicode="&#xc1;" horiz-adv-x="714" 
d="M445 842l-82 -104l-66 4l70 111zM628 64q28 -8 70 -8l-2 -59q-18 -5 -54 -5q-33 0 -51.5 10t-29.5 39l-60 158h-338l-76 -199h-77l279 705l85 14zM188 262h289l-145 380z" />
    <glyph glyph-name="Acircumflex" unicode="&#xc2;" horiz-adv-x="714" 
d="M334 814l-69 -74l-63 9l99 103h66l99 -103l-63 -9zM628 64q28 -8 70 -8l-2 -59q-18 -5 -54 -5q-33 0 -51.5 10t-29.5 39l-60 158h-338l-76 -199h-77l279 705l85 14zM188 262h289l-145 380z" />
    <glyph glyph-name="Atilde" unicode="&#xc3;" horiz-adv-x="714" 
d="M283 779q-32 0 -35 -43l-45 5q6 91 73 91q24 0 59 -11.5t50 -11.5q32 0 35 44l46 -6q-3 -46 -20.5 -68t-53.5 -22q-23 0 -58.5 11t-50.5 11zM628 64q28 -8 70 -8l-2 -59q-18 -5 -54 -5q-33 0 -51.5 10t-29.5 39l-60 158h-338l-76 -199h-77l279 705l85 14zM188 262h289
l-145 380z" />
    <glyph glyph-name="Adieresis" unicode="&#xc4;" horiz-adv-x="714" 
d="M252 745q-20 0 -32.5 12.5t-12.5 32.5t12.5 32.5t32.5 12.5q19 0 31.5 -13t12.5 -32t-12.5 -32t-31.5 -13zM417 745q-19 0 -32 12.5t-13 32.5t13 32.5t32 12.5t32 -12.5t13 -32.5t-13 -32.5t-32 -12.5zM628 64q28 -8 70 -8l-2 -59q-18 -5 -54 -5q-33 0 -51.5 10t-29.5 39
l-60 158h-338l-76 -199h-77l279 705l85 14zM188 262h289l-145 380z" />
    <glyph glyph-name="Aring" unicode="&#xc5;" horiz-adv-x="714" 
d="M335 729q-37 0 -58 20t-21 55q0 34 21 54.5t58 20.5q36 0 57.5 -20.5t21.5 -54.5q0 -35 -21 -55t-58 -20zM335 846q-20 0 -31.5 -11t-11.5 -31t11.5 -31t31.5 -11q19 0 30.5 11t11.5 31t-11.5 31t-30.5 11zM628 64q28 -8 70 -8l-2 -59q-18 -5 -54 -5q-33 0 -51.5 10
t-29.5 39l-60 158h-338l-76 -199h-77l279 705l85 14zM188 262h289l-145 380z" />
    <glyph glyph-name="AE" unicode="&#xc6;" horiz-adv-x="935" 
d="M574 324v-257h330v-67h-406v324h-253l-149 -324h-78l335 710h551l-6 -67h-324v-254h300v-65h-300zM275 389h223v254h-105z" />
    <glyph glyph-name="Ccedilla" unicode="&#xc7;" horiz-adv-x="698" 
d="M407 -12h-6l-4 -22q81 0 81 -64q0 -49 -36.5 -71.5t-116.5 -22.5l7 49q90 0 90 43q0 18 -18.5 25.5t-60.5 7.5l12 58q-135 15 -214.5 109t-79.5 250q0 176 89 273t233 97q133 0 203.5 -61t70.5 -159l-74 -9q-6 162 -201 162q-110 0 -176.5 -76.5t-66.5 -224.5
q0 -140 74.5 -218t202.5 -78q125 0 217 65l17 -69q-84 -64 -243 -64z" />
    <glyph glyph-name="Egrave" unicode="&#xc8;" horiz-adv-x="569" 
d="M352 742l-66 -4l-82 104l78 11zM167 324v-257h370v-67h-446v710h446l-5 -67h-365v-254h340v-65h-340z" />
    <glyph glyph-name="Eacute" unicode="&#xc9;" horiz-adv-x="569" 
d="M429 842l-82 -104l-66 4l70 111zM167 324v-257h370v-67h-446v710h446l-5 -67h-365v-254h340v-65h-340z" />
    <glyph glyph-name="Ecircumflex" unicode="&#xca;" horiz-adv-x="569" 
d="M319 814l-69 -74l-63 9l99 103h66l99 -103l-63 -9zM167 324v-257h370v-67h-446v710h446l-5 -67h-365v-254h340v-65h-340z" />
    <glyph glyph-name="Edieresis" unicode="&#xcb;" horiz-adv-x="569" 
d="M236 745q-20 0 -32.5 12.5t-12.5 32.5t12.5 32.5t32.5 12.5q19 0 31.5 -13t12.5 -32t-12.5 -32t-31.5 -13zM401 745q-19 0 -32 12.5t-13 32.5t13 32.5t32 12.5t32 -12.5t13 -32.5t-13 -32.5t-32 -12.5zM167 324v-257h370v-67h-446v710h446l-5 -67h-365v-254h340v-65h-340
z" />
    <glyph glyph-name="Igrave" unicode="&#xcc;" horiz-adv-x="258" 
d="M92 853l-78 -11l82 -104l66 4zM91 710v-710h76v710h-76z" />
    <glyph glyph-name="Iacute" unicode="&#xcd;" horiz-adv-x="258" 
d="M162 853l-70 -111l66 -4l82 104zM91 710v-710h76v710h-76z" />
    <glyph glyph-name="Icircumflex" unicode="&#xce;" horiz-adv-x="258" 
d="M162 852l99 -103l-63 -9l-69 74l-69 -74l-63 9l99 103h66zM91 0v710h76v-710h-76z" />
    <glyph glyph-name="Idieresis" unicode="&#xcf;" horiz-adv-x="258" 
d="M47 745q19 0 31.5 13t12.5 32t-12.5 32t-31.5 13t-32 -12.5t-13 -32.5t13 -32.5t32 -12.5zM212 745q20 0 32.5 12.5t12.5 32.5t-12.5 32.5t-32.5 12.5t-32.5 -12.5t-12.5 -32.5t12.5 -32.5t32.5 -12.5zM91 710v-710h76v710h-76z" />
    <glyph glyph-name="Eth" unicode="&#xd0;" horiz-adv-x="760" 
d="M325 720q178 0 276 -101.5t98 -264.5q0 -161 -98.5 -257.5t-275.5 -96.5h-212v318h-84v64h84v260h-84v61q59 11 82 11q41 0 60 -21q71 27 154 27zM326 68q146 0 220.5 77.5t74.5 208.5q0 132 -75 215t-221 83q-59 0 -136 -11v-259h129v-64h-129v-250h137z" />
    <glyph glyph-name="Ntilde" unicode="&#xd1;" horiz-adv-x="753" 
d="M334 779q-32 0 -35 -43l-45 5q6 91 73 91q23 0 59 -11.5t50 -11.5q32 0 35 44l46 -6q-3 -46 -20.5 -68t-53.5 -22q-23 0 -58.5 11t-50.5 11zM588 710h74v-710h-69l-428 587v-587h-74v705l69 14l428 -591v582z" />
    <glyph glyph-name="Ograve" unicode="&#xd2;" horiz-adv-x="796" 
d="M361 853l-78 -11l82 -104l66 4zM398 -12q153 0 245 103t92 263t-92 263t-245 103t-245 -103t-92 -263t92 -263t245 -103zM398 56q-121 0 -190 81.5t-69 216.5t69.5 216.5t189.5 81.5q121 0 190 -81.5t69 -216.5t-69 -216.5t-190 -81.5z" />
    <glyph glyph-name="Oacute" unicode="&#xd3;" horiz-adv-x="796" 
d="M430 853l-70 -111l66 -4l82 104zM398 -12q153 0 245 103t92 263t-92 263t-245 103t-245 -103t-92 -263t92 -263t245 -103zM398 56q-121 0 -190 81.5t-69 216.5t69.5 216.5t189.5 81.5q121 0 190 -81.5t69 -216.5t-69 -216.5t-190 -81.5z" />
    <glyph glyph-name="Ocircumflex" unicode="&#xd4;" horiz-adv-x="796" 
d="M398 814l-69 -74l-63 9l99 103h66l99 -103l-63 -9zM398 720q153 0 245 -103t92 -263t-92 -263t-245 -103t-245 103t-92 263t92 263t245 103zM398 56q121 0 190 81.5t69 216.5t-69 216.5t-190 81.5q-120 0 -189.5 -81.5t-69.5 -216.5t69 -216.5t190 -81.5z" />
    <glyph glyph-name="Otilde" unicode="&#xd5;" horiz-adv-x="796" 
d="M530 847q-3 -46 -20.5 -68t-53.5 -22q-23 0 -58.5 11t-50.5 11q-32 0 -35 -43l-45 5q6 91 73 91q24 0 59 -11.5t50 -11.5q32 0 35 44zM398 -12q153 0 245 103t92 263t-92 263t-245 103t-245 -103t-92 -263t92 -263t245 -103zM398 56q-121 0 -190 81.5t-69 216.5
t69.5 216.5t189.5 81.5q121 0 190 -81.5t69 -216.5t-69 -216.5t-190 -81.5z" />
    <glyph glyph-name="Odieresis" unicode="&#xd6;" horiz-adv-x="796" 
d="M315 745q19 0 31.5 13t12.5 32t-12.5 32t-31.5 13t-32 -12.5t-13 -32.5t13 -32.5t32 -12.5zM480 745q20 0 32.5 12.5t12.5 32.5t-12.5 32.5t-32.5 12.5t-32.5 -12.5t-12.5 -32.5t12.5 -32.5t32.5 -12.5zM398 -12q153 0 245 103t92 263t-92 263t-245 103t-245 -103
t-92 -263t92 -263t245 -103zM398 56q-121 0 -190 81.5t-69 216.5t69.5 216.5t189.5 81.5q121 0 190 -81.5t69 -216.5t-69 -216.5t-190 -81.5z" />
    <glyph glyph-name="multiply" unicode="&#xd7;" horiz-adv-x="521" 
d="M438 452l-135 -135l135 -135l-42 -43l-136 136l-135 -136l-42 43l135 135l-135 135l42 43l135 -136l136 136z" />
    <glyph glyph-name="Oslash" unicode="&#xd8;" horiz-adv-x="796" 
d="M632 628q103 -103 103 -274q0 -160 -92 -263t-245 -103q-101 0 -182 49l-46 -66l-69 8l68 96q-108 102 -108 279q0 160 92 263t245 103q107 0 188 -53l57 82l69 -8zM139 354q0 -140 72 -220l334 475q-60 43 -147 43q-120 0 -189.5 -81.5t-69.5 -216.5zM398 56
q121 0 190 81.5t69 216.5t-67 214l-333 -473q59 -39 141 -39z" />
    <glyph glyph-name="Ugrave" unicode="&#xd9;" horiz-adv-x="747" 
d="M338 853l-78 -11l82 -104l66 4zM662 710h-76v-437q0 -217 -204 -217q-104 0 -151.5 53t-47.5 166v371q0 35 -15 50.5t-51 15.5q-54 0 -94 -8v-57h84v-372q0 -287 275 -287q138 0 209 72.5t71 212.5v437z" />
    <glyph glyph-name="Uacute" unicode="&#xda;" horiz-adv-x="747" 
d="M408 853l-70 -111l66 -4l82 104zM662 710h-76v-437q0 -217 -204 -217q-104 0 -151.5 53t-47.5 166v371q0 35 -15 50.5t-51 15.5q-54 0 -94 -8v-57h84v-372q0 -287 275 -287q138 0 209 72.5t71 212.5v437z" />
    <glyph glyph-name="Ucircumflex" unicode="&#xdb;" horiz-adv-x="747" 
d="M375 814l-69 -74l-63 9l99 103h66l99 -103l-63 -9zM586 710h76v-437q0 -140 -71 -212.5t-209 -72.5q-275 0 -275 287v372h-84v57q40 8 94 8q36 0 51 -15.5t15 -50.5v-371q0 -113 47.5 -166t151.5 -53q204 0 204 217v437z" />
    <glyph glyph-name="Udieresis" unicode="&#xdc;" horiz-adv-x="747" 
d="M293 745q19 0 31.5 13t12.5 32t-12.5 32t-31.5 13t-32 -12.5t-13 -32.5t13 -32.5t32 -12.5zM458 745q20 0 32.5 12.5t12.5 32.5t-12.5 32.5t-32.5 12.5t-32.5 -12.5t-12.5 -32.5t12.5 -32.5t32.5 -12.5zM662 710h-76v-437q0 -217 -204 -217q-104 0 -151.5 53t-47.5 166
v371q0 35 -15 50.5t-51 15.5q-54 0 -94 -8v-57h84v-372q0 -287 275 -287q138 0 209 72.5t71 212.5v437z" />
    <glyph glyph-name="Yacute" unicode="&#xdd;" horiz-adv-x="611" 
d="M426 842l-82 -104l-66 4l70 111zM536 719l74 -14l-256 -415v-290h-76v290l-208 357h-79v57q25 10 67 10q33 0 49 -9t30 -34l179 -316z" />
    <glyph glyph-name="Thorn" unicode="&#xde;" horiz-adv-x="590" 
d="M269 586q123 0 191.5 -57t68.5 -164t-68.5 -163t-191.5 -56h-102v-146h-76v710h76v-124h102zM269 211q95 0 141 36.5t46 117.5t-46 118.5t-141 37.5h-102v-310h102z" />
    <glyph glyph-name="germandbls" unicode="&#xdf;" horiz-adv-x="566" 
d="M329 335q0 -13 15.5 -25.5t38 -22t49.5 -24.5t49.5 -32t38 -45.5t15.5 -63.5q0 -66 -41.5 -100t-118.5 -34q-89 0 -142 36l5 65q72 -42 134 -42q49 0 73.5 19.5t24.5 64.5q0 28 -20.5 50.5t-50 38t-59 30t-50 34t-20.5 41.5q0 27 44 104.5t44 127.5q0 100 -103 100
q-110 0 -110 -127v-530h-72v525q0 195 186 195q85 0 128 -41t43 -104q0 -40 -16 -79.5t-34.5 -64.5t-34.5 -51.5t-16 -44.5z" />
    <glyph glyph-name="agrave" unicode="&#xe0;" horiz-adv-x="567" 
d="M307 550h-66l-104 157l80 7zM468 60q26 -6 68 -6l-2 -57q-35 -5 -59 -5q-41 0 -59 21t-18 63v4q-59 -92 -183 -92q-74 0 -117.5 39t-43.5 104q0 70 51.5 110.5t155.5 40.5q78 0 137 -16v38q0 125 -130 125q-112 0 -126 -92l-72 13q28 140 198 140q97 0 148.5 -47.5
t51.5 -137.5v-245zM232 46q68 0 117 45t49 107v14q-62 16 -131 16q-141 0 -141 -95q0 -87 106 -87z" />
    <glyph glyph-name="aacute" unicode="&#xe1;" horiz-adv-x="567" 
d="M401 707l-104 -157h-66l90 164zM468 60q26 -6 68 -6l-2 -57q-35 -5 -59 -5q-41 0 -59 21t-18 63v4q-59 -92 -183 -92q-74 0 -117.5 39t-43.5 104q0 70 51.5 110.5t155.5 40.5q78 0 137 -16v38q0 125 -130 125q-112 0 -126 -92l-72 13q28 140 198 140q97 0 148.5 -47.5
t51.5 -137.5v-245zM232 46q68 0 117 45t49 107v14q-62 16 -131 16q-141 0 -141 -95q0 -87 106 -87z" />
    <glyph glyph-name="acircumflex" unicode="&#xe2;" horiz-adv-x="567" 
d="M266 673l-85 -111l-65 2l117 155h66l117 -155l-65 -2zM468 60q26 -6 68 -6l-2 -57q-35 -5 -59 -5q-41 0 -59 21t-18 63v4q-59 -92 -183 -92q-74 0 -117.5 39t-43.5 104q0 70 51.5 110.5t155.5 40.5q78 0 137 -16v38q0 125 -130 125q-112 0 -126 -92l-72 13
q28 140 198 140q97 0 148.5 -47.5t51.5 -137.5v-245zM232 46q68 0 117 45t49 107v14q-62 16 -131 16q-141 0 -141 -95q0 -87 106 -87z" />
    <glyph glyph-name="atilde" unicode="&#xe3;" horiz-adv-x="567" 
d="M183 639q-41 0 -47 -61l-47 5q4 53 27.5 82t63.5 29q33 0 80.5 -21.5t72.5 -21.5q20 0 30.5 13.5t14.5 48.5l47 -6q-8 -111 -91 -111q-32 0 -80.5 21.5t-70.5 21.5zM468 60q26 -6 68 -6l-2 -57q-35 -5 -59 -5q-41 0 -59 21t-18 63v4q-59 -92 -183 -92q-74 0 -117.5 39
t-43.5 104q0 70 51.5 110.5t155.5 40.5q78 0 137 -16v38q0 125 -130 125q-112 0 -126 -92l-72 13q28 140 198 140q97 0 148.5 -47.5t51.5 -137.5v-245zM232 46q68 0 117 45t49 107v14q-62 16 -131 16q-141 0 -141 -95q0 -87 106 -87z" />
    <glyph glyph-name="adieresis" unicode="&#xe4;" horiz-adv-x="567" 
d="M186 585q-20 0 -33.5 14t-13.5 35q0 20 13.5 34t33.5 14q21 0 34.5 -14t13.5 -34q0 -21 -13.5 -35t-34.5 -14zM346 585q-20 0 -33.5 14t-13.5 35q0 20 13.5 34t33.5 14q21 0 34.5 -14t13.5 -34q0 -21 -13.5 -35t-34.5 -14zM468 60q26 -6 68 -6l-2 -57q-35 -5 -59 -5
q-41 0 -59 21t-18 63v4q-59 -92 -183 -92q-74 0 -117.5 39t-43.5 104q0 70 51.5 110.5t155.5 40.5q78 0 137 -16v38q0 125 -130 125q-112 0 -126 -92l-72 13q28 140 198 140q97 0 148.5 -47.5t51.5 -137.5v-245zM232 46q68 0 117 45t49 107v14q-62 16 -131 16
q-141 0 -141 -95q0 -87 106 -87z" />
    <glyph glyph-name="aring" unicode="&#xe5;" horiz-adv-x="567" 
d="M266 545q-44 0 -70 25t-26 66t26 66t70 25t70.5 -25t26.5 -66t-26.5 -66t-70.5 -25zM266 690q-24 0 -39 -14.5t-15 -39.5t15 -39.5t39 -14.5q25 0 40 14.5t15 39.5t-15 39.5t-40 14.5zM468 60q26 -6 68 -6l-2 -57q-35 -5 -59 -5q-41 0 -59 21t-18 63v4q-59 -92 -183 -92
q-74 0 -117.5 39t-43.5 104q0 70 51.5 110.5t155.5 40.5q78 0 137 -16v38q0 125 -130 125q-112 0 -126 -92l-72 13q28 140 198 140q97 0 148.5 -47.5t51.5 -137.5v-245zM232 46q68 0 117 45t49 107v14q-62 16 -131 16q-141 0 -141 -95q0 -87 106 -87z" />
    <glyph glyph-name="ae" unicode="&#xe6;" horiz-adv-x="897" 
d="M480 221q9 -170 171 -170q53 0 95.5 18.5t60.5 36.5l18 -63q-25 -21 -74.5 -38t-109.5 -17q-151 0 -206 114q-30 -54 -84.5 -84t-125.5 -30q-75 0 -118.5 38.5t-43.5 104.5q0 70 51 110.5t155 40.5q80 0 137 -16v38q0 125 -130 125q-112 0 -126 -92l-72 13
q28 140 198 140q131 0 178 -84q60 84 172 84q101 0 155 -65t54 -165v-39h-355zM628 427q-60 0 -99 -36.5t-47 -112.5h280q-4 76 -40 112.5t-94 36.5zM239 46q70 0 118.5 44t48.5 109v13q-62 16 -130 16q-141 0 -141 -95q0 -87 104 -87z" />
    <glyph glyph-name="ccedilla" unicode="&#xe7;" horiz-adv-x="545" 
d="M308 -34q81 0 81 -64q0 -49 -36.5 -71.5t-116.5 -22.5l7 49q90 0 90 43q0 18 -18.5 25.5t-60.5 7.5l12 57q-96 9 -149.5 71.5t-53.5 177.5q0 113 60.5 182t169.5 69q92 0 139 -46t48 -120l-70 -9q-5 112 -118 112q-71 0 -113.5 -49.5t-42.5 -137.5q0 -94 44.5 -141.5
t120.5 -47.5q96 0 169 65l16 -65q-62 -59 -174 -63z" />
    <glyph glyph-name="egrave" unicode="&#xe8;" horiz-adv-x="553" 
d="M323 550h-66l-104 157l80 7zM137 221q7 -170 170 -170q53 0 95.5 18.5t60.5 36.5l18 -63q-25 -21 -74.5 -38t-109.5 -17q-113 0 -173.5 66.5t-60.5 188.5q0 110 59.5 178.5t159.5 68.5q102 0 155.5 -65t53.5 -165v-39h-354zM284 427q-60 0 -98.5 -36t-47.5 -113h280
q-4 76 -40 112.5t-94 36.5z" />
    <glyph glyph-name="eacute" unicode="&#xe9;" horiz-adv-x="553" 
d="M417 707l-104 -157h-66l90 164zM137 221q7 -170 170 -170q53 0 95.5 18.5t60.5 36.5l18 -63q-25 -21 -74.5 -38t-109.5 -17q-113 0 -173.5 66.5t-60.5 188.5q0 110 59.5 178.5t159.5 68.5q102 0 155.5 -65t53.5 -165v-39h-354zM284 427q-60 0 -98.5 -36t-47.5 -113h280
q-4 76 -40 112.5t-94 36.5z" />
    <glyph glyph-name="ecircumflex" unicode="&#xea;" horiz-adv-x="553" 
d="M282 673l-85 -111l-65 2l117 155h66l117 -155l-65 -2zM137 221q7 -170 170 -170q53 0 95.5 18.5t60.5 36.5l18 -63q-25 -21 -74.5 -38t-109.5 -17q-113 0 -173.5 66.5t-60.5 188.5q0 110 59.5 178.5t159.5 68.5q102 0 155.5 -65t53.5 -165v-39h-354zM284 427
q-60 0 -98.5 -36t-47.5 -113h280q-4 76 -40 112.5t-94 36.5z" />
    <glyph glyph-name="edieresis" unicode="&#xeb;" horiz-adv-x="553" 
d="M202 585q-20 0 -33.5 14t-13.5 35q0 20 13.5 34t33.5 14q21 0 34.5 -14t13.5 -34q0 -21 -13.5 -35t-34.5 -14zM362 585q-20 0 -33.5 14t-13.5 35q0 20 13.5 34t33.5 14q21 0 34.5 -14t13.5 -34q0 -21 -13.5 -35t-34.5 -14zM137 221q7 -170 170 -170q53 0 95.5 18.5
t60.5 36.5l18 -63q-25 -21 -74.5 -38t-109.5 -17q-113 0 -173.5 66.5t-60.5 188.5q0 110 59.5 178.5t159.5 68.5q102 0 155.5 -65t53.5 -165v-39h-354zM284 427q-60 0 -98.5 -36t-47.5 -113h280q-4 76 -40 112.5t-94 36.5z" />
    <glyph glyph-name="igrave" unicode="&#xec;" horiz-adv-x="222" 
d="M38 714l-80 -7l104 -157h66zM123 60v420h-72v-422q0 -37 16.5 -51.5t55.5 -14.5t66 5l2 57q-43 0 -68 6z" />
    <glyph glyph-name="iacute" unicode="&#xed;" horiz-adv-x="222" 
d="M142 714l-90 -164h66l104 157zM123 60v420h-72v-422q0 -37 16.5 -51.5t55.5 -14.5t66 5l2 57q-43 0 -68 6z" />
    <glyph glyph-name="icircumflex" unicode="&#xee;" horiz-adv-x="222" 
d="M172 562l-85 111l-85 -111l-65 2l117 155h66l117 -155zM123 480v-420q25 -6 68 -6l-2 -57q-27 -5 -66 -5t-55.5 14.5t-16.5 51.5v422h72z" />
    <glyph glyph-name="idieresis" unicode="&#xef;" horiz-adv-x="222" 
d="M7 585q21 0 34.5 14t13.5 35q0 20 -13.5 34t-34.5 14q-20 0 -33.5 -14t-13.5 -34q0 -21 13.5 -35t33.5 -14zM167 585q21 0 34.5 14t13.5 35q0 20 -13.5 34t-34.5 14q-20 0 -33.5 -14t-13.5 -34q0 -21 13.5 -35t33.5 -14zM123 60v420h-72v-422q0 -37 16.5 -51.5
t55.5 -14.5t66 5l2 57q-43 0 -68 6z" />
    <glyph glyph-name="eth" unicode="&#xf0;" 
d="M417 615q124 -125 124 -376q0 -126 -65.5 -188.5t-173.5 -62.5t-173.5 62.5t-65.5 177.5q0 118 65.5 180t173.5 62q78 0 143 -50q-30 105 -96 166l-178 -78l-9 55l137 59q-72 40 -169 40l10 58q138 0 232 -66l126 55l9 -55zM302 51q78 0 121.5 44.5t43.5 132.5
t-43.5 133.5t-121.5 45.5t-122 -45.5t-44 -133.5t44 -132.5t122 -44.5z" />
    <glyph glyph-name="ntilde" unicode="&#xf1;" horiz-adv-x="615" 
d="M230 639q-41 0 -47 -61l-47 5q4 53 27.5 82t63.5 29q33 0 80.5 -21.5t72.5 -21.5q20 0 30.5 13.5t14.5 48.5l47 -6q-8 -111 -91 -111q-32 0 -80.5 21.5t-70.5 21.5zM516 60q24 -6 67 -6l-2 -57q-25 -5 -63 -5q-43 0 -58.5 13t-15.5 52v225q0 143 -129 143
q-65 0 -109 -43.5t-44 -99.5v-282h-72v416q-21 7 -59 7l2 57q32 8 46 8q82 0 83 -86q57 88 171 88q92 0 137.5 -52t45.5 -147v-231z" />
    <glyph glyph-name="ograve" unicode="&#xf2;" 
d="M252 714l-80 -7l104 -157h66zM63 238q0 -117 66 -183.5t173 -66.5q106 0 172.5 66.5t66.5 183.5q0 118 -66.5 185t-172.5 67q-107 0 -173 -66.5t-66 -185.5zM136 238q0 90 44.5 139.5t121.5 49.5t121 -49.5t44 -139.5t-44 -138.5t-121 -48.5t-121.5 48.5t-44.5 138.5z
" />
    <glyph glyph-name="oacute" unicode="&#xf3;" 
d="M357 714l-90 -164h66l104 157zM63 238q0 -117 66 -183.5t173 -66.5q106 0 172.5 66.5t66.5 183.5q0 118 -66.5 185t-172.5 67q-107 0 -173 -66.5t-66 -185.5zM136 238q0 90 44.5 139.5t121.5 49.5t121 -49.5t44 -139.5t-44 -138.5t-121 -48.5t-121.5 48.5t-44.5 138.5z
" />
    <glyph glyph-name="ocircumflex" unicode="&#xf4;" 
d="M302 673l-85 -111l-65 2l117 155h66l117 -155l-65 -2zM302 490q106 0 172.5 -67t66.5 -185q0 -117 -66.5 -183.5t-172.5 -66.5q-107 0 -173 66.5t-66 183.5q0 119 66 185.5t173 66.5zM302 51q77 0 121 48.5t44 138.5t-44 139.5t-121 49.5t-121.5 -49.5t-44.5 -139.5
t44.5 -138.5t121.5 -48.5z" />
    <glyph glyph-name="otilde" unicode="&#xf5;" 
d="M461 707q-8 -111 -91 -111q-32 0 -80.5 21.5t-70.5 21.5q-41 0 -47 -61l-47 5q4 53 27.5 82t63.5 29q33 0 80.5 -21.5t72.5 -21.5q20 0 30.5 13.5t14.5 48.5zM63 238q0 -117 66 -183.5t173 -66.5q106 0 172.5 66.5t66.5 183.5q0 118 -66.5 185t-172.5 67
q-107 0 -173 -66.5t-66 -185.5zM136 238q0 90 44.5 139.5t121.5 49.5t121 -49.5t44 -139.5t-44 -138.5t-121 -48.5t-121.5 48.5t-44.5 138.5z" />
    <glyph glyph-name="odieresis" unicode="&#xf6;" 
d="M221 585q21 0 34.5 14t13.5 35q0 20 -13.5 34t-34.5 14q-20 0 -33.5 -14t-13.5 -34q0 -21 13.5 -35t33.5 -14zM381 585q21 0 34.5 14t13.5 35q0 20 -13.5 34t-34.5 14q-20 0 -33.5 -14t-13.5 -34q0 -21 13.5 -35t33.5 -14zM63 238q0 -117 66 -183.5t173 -66.5
q106 0 172.5 66.5t66.5 183.5q0 118 -66.5 185t-172.5 67q-107 0 -173 -66.5t-66 -185.5zM136 238q0 90 44.5 139.5t121.5 49.5t121 -49.5t44 -139.5t-44 -138.5t-121 -48.5t-121.5 48.5t-44.5 138.5z" />
    <glyph glyph-name="divide" unicode="&#xf7;" horiz-adv-x="597" 
d="M299 420q25 0 41.5 17t16.5 42t-16.5 41.5t-41.5 16.5t-42 -16.5t-17 -41.5t17 -42t42 -17zM515 347h-432v-60h432v60zM299 97q25 0 41.5 16.5t16.5 41.5t-16.5 42t-41.5 17t-42 -17t-17 -42t17 -41.5t42 -16.5z" />
    <glyph glyph-name="oslash" unicode="&#xf8;" 
d="M458 438q83 -69 83 -200q0 -117 -66.5 -183.5t-172.5 -66.5q-60 0 -111 23l-32 -52l-60 7l46 74q-82 68 -82 198q0 119 66 185.5t173 66.5q61 0 110 -23l33 52l59 -7zM136 238q0 -89 46 -140l195 313q-32 16 -75 16q-77 0 -121.5 -49.5t-44.5 -139.5zM302 51
q77 0 121 48.5t44 138.5q0 92 -46 141l-195 -313q33 -15 76 -15z" />
    <glyph glyph-name="ugrave" unicode="&#xf9;" horiz-adv-x="606" 
d="M339 550h-66l-104 157l80 7zM507 60q24 -6 68 -6l-2 -57q-33 -5 -54 -5q-43 0 -63.5 20t-20.5 72q-61 -96 -186 -96q-82 0 -120.5 43.5t-38.5 149.5v235q-21 7 -59 7l2 57q30 6 54 6q41 0 58 -16.5t17 -58.5v-219q0 -76 25.5 -107.5t85.5 -31.5q75 0 118.5 49t43.5 114
v264h72v-420z" />
    <glyph glyph-name="uacute" unicode="&#xfa;" horiz-adv-x="606" 
d="M434 707l-104 -157h-66l90 164zM507 60q24 -6 68 -6l-2 -57q-33 -5 -54 -5q-43 0 -63.5 20t-20.5 72q-61 -96 -186 -96q-82 0 -120.5 43.5t-38.5 149.5v235q-21 7 -59 7l2 57q30 6 54 6q41 0 58 -16.5t17 -58.5v-219q0 -76 25.5 -107.5t85.5 -31.5q75 0 118.5 49
t43.5 114v264h72v-420z" />
    <glyph glyph-name="ucircumflex" unicode="&#xfb;" horiz-adv-x="606" 
d="M299 673l-85 -111l-65 2l117 155h66l117 -155l-65 -2zM507 60q24 -6 68 -6l-2 -57q-33 -5 -54 -5q-43 0 -63.5 20t-20.5 72q-61 -96 -186 -96q-82 0 -120.5 43.5t-38.5 149.5v235q-21 7 -59 7l2 57q30 6 54 6q41 0 58 -16.5t17 -58.5v-219q0 -76 25.5 -107.5t85.5 -31.5
q75 0 118.5 49t43.5 114v264h72v-420z" />
    <glyph glyph-name="udieresis" unicode="&#xfc;" horiz-adv-x="606" 
d="M218 585q-20 0 -33.5 14t-13.5 35q0 20 13.5 34t33.5 14q21 0 34.5 -14t13.5 -34q0 -21 -13.5 -35t-34.5 -14zM378 585q-20 0 -33.5 14t-13.5 35q0 20 13.5 34t33.5 14q21 0 34.5 -14t13.5 -34q0 -21 -13.5 -35t-34.5 -14zM507 60q24 -6 68 -6l-2 -57q-33 -5 -54 -5
q-43 0 -63.5 20t-20.5 72q-61 -96 -186 -96q-82 0 -120.5 43.5t-38.5 149.5v235q-21 7 -59 7l2 57q30 6 54 6q41 0 58 -16.5t17 -58.5v-219q0 -76 25.5 -107.5t85.5 -31.5q75 0 118.5 49t43.5 114v264h72v-420z" />
    <glyph glyph-name="yacute" unicode="&#xfd;" horiz-adv-x="523" 
d="M403 707l-104 -157h-66l90 164zM435 486l79 -8l-241 -566q-24 -55 -60 -78.5t-94 -23.5q-37 0 -65 10l-7 65q38 -12 68 -12q37 0 59.5 11.5t33.5 40.5l29 72l-180 420q-24 6 -51 6l2 57q21 6 44 6q29 0 46 -11.5t28 -39.5l147 -351z" />
    <glyph glyph-name="thorn" unicode="&#xfe;" horiz-adv-x="579" 
d="M299 490q98 0 157.5 -64t59.5 -179q0 -125 -64.5 -192t-185.5 -67q-68 0 -121 24v-192h-72v890h72v-292q50 72 154 72zM263 51q85 0 132 47t47 145q0 91 -40 137.5t-111 46.5q-63 0 -104.5 -38.5t-41.5 -94.5v-215q58 -28 118 -28z" />
    <glyph glyph-name="ydieresis" unicode="&#xff;" horiz-adv-x="523" 
d="M188 585q-20 0 -33.5 14t-13.5 35q0 20 13.5 34t33.5 14q21 0 34.5 -14t13.5 -34q0 -21 -13.5 -35t-34.5 -14zM348 585q-20 0 -33.5 14t-13.5 35q0 20 13.5 34t33.5 14q21 0 34.5 -14t13.5 -34q0 -21 -13.5 -35t-34.5 -14zM435 486l79 -8l-241 -566q-24 -55 -60 -78.5
t-94 -23.5q-37 0 -65 10l-7 65q38 -12 68 -12q37 0 59.5 11.5t33.5 40.5l29 72l-180 420q-24 6 -51 6l2 57q21 6 44 6q29 0 46 -11.5t28 -39.5l147 -351z" />
    <glyph glyph-name="Amacron" unicode="&#x100;" horiz-adv-x="714" 
d="M473 817v-58h-277v58h277zM628 64q28 -8 70 -8l-2 -59q-18 -5 -54 -5q-33 0 -51.5 10t-29.5 39l-60 158h-338l-76 -199h-77l279 705l85 14zM188 262h289l-145 380z" />
    <glyph glyph-name="amacron" unicode="&#x101;" horiz-adv-x="567" 
d="M415 657v-58h-297v58h297zM468 60q26 -6 68 -6l-2 -57q-35 -5 -59 -5q-41 0 -59 21t-18 63v4q-59 -92 -183 -92q-74 0 -117.5 39t-43.5 104q0 70 51.5 110.5t155.5 40.5q78 0 137 -16v38q0 125 -130 125q-112 0 -126 -92l-72 13q28 140 198 140q97 0 148.5 -47.5
t51.5 -137.5v-245zM232 46q68 0 117 45t49 107v14q-62 16 -131 16q-141 0 -141 -95q0 -87 106 -87z" />
    <glyph glyph-name="Abreve" unicode="&#x102;" horiz-adv-x="714" 
d="M334 737q-111 0 -119 114l47 5q4 -39 21.5 -55.5t50.5 -16.5t50.5 16.5t21.5 55.5l48 -5q-8 -114 -120 -114zM628 64q28 -8 70 -8l-2 -59q-18 -5 -54 -5q-33 0 -51.5 10t-29.5 39l-60 158h-338l-76 -199h-77l279 705l85 14zM188 262h289l-145 380z" />
    <glyph glyph-name="abreve" unicode="&#x103;" horiz-adv-x="567" 
d="M266 555q-132 0 -138 147l54 4q4 -52 25 -74t59 -22t59 21.5t26 74.5l54 -4q-7 -147 -139 -147zM468 60q26 -6 68 -6l-2 -57q-35 -5 -59 -5q-41 0 -59 21t-18 63v4q-59 -92 -183 -92q-74 0 -117.5 39t-43.5 104q0 70 51.5 110.5t155.5 40.5q78 0 137 -16v38
q0 125 -130 125q-112 0 -126 -92l-72 13q28 140 198 140q97 0 148.5 -47.5t51.5 -137.5v-245zM232 46q68 0 117 45t49 107v14q-62 16 -131 16q-141 0 -141 -95q0 -87 106 -87z" />
    <glyph glyph-name="Aogonek" unicode="&#x104;" horiz-adv-x="714" 
d="M697 -3q-98 -49 -98 -104q0 -35 40 -35q22 0 47 10l4 -52q-29 -12 -70 -12q-89 0 -89 71q0 73 93 118q-46 3 -63 48l-60 158h-338l-76 -199h-77l279 705l85 14l254 -655q28 -8 70 -8l-2 -59h1zM188 262h289l-145 380z" />
    <glyph glyph-name="aogonek" unicode="&#x105;" horiz-adv-x="567" 
d="M436 -107q0 -35 40 -35q22 0 47 10l4 -52q-29 -12 -70 -12q-89 0 -89 71q0 75 94 118q-64 6 -64 83v4q-59 -92 -183 -92q-74 0 -117.5 39t-43.5 104q0 70 51.5 110.5t155.5 40.5q78 0 137 -16v38q0 125 -130 125q-112 0 -126 -92l-72 13q28 140 198 140q97 0 148.5 -47.5
t51.5 -137.5v-245q26 -6 68 -6l-2 -57zM232 46q68 0 117 45t49 107v14q-62 16 -131 16q-141 0 -141 -95q0 -87 106 -87z" />
    <glyph glyph-name="Cacute" unicode="&#x106;" horiz-adv-x="698" 
d="M416 853l-70 -111l66 -4l82 104zM416 56q-128 0 -202.5 78t-74.5 218q0 148 66.5 224.5t176.5 76.5q195 0 201 -162l74 9q0 98 -70.5 159t-203.5 61q-144 0 -233 -97t-89 -273q0 -171 94 -266.5t252 -95.5q159 0 243 64l-17 69q-92 -65 -217 -65z" />
    <glyph glyph-name="cacute" unicode="&#x107;" horiz-adv-x="545" 
d="M346 714l-90 -164h66l104 157zM470 116q-73 -65 -169 -65q-76 0 -120.5 47.5t-44.5 141.5q0 88 42.5 137.5t113.5 49.5q113 0 118 -112l70 9q-1 74 -48 120t-139 46q-109 0 -169.5 -69t-60.5 -182q0 -125 62.5 -188t173.5 -63q122 0 187 63z" />
    <glyph glyph-name="Cdotaccent" unicode="&#x10a;" horiz-adv-x="698" 
d="M383 759q22 0 36 14.5t14 35.5t-14 35.5t-36 14.5t-36 -14.5t-14 -35.5t14 -35.5t36 -14.5zM416 56q-128 0 -202.5 78t-74.5 218q0 148 66.5 224.5t176.5 76.5q195 0 201 -162l74 9q0 98 -70.5 159t-203.5 61q-144 0 -233 -97t-89 -273q0 -171 94 -266.5t252 -95.5
q159 0 243 64l-17 69q-92 -65 -217 -65z" />
    <glyph glyph-name="cdotaccent" unicode="&#x10b;" horiz-adv-x="545" 
d="M291 584q22 0 37.5 15.5t15.5 38.5q0 22 -15.5 37.5t-37.5 15.5t-37.5 -15.5t-15.5 -37.5q0 -23 15.5 -38.5t37.5 -15.5zM470 116q-73 -65 -169 -65q-76 0 -120.5 47.5t-44.5 141.5q0 88 42.5 137.5t113.5 49.5q113 0 118 -112l70 9q-1 74 -48 120t-139 46
q-109 0 -169.5 -69t-60.5 -182q0 -125 62.5 -188t173.5 -63q122 0 187 63z" />
    <glyph glyph-name="Ccaron" unicode="&#x10c;" horiz-adv-x="698" 
d="M416 740h-66l-99 103l63 9l69 -74l69 74l63 -9zM416 56q125 0 217 65l17 -69q-84 -64 -243 -64q-158 0 -252 95.5t-94 266.5q0 176 89 273t233 97q133 0 203.5 -61t70.5 -159l-74 -9q-6 162 -201 162q-110 0 -176.5 -76.5t-66.5 -224.5q0 -140 74.5 -218t202.5 -78z" />
    <glyph glyph-name="ccaron" unicode="&#x10d;" horiz-adv-x="545" 
d="M324 555h-66l-117 155l65 2l85 -111l85 111l65 -2zM470 116l16 -65q-65 -63 -187 -63q-111 0 -173.5 63t-62.5 188q0 113 60.5 182t169.5 69q92 0 139 -46t48 -120l-70 -9q-5 112 -118 112q-71 0 -113.5 -49.5t-42.5 -137.5q0 -94 44.5 -141.5t120.5 -47.5q96 0 169 65z
" />
    <glyph glyph-name="Dcaron" unicode="&#x10e;" horiz-adv-x="760" 
d="M358 740h-66l-99 103l63 9l69 -74l69 74l63 -9zM325 720q178 0 276 -101.5t98 -264.5q0 -161 -98.5 -257.5t-275.5 -96.5h-212v642h-84v61q59 11 82 11q41 0 60 -21q71 27 154 27zM326 68q146 0 220.5 77.5t74.5 208.5q0 132 -75 215t-221 83q-59 0 -136 -11v-573h137z
" />
    <glyph glyph-name="dcaron" unicode="&#x10f;" horiz-adv-x="587" 
d="M574 715l70 -5l-33 -189l-65 6zM505 710v-650q27 -6 71 -6l-2 -57q-35 -5 -65 -5q-34 0 -53.5 17.5t-22.5 63.5q-57 -85 -168 -85q-90 0 -146 64t-56 182t63 187t166 69q83 0 141 -35v255h72zM279 51q64 0 109 42t45 98v193q-52 43 -137 43q-73 0 -116.5 -52t-43.5 -141
q0 -94 40.5 -138.5t102.5 -44.5z" />
    <glyph glyph-name="Dcroat" unicode="&#x110;" horiz-adv-x="760" 
d="M325 720q178 0 276 -101.5t98 -264.5q0 -161 -98.5 -257.5t-275.5 -96.5h-212v318h-84v64h84v260h-84v61q59 11 82 11q41 0 60 -21q71 27 154 27zM326 68q146 0 220.5 77.5t74.5 208.5q0 132 -75 215t-221 83q-59 0 -136 -11v-259h129v-64h-129v-250h137z" />
    <glyph glyph-name="dcroat" unicode="&#x111;" horiz-adv-x="597" 
d="M576 559h-71v-499q27 -6 71 -6l-2 -57q-35 -5 -65 -5q-34 0 -53.5 17.5t-22.5 63.5q-57 -85 -168 -85q-90 0 -146 64t-56 182t63 187t166 69q83 0 141 -35v104h-175v54h175v97h72v-97h71v-54zM279 51q64 0 109 42t45 98v193q-52 43 -137 43q-73 0 -116.5 -52t-43.5 -141
q0 -94 40.5 -138.5t102.5 -44.5z" />
    <glyph glyph-name="Emacron" unicode="&#x112;" horiz-adv-x="569" 
d="M457 817v-58h-277v58h277zM167 324v-257h370v-67h-446v710h446l-5 -67h-365v-254h340v-65h-340z" />
    <glyph glyph-name="emacron" unicode="&#x113;" horiz-adv-x="553" 
d="M431 657v-58h-297v58h297zM137 221q7 -170 170 -170q53 0 95.5 18.5t60.5 36.5l18 -63q-25 -21 -74.5 -38t-109.5 -17q-113 0 -173.5 66.5t-60.5 188.5q0 110 59.5 178.5t159.5 68.5q102 0 155.5 -65t53.5 -165v-39h-354zM284 427q-60 0 -98.5 -36t-47.5 -113h280
q-4 76 -40 112.5t-94 36.5z" />
    <glyph glyph-name="Edotaccent" unicode="&#x116;" horiz-adv-x="569" 
d="M319 759q-22 0 -36 14.5t-14 35.5t14 35.5t36 14.5t36 -14.5t14 -35.5t-14 -35.5t-36 -14.5zM167 324v-257h370v-67h-446v710h446l-5 -67h-365v-254h340v-65h-340z" />
    <glyph glyph-name="edotaccent" unicode="&#x117;" horiz-adv-x="553" 
d="M282 584q-22 0 -37.5 15.5t-15.5 38.5q0 22 15.5 37.5t37.5 15.5t37.5 -15.5t15.5 -37.5q0 -23 -15.5 -38.5t-37.5 -15.5zM137 221q7 -170 170 -170q53 0 95.5 18.5t60.5 36.5l18 -63q-25 -21 -74.5 -38t-109.5 -17q-113 0 -173.5 66.5t-60.5 188.5q0 110 59.5 178.5
t159.5 68.5q102 0 155.5 -65t53.5 -165v-39h-354zM284 427q-60 0 -98.5 -36t-47.5 -113h280q-4 76 -40 112.5t-94 36.5z" />
    <glyph glyph-name="Eogonek" unicode="&#x118;" horiz-adv-x="569" 
d="M480 -139q22 0 47 10l4 -52q-29 -12 -70 -12q-89 0 -89 71q0 42 30 73t73 49h-384v710h446l-5 -67h-365v-254h340v-65h-340v-257h370v-67h1q-98 -49 -98 -104q0 -35 40 -35z" />
    <glyph glyph-name="eogonek" unicode="&#x119;" horiz-adv-x="553" 
d="M137 221q7 -170 170 -170q53 0 95.5 18.5t60.5 36.5l18 -63q-18 -14 -46 -27h1q-98 -49 -98 -104q0 -35 40 -35q22 0 47 10l4 -52q-29 -12 -70 -12q-89 0 -89 71q0 56 55 95q-9 -1 -28 -1q-113 0 -173.5 66.5t-60.5 188.5q0 110 59.5 178.5t159.5 68.5q102 0 155.5 -65
t53.5 -165v-39h-354zM284 427q-60 0 -98.5 -36t-47.5 -113h280q-4 76 -40 112.5t-94 36.5z" />
    <glyph glyph-name="Ecaron" unicode="&#x11a;" horiz-adv-x="569" 
d="M352 740h-66l-99 103l63 9l69 -74l69 74l63 -9zM167 324v-257h370v-67h-446v710h446l-5 -67h-365v-254h340v-65h-340z" />
    <glyph glyph-name="ecaron" unicode="&#x11b;" horiz-adv-x="553" 
d="M315 555h-66l-117 155l65 2l85 -111l85 111l65 -2zM137 221q7 -170 170 -170q53 0 95.5 18.5t60.5 36.5l18 -63q-25 -21 -74.5 -38t-109.5 -17q-113 0 -173.5 66.5t-60.5 188.5q0 110 59.5 178.5t159.5 68.5q102 0 155.5 -65t53.5 -165v-39h-354zM284 427
q-60 0 -98.5 -36t-47.5 -113h280q-4 76 -40 112.5t-94 36.5z" />
    <glyph glyph-name="Gbreve" unicode="&#x11e;" horiz-adv-x="779" 
d="M390 737q-111 0 -119 114l47 5q4 -39 21.5 -55.5t50.5 -16.5t50.5 16.5t21.5 55.5l48 -5q-8 -114 -120 -114zM668 373q40 0 40 -38v-335h-58l-4 106q-75 -118 -250 -118q-154 0 -244.5 97.5t-90.5 268.5q0 177 93.5 271.5t251.5 94.5q119 0 188.5 -51.5t80.5 -145.5
l-74 -13q-8 67 -59 105t-136 38q-126 0 -196.5 -78t-70.5 -221q0 -140 71 -219.5t195 -79.5q103 0 168.5 53t65.5 156v48h-223v61h252z" />
    <glyph glyph-name="gbreve" unicode="&#x11f;" horiz-adv-x="531" 
d="M281 555q-132 0 -138 147l54 4q4 -52 25 -74t59 -22t59 21.5t26 74.5l54 -4q-7 -147 -139 -147zM381 88q69 0 103.5 -32.5t34.5 -85.5q0 -74 -61 -117t-180 -43q-225 0 -225 132q0 70 62 109q-36 27 -36 72q0 60 68 100q-53 41 -53 111q0 69 49.5 112.5t135.5 43.5
q59 0 101 -20q22 93 133 97l8 -67q-75 -3 -98 -59q42 -42 42 -104q0 -69 -48.5 -110.5t-137.5 -41.5q-53 0 -95 17q-42 -26 -42 -60q0 -54 70 -54h169zM279 436q-56 0 -85.5 -26.5t-29.5 -73.5q0 -97 115 -97q116 0 116 97q0 47 -30 73.5t-86 26.5zM284 -130q78 0 120.5 24
t42.5 65q0 69 -89 69h-166q-7 0 -21 2q-46 -29 -46 -76q0 -84 159 -84z" />
    <glyph glyph-name="Gdotaccent" unicode="&#x120;" horiz-adv-x="779" 
d="M390 759q-22 0 -36 14.5t-14 35.5t14 35.5t36 14.5t36 -14.5t14 -35.5t-14 -35.5t-36 -14.5zM668 373q40 0 40 -38v-335h-58l-4 106q-75 -118 -250 -118q-154 0 -244.5 97.5t-90.5 268.5q0 177 93.5 271.5t251.5 94.5q119 0 188.5 -51.5t80.5 -145.5l-74 -13
q-8 67 -59 105t-136 38q-126 0 -196.5 -78t-70.5 -221q0 -140 71 -219.5t195 -79.5q103 0 168.5 53t65.5 156v48h-223v61h252z" />
    <glyph glyph-name="gdotaccent" unicode="&#x121;" horiz-adv-x="531" 
d="M281 584q-22 0 -37.5 15.5t-15.5 38.5q0 22 15.5 37.5t37.5 15.5t37.5 -15.5t15.5 -37.5q0 -23 -15.5 -38.5t-37.5 -15.5zM381 88q69 0 103.5 -32.5t34.5 -85.5q0 -74 -61 -117t-180 -43q-225 0 -225 132q0 70 62 109q-36 27 -36 72q0 60 68 100q-53 41 -53 111
q0 69 49.5 112.5t135.5 43.5q59 0 101 -20q22 93 133 97l8 -67q-75 -3 -98 -59q42 -42 42 -104q0 -69 -48.5 -110.5t-137.5 -41.5q-53 0 -95 17q-42 -26 -42 -60q0 -54 70 -54h169zM279 436q-56 0 -85.5 -26.5t-29.5 -73.5q0 -97 115 -97q116 0 116 97q0 47 -30 73.5
t-86 26.5zM284 -130q78 0 120.5 24t42.5 65q0 69 -89 69h-166q-7 0 -21 2q-46 -29 -46 -76q0 -84 159 -84z" />
    <glyph glyph-name="Gcommaaccent" unicode="&#x122;" horiz-adv-x="779" 
d="M668 373q40 0 40 -38v-335h-58l-4 106q-75 -118 -250 -118q-154 0 -244.5 97.5t-90.5 268.5q0 177 93.5 271.5t251.5 94.5q119 0 188.5 -51.5t80.5 -145.5l-74 -13q-8 67 -59 105t-136 38q-126 0 -196.5 -78t-70.5 -221q0 -140 71 -219.5t195 -79.5q103 0 168.5 53
t65.5 156v48h-223v61h252zM401 -35q60 0 60 -66q0 -81 -92 -97l-7 35q46 11 46 48q-53 0 -53 38q0 19 12.5 30.5t33.5 11.5z" />
    <glyph glyph-name="gcommaaccent" unicode="&#x123;" horiz-adv-x="540" 
d="M294 577q-59 0 -59 66q0 81 92 97l7 -35q-46 -11 -46 -48q53 0 53 -38q0 -19 -12.5 -30.5t-34.5 -11.5zM381 88q69 0 103.5 -32.5t34.5 -85.5q0 -74 -61 -117t-180 -43q-225 0 -225 132q0 70 62 109q-36 27 -36 72q0 60 68 100q-53 41 -53 111q0 69 49.5 112.5
t135.5 43.5q59 0 101 -20q22 93 133 97l8 -67q-75 -3 -98 -59q42 -42 42 -104q0 -69 -48.5 -110.5t-137.5 -41.5q-53 0 -95 17q-42 -26 -42 -60q0 -54 70 -54h169zM279 436q-56 0 -85.5 -26.5t-29.5 -73.5q0 -97 115 -97q116 0 116 97q0 47 -30 73.5t-86 26.5zM284 -130
q78 0 120.5 24t42.5 65q0 69 -89 69h-166q-7 0 -21 2q-46 -29 -46 -76q0 -84 159 -84z" />
    <glyph glyph-name="Hbar" unicode="&#x126;" horiz-adv-x="756" 
d="M733 559h-80v-496q37 -7 73 -7l-2 -59q-23 -5 -59 -5q-42 0 -65 15t-23 55v250h-410v-312h-76v559h-80v54h80v97h76v-97h410v97h76v-97h80v-54zM577 382v177h-410v-177h410z" />
    <glyph glyph-name="hbar" unicode="&#x127;" horiz-adv-x="597" 
d="M498 60q26 -6 68 -6l-2 -57q-27 -5 -63 -5q-44 0 -59.5 13t-15.5 52v225q0 143 -128 143q-65 0 -109 -43.5t-44 -99.5v-282h-72v559h-73v54h73v97h72v-97h172v-54h-172v-157q57 88 171 88q91 0 136.5 -52t45.5 -147v-231z" />
    <glyph glyph-name="Itilde" unicode="&#x128;" horiz-adv-x="258" 
d="M261 847q-3 -46 -20.5 -68t-53.5 -22q-23 0 -58.5 11t-50.5 11q-32 0 -35 -43l-45 5q6 91 73 91q23 0 59 -11.5t50 -11.5q32 0 35 44zM91 710v-710h76v710h-76z" />
    <glyph glyph-name="itilde" unicode="&#x129;" horiz-adv-x="222" 
d="M247 707q-8 -111 -91 -111q-32 0 -80.5 21.5t-70.5 21.5q-41 0 -47 -61l-47 5q4 53 27.5 82t63.5 29q33 0 80.5 -21.5t72.5 -21.5q20 0 30.5 13.5t14.5 48.5zM123 60v420h-72v-422q0 -37 16.5 -51.5t55.5 -14.5t66 5l2 57q-43 0 -68 6z" />
    <glyph glyph-name="Imacron" unicode="&#x12a;" horiz-adv-x="258" 
d="M33 817v-58h191v58h-191zM91 710v-710h76v710h-76z" />
    <glyph glyph-name="imacron" unicode="&#x12b;" horiz-adv-x="222" 
d="M-29 657v-58h234v58h-234zM123 60v420h-72v-422q0 -37 16.5 -51.5t55.5 -14.5t66 5l2 57q-43 0 -68 6z" />
    <glyph glyph-name="Iogonek" unicode="&#x12e;" horiz-adv-x="258" 
d="M110 -139q22 0 47 10l4 -52q-29 -12 -70 -12q-89 0 -89 71q0 42 30 73t73 49h-14v710h76v-710h1q-98 -49 -98 -104q0 -35 40 -35z" />
    <glyph glyph-name="iogonek" unicode="&#x12f;" horiz-adv-x="222" 
d="M88 584q-22 0 -37.5 15.5t-15.5 38.5q0 22 15.5 37.5t37.5 15.5t37.5 -15.5t15.5 -37.5q0 -23 -15.5 -38.5t-37.5 -15.5zM189 -3q-98 -49 -98 -104q0 -35 40 -35q22 0 47 10l4 -52q-29 -12 -70 -12q-89 0 -89 71q0 75 93 117q-35 2 -50 16.5t-15 49.5v422h72v-420
q25 -6 68 -6z" />
    <glyph glyph-name="Idotaccent" unicode="&#x130;" horiz-adv-x="258" 
d="M129 759q22 0 36 14.5t14 35.5t-14 35.5t-36 14.5t-36 -14.5t-14 -35.5t14 -35.5t36 -14.5zM91 710v-710h76v710h-76z" />
    <glyph glyph-name="dotlessi" unicode="&#x131;" horiz-adv-x="222" 
d="M123 60v420h-72v-422q0 -37 16.5 -51.5t55.5 -14.5t66 5l2 57q-43 0 -68 6z" />
    <glyph glyph-name="IJ" unicode="&#x132;" horiz-adv-x="658" 
d="M91 710v-710h76v710h-76zM567 710h-76v-521q0 -73 -30.5 -103.5t-99.5 -30.5q-67 0 -136 28l-7 -67q56 -28 147 -28q101 0 151.5 45.5t50.5 151.5v525z" />
    <glyph glyph-name="ij" unicode="&#x133;" horiz-adv-x="442" 
d="M88 584q22 0 37.5 15.5t15.5 38.5q0 22 -15.5 37.5t-37.5 15.5t-37.5 -15.5t-15.5 -37.5q0 -23 15.5 -38.5t37.5 -15.5zM335 584q22 0 37.5 15.5t15.5 38.5q0 22 -15.5 37.5t-37.5 15.5t-37.5 -15.5t-15.5 -37.5q0 -23 15.5 -38.5t37.5 -15.5zM123 60v420h-72v-422
q0 -37 16.5 -51.5t55.5 -14.5t66 5l2 57q-43 0 -68 6zM370 480h-72v-550q0 -30 -12 -42.5t-40 -12.5q-22 0 -50 10l-4 -63q30 -12 68 -12q56 0 83 26.5t27 87.5v556z" />
    <glyph glyph-name="Kcommaaccent" unicode="&#x136;" horiz-adv-x="638" 
d="M524 95q20 -26 36.5 -32.5t68.5 -6.5l-2 -59q-25 -5 -52 -5q-38 0 -60 10.5t-46 44.5l-189 265h-113v-312h-76v710h76v-328h113l260 335l81 -12l-284 -355zM302 -35q60 0 60 -66q0 -81 -92 -97l-7 35q46 11 46 48q-53 0 -53 38q0 19 12.5 30.5t33.5 11.5z" />
    <glyph glyph-name="kcommaaccent" unicode="&#x137;" horiz-adv-x="502" 
d="M418 65q18 -11 74 -11l-2 -57q-23 -5 -55 -5q-53 0 -76 37l-131 204l-83 -82v-151h-72v710h72v-475l250 251l81 -6l-198 -197zM245 -35q60 0 60 -66q0 -81 -92 -97l-7 35q46 11 46 48q-53 0 -53 38q0 19 12.5 30.5t33.5 11.5z" />
    <glyph glyph-name="kgreenlandic" unicode="&#x138;" horiz-adv-x="507" 
d="M418 65q18 -11 74 -11l-2 -57q-23 -5 -55 -5q-53 0 -76 37l-132 206l-82 -84v-151h-72v484h72v-247l240 249l81 -6l-189 -194z" />
    <glyph glyph-name="Lacute" unicode="&#x139;" horiz-adv-x="543" 
d="M246 842l-82 -104l-66 4l70 111zM167 70h368v-70h-444v710h76v-640z" />
    <glyph glyph-name="lacute" unicode="&#x13a;" horiz-adv-x="249" 
d="M141 853l-70 -111l66 -4l82 104zM73 710v-644q0 -42 19.5 -58t65.5 -16q32 0 68 4l2 57q-59 0 -83 7v650h-72z" />
    <glyph glyph-name="Lcommaaccent" unicode="&#x13b;" horiz-adv-x="543" 
d="M167 70h368v-70h-444v710h76v-640zM305 -35q60 0 60 -66q0 -81 -92 -97l-7 35q46 11 46 48q-53 0 -53 38q0 19 12.5 30.5t33.5 11.5z" />
    <glyph glyph-name="lcommaaccent" unicode="&#x13c;" horiz-adv-x="249" 
d="M73 710v-644q0 -42 19.5 -58t65.5 -16q32 0 68 4l2 57q-59 0 -83 7v650h-72zM186 -101q0 -81 -92 -97l-7 35q46 11 46 48q-53 0 -53 38q0 19 12.5 30.5t33.5 11.5q60 0 60 -66z" />
    <glyph glyph-name="Lcaron" unicode="&#x13d;" horiz-adv-x="543" 
d="M429 710l-34 -189l-64 6l28 188zM167 70h368v-70h-444v710h76v-640z" />
    <glyph glyph-name="lcaron" unicode="&#x13e;" horiz-adv-x="236" 
d="M294 710l-71 5l-28 -188l65 -6zM73 710v-644q0 -42 19.5 -58t65.5 -16q32 0 68 4l2 57q-59 0 -83 7v650h-72z" />
    <glyph glyph-name="Ldot" unicode="&#x13f;" horiz-adv-x="543" 
d="M167 70h368v-70h-444v710h76v-640zM410 242q-26 0 -44 18t-18 44t18 44t44 18t44 -18t18 -44t-18 -44t-44 -18z" />
    <glyph glyph-name="ldot" unicode="&#x140;" horiz-adv-x="393" 
d="M73 710v-644q0 -42 19.5 -58t65.5 -16q32 0 68 4l2 57q-59 0 -83 7v650h-72zM295 242q26 0 44 18t18 44t-18 44t-44 18t-44 -18t-18 -44t18 -44t44 -18z" />
    <glyph glyph-name="Lslash" unicode="&#x141;" horiz-adv-x="551" 
d="M167 70h368v-70h-444v307l-81 -27v63l81 27v340h76v-315l171 56v-63l-171 -56v-262z" />
    <glyph glyph-name="lslash" unicode="&#x142;" horiz-adv-x="262" 
d="M241 386l-88 -33v-293q25 -7 84 -7l-2 -57q-36 -4 -68 -4q-47 0 -66.5 16t-19.5 58v259l-71 -27v63l71 27v322h72v-294l88 33v-63z" />
    <glyph glyph-name="Nacute" unicode="&#x143;" horiz-adv-x="753" 
d="M496 842l-82 -104l-66 4l70 111zM588 710h74v-710h-69l-428 587v-587h-74v705l69 14l428 -591v582z" />
    <glyph glyph-name="nacute" unicode="&#x144;" horiz-adv-x="615" 
d="M448 707l-104 -157h-66l90 164zM516 60q24 -6 67 -6l-2 -57q-25 -5 -63 -5q-43 0 -58.5 13t-15.5 52v225q0 143 -129 143q-65 0 -109 -43.5t-44 -99.5v-282h-72v416q-21 7 -59 7l2 57q32 8 46 8q82 0 83 -86q57 88 171 88q92 0 137.5 -52t45.5 -147v-231z" />
    <glyph glyph-name="Ncommaaccent" unicode="&#x145;" horiz-adv-x="753" 
d="M588 710h74v-710h-69l-428 587v-587h-74v705l69 14l428 -591v582zM371 -35q60 0 60 -66q0 -81 -92 -97l-7 35q46 11 46 48q-53 0 -53 38q0 19 12.5 30.5t33.5 11.5z" />
    <glyph glyph-name="ncommaaccent" unicode="&#x146;" horiz-adv-x="615" 
d="M516 60q24 -6 67 -6l-2 -57q-25 -5 -63 -5q-43 0 -58.5 13t-15.5 52v225q0 143 -129 143q-65 0 -109 -43.5t-44 -99.5v-282h-72v416q-21 7 -59 7l2 57q32 8 46 8q82 0 83 -86q57 88 171 88q92 0 137.5 -52t45.5 -147v-231zM314 -35q60 0 60 -66q0 -81 -92 -97l-7 35
q46 11 46 48q-53 0 -53 38q0 19 12.5 30.5t33.5 11.5z" />
    <glyph glyph-name="Ncaron" unicode="&#x147;" horiz-adv-x="753" 
d="M419 740h-66l-99 103l63 9l69 -74l69 74l63 -9zM588 710h74v-710h-69l-428 587v-587h-74v705l69 14l428 -591v582z" />
    <glyph glyph-name="ncaron" unicode="&#x148;" horiz-adv-x="615" 
d="M346 555h-66l-117 155l65 2l85 -111l85 111l65 -2zM516 60q24 -6 67 -6l-2 -57q-25 -5 -63 -5q-43 0 -58.5 13t-15.5 52v225q0 143 -129 143q-65 0 -109 -43.5t-44 -99.5v-282h-72v416q-21 7 -59 7l2 57q32 8 46 8q82 0 83 -86q57 88 171 88q92 0 137.5 -52t45.5 -147
v-231z" />
    <glyph glyph-name="Eng" unicode="&#x14a;" horiz-adv-x="753" 
d="M588 710h74v-776q0 -68 -27 -96t-84 -28q-40 0 -67 12l3 63q23 -10 50 -10q28 0 40.5 14t12.5 51v65l-425 582v-587h-74v705l69 14l428 -591v582z" />
    <glyph glyph-name="eng" unicode="&#x14b;" horiz-adv-x="570" 
d="M333 490q92 0 137.5 -52t45.5 -147v-357q0 -68 -27 -96t-84 -28q-40 0 -67 12l3 63q23 -10 50 -10q28 0 40.5 14t12.5 51v342q0 143 -129 143q-65 0 -109 -43.5t-44 -99.5v-282h-72v416q-21 7 -59 7l2 57q32 8 46 8q82 0 83 -86q57 88 171 88z" />
    <glyph glyph-name="Omacron" unicode="&#x14c;" horiz-adv-x="796" 
d="M260 817v-58h277v58h-277zM398 -12q153 0 245 103t92 263t-92 263t-245 103t-245 -103t-92 -263t92 -263t245 -103zM398 56q-121 0 -190 81.5t-69 216.5t69.5 216.5t189.5 81.5q121 0 190 -81.5t69 -216.5t-69 -216.5t-190 -81.5z" />
    <glyph glyph-name="omacron" unicode="&#x14d;" 
d="M153 657v-58h297v58h-297zM63 238q0 -117 66 -183.5t173 -66.5q106 0 172.5 66.5t66.5 183.5q0 118 -66.5 185t-172.5 67q-107 0 -173 -66.5t-66 -185.5zM136 238q0 90 44.5 139.5t121.5 49.5t121 -49.5t44 -139.5t-44 -138.5t-121 -48.5t-121.5 48.5t-44.5 138.5z" />
    <glyph glyph-name="Ohungarumlaut" unicode="&#x150;" horiz-adv-x="796" 
d="M356 853l-70 -111l66 -4l82 104zM481 853l-70 -111l66 -4l82 104zM398 -12q153 0 245 103t92 263t-92 263t-245 103t-245 -103t-92 -263t92 -263t245 -103zM398 56q-121 0 -190 81.5t-69 216.5t69.5 216.5t189.5 81.5q121 0 190 -81.5t69 -216.5t-69 -216.5t-190 -81.5z
" />
    <glyph glyph-name="ohungarumlaut" unicode="&#x151;" 
d="M268 714l-90 -164h66l104 157zM404 714l-90 -164h66l104 157zM63 238q0 -117 66 -183.5t173 -66.5q106 0 172.5 66.5t66.5 183.5q0 118 -66.5 185t-172.5 67q-107 0 -173 -66.5t-66 -185.5zM136 238q0 90 44.5 139.5t121.5 49.5t121 -49.5t44 -139.5t-44 -138.5
t-121 -48.5t-121.5 48.5t-44.5 138.5z" />
    <glyph glyph-name="OE" unicode="&#x152;" horiz-adv-x="1153" 
d="M751 324v-257h370v-67h-446v133q-44 -68 -115 -106.5t-162 -38.5q-153 0 -245 103t-92 263t92 263t245 103q91 0 162 -38.5t115 -106.5v135h446l-5 -67h-365v-254h340v-65h-340zM398 56q121 0 190 81.5t69 216.5t-69 216.5t-190 81.5q-120 0 -189.5 -81.5t-69.5 -216.5
t69 -216.5t190 -81.5z" />
    <glyph glyph-name="oe" unicode="&#x153;" horiz-adv-x="958" 
d="M541 221q9 -170 170 -170q53 0 95.5 18.5t60.5 36.5l19 -63q-25 -21 -75 -38t-109 -17q-141 0 -200 102q-63 -102 -200 -102q-107 0 -173 66.5t-66 183.5q0 119 66 185.5t173 66.5q137 0 200 -102q60 102 185 102q101 0 154.5 -65t53.5 -165v-39h-354zM688 427
q-60 0 -98.5 -36.5t-46.5 -112.5h279q-4 76 -40 112.5t-94 36.5zM302 51q76 0 120 48t45 137v7v2q-1 87 -45.5 134.5t-119.5 47.5q-77 0 -121.5 -49.5t-44.5 -139.5t44.5 -138.5t121.5 -48.5z" />
    <glyph glyph-name="Racute" unicode="&#x154;" horiz-adv-x="663" 
d="M434 842l-82 -104l-66 4l70 111zM547 94q16 -24 33.5 -31t66.5 -7l-5 -59q-27 -5 -47 -5q-37 0 -62.5 13t-50.5 52l-148 235h-145v-292h-76v642h-84v61q59 11 82 11q40 0 61 -21q70 27 161 27q132 0 199 -58t67 -164q0 -87 -47.5 -138t-131.5 -64zM189 642v-1v-284h164
q82 0 126.5 33.5t44.5 111.5t-50.5 114.5t-155.5 36.5q-61 0 -129 -11z" />
    <glyph glyph-name="racute" unicode="&#x155;" horiz-adv-x="336" 
d="M320 707l-104 -157h-66l90 164zM283 490q22 0 43 -7l-4 -71q-14 4 -38 4q-52 0 -86 -50.5t-34 -112.5v-253h-72v416q-20 7 -61 7l2 57q28 8 51 8q32 0 54.5 -25.5t25.5 -71.5q45 99 119 99z" />
    <glyph glyph-name="Rcommaaccent" unicode="&#x156;" horiz-adv-x="663" 
d="M547 94q16 -24 33.5 -31t66.5 -7l-5 -59q-27 -5 -47 -5q-37 0 -62.5 13t-50.5 52l-148 235h-145v-292h-76v642h-84v61q59 11 82 11q40 0 61 -21q70 27 161 27q132 0 199 -58t67 -164q0 -87 -47.5 -138t-131.5 -64zM189 642v-1v-284h164q82 0 126.5 33.5t44.5 111.5
t-50.5 114.5t-155.5 36.5q-61 0 -129 -11zM330 -35q60 0 60 -66q0 -81 -92 -97l-7 35q46 11 46 48q-53 0 -53 38q0 19 12.5 30.5t33.5 11.5z" />
    <glyph glyph-name="rcommaaccent" unicode="&#x157;" horiz-adv-x="336" 
d="M283 490q22 0 43 -7l-4 -71q-14 4 -38 4q-52 0 -86 -50.5t-34 -112.5v-253h-72v416q-20 7 -61 7l2 57q28 8 51 8q32 0 54.5 -25.5t25.5 -71.5q45 99 119 99zM128 -35q60 0 60 -66q0 -81 -92 -97l-7 35q46 11 46 48q-53 0 -53 38q0 19 12.5 30.5t33.5 11.5z" />
    <glyph glyph-name="Rcaron" unicode="&#x158;" horiz-adv-x="663" 
d="M357 740h-66l-99 103l63 9l69 -74l69 74l63 -9zM547 94q16 -24 33.5 -31t66.5 -7l-5 -59q-27 -5 -47 -5q-37 0 -62.5 13t-50.5 52l-148 235h-145v-292h-76v642h-84v61q59 11 82 11q40 0 61 -21q70 27 161 27q132 0 199 -58t67 -164q0 -87 -47.5 -138t-131.5 -64zM189 642
v-1v-284h164q82 0 126.5 33.5t44.5 111.5t-50.5 114.5t-155.5 36.5q-61 0 -129 -11z" />
    <glyph glyph-name="rcaron" unicode="&#x159;" horiz-adv-x="336" 
d="M218 555h-66l-117 155l65 2l85 -111l85 111l65 -2zM164 391q45 99 119 99q22 0 43 -7l-4 -71q-14 4 -38 4q-52 0 -86 -50.5t-34 -112.5v-253h-72v416q-20 7 -61 7l2 57q28 8 51 8q32 0 54.5 -25.5t25.5 -71.5z" />
    <glyph glyph-name="Sacute" unicode="&#x15a;" 
d="M315 853l-70 -111l66 -4l82 104zM124 529q0 128 164 128q154 0 169 -112l72 14q-10 79 -67.5 120t-173.5 41q-115 0 -175.5 -51.5t-60.5 -147.5q0 -57 23.5 -96t61 -58t83 -31.5t91 -21.5t83 -22t61 -39.5t23.5 -68.5q0 -64 -47 -96.5t-132 -32.5q-130 0 -232 68l-10 -73
q99 -62 244 -62q251 0 251 196q0 57 -23.5 95.5t-61.5 57.5t-83.5 31t-91 22t-83.5 24t-61.5 42.5t-23.5 72.5z" />
    <glyph glyph-name="sacute" unicode="&#x15b;" horiz-adv-x="527" 
d="M308 714l-90 -164h66l104 157zM249 490q-93 0 -139.5 -39t-46.5 -103q0 -45 24.5 -74t60.5 -39.5t79 -19.5t79 -15t60.5 -24.5t24.5 -50.5q0 -39 -30.5 -57.5t-100.5 -18.5q-100 0 -181 54l-13 -65q72 -50 196 -50q202 0 202 140q0 54 -34 85t-82 40.5t-96 16.5t-82 26
t-34 57q0 76 119 76q111 0 126 -75l69 11q-4 52 -51.5 88.5t-149.5 36.5z" />
    <glyph glyph-name="Scedilla" unicode="&#x15e;" 
d="M552 184q0 -190 -236 -196l-4 -22q81 0 81 -64q0 -49 -36.5 -71.5t-116.5 -22.5l7 49q90 0 90 43q0 18 -18.5 25.5t-60.5 7.5l12 56q-124 6 -213 61l10 73q102 -68 232 -68q85 0 132 32.5t47 96.5q0 42 -23.5 68.5t-61 39.5t-83 22t-91 21.5t-83 31.5t-61 58t-23.5 96
q0 96 60.5 147.5t175.5 51.5q116 0 173.5 -41t67.5 -120l-72 -14q-15 112 -169 112q-164 0 -164 -128q0 -44 23.5 -72.5t61.5 -42.5t83.5 -24t91 -22t83.5 -31t61.5 -57.5t23.5 -95.5z" />
    <glyph glyph-name="scedilla" unicode="&#x15f;" horiz-adv-x="527" 
d="M464 128q0 -132 -181 -140l-4 -22q81 0 81 -64q0 -49 -36.5 -71.5t-116.5 -22.5l7 49q90 0 90 43q0 18 -18.5 25.5t-60.5 7.5l12 56q-106 4 -171 49l13 65q81 -54 181 -54q70 0 100.5 18.5t30.5 57.5q0 37 -34 56t-82 26.5t-96 17t-82 40t-34 83.5q0 64 46.5 103
t139.5 39q102 0 149.5 -36.5t51.5 -88.5l-69 -11q-15 75 -126 75q-119 0 -119 -76q0 -38 34 -57t82 -26t96 -16.5t82 -40.5t34 -85z" />
    <glyph glyph-name="Scaron" unicode="&#x160;" 
d="M316 740h-66l-99 103l63 9l69 -74l69 74l63 -9zM124 529q0 -44 23.5 -72.5t61.5 -42.5t83.5 -24t91 -22t83.5 -31t61.5 -57.5t23.5 -95.5q0 -196 -251 -196q-145 0 -244 62l10 73q102 -68 232 -68q85 0 132 32.5t47 96.5q0 42 -23.5 68.5t-61 39.5t-83 22t-91 21.5
t-83 31.5t-61 58t-23.5 96q0 96 60.5 147.5t175.5 51.5q116 0 173.5 -41t67.5 -120l-72 -14q-15 112 -169 112q-164 0 -164 -128z" />
    <glyph glyph-name="scaron" unicode="&#x161;" horiz-adv-x="527" 
d="M286 555h-66l-117 155l65 2l85 -111l85 111l65 -2zM136 353q0 -38 34 -57t82 -26t96 -16.5t82 -40.5t34 -85q0 -140 -202 -140q-124 0 -196 50l13 65q81 -54 181 -54q70 0 100.5 18.5t30.5 57.5q0 37 -34 56t-82 26.5t-96 17t-82 40t-34 83.5q0 64 46.5 103t139.5 39
q102 0 149.5 -36.5t51.5 -88.5l-69 -11q-15 75 -126 75q-119 0 -119 -76z" />
    <glyph glyph-name="uni0162" unicode="&#x162;" horiz-adv-x="553" 
d="M314 0h-14l-6 -34q81 0 81 -64q0 -49 -36.5 -71.5t-116.5 -22.5l7 49q90 0 90 43q0 18 -18.5 25.5t-60.5 7.5l14 67h-16v640h-232v63q89 7 181 7h360v-70h-233v-640z" />
    <glyph glyph-name="uni0163" unicode="&#x163;" horiz-adv-x="326" 
d="M326 419h-153v-300q0 -39 15.5 -53.5t46.5 -14.5q33 0 76 16l6 -63q-45 -14 -82 -16l-4 -22q81 0 81 -64q0 -49 -36.5 -71.5t-116.5 -22.5l7 49q90 0 90 43q0 18 -18.5 25.5t-60.5 7.5l12 57q-45 5 -66.5 34.5t-21.5 93.5v301h-90v61h90v140h72v-140h153v-61z" />
    <glyph glyph-name="Tcaron" unicode="&#x164;" horiz-adv-x="553" 
d="M309 740h-66l-99 103l63 9l69 -74l69 74l63 -9zM547 710v-70h-233v-640h-76v640h-232v63q89 7 181 7h360z" />
    <glyph glyph-name="tcaron" unicode="&#x165;" horiz-adv-x="346" 
d="M333 715l71 -5l-34 -189l-65 6zM173 620v-140h153v-61h-153v-300q0 -39 15.5 -53.5t46.5 -14.5q33 0 76 16l6 -63q-48 -16 -96 -16q-62 0 -91 28t-29 102v301h-90v61h90v140h72z" />
    <glyph glyph-name="Tbar" unicode="&#x166;" horiz-adv-x="553" 
d="M547 640h-233v-258h121v-64h-121v-318h-76v318h-120v64h120v258h-232v63q89 7 181 7h360v-70z" />
    <glyph glyph-name="tbar" unicode="&#x167;" horiz-adv-x="357" 
d="M326 419h-153v-115h141v-62h-141v-123q0 -39 15.5 -53.5t46.5 -14.5q33 0 76 16l6 -63q-48 -16 -96 -16q-62 0 -91 28t-29 102v124h-90v62h90v115h-90v61h90v140h72v-140h153v-61z" />
    <glyph glyph-name="Utilde" unicode="&#x168;" horiz-adv-x="747" 
d="M507 847q-3 -46 -20.5 -68t-53.5 -22q-23 0 -58.5 11t-50.5 11q-32 0 -35 -43l-45 5q6 91 73 91q23 0 59 -11.5t50 -11.5q32 0 35 44zM662 710h-76v-437q0 -217 -204 -217q-104 0 -151.5 53t-47.5 166v371q0 35 -15 50.5t-51 15.5q-54 0 -94 -8v-57h84v-372
q0 -287 275 -287q138 0 209 72.5t71 212.5v437z" />
    <glyph glyph-name="utilde" unicode="&#x169;" horiz-adv-x="606" 
d="M216 639q-41 0 -47 -61l-47 5q4 53 27.5 82t63.5 29q33 0 80.5 -21.5t72.5 -21.5q20 0 30.5 13.5t14.5 48.5l47 -6q-8 -111 -91 -111q-32 0 -80.5 21.5t-70.5 21.5zM507 60q24 -6 68 -6l-2 -57q-33 -5 -54 -5q-43 0 -63.5 20t-20.5 72q-61 -96 -186 -96
q-82 0 -120.5 43.5t-38.5 149.5v235q-21 7 -59 7l2 57q30 6 54 6q41 0 58 -16.5t17 -58.5v-219q0 -76 25.5 -107.5t85.5 -31.5q75 0 118.5 49t43.5 114v264h72v-420z" />
    <glyph glyph-name="Umacron" unicode="&#x16a;" horiz-adv-x="747" 
d="M237 817v-58h277v58h-277zM662 710h-76v-437q0 -217 -204 -217q-104 0 -151.5 53t-47.5 166v371q0 35 -15 50.5t-51 15.5q-54 0 -94 -8v-57h84v-372q0 -287 275 -287q138 0 209 72.5t71 212.5v437z" />
    <glyph glyph-name="umacron" unicode="&#x16b;" horiz-adv-x="606" 
d="M447 657v-58h-297v58h297zM507 60q24 -6 68 -6l-2 -57q-33 -5 -54 -5q-43 0 -63.5 20t-20.5 72q-61 -96 -186 -96q-82 0 -120.5 43.5t-38.5 149.5v235q-21 7 -59 7l2 57q30 6 54 6q41 0 58 -16.5t17 -58.5v-219q0 -76 25.5 -107.5t85.5 -31.5q75 0 118.5 49t43.5 114v264
h72v-420z" />
    <glyph glyph-name="Uring" unicode="&#x16e;" horiz-adv-x="747" 
d="M376 729q37 0 58 20t21 55q0 34 -21.5 54.5t-57.5 20.5q-37 0 -58 -20.5t-21 -54.5q0 -35 21 -55t58 -20zM376 762q-20 0 -31.5 11t-11.5 31t11.5 31t31.5 11q19 0 30.5 -11t11.5 -31t-11.5 -31t-30.5 -11zM662 710h-76v-437q0 -217 -204 -217q-104 0 -151.5 53
t-47.5 166v371q0 35 -15 50.5t-51 15.5q-54 0 -94 -8v-57h84v-372q0 -287 275 -287q138 0 209 72.5t71 212.5v437z" />
    <glyph glyph-name="uring" unicode="&#x16f;" horiz-adv-x="606" 
d="M298 545q-44 0 -70 25t-26 66t26 66t70 25t70.5 -25t26.5 -66t-26.5 -66t-70.5 -25zM298 690q-24 0 -39 -14.5t-15 -39.5t15 -39.5t39 -14.5q25 0 40 14.5t15 39.5t-15 39.5t-40 14.5zM507 60q24 -6 68 -6l-2 -57q-33 -5 -54 -5q-43 0 -63.5 20t-20.5 72
q-61 -96 -186 -96q-82 0 -120.5 43.5t-38.5 149.5v235q-21 7 -59 7l2 57q30 6 54 6q41 0 58 -16.5t17 -58.5v-219q0 -76 25.5 -107.5t85.5 -31.5q75 0 118.5 49t43.5 114v264h72v-420z" />
    <glyph glyph-name="Uhungarumlaut" unicode="&#x170;" horiz-adv-x="747" 
d="M333 853l-70 -111l66 -4l82 104zM458 853l-70 -111l66 -4l82 104zM662 710h-76v-437q0 -217 -204 -217q-104 0 -151.5 53t-47.5 166v371q0 35 -15 50.5t-51 15.5q-54 0 -94 -8v-57h84v-372q0 -287 275 -287q138 0 209 72.5t71 212.5v437z" />
    <glyph glyph-name="uhungarumlaut" unicode="&#x171;" horiz-adv-x="606" 
d="M345 707l-104 -157h-66l90 164zM377 550h-66l90 164l80 -7zM507 60q24 -6 68 -6l-2 -57q-33 -5 -54 -5q-43 0 -63.5 20t-20.5 72q-61 -96 -186 -96q-82 0 -120.5 43.5t-38.5 149.5v235q-21 7 -59 7l2 57q30 6 54 6q41 0 58 -16.5t17 -58.5v-219q0 -76 25.5 -107.5
t85.5 -31.5q75 0 118.5 49t43.5 114v264h72v-420z" />
    <glyph glyph-name="Uogonek" unicode="&#x172;" horiz-adv-x="747" 
d="M586 710h76v-437q0 -206 -150 -264q-98 -49 -98 -104q0 -35 40 -35q22 0 47 10l4 -52q-29 -12 -70 -12q-89 0 -89 71q0 59 65 102q-10 -1 -29 -1q-275 0 -275 287v372h-84v57q40 8 94 8q36 0 51 -15.5t15 -50.5v-371q0 -113 47.5 -166t151.5 -53q204 0 204 217v437z" />
    <glyph glyph-name="uogonek" unicode="&#x173;" horiz-adv-x="606" 
d="M573 -3q-98 -49 -98 -104q0 -35 40 -35q22 0 47 10l4 -52q-29 -12 -70 -12q-89 0 -89 71q0 74 94 118q-33 4 -49.5 25t-16.5 66q-61 -96 -186 -96q-82 0 -120.5 43.5t-38.5 149.5v235q-21 7 -59 7l2 57q30 6 54 6q41 0 58 -16.5t17 -58.5v-219q0 -76 25.5 -107.5
t85.5 -31.5q75 0 118.5 49t43.5 114v264h72v-420q24 -6 68 -6z" />
    <glyph glyph-name="Wcircumflex" unicode="&#x174;" horiz-adv-x="969" 
d="M507 814l-69 -74l-63 9l99 103h66l99 -103l-63 -9zM887 719l76 -14l-214 -705h-83l-159 592l-159 -592h-83l-190 647h-79v57q47 10 80 10q32 0 49.5 -11.5t25.5 -40.5l155 -555l161 603h80l162 -604z" />
    <glyph glyph-name="wcircumflex" unicode="&#x175;" horiz-adv-x="731" 
d="M375 673l-85 -111l-65 2l117 155h66l117 -155l-65 -2zM645 486l72 -8l-156 -478h-68l-118 388l-117 -388h-68l-135 417q-22 6 -59 6l2 57q27 6 51 6q29 0 46.5 -12.5t27.5 -43.5l102 -336l113 386h74l115 -389z" />
    <glyph glyph-name="Ycircumflex" unicode="&#x176;" horiz-adv-x="611" 
d="M316 814l-69 -74l-63 9l99 103h66l99 -103l-63 -9zM536 719l74 -14l-256 -415v-290h-76v290l-208 357h-79v57q25 10 67 10q33 0 49 -9t30 -34l179 -316z" />
    <glyph glyph-name="ycircumflex" unicode="&#x177;" horiz-adv-x="523" 
d="M268 673l-85 -111l-65 2l117 155h66l117 -155l-65 -2zM435 486l79 -8l-241 -566q-24 -55 -60 -78.5t-94 -23.5q-37 0 -65 10l-7 65q38 -12 68 -12q37 0 59.5 11.5t33.5 40.5l29 72l-180 420q-24 6 -51 6l2 57q21 6 44 6q29 0 46 -11.5t28 -39.5l147 -351z" />
    <glyph glyph-name="Ydieresis" unicode="&#x178;" horiz-adv-x="611" 
d="M233 745q-19 0 -32 12.5t-13 32.5t13 32.5t32 12.5t31.5 -13t12.5 -32t-12.5 -32t-31.5 -13zM398 745q-20 0 -32.5 12.5t-12.5 32.5t12.5 32.5t32.5 12.5t32.5 -12.5t12.5 -32.5t-12.5 -32.5t-32.5 -12.5zM536 719l74 -14l-256 -415v-290h-76v290l-208 357h-79v57
q25 10 67 10q33 0 49 -9t30 -34l179 -316z" />
    <glyph glyph-name="Zacute" unicode="&#x179;" horiz-adv-x="616" 
d="M430 842l-82 -104l-66 4l70 111zM584 651l-445 -584h439v-67h-525l-7 62l443 581h-428v61q60 6 156 6h360z" />
    <glyph glyph-name="zacute" unicode="&#x17a;" horiz-adv-x="468" 
d="M373 707l-104 -157h-66l90 164zM437 420l-320 -360h320v-60h-400l-6 60l320 360h-301v60h381z" />
    <glyph glyph-name="Zdotaccent" unicode="&#x17b;" horiz-adv-x="616" 
d="M320 759q-22 0 -36 14.5t-14 35.5t14 35.5t36 14.5t36 -14.5t14 -35.5t-14 -35.5t-36 -14.5zM584 651l-445 -584h439v-67h-525l-7 62l443 581h-428v61q60 6 156 6h360z" />
    <glyph glyph-name="zdotaccent" unicode="&#x17c;" horiz-adv-x="468" 
d="M239 584q-22 0 -37.5 15.5t-15.5 38.5q0 22 15.5 37.5t37.5 15.5t37.5 -15.5t15.5 -37.5q0 -23 -15.5 -38.5t-37.5 -15.5zM437 420l-320 -360h320v-60h-400l-6 60l320 360h-301v60h381z" />
    <glyph glyph-name="Zcaron" unicode="&#x17d;" horiz-adv-x="616" 
d="M353 740h-66l-99 103l63 9l69 -74l69 74l63 -9zM584 651l-445 -584h439v-67h-525l-7 62l443 581h-428v61q60 6 156 6h360z" />
    <glyph glyph-name="zcaron" unicode="&#x17e;" horiz-adv-x="468" 
d="M271 555h-66l-117 155l65 2l85 -111l85 111l65 -2zM437 420l-320 -360h320v-60h-400l-6 60l320 360h-301v60h381z" />
    <glyph glyph-name="uni01EA" unicode="&#x1ea;" horiz-adv-x="796" 
d="M735 354q0 -124 -56.5 -216t-156.5 -129h2q-98 -49 -98 -104q0 -35 40 -35q22 0 47 10l4 -52q-29 -12 -70 -12q-89 0 -89 71q0 59 64 102q-8 -1 -24 -1q-153 0 -245 103t-92 263t92 263t245 103t245 -103t92 -263zM398 56q121 0 190 81.5t69 216.5t-69 216.5t-190 81.5
q-120 0 -189.5 -81.5t-69.5 -216.5t69 -216.5t190 -81.5z" />
    <glyph glyph-name="uni01EB" unicode="&#x1eb;" 
d="M541 238q0 -81 -33.5 -139.5t-92.5 -86.5q-98 -49 -98 -104q0 -35 40 -35q22 0 47 10l4 -52q-29 -12 -70 -12q-89 0 -89 71q0 57 59 98h-6q-107 0 -173 66.5t-66 183.5q0 119 66 185.5t173 66.5q106 0 172.5 -67t66.5 -185zM302 51q77 0 121 48.5t44 138.5t-44 139.5
t-121 49.5t-121.5 -49.5t-44.5 -139.5t44.5 -138.5t121.5 -48.5z" />
    <glyph glyph-name="AEacute" unicode="&#x1fc;" horiz-adv-x="935" 
d="M684 842l-82 -104l-66 4l70 111zM574 324v-257h330v-67h-406v324h-253l-149 -324h-78l335 710h551l-6 -67h-324v-254h300v-65h-300zM275 389h223v254h-105z" />
    <glyph glyph-name="aeacute" unicode="&#x1fd;" horiz-adv-x="897" 
d="M586 707l-104 -157h-66l90 164zM480 221q9 -170 171 -170q53 0 95.5 18.5t60.5 36.5l18 -63q-25 -21 -74.5 -38t-109.5 -17q-151 0 -206 114q-30 -54 -84.5 -84t-125.5 -30q-75 0 -118.5 38.5t-43.5 104.5q0 70 51 110.5t155 40.5q80 0 137 -16v38q0 125 -130 125
q-112 0 -126 -92l-72 13q28 140 198 140q131 0 178 -84q60 84 172 84q101 0 155 -65t54 -165v-39h-355zM628 427q-60 0 -99 -36.5t-47 -112.5h280q-4 76 -40 112.5t-94 36.5zM239 46q70 0 118.5 44t48.5 109v13q-62 16 -130 16q-141 0 -141 -95q0 -87 104 -87z" />
    <glyph glyph-name="Oslashacute" unicode="&#x1fe;" horiz-adv-x="796" 
d="M508 842l-82 -104l-66 4l70 111zM632 628q103 -103 103 -274q0 -160 -92 -263t-245 -103q-101 0 -182 49l-46 -66l-69 8l68 96q-108 102 -108 279q0 160 92 263t245 103q107 0 188 -53l57 82l69 -8zM139 354q0 -140 72 -220l334 475q-60 43 -147 43q-120 0 -189.5 -81.5
t-69.5 -216.5zM398 56q121 0 190 81.5t69 216.5t-67 214l-333 -473q59 -39 141 -39z" />
    <glyph glyph-name="oslashacute" unicode="&#x1ff;" 
d="M437 707l-104 -157h-66l90 164zM458 438q83 -69 83 -200q0 -117 -66.5 -183.5t-172.5 -66.5q-60 0 -111 23l-32 -52l-60 7l46 74q-82 68 -82 198q0 119 66 185.5t173 66.5q61 0 110 -23l33 52l59 -7zM136 238q0 -89 46 -140l195 313q-32 16 -75 16q-77 0 -121.5 -49.5
t-44.5 -139.5zM302 51q77 0 121 48.5t44 138.5q0 92 -46 141l-195 -313q33 -15 76 -15z" />
    <glyph glyph-name="Scommaaccent" unicode="&#x218;" 
d="M124 529q0 128 164 128q154 0 169 -112l72 14q-10 79 -67.5 120t-173.5 41q-115 0 -175.5 -51.5t-60.5 -147.5q0 -57 23.5 -96t61 -58t83 -31.5t91 -21.5t83 -22t61 -39.5t23.5 -68.5q0 -64 -47 -96.5t-132 -32.5q-130 0 -232 68l-10 -73q99 -62 244 -62q251 0 251 196
q0 57 -23.5 95.5t-61.5 57.5t-83.5 31t-91 22t-83.5 24t-61.5 42.5t-23.5 72.5zM354 -101q0 -81 -92 -97l-7 35q46 11 46 48q-53 0 -53 38q0 19 12.5 30.5t33.5 11.5q60 0 60 -66z" />
    <glyph glyph-name="scommaaccent" unicode="&#x219;" horiz-adv-x="527" 
d="M249 490q-93 0 -139.5 -39t-46.5 -103q0 -45 24.5 -74t60.5 -39.5t79 -19.5t79 -15t60.5 -24.5t24.5 -50.5q0 -39 -30.5 -57.5t-100.5 -18.5q-100 0 -181 54l-13 -65q72 -50 196 -50q202 0 202 140q0 54 -34 85t-82 40.5t-96 16.5t-82 26t-34 57q0 76 119 76
q111 0 126 -75l69 11q-4 52 -51.5 88.5t-149.5 36.5zM321 -101q0 -81 -92 -97l-7 35q46 11 46 48q-53 0 -53 38q0 19 12.5 30.5t33.5 11.5q60 0 60 -66z" />
    <glyph glyph-name="uni021A" unicode="&#x21a;" horiz-adv-x="553" 
d="M547 710v-70h-233v-640h-76v640h-232v63q89 7 181 7h360zM276 -35q60 0 60 -66q0 -81 -92 -97l-7 35q46 11 46 48q-53 0 -53 38q0 19 12.5 30.5t33.5 11.5z" />
    <glyph glyph-name="uni021B" unicode="&#x21b;" horiz-adv-x="326" 
d="M326 419h-153v-300q0 -39 15.5 -53.5t46.5 -14.5q33 0 76 16l6 -63q-48 -16 -96 -16q-62 0 -91 28t-29 102v301h-90v61h90v140h72v-140h153v-61zM213 -35q60 0 60 -66q0 -81 -92 -97l-7 35q46 11 46 48q-53 0 -53 38q0 19 12.5 30.5t33.5 11.5z" />
    <glyph glyph-name="uni0237" unicode="&#x237;" horiz-adv-x="241" 
d="M169 480h-72v-550q0 -30 -12 -42.5t-40 -12.5q-22 0 -50 10l-4 -63q30 -12 68 -12q56 0 83 26.5t27 87.5v556z" />
    <glyph glyph-name="circumflex" unicode="&#x2c6;" horiz-adv-x="506" 
d="M403 564l-65 -2l-85 111l-85 -111l-65 2l117 155h66z" />
    <glyph glyph-name="caron" unicode="&#x2c7;" horiz-adv-x="506" 
d="M338 712l65 -2l-117 -155h-66l-117 155l65 2l85 -111z" />
    <glyph glyph-name="breve" unicode="&#x2d8;" horiz-adv-x="483" 
d="M326 706q-5 -53 -26 -74.5t-59 -21.5t-59 22t-25 74l-54 -4q6 -147 138 -147t139 147z" />
    <glyph glyph-name="dotaccent" unicode="&#x2d9;" horiz-adv-x="311" 
d="M156 584q22 0 37.5 15.5t15.5 38.5q0 22 -15.5 37.5t-37.5 15.5t-37.5 -15.5t-15.5 -37.5q0 -23 15.5 -38.5t37.5 -15.5z" />
    <glyph glyph-name="ring" unicode="&#x2da;" horiz-adv-x="399" 
d="M199 545q44 0 70.5 25t26.5 66t-26.5 66t-70.5 25t-70 -25t-26 -66t26 -66t70 -25zM199 582q-24 0 -39 14.5t-15 39.5t15 39.5t39 14.5q25 0 40 -14.5t15 -39.5t-15 -39.5t-40 -14.5z" />
    <glyph glyph-name="ogonek" unicode="&#x2db;" horiz-adv-x="372" 
d="M103 -122q0 -71 89 -71q41 0 70 12l-4 52q-25 -10 -47 -10q-40 0 -40 35q0 55 98 104l-42 8q-49 -16 -86.5 -49t-37.5 -81z" />
    <glyph glyph-name="tilde" unicode="&#x2dc;" horiz-adv-x="542" 
d="M439 707q-8 -111 -91 -111q-32 0 -80.5 21.5t-70.5 21.5q-41 0 -47 -61l-47 5q4 53 27.5 82t63.5 29q33 0 80.5 -21.5t72.5 -21.5q20 0 30.5 13.5t14.5 48.5z" />
    <glyph glyph-name="hungarumlaut" unicode="&#x2dd;" horiz-adv-x="511" 
d="M329 714l-90 -164h66l104 157zM193 714l-90 -164h66l104 157z" />
    <glyph glyph-name="uni0326" unicode="&#x326;" horiz-adv-x="0" 
d="M-103 -101q0 -81 -92 -97l-7 35q46 11 46 48q-53 0 -53 38q0 19 12.5 30.5t33.5 11.5q60 0 60 -66z" />
    <glyph glyph-name="Wgrave" unicode="&#x1e80;" horiz-adv-x="969" 
d="M540 742l-66 -4l-82 104l78 11zM887 719l76 -14l-214 -705h-83l-159 592l-159 -592h-83l-190 647h-79v57q47 10 80 10q32 0 49.5 -11.5t25.5 -40.5l155 -555l161 603h80l162 -604z" />
    <glyph glyph-name="wgrave" unicode="&#x1e81;" horiz-adv-x="731" 
d="M416 550h-66l-104 157l80 7zM645 486l72 -8l-156 -478h-68l-118 388l-117 -388h-68l-135 417q-22 6 -59 6l2 57q27 6 51 6q29 0 46.5 -12.5t27.5 -43.5l102 -336l113 386h74l115 -389z" />
    <glyph glyph-name="Wacute" unicode="&#x1e82;" horiz-adv-x="969" 
d="M617 842l-82 -104l-66 4l70 111zM887 719l76 -14l-214 -705h-83l-159 592l-159 -592h-83l-190 647h-79v57q47 10 80 10q32 0 49.5 -11.5t25.5 -40.5l155 -555l161 603h80l162 -604z" />
    <glyph glyph-name="wacute" unicode="&#x1e83;" horiz-adv-x="731" 
d="M510 707l-104 -157h-66l90 164zM645 486l72 -8l-156 -478h-68l-118 388l-117 -388h-68l-135 417q-22 6 -59 6l2 57q27 6 51 6q29 0 46.5 -12.5t27.5 -43.5l102 -336l113 386h74l115 -389z" />
    <glyph glyph-name="Wdieresis" unicode="&#x1e84;" horiz-adv-x="969" 
d="M424 745q-20 0 -32.5 12.5t-12.5 32.5t12.5 32.5t32.5 12.5q19 0 31.5 -13t12.5 -32t-12.5 -32t-31.5 -13zM589 745q-19 0 -32 12.5t-13 32.5t13 32.5t32 12.5t32 -12.5t13 -32.5t-13 -32.5t-32 -12.5zM887 719l76 -14l-214 -705h-83l-159 592l-159 -592h-83l-190 647
h-79v57q47 10 80 10q32 0 49.5 -11.5t25.5 -40.5l155 -555l161 603h80l162 -604z" />
    <glyph glyph-name="wdieresis" unicode="&#x1e85;" horiz-adv-x="731" 
d="M295 585q-20 0 -33.5 14t-13.5 35q0 20 13.5 34t33.5 14q21 0 34.5 -14t13.5 -34q0 -21 -13.5 -35t-34.5 -14zM455 585q-20 0 -33.5 14t-13.5 35q0 20 13.5 34t33.5 14q21 0 34.5 -14t13.5 -34q0 -21 -13.5 -35t-34.5 -14zM645 486l72 -8l-156 -478h-68l-118 388
l-117 -388h-68l-135 417q-22 6 -59 6l2 57q27 6 51 6q29 0 46.5 -12.5t27.5 -43.5l102 -336l113 386h74l115 -389z" />
    <glyph glyph-name="Ygrave" unicode="&#x1ef2;" horiz-adv-x="611" 
d="M349 742l-66 -4l-82 104l78 11zM536 719l74 -14l-256 -415v-290h-76v290l-208 357h-79v57q25 10 67 10q33 0 49 -9t30 -34l179 -316z" />
    <glyph glyph-name="ygrave" unicode="&#x1ef3;" horiz-adv-x="523" 
d="M309 550h-66l-104 157l80 7zM435 486l79 -8l-241 -566q-24 -55 -60 -78.5t-94 -23.5q-37 0 -65 10l-7 65q38 -12 68 -12q37 0 59.5 11.5t33.5 40.5l29 72l-180 420q-24 6 -51 6l2 57q21 6 44 6q29 0 46 -11.5t28 -39.5l147 -351z" />
    <glyph glyph-name="uni1EF8" unicode="&#x1ef8;" horiz-adv-x="611" 
d="M265 779q-32 0 -35 -43l-45 5q6 91 73 91q24 0 59 -11.5t50 -11.5q32 0 35 44l46 -6q-3 -46 -20.5 -68t-53.5 -22q-23 0 -58.5 11t-50.5 11zM536 719l74 -14l-256 -415v-290h-76v290l-208 357h-79v57q25 10 67 10q33 0 49 -9t30 -34l179 -316z" />
    <glyph glyph-name="uni1EF9" unicode="&#x1ef9;" horiz-adv-x="523" 
d="M185 639q-41 0 -47 -61l-47 5q4 53 27.5 82t63.5 29q33 0 80.5 -21.5t72.5 -21.5q20 0 30.5 13.5t14.5 48.5l47 -6q-8 -111 -91 -111q-32 0 -80.5 21.5t-70.5 21.5zM435 486l79 -8l-241 -566q-24 -55 -60 -78.5t-94 -23.5q-37 0 -65 10l-7 65q38 -12 68 -12
q37 0 59.5 11.5t33.5 40.5l29 72l-180 420q-24 6 -51 6l2 57q21 6 44 6q29 0 46 -11.5t28 -39.5l147 -351z" />
    <glyph glyph-name="endash" unicode="&#x2013;" horiz-adv-x="586" 
d="M525 319h-464v-64h464v64z" />
    <glyph glyph-name="emdash" unicode="&#x2014;" horiz-adv-x="876" 
d="M815 319h-754v-64h754v64z" />
    <glyph glyph-name="quoteleft" unicode="&#x2018;" horiz-adv-x="236" 
d="M68 594q0 -41 17 -63.5t45 -22.5q27 0 41 17t14 45q-23 0 -37 11.5t-14 32.5q0 47 45 74l-25 42q-86 -54 -86 -136z" />
    <glyph glyph-name="quoteright" unicode="&#x2019;" horiz-adv-x="236" 
d="M185 624q0 41 -17 63.5t-45 22.5q-27 0 -41 -17t-14 -45q51 0 51 -44q0 -48 -45 -74l25 -42q86 54 86 136z" />
    <glyph glyph-name="quotesinglbase" unicode="&#x201a;" horiz-adv-x="220" 
d="M168 13q0 41 -16.5 63.5t-44.5 22.5t-42 -17t-14 -45q52 0 52 -44q0 -21 -8.5 -37.5t-16 -22t-21.5 -14.5l26 -41q85 54 85 135z" />
    <glyph glyph-name="quotedblleft" unicode="&#x201c;" horiz-adv-x="412" 
d="M244 594q0 -41 17 -63.5t45 -22.5q27 0 41 17t14 45q-23 0 -37 11.5t-14 32.5q0 47 45 74l-25 42q-86 -54 -86 -136zM68 594q0 -41 16.5 -63.5t44.5 -22.5t42 17t14 45q-52 0 -52 44q0 21 8.5 37.5t16 22t21.5 14.5l-26 41q-85 -54 -85 -135z" />
    <glyph glyph-name="quotedblright" unicode="&#x201d;" horiz-adv-x="412" 
d="M185 624q0 41 -17 63.5t-45 22.5q-27 0 -41 -17t-14 -45q51 0 51 -44q0 -48 -45 -74l25 -42q86 54 86 136zM361 624q0 41 -16.5 63.5t-44.5 22.5t-42 -17t-14 -45q52 0 52 -44q0 -21 -8.5 -37.5t-16 -22t-21.5 -14.5l26 -41q85 54 85 135z" />
    <glyph glyph-name="quotedblbase" unicode="&#x201e;" horiz-adv-x="396" 
d="M168 13q0 41 -16.5 63.5t-44.5 22.5t-42 -17t-14 -45q52 0 52 -44q0 -21 -8.5 -37.5t-16 -22t-21.5 -14.5l26 -41q85 54 85 135zM344 13q0 41 -16.5 63.5t-44.5 22.5t-42 -17t-14 -45q52 0 52 -44q0 -21 -8.5 -37.5t-16 -22t-21.5 -14.5l26 -41q85 54 85 135z" />
    <glyph glyph-name="dagger" unicode="&#x2020;" horiz-adv-x="597" 
d="M506 508l-6 -74l-171 13l6 -447h-72l5 447l-171 -13l-6 74l176 -12l-12 214h87l-11 -214z" />
    <glyph glyph-name="daggerdbl" unicode="&#x2021;" horiz-adv-x="577" 
d="M480 287l6 -74l-166 12l7 -225h-76l6 225l-166 -12l6 74l161 -12v200l-161 -12l-6 74l166 -12l-12 185h87l-11 -185l165 12l-6 -74l-161 12v-200z" />
    <glyph glyph-name="bullet" unicode="&#x2022;" horiz-adv-x="336" 
d="M168 207q41 0 68 27t27 68t-27 68t-68 27t-68 -27t-27 -68t27 -68t68 -27z" />
    <glyph glyph-name="ellipsis" unicode="&#x2026;" horiz-adv-x="677" 
d="M338 -12q26 0 44 18t18 44t-18 44t-44 18t-43.5 -18t-17.5 -44t17.5 -44t43.5 -18zM564 -12q26 0 44 18t18 44t-18 44t-44 18t-44 -18t-18 -44t18 -44t44 -18zM113 -12q26 0 44 18t18 44t-18 44t-44 18t-44 -18t-18 -44t18 -44t44 -18z" />
    <glyph glyph-name="perthousand" unicode="&#x2030;" horiz-adv-x="1314" 
d="M249 326q170 0 170 197t-170 197q-87 0 -128 -52t-41 -145t41 -145t128 -52zM690 720l-514 -728l69 -4l514 728zM249 377q-105 0 -105 146q0 145 105 145q106 0 106 -145q0 -146 -106 -146zM685 -12q169 0 169 197t-169 197q-87 0 -128 -52t-41 -145t41 -145t128 -52z
M1085 -12q169 0 169 197t-169 197q-87 0 -128 -52t-41 -145t41 -145t128 -52zM685 40q-105 0 -105 145q0 146 105 146t105 -146q0 -145 -105 -145zM1085 40q-105 0 -105 145q0 146 105 146t105 -146q0 -145 -105 -145z" />
    <glyph glyph-name="guilsinglleft" unicode="&#x2039;" horiz-adv-x="310" 
d="M239 419l-135 -135l135 -125l-40 -40l-163 158v12l163 170z" />
    <glyph glyph-name="guilsinglright" unicode="&#x203a;" horiz-adv-x="310" 
d="M111 459l164 -170v-12l-164 -158l-40 40l135 125l-135 135z" />
    <glyph glyph-name="fraction" unicode="&#x2044;" horiz-adv-x="383" 
d="M414 720l-514 -728l69 -4l514 728z" />
    <glyph glyph-name="Euro" unicode="&#x20ac;" horiz-adv-x="700" 
d="M539 431l-8 -54h-488l7 54h84q16 147 95.5 218t196.5 71q124 0 198 -59l-16 -68q-84 60 -181 60q-88 0 -144.5 -54.5t-70.5 -167.5h327zM623 115l16 -68q-25 -21 -81 -40t-130 -19q-115 0 -193 65.5t-99 203.5h-105l7 54h487l-8 -54h-302q34 -202 217 -202q113 0 191 60z
" />
    <glyph glyph-name="trademark" unicode="&#x2122;" horiz-adv-x="669" 
d="M588 463q9 -3 30 -3v-34q-20 -4 -39 -4q-33 0 -34 33l-6 198l-89 -198h-29l-90 198l-7 -227h-43l6 237h-101v-237h-46v237h-89v37h303l82 -188l82 188h64z" />
    <glyph glyph-name="minus" unicode="&#x2212;" horiz-adv-x="563" 
d="M480 349h-397v-64h397v64z" />
    <glyph glyph-name="approxequal" unicode="&#x2248;" horiz-adv-x="552" 
d="M469 457q-10 -104 -97 -104q-36 0 -102 15t-92 15q-37 0 -46 -54l-49 8q10 104 97 104q36 0 102 -15t92 -15q21 0 31.5 11.5t14.5 42.5zM469 297q-10 -104 -97 -104q-36 0 -102 15t-92 15q-37 0 -46 -54l-49 8q10 104 97 104q36 0 102 -15t92 -15q21 0 31.5 11.5
t14.5 42.5z" />
    <glyph glyph-name="notequal" unicode="&#x2260;" horiz-adv-x="585" 
d="M503 377h-160l-39 -120h199v-60h-219l-33 -103h-67l33 103h-134v60h154l39 120h-193v60h213l33 102h67l-33 -102h140v-60z" />
    <glyph glyph-name="uniF8FF" unicode="&#xf8ff;" horiz-adv-x="1451" 
d="M691 583q0 26 17.5 44t43.5 18t44 -18t18 -44t-18 -43.5t-44 -17.5t-43.5 18t-17.5 43zM219 270h-119q0 134 9 314h100q10 -200 10 -314zM694 270q0 92 3 147h-61l3 -65q4 -4 15 -4q13 0 18 5v-74q-14 -15 -68 -15q-82 0 -82 66q0 12 2 49t2 38h-22v79l119 30l1 -17h178
q10 -64 10 -239h-118zM328 265q-92 0 -92 114q0 135 134 135q124 0 124 -117v-127h-83l-8 61q-6 -33 -23.5 -49.5t-51.5 -16.5zM1090 270h-114q0 26 1 56t1 37q0 29 -15 29q-18 0 -18 -29q0 -7 1.5 -37t1.5 -56h-114q0 175 10 239h80q6 -44 6 -76q2 15 6.5 30t24 33t49.5 18
q42 0 58.5 -25t18.5 -81zM1351 391q0 -126 -123 -126q-122 0 -122 124q0 125 124 125q121 0 121 -123zM390 375q0 26 -24 26q-22 0 -22 -26q0 -30 22 -30q24 0 24 30zM1251 375q0 26 -23 26q-21 0 -21 -26q0 -30 21 -30q23 0 23 30zM428 238h104q10 -52 10 -138
q0 -81 -33.5 -115.5t-118.5 -34.5q-61 0 -88 17v83q24 -16 70 -16q21 0 34 6t16.5 11.5t3.5 10.5q-16 -11 -49 -11q-90 0 -90 83v13h-55l3 -65q6 -4 15 -4q13 0 18 5v-73q-19 -15 -68 -15q-45 0 -63 17t-18 54q0 39 3 81h-18v80l117 29l-1 -18h177v-119q0 -16 3 -21.5
t12 -5.5q16 0 16 27v119zM733 243q37 0 58.5 -29t21.5 -84q0 -135 -137 -135q1 -15 1 -39h-119q0 142 10 282h78q7 -42 7 -76q17 81 80 81zM1070 127q0 -21 -3 -35h-124q11 -18 50 -18q34 0 55 12v-75q-23 -16 -78 -16q-141 0 -141 122q0 59 32.5 92.5t92.5 33.5
q55 0 85.5 -30t30.5 -86zM978 109q3 27 -17 27q-23 0 -23 -27h40zM670 72q5 0 12.5 2.5t16 11.5t8.5 23q0 23 -20 23q-22 0 -22 -31q0 -14 5 -29zM1074 13q0 -23 24 -23t24 23t-24 23t-24 -23zM1080 13q0 18 18 18t18 -18t-18 -18t-18 18zM1108 2l-6 9q7 0 7 7t-10 7h-11
v-23h5v9h5l4 -9h6zM1100 15h-7v6h7q4 0 4 -3t-4 -3z" />
    <glyph glyph-name="i.loclTRK" horiz-adv-x="222" 
d="M88 584q22 0 37.5 15.5t15.5 38.5q0 22 -15.5 37.5t-37.5 15.5t-37.5 -15.5t-15.5 -37.5q0 -23 15.5 -38.5t37.5 -15.5zM123 60v420h-72v-422q0 -37 16.5 -51.5t55.5 -14.5t66 5l2 57q-43 0 -68 6z" />
    <glyph glyph-name="f_t" horiz-adv-x="593" 
d="M593 419h-153v-300q0 -39 15.5 -53.5t46.5 -14.5q33 0 76 16l6 -63q-48 -16 -96 -16q-62 0 -91 28t-29 102v301h-193v-419h-72v419h-92v61h92v89q0 75 33 113t92 38q45 0 81 -14l-5 -63q-34 12 -64 12q-65 0 -65 -82v-93h193v140h72v-140h153v-61z" />
    <glyph glyph-name="caron.alt" horiz-adv-x="304" 
d="M201 710l-70 5l-28 -188l64 -6z" />
    <glyph glyph-name="acute.case" horiz-adv-x="354" 
d="M173 853l-70 -111l66 -4l82 104z" />
    <glyph glyph-name="breve.case" horiz-adv-x="445" 
d="M294 856q-4 -39 -21.5 -55.5t-50.5 -16.5t-50.5 16.5t-21.5 55.5l-47 -5q8 -114 119 -114q112 0 120 114z" />
    <glyph glyph-name="caron.case" horiz-adv-x="470" 
d="M304 852l63 -9l-99 -103h-66l-99 103l63 9l69 -74z" />
    <glyph glyph-name="circumflex.case" horiz-adv-x="470" 
d="M367 749l-63 -9l-69 74l-69 -74l-63 9l99 103h66z" />
    <glyph glyph-name="dieresis.case" horiz-adv-x="460" 
d="M148 745q19 0 31.5 13t12.5 32t-12.5 32t-31.5 13q-20 0 -32.5 -12.5t-12.5 -32.5t12.5 -32.5t32.5 -12.5zM313 745q19 0 32 12.5t13 32.5t-13 32.5t-32 12.5t-32 -12.5t-13 -32.5t13 -32.5t32 -12.5z" />
    <glyph glyph-name="dotaccent.case" horiz-adv-x="306" 
d="M153 759q22 0 36 14.5t14 35.5t-14 35.5t-36 14.5t-36 -14.5t-14 -35.5t14 -35.5t36 -14.5z" />
    <glyph glyph-name="grave.case" horiz-adv-x="354" 
d="M181 853l-78 -11l82 -104l67 4z" />
    <glyph glyph-name="hungarumlaut.case" horiz-adv-x="479" 
d="M298 853l-71 -111l67 -4l82 104zM173 853l-70 -111l66 -4l82 104z" />
    <glyph glyph-name="macron.case" horiz-adv-x="483" 
d="M103 817v-58h277v58h-277z" />
    <glyph glyph-name="ring.case" horiz-adv-x="363" 
d="M182 729q37 0 58 20t21 55q0 34 -21.5 54.5t-57.5 20.5q-37 0 -58 -20.5t-21 -54.5q0 -35 21 -55t58 -20zM182 762q-20 0 -31.5 11t-11.5 31t11.5 31t31.5 11q19 0 30.5 -11t11.5 -31t-11.5 -31t-30.5 -11z" />
    <glyph glyph-name="tilde.case" horiz-adv-x="468" 
d="M366 847q-3 -46 -20.5 -68t-53.5 -22q-23 0 -58.5 11t-50.5 11q-32 0 -35 -43l-45 5q6 91 73 91q24 0 59 -11.5t50 -11.5q32 0 35 44z" />
    <glyph glyph-name="IJacute" horiz-adv-x="658" 
d="M162 853l-70 -111l66 -4l82 104zM562 853l-70 -111l66 -4l82 104zM91 710v-710h76v710h-76zM567 710h-76v-521q0 -73 -30.5 -103.5t-99.5 -30.5q-67 0 -136 28l-7 -67q56 -28 147 -28q101 0 151.5 45.5t50.5 151.5v525z" />
    <glyph glyph-name="ijacute" horiz-adv-x="442" 
d="M142 714l-90 -164h66l104 157zM389 714l-90 -164h66l104 157zM123 60v420h-72v-422q0 -37 16.5 -51.5t55.5 -14.5t66 5l2 57q-43 0 -68 6zM370 480h-72v-550q0 -30 -12 -42.5t-40 -12.5q-22 0 -50 10l-4 -63q30 -12 68 -12q56 0 83 26.5t27 87.5v556z" />
    </font>
</defs>
</svg>
