<?xml version="1.0" standalone="no"?>
<!DOCTYPE svg PUBLIC "-//W3C//DTD SVG 1.1//EN" "http://www.w3.org/Graphics/SVG/1.1/DTD/svg11.dtd" >
<svg xmlns="http://www.w3.org/2000/svg" xmlns:xlink="http://www.w3.org/1999/xlink" version="1.1">
<metadata>
Created by FontForge 20161003 at Thu Dec 28 16:09:28 2017
 By www-data
Latinotype
</metadata>
<defs>
<font id="corporativelight" horiz-adv-x="598" >
  <font-face 
    font-family="corporativelight"
    font-weight="300"
    font-stretch="normal"
    units-per-em="1000"
    panose-1="0 0 4 0 0 0 0 0 0 0"
    ascent="810"
    descent="-190"
    x-height="480"
    cap-height="710"
    bbox="-189 -195 1351 874"
    underline-thickness="50"
    underline-position="-150"
    unicode-range="U+0020-FB02"
  />
<missing-glyph horiz-adv-x="630" 
d="M100 710h430v-710h-430v710zM165 675l150 -278l150 278h-300zM293 355l-153 284v-568zM338 355l152 -284v568zM315 313l-150 -278h300z" />
    <glyph glyph-name="fi" unicode="fi" horiz-adv-x="519" 
d="M408 30q25 -4 74 -4l-2 -30q-36 -3 -56 -3q-30 0 -42 10.5t-12 37.5v407h-218v-448h-38v448h-97v32h97v107q0 133 149 133q72 0 113 -18l-3 -35q-42 18 -105 18q-116 0 -116 -99v-106h256v-450z" />
    <glyph glyph-name="fl" unicode="fl" horiz-adv-x="524" 
d="M408 33q18 -7 89 -7l-2 -29q-34 -4 -60 -4q-38 0 -51.5 11t-13.5 39v405h-218v-448h-38v448h-97v32h97v108q0 132 114 132q48 0 85 -17l-3 -34q-34 16 -77 16q-81 0 -81 -96v-109h218v230h38v-677z" />
    <glyph glyph-name=".notdef" horiz-adv-x="630" 
d="M100 710h430v-710h-430v710zM165 675l150 -278l150 278h-300zM293 355l-153 284v-568zM338 355l152 -284v568zM315 313l-150 -278h300z" />
    <glyph glyph-name=".null" horiz-adv-x="0" 
 />
    <glyph glyph-name="nonmarkingreturn" horiz-adv-x="333" 
 />
    <glyph glyph-name="space" unicode=" " horiz-adv-x="294" 
 />
    <glyph glyph-name="exclam" unicode="!" horiz-adv-x="193" 
d="M75 710l4 -522h35l5 522h-44zM97 -12q17 0 28 11.5t11 28.5t-11 28t-28 11t-28.5 -11t-11.5 -28t11.5 -28.5t28.5 -11.5z" />
    <glyph glyph-name="quotedbl" unicode="&#x22;" horiz-adv-x="337" 
d="M218 719l-14 -222h31l28 214zM88 719l-14 -222h31l28 214z" />
    <glyph glyph-name="numbersign" unicode="#" horiz-adv-x="717" 
d="M616 410h-126l-38 -170h127l-7 -30h-127l-34 -150h-37l34 150h-153l-34 -150h-37l34 150h-124l7 30h124l39 170h-126l7 30h126l33 150h37l-34 -150h154l33 150h37l-34 -150h126zM415 240l39 170h-154l-38 -170h153z" />
    <glyph glyph-name="dollar" unicode="$" horiz-adv-x="603" 
d="M536 175q0 -82 -58.5 -127.5t-164.5 -49.5l-3 -100h-35l3 100q-116 4 -207 59l6 38q81 -56 201 -61l7 304q-42 13 -65.5 21t-57 25t-51 35t-31 46.5t-13.5 64.5q0 81 57.5 130t168.5 50l2 100h35l-2 -101q161 -10 190 -140l-37 -9q-9 44 -45 77t-109 38l-6 -311
q41 -13 64.5 -21t56.5 -25t50.5 -34.5t30.5 -45.5t13 -63zM106 528q0 -62 46 -94.5t134 -59.5l6 302q-91 -1 -138.5 -39.5t-47.5 -108.5zM313 34q184 7 184 140q0 33 -13.5 58t-41 42.5t-54 28.5t-68.5 24z" />
    <glyph glyph-name="percent" unicode="%" horiz-adv-x="857" 
d="M243 326q83 0 122.5 52t39.5 144q0 93 -39.5 145.5t-122.5 52.5t-123 -52t-40 -145t40 -145t123 -52zM676 720l-514 -729l38 -3l514 729zM243 354q-65 0 -97 45t-32 124q0 80 32.5 124.5t96.5 44.5q65 0 96.5 -45t31.5 -125q0 -79 -31.5 -123.5t-96.5 -44.5zM635 -12
q83 0 122.5 52t39.5 144q0 93 -39.5 145.5t-122.5 52.5t-123 -52t-40 -145t40 -145t123 -52zM635 16q-65 0 -97 45t-32 124q0 80 32.5 124.5t96.5 44.5q65 0 96.5 -45t31.5 -125q0 -79 -31.5 -123.5t-96.5 -44.5z" />
    <glyph glyph-name="ampersand" unicode="&#x26;" horiz-adv-x="778" 
d="M721 413q-40 -220 -159 -332l99 -93l-42 -6l-83 77q-104 -81 -250 -81q-112 0 -169 41t-57 119q0 38 12.5 67.5t39.5 53.5t54 40t73 39q-57 54 -82.5 97t-25.5 107q0 76 46.5 127t137.5 51t132 -45.5t41 -115.5q0 -45 -16.5 -81.5t-48 -63.5t-56 -42t-61.5 -34l-12 -6
l241 -225q111 105 148 310zM170 541q0 -56 20.5 -93.5t80.5 -93.5q37 19 51.5 27t45 29t44 38.5t25.5 44.5t12 58q0 66 -36 100t-99 34q-69 0 -106.5 -41t-37.5 -103zM290 13q125 0 219 72l-246 231q-91 -47 -126.5 -82.5t-35.5 -93.5q0 -127 189 -127z" />
    <glyph glyph-name="quotesingle" unicode="'" horiz-adv-x="207" 
d="M88 719l-14 -222h31l28 214z" />
    <glyph glyph-name="parenleft" unicode="(" horiz-adv-x="438" 
d="M154 315q0 -95 22.5 -179t58.5 -140.5t73 -94t73 -57.5l-9 -34q-44 21 -87 63t-82.5 104t-64 150.5t-24.5 187.5t24.5 187.5t64 150.5t82.5 104t87 63l9 -34q-36 -20 -73 -57.5t-73 -94t-58.5 -140.5t-22.5 -179z" />
    <glyph glyph-name="parenright" unicode=")" horiz-adv-x="438" 
d="M284 315q0 95 -22.5 179t-58.5 140.5t-73 94t-73 57.5l9 34q44 -21 87 -63t82.5 -104t64 -150.5t24.5 -187.5t-24.5 -187.5t-64 -150.5t-82.5 -104t-87 -63l-9 34q36 20 73 57.5t73 94t58.5 140.5t22.5 179z" />
    <glyph glyph-name="asterisk" unicode="*" horiz-adv-x="440" 
d="M241 592l105 -58l-16 -28l-97 64l3 -109h-32l3 109l-97 -64l-16 28l105 58l-105 57l16 28l97 -64l-3 109h32l-3 -109l97 64l16 -28z" />
    <glyph glyph-name="plus" unicode="+" horiz-adv-x="552" 
d="M458 334v-34h-163v-172h-38v172h-163v34h163v172h38v-172h163z" />
    <glyph glyph-name="comma" unicode="," horiz-adv-x="192" 
d="M135 2q0 29 -12 45t-31 16q-35 0 -35 -37q18 0 29 -10t11 -26q0 -41 -35 -65l15 -24q58 39 58 101z" />
    <glyph glyph-name="hyphen" unicode="-" horiz-adv-x="400" 
d="M333 304h-266v-34h266v34z" />
    <glyph glyph-name="period" unicode="." horiz-adv-x="193" 
d="M97 -12q17 0 28 11.5t11 28.5t-11 28t-28 11t-28.5 -11t-11.5 -28t11.5 -28.5t28.5 -11.5z" />
    <glyph glyph-name="slash" unicode="/" horiz-adv-x="358" 
d="M320 810l-320 -990h38l320 990h-38z" />
    <glyph glyph-name="zero" unicode="0" horiz-adv-x="629" 
d="M315 -13q122 0 181 97t59 269t-59 269.5t-181 97.5t-181.5 -97t-59.5 -269t59.5 -269.5t181.5 -97.5zM315 23q-101 0 -150.5 88.5t-49.5 242.5q0 153 49.5 241.5t150.5 88.5t150 -88.5t49 -242.5q0 -155 -49 -242.5t-150 -87.5z" />
    <glyph glyph-name="one" unicode="1" horiz-adv-x="369" 
d="M234 34h110v-34h-291v34h139v633q-25 -20 -89 -53t-106 -48l-7 36q130 50 202 108h42v-676z" />
    <glyph glyph-name="two" unicode="2" horiz-adv-x="537" 
d="M98 34h385v-34h-425v17q0 50 20.5 94t53.5 75.5t72.5 61t79 57.5t72.5 57.5t53.5 68.5t20.5 83q0 76 -44 124t-132 48q-71 0 -111 -28t-57 -89l-37 7q36 144 206 144q105 0 160 -56.5t55 -145.5q0 -49 -20 -92t-52 -74t-70.5 -60t-78 -56.5t-72.5 -56t-55 -65.5t-24 -80z
" />
    <glyph glyph-name="three" unicode="3" horiz-adv-x="541" 
d="M327 370q65 -17 107.5 -62.5t42.5 -120.5q0 -88 -60 -143.5t-167 -55.5q-164 0 -206 125l36 12q31 -103 171 -103q84 0 135 42.5t51 121.5q0 77 -53 121.5t-134 44.5h-60v34h60q68 0 115.5 39t47.5 112q0 68 -40 108.5t-122 40.5q-72 0 -109.5 -27.5t-54.5 -82.5l-37 8
q38 136 201 136q101 0 151 -50t50 -133q0 -64 -34 -106t-91 -61z" />
    <glyph glyph-name="four" unicode="4" horiz-adv-x="521" 
d="M391 263h120v-34h-120v-229h-41v229h-342l-8 30l354 451h37v-447zM45 263h305v389z" />
    <glyph glyph-name="five" unicode="5" horiz-adv-x="528" 
d="M245 412q106 0 167.5 -53.5t61.5 -148.5q0 -98 -56 -160t-162 -62q-159 0 -202 125l36 13q12 -43 52.5 -73.5t112.5 -30.5q83 0 131.5 49t48.5 137q0 78 -50 124.5t-148 46.5q-64 0 -139 -22l11 353h335v-35h-297l-10 -276q48 13 108 13z" />
    <glyph glyph-name="six" unicode="6" horiz-adv-x="573" 
d="M310 426q101 0 155 -60t54 -156q0 -98 -55.5 -160t-155.5 -62q-111 0 -172.5 83t-61.5 254q0 189 60.5 292t182.5 103q74 0 119.5 -37.5t59.5 -92.5l-37 -7q-13 48 -51 75.5t-95 27.5q-95 0 -146.5 -87t-53.5 -256q31 33 83 58t114 25zM308 22q74 0 124 48.5t50 139.5
q0 84 -47 133.5t-127 49.5q-62 0 -112.5 -27t-81.5 -63q8 -281 194 -281z" />
    <glyph glyph-name="seven" unicode="7" horiz-adv-x="393" 
d="M-24 710h427v-37q-209 -318 -306 -673h-42q92 331 309 675h-388v35z" />
    <glyph glyph-name="eight" unicode="8" horiz-adv-x="585" 
d="M366 365q80 -29 117.5 -72.5t37.5 -109.5q0 -88 -59.5 -141.5t-169.5 -53.5q-108 0 -168 48t-60 140q0 124 155 199q-122 48 -122 162q0 83 49 133t146 50q96 0 144.5 -50.5t48.5 -129.5q0 -116 -119 -175zM134 542q0 -69 39.5 -102t130.5 -56q5 -1 14 -4t10 -3
q120 60 120 160q0 69 -41 108.5t-114 39.5q-77 0 -118 -38t-41 -105zM293 24q86 0 137.5 41.5t51.5 116.5q0 67 -48 108t-151 66q-6 1 -15.5 3.5t-13.5 3.5q-151 -73 -151 -185q0 -75 51.5 -114.5t138.5 -39.5z" />
    <glyph glyph-name="nine" unicode="9" horiz-adv-x="577" 
d="M260 720q110 0 176.5 -86t66.5 -269q0 -177 -63 -277t-186 -100q-159 0 -186 140l35 8q28 -113 151 -113q100 0 154.5 88t54.5 247v13q-33 -33 -86.5 -57.5t-117.5 -24.5q-97 0 -151 54.5t-54 153.5q0 97 54 160t152 63zM259 322q125 0 203 87q-9 150 -64.5 213
t-137.5 63q-79 0 -123.5 -50.5t-44.5 -138.5t44 -131t123 -43z" />
    <glyph glyph-name="colon" unicode=":" horiz-adv-x="193" 
d="M97 405q17 0 28 11.5t11 28.5t-11 28.5t-28 11.5t-28.5 -11.5t-11.5 -28.5t11.5 -28.5t28.5 -11.5zM97 -12q17 0 28 11.5t11 28.5t-11 28t-28 11t-28.5 -11t-11.5 -28t11.5 -28.5t28.5 -11.5z" />
    <glyph glyph-name="semicolon" unicode=";" horiz-adv-x="195" 
d="M97 405q17 0 28 11.5t11 28.5t-11 28.5t-28 11.5t-28.5 -11.5t-11.5 -28.5t11.5 -28.5t28.5 -11.5zM135 2q0 29 -12 45t-31 16q-35 0 -35 -37q18 0 29 -10t11 -26q0 -41 -35 -65l15 -24q58 39 58 101z" />
    <glyph glyph-name="less" unicode="&#x3c;" horiz-adv-x="575" 
d="M461 502l-331 -185l331 -185l-2 -36l-365 205v32l365 205z" />
    <glyph glyph-name="equal" unicode="=" horiz-adv-x="608" 
d="M514 423h-420v-33h420v33zM514 243h-420v-33h420v33z" />
    <glyph glyph-name="greater" unicode="&#x3e;" horiz-adv-x="575" 
d="M116 538l365 -205v-32l-365 -205l-2 36l332 185l-332 185z" />
    <glyph glyph-name="question" unicode="?" horiz-adv-x="490" 
d="M54 609l34 -9q24 86 121 86q76 0 112.5 -39.5t36.5 -107.5q0 -28 -5 -52t-18 -44.5t-22.5 -34.5t-32 -31.5t-32 -25t-37.5 -25t-34 -21.5l5 -109h33l4 98q4 3 32.5 21.5t40.5 28t36.5 32.5t36 44t21.5 53.5t10 69.5q0 83 -47 130t-138 47q-63 0 -100.5 -25.5t-56.5 -85.5
zM199 -12q17 0 28.5 11.5t11.5 28.5t-11.5 28t-28.5 11t-28.5 -11t-11.5 -28t11.5 -28.5t28.5 -11.5z" />
    <glyph glyph-name="at" unicode="@" horiz-adv-x="1081" 
d="M553 713q201 0 317.5 -114.5t116.5 -318.5q0 -280 -170 -280q-103 0 -124 103q-22 -47 -68.5 -75t-112.5 -28q-87 0 -140 61.5t-53 170.5q0 114 59.5 181t157.5 67q94 0 153 -52l5 42h31v-316q0 -121 96 -121q63 0 97 57t34 190q0 185 -107.5 292.5t-291.5 107.5
q-188 0 -305.5 -114.5t-117.5 -313.5q0 -112 31 -195t85 -129t117.5 -67.5t137.5 -21.5q137 0 216 53l4 -35q-79 -50 -219 -50q-86 0 -157.5 25t-128.5 76t-89.5 139t-32.5 205q0 146 61 251.5t163.5 157.5t234.5 52zM518 34q74 0 121.5 41.5t47.5 117.5v199q-58 54 -146 54
q-84 0 -133.5 -55.5t-49.5 -158.5q0 -96 43 -147t117 -51z" />
    <glyph glyph-name="A" unicode="A" horiz-adv-x="701" 
d="M611 33q19 -6 71 -6l-2 -30q-17 -5 -47 -5q-26 0 -39 8t-22 30l-75 189h-359l-87 -219h-41l284 707l45 9zM151 254h333l-167 421z" />
    <glyph glyph-name="B" unicode="B" horiz-adv-x="628" 
d="M436 375q70 -18 114 -63t44 -118q0 -194 -243 -194h-240v675h-84v30q44 8 72 8q29 0 42 -13q78 20 148 20q135 0 200 -49.5t65 -139.5q0 -120 -118 -156zM514 527q0 158 -225 158q-64 0 -138 -12v-287h170q193 0 193 141zM348 36q108 0 157 38.5t49 119.5q0 74 -54 115.5
t-146 41.5h-203v-315h197z" />
    <glyph glyph-name="C" unicode="C" horiz-adv-x="692" 
d="M407 24q-138 0 -218.5 86.5t-80.5 240.5q0 161 75 247.5t200 86.5q108 0 164 -48t58 -132l40 4q0 92 -68.5 151.5t-195.5 59.5q-143 0 -228.5 -97t-85.5 -273q0 -171 91.5 -266.5t245.5 -95.5q153 0 237 65l-10 36q-85 -65 -224 -65z" />
    <glyph glyph-name="D" unicode="D" horiz-adv-x="742" 
d="M306 720q179 0 274 -102.5t95 -263.5q0 -159 -94 -256.5t-269 -97.5h-201v675h-84v30q44 8 72 8q29 0 42 -13q67 20 165 20zM311 36q161 0 242 88.5t81 229.5q0 143 -82 236.5t-246 93.5q-89 0 -155 -12v-636h160z" />
    <glyph glyph-name="E" unicode="E" horiz-adv-x="563" 
d="M138 340v-304h388v-36h-429v710h429l-5 -35h-383v-300h358v-35h-358z" />
    <glyph glyph-name="F" unicode="F" horiz-adv-x="518" 
d="M501 676l-363 -1v-300h337v-35h-337v-340h-41v710h408z" />
    <glyph glyph-name="G" unicode="G" horiz-adv-x="768" 
d="M668 362q23 0 23 -22v-340h-30l-4 137q-64 -149 -260 -149q-154 0 -242 97t-88 269q0 177 91.5 271.5t247.5 94.5q111 0 179 -50.5t79 -141.5l-40 -8q-8 76 -66 120.5t-152 44.5q-140 0 -219 -87.5t-79 -243.5q0 -155 77.5 -242.5t214.5 -87.5q113 0 183.5 60.5
t70.5 185.5v59h-238v33h252z" />
    <glyph glyph-name="H" unicode="H" horiz-adv-x="746" 
d="M631 31q32 -4 78 -4l-2 -30q-23 -5 -62 -5q-28 0 -41 9.5t-13 33.5v293h-453v-328h-41v710h41v-345h453v345h40v-679z" />
    <glyph glyph-name="I" unicode="I" horiz-adv-x="235" 
d="M97 710v-710h41v710h-41z" />
    <glyph glyph-name="J" unicode="J" horiz-adv-x="442" 
d="M345 710h-40v-541q0 -77 -33.5 -111t-104.5 -34q-79 0 -139 28l-4 -36q70 -28 144 -28q88 0 132.5 42.5t44.5 134.5v545z" />
    <glyph glyph-name="K" unicode="K" horiz-adv-x="610" 
d="M499 64q17 -26 33.5 -31.5t68.5 -5.5l-2 -30q-16 -4 -44 -4q-31 0 -49 9t-35 34l-191 292h-142v-328h-41v710h41v-345h142l271 350l41 -8l-282 -360z" />
    <glyph glyph-name="L" unicode="L" horiz-adv-x="521" 
d="M138 37h374v-37h-415v710h41v-673z" />
    <glyph glyph-name="M" unicode="M" horiz-adv-x="901" 
d="M794 31q32 -4 70 -4l-2 -30q-23 -5 -57 -5q-28 0 -39 9t-12 34l-16 614l-270 -556h-41l-271 556l-18 -649h-41l19 707l51 9l280 -580l277 574h54z" />
    <glyph glyph-name="N" unicode="N" horiz-adv-x="731" 
d="M594 710h40v-710h-36l-461 644v-644h-40v707l37 9l460 -646v640z" />
    <glyph glyph-name="O" unicode="O" horiz-adv-x="796" 
d="M398 -12q152 0 241.5 102.5t89.5 263.5t-89.5 263.5t-241.5 102.5t-241.5 -102.5t-89.5 -263.5t89.5 -263.5t241.5 -102.5zM398 24q-133 0 -211.5 91t-78.5 239t78.5 239t211.5 91t211.5 -91t78.5 -239t-78.5 -239t-211.5 -91z" />
    <glyph glyph-name="P" unicode="P" horiz-adv-x="564" 
d="M292 720q123 0 188 -59.5t65 -166.5q0 -105 -66 -159.5t-195 -54.5h-133v-280h-40v675h-84v30q44 8 72 8q29 0 42 -13q68 20 151 20zM286 315q115 0 167.5 45t52.5 134q0 191 -214 191q-67 0 -141 -12v-358h135z" />
    <glyph glyph-name="Q" unicode="Q" horiz-adv-x="796" 
d="M515 -34q41 -63 69.5 -87.5t69.5 -24.5q34 0 60 7l-2 -34q-33 -7 -65 -7q-49 0 -82.5 24.5t-72.5 87.5l-38 60q-24 -4 -56 -4q-152 0 -241.5 102.5t-89.5 263.5t89.5 263.5t241.5 102.5t241.5 -102.5t89.5 -263.5q0 -133 -62.5 -228.5t-173.5 -125.5zM108 354
q0 -148 78.5 -239t211.5 -91t211.5 91t78.5 239t-78.5 239t-211.5 91t-211.5 -91t-78.5 -239z" />
    <glyph glyph-name="R" unicode="R" horiz-adv-x="646" 
d="M524 65q16 -26 33.5 -32t70.5 -6l-4 -30q-17 -4 -45 -4q-30 0 -50.5 11t-39.5 42l-165 262h-173v-308h-40v675h-84v30q44 8 72 8q29 0 42 -13q64 20 161 20q135 0 202 -55.5t67 -158.5q0 -93 -53 -143t-149 -55zM151 672v-329h197q182 0 182 165q0 177 -230 177
q-78 0 -149 -13z" />
    <glyph glyph-name="S" unicode="S" 
d="M99 534q0 152 180 152q91 0 139 -31.5t60 -98.5l38 8q-12 77 -68.5 116.5t-168.5 39.5q-105 0 -162 -48t-57 -139q0 -56 24.5 -93.5t63 -56t85.5 -30.5t94.5 -23t86 -26.5t63 -47t24.5 -80.5q0 -152 -205 -152q-69 0 -132 21t-99 46l-6 -40q105 -63 237 -63
q245 0 245 190q0 56 -24.5 93.5t-63.5 56t-86 31t-94 23t-86 26t-63.5 47t-24.5 79.5z" />
    <glyph glyph-name="T" unicode="T" horiz-adv-x="547" 
d="M539 710v-37h-245v-673h-41v673h-244v32q53 5 144 5h386z" />
    <glyph glyph-name="U" unicode="U" horiz-adv-x="728" 
d="M637 710h-41v-442q0 -245 -229 -245q-113 0 -167.5 61t-54.5 186v394q0 26 -11.5 37t-37.5 11q-44 0 -75 -7v-29h84v-406q0 -143 63.5 -212.5t198.5 -69.5q270 0 270 280v442z" />
    <glyph glyph-name="V" unicode="V" horiz-adv-x="666" 
d="M619 716l40 -9l-285 -707h-48l-256 676h-73v29q34 8 62 8q24 0 35.5 -8t18.5 -27l237 -634z" />
    <glyph glyph-name="W" unicode="W" horiz-adv-x="964" 
d="M912 716l40 -9l-221 -707h-46l-178 651l-178 -651h-46l-208 676h-73v29q32 8 63 8q24 0 36.5 -9t19.5 -34l185 -614l178 654h46l178 -655z" />
    <glyph glyph-name="X" unicode="X" horiz-adv-x="675" 
d="M583 33q18 -6 70 -6l-2 -30q-15 -5 -46 -5q-25 0 -38.5 9t-32.5 38l-192 296l-234 -335h-47l257 361l-216 315h-80v29q29 8 57 8q45 0 64 -30l200 -298l225 333l41 -9l-241 -348z" />
    <glyph glyph-name="Y" unicode="Y" horiz-adv-x="606" 
d="M561 716l38 -9l-263 -411v-296h-40v296l-226 380h-73v29q24 8 53 8q27 0 38.5 -7t26.5 -33l201 -343z" />
    <glyph glyph-name="Z" unicode="Z" horiz-adv-x="609" 
d="M572 680l-472 -644h468v-36h-514l-5 29l472 646h-458v30q58 5 126 5h378z" />
    <glyph glyph-name="bracketleft" unicode="[" horiz-adv-x="356" 
d="M299 776h-147v-922h147v-34h-185v990h185v-34z" />
    <glyph glyph-name="backslash" unicode="\" horiz-adv-x="358" 
d="M38 810h-38l320 -990h38z" />
    <glyph glyph-name="bracketright" unicode="]" horiz-adv-x="356" 
d="M242 810v-990h-185v34h147v922h-147v34h185z" />
    <glyph glyph-name="underscore" unicode="_" horiz-adv-x="460" 
d="M403 0h-346v-34h346v34z" />
    <glyph glyph-name="grave" unicode="`" horiz-adv-x="372" 
d="M159 713l-45 -4l109 -159h35z" />
    <glyph glyph-name="a" unicode="a" horiz-adv-x="565" 
d="M453 31q33 -5 75 -5l-2 -30q-24 -3 -55 -3q-29 0 -42 13.5t-13 44.5v57q-28 -56 -80 -88t-119 -32q-71 0 -111.5 38t-40.5 102q0 69 49.5 108.5t148.5 39.5q84 0 153 -19v48q0 72 -37.5 112t-111.5 40q-132 0 -150 -114l-38 7q29 140 188 140q91 0 138.5 -47.5
t47.5 -135.5v-276zM224 21q80 0 136 54.5t56 123.5v28q-70 18 -151 18q-162 0 -162 -118q0 -51 31.5 -78.5t89.5 -27.5z" />
    <glyph glyph-name="b" unicode="b" horiz-adv-x="573" 
d="M285 490q103 0 158.5 -65.5t55.5 -187.5q0 -115 -62 -182t-182 -67q-108 0 -171 52v670h38v-312q49 92 163 92zM258 22q97 0 149.5 56t52.5 161q0 103 -44 160t-132 57q-76 0 -119 -46t-43 -105v-244q49 -39 136 -39z" />
    <glyph glyph-name="c" unicode="c" horiz-adv-x="548" 
d="M470 88q-75 -66 -172 -66q-86 0 -135.5 55t-49.5 162q0 99 48 158t132 59q130 0 142 -126l37 5q-6 71 -50 113t-127 42q-105 0 -163 -70t-58 -183q0 -123 60 -186t163 -63q108 0 183 65z" />
    <glyph glyph-name="d" unicode="d" horiz-adv-x="585" 
d="M482 31q30 -5 76 -5l-2 -30q-21 -3 -57 -3q-29 0 -42 15t-13 54v24q-55 -98 -173 -98q-89 0 -143 64t-54 182q0 119 59.5 187.5t160.5 68.5q93 0 150 -43v263h38v-679zM276 22q72 0 120 45.5t48 104.5v237q-61 47 -149 47q-84 0 -133 -61t-49 -161q0 -107 46 -159.5
t117 -52.5z" />
    <glyph glyph-name="e" unicode="e" horiz-adv-x="551" 
d="M113 231q3 -209 189 -209q56 0 98 17.5t59 33.5l10 -33q-22 -20 -67.5 -36t-103.5 -16q-109 0 -166.5 64.5t-57.5 188.5q0 116 56.5 182.5t152.5 66.5q94 0 144 -64t50 -164v-31h-364zM283 456q-72 0 -118 -49t-52 -145h327q-1 92 -44 143t-113 51z" />
    <glyph glyph-name="f" unicode="f" horiz-adv-x="328" 
d="M240 685q-88 0 -88 -98v-107h166v-32h-166v-448h-38v448h-97v32h97v108q0 132 122 132q53 0 92 -17l-4 -34q-32 16 -84 16z" />
    <glyph glyph-name="g" unicode="g" horiz-adv-x="523" 
d="M375 75q65 -1 98 -33.5t33 -81.5q0 -66 -57.5 -108t-166.5 -42q-115 0 -166.5 33t-51.5 101t74 111q-48 22 -48 71q0 59 72 101q-59 39 -59 115q0 65 46 106.5t128 41.5q65 0 106 -26q27 83 124 89l6 -35q-84 -4 -107 -70q45 -42 45 -105q0 -65 -46 -106t-128 -41
q-55 0 -92 18q-61 -37 -61 -80q0 -31 21.5 -44.5t67.5 -13.5zM139 342q0 -56 37 -86.5t101 -30.5t101 30.5t37 86.5t-37 87.5t-101 31.5t-101 -31t-37 -88zM284 -157q90 0 137 32t47 79q0 41 -26.5 65t-77.5 24h-164q-19 0 -28 2q-70 -35 -70 -99q0 -51 41 -77t141 -26z" />
    <glyph glyph-name="h" unicode="h" horiz-adv-x="594" 
d="M482 30q25 -4 75 -4l-2 -30q-45 -3 -56 -3q-32 0 -43.5 10t-11.5 38v250q0 164 -147 164q-74 0 -124.5 -51t-50.5 -114v-290h-38v710h38v-330q24 49 71 79.5t112 30.5q177 0 177 -197v-263z" />
    <glyph glyph-name="i" unicode="i" horiz-adv-x="206" 
d="M76 606q14 0 23 9.5t9 23.5q0 13 -9 22.5t-23 9.5t-23 -9.5t-9 -22.5q0 -14 9 -23.5t23 -9.5zM95 30v450h-38v-439q0 -27 12 -37.5t42 -10.5q20 0 56 3l2 30q-49 0 -74 4z" />
    <glyph glyph-name="j" unicode="j" horiz-adv-x="218" 
d="M122 606q14 0 23 9.5t9 23.5q0 13 -9 22.5t-23 9.5t-23 -9.5t-9 -22.5q0 -14 9 -23.5t23 -9.5zM141 480h-38v-583q0 -53 -55 -53q-25 0 -48 10l-3 -33q19 -11 56 -11q46 0 67 21.5t21 66.5v582z" />
    <glyph glyph-name="k" unicode="k" horiz-adv-x="486" 
d="M400 36q20 -10 74 -10l-2 -30q-36 -3 -48 -3q-42 0 -62 33l-143 224l-97 -97v-153h-38v710h38v-511l285 286l41 -5l-203 -204z" />
    <glyph glyph-name="l" unicode="l" horiz-adv-x="238" 
d="M84 710v-667q0 -28 13.5 -39t51.5 -11q26 0 60 4l2 29q-71 0 -89 7v677h-38z" />
    <glyph glyph-name="m" unicode="m" horiz-adv-x="898" 
d="M787 30q24 -4 74 -4l-2 -30q-42 -3 -56 -3q-32 0 -43 9.5t-11 37.5v257q0 73 -33.5 115.5t-103.5 42.5q-65 0 -108 -49t-43 -108v-298h-38l2 295q-3 160 -137 160q-66 0 -108.5 -49t-42.5 -108v-298h-38v441q-16 12 -62 12l1 29q15 5 33 5q66 0 66 -71v-26
q22 45 62.5 72.5t94.5 27.5q64 0 104 -31.5t55 -87.5q19 53 62 86t102 33q84 0 127 -52t43 -144v-264z" />
    <glyph glyph-name="n" unicode="n" horiz-adv-x="609" 
d="M498 30q24 -4 74 -4l-2 -30q-45 -3 -56 -3q-32 0 -43 9.5t-11 36.5v252q0 164 -148 164q-74 0 -124.5 -51t-50.5 -114v-290h-38v441q-16 12 -62 12l1 29q17 5 33 5q66 0 66 -68v-39q24 49 71 79.5t113 30.5q177 0 177 -197v-263z" />
    <glyph glyph-name="o" unicode="o" horiz-adv-x="601" 
d="M74 238q0 -118 62.5 -184t164.5 -66t164 66t62 184t-62 185t-164 67t-164.5 -66.5t-62.5 -185.5zM113 238q0 102 51 160t137 58t137 -58t51 -160t-51 -159t-137 -57q-87 0 -137.5 57t-50.5 159z" />
    <glyph glyph-name="p" unicode="p" horiz-adv-x="589" 
d="M303 490q102 0 157 -65t55 -183q0 -120 -60.5 -187t-177.5 -67q-83 0 -139 31v-199h-38v621q-16 12 -63 12l1 29q15 5 34 5q30 0 48 -18t18 -54v-19q47 94 165 94zM277 22q95 0 147 55.5t52 163.5q0 104 -44.5 159.5t-131.5 55.5q-73 0 -117.5 -46t-44.5 -105v-248
q59 -35 139 -35z" />
    <glyph glyph-name="q" unicode="q" horiz-adv-x="572" 
d="M307 490q116 0 181 -47v-623h-38v261q-54 -93 -178 -93q-90 0 -144 62.5t-54 180.5q0 119 62.5 189t170.5 70zM281 22q76 0 122.5 44.5t46.5 94.5v264q-58 31 -143 31q-90 0 -142 -59t-52 -165q0 -105 46 -157.5t122 -52.5z" />
    <glyph glyph-name="r" unicode="r" horiz-adv-x="316" 
d="M268 490q18 0 36 -5l-3 -38q-12 4 -34 4q-39 0 -70 -32.5t-45 -73.5t-14 -78v-267h-38v441q-17 12 -63 12l1 29q17 5 35 5q28 0 46.5 -18t18.5 -56v-41q20 54 54 86t76 32z" />
    <glyph glyph-name="s" unicode="s" horiz-adv-x="522" 
d="M247 490q-87 0 -130 -37.5t-43 -96.5q0 -54 34.5 -83.5t84 -39t99 -17t84 -30.5t34.5 -67q0 -97 -150 -97q-105 0 -176 52l-7 -36q71 -50 184 -50q187 0 187 134q0 53 -34.5 82t-84 38t-98.5 17t-83.5 30.5t-34.5 66.5q0 100 137 100q134 0 146 -93l37 7q-3 45 -46 82.5
t-140 37.5z" />
    <glyph glyph-name="t" unicode="t" horiz-adv-x="309" 
d="M309 448h-164v-348q0 -45 17.5 -61.5t50.5 -16.5q42 0 78 16l3 -34q-40 -16 -85 -16q-51 0 -76.5 24t-25.5 89v347h-90v32h90v140h38v-140h164v-32z" />
    <glyph glyph-name="u" unicode="u" 
d="M487 31q28 -5 74 -5l-2 -30q-27 -3 -50 -3q-31 0 -45.5 13.5t-14.5 47.5v55q-27 -58 -78 -89.5t-120 -31.5q-81 0 -116.5 43t-35.5 144v266q-19 12 -62 12l1 29q16 4 35 4q34 0 49 -15t15 -48v-242q0 -86 27.5 -122t96.5 -36q87 0 137.5 58.5t50.5 126.5v272h38v-449z
" />
    <glyph glyph-name="v" unicode="v" horiz-adv-x="479" 
d="M431 485l38 -6l-199 -479h-38l-172 444q-16 7 -65 7l1 29q17 5 37 5q28 0 43 -10t25 -36l150 -396z" />
    <glyph glyph-name="w" unicode="w" horiz-adv-x="713" 
d="M660 485l38 -6l-156 -479h-35l-134 430l-133 -430h-35l-146 444q-18 7 -64 7l1 30q24 4 41 4q27 0 41.5 -11t22.5 -38l122 -388l130 432h40l131 -435z" />
    <glyph glyph-name="x" unicode="x" horiz-adv-x="518" 
d="M430 34q17 -8 61 -8l-2 -30q-12 -4 -38 -4q-34 0 -53 26l-137 203l-160 -221h-41l175 241l-145 205q-25 5 -63 5l1 30q22 4 41 4t31.5 -5.5t26.5 -25.5l134 -193l164 224l38 -5l-176 -240z" />
    <glyph glyph-name="y" unicode="y" horiz-adv-x="491" 
d="M441 485l40 -6l-239 -584q-18 -43 -47 -64t-78 -21q-23 0 -60 11l-4 36q39 -13 64 -13q36 0 57.5 13.5t34.5 47.5l38 94l-195 445q-15 7 -47 7l1 30q16 4 30 4q21 0 34.5 -10t23.5 -34l172 -396z" />
    <glyph glyph-name="z" unicode="z" horiz-adv-x="468" 
d="M431 446l-350 -413h350v-33h-389l-5 34l350 413h-331v33h370z" />
    <glyph glyph-name="braceleft" unicode="{" horiz-adv-x="414" 
d="M269 778q-79 0 -79 -77q0 -43 34 -139t34 -140q0 -76 -69 -107q69 -31 69 -107q0 -44 -34 -140t-34 -139q0 -77 79 -77h88v-32h-92q-112 0 -112 106q0 47 34.5 142.5t34.5 140.5q0 40 -22.5 64.5t-63.5 24.5h-22v34h22q41 0 63.5 24.5t22.5 64.5q0 45 -34.5 140
t-34.5 143q0 106 112 106h92v-32h-88z" />
    <glyph glyph-name="bar" unicode="|" horiz-adv-x="266" 
d="M114 810v-990h38v990h-38z" />
    <glyph glyph-name="braceright" unicode="}" horiz-adv-x="414" 
d="M278 332h22v-34h-22q-41 0 -63.5 -24.5t-22.5 -64.5q0 -45 35 -140t35 -143q0 -106 -112 -106h-93v32h88q79 0 79 77q0 43 -33.5 139t-33.5 140q0 77 68 107q-68 30 -68 107q0 44 33.5 140t33.5 139q0 77 -79 77h-88v32h93q112 0 112 -106q0 -48 -35 -143t-35 -140
q0 -40 22.5 -64.5t63.5 -24.5z" />
    <glyph glyph-name="asciitilde" unicode="~" horiz-adv-x="552" 
d="M458 375q-10 -91 -86 -91q-32 0 -98 17t-96 17q-49 0 -55 -63l-29 5q10 90 86 90q32 0 98 -17t96 -17q26 0 39 14.5t16 48.5z" />
    <glyph glyph-name="exclamdown" unicode="&#xa1;" horiz-adv-x="193" 
d="M97 424q17 0 28 11t11 28t-11 28.5t-28 11.5t-28.5 -11.5t-11.5 -28.5t11.5 -28t28.5 -11zM75 -180h44l-5 490h-35z" />
    <glyph glyph-name="cent" unicode="&#xa2;" horiz-adv-x="541" 
d="M474 169q-72 -64 -179 -65l-2 -104h-33l2 105q-91 9 -143 72.5t-52 181.5q0 112 54.5 183t152.5 76l2 102h33l-2 -103q74 -4 114 -45.5t45 -108.5l-37 -5q-11 116 -123 125l-10 -445q95 2 168 66zM106 361q0 -101 42 -156.5t115 -64.5l10 443q-79 -4 -123 -64t-44 -158z
" />
    <glyph glyph-name="sterling" unicode="&#xa3;" horiz-adv-x="566" 
d="M185 291v-255h310v-36h-428v36h77v255h-77v36h77v190q0 92 50 147.5t148 55.5q87 0 157 -45l-12 -36q-72 45 -145 45q-74 0 -115.5 -43t-41.5 -130v-184h226v-36h-226z" />
    <glyph glyph-name="currency" unicode="&#xa4;" horiz-adv-x="680" 
d="M568 358q0 -101 -63 -166l108 -114l-21 -21l-109 115q-63 -47 -143 -47q-82 0 -143 47l-109 -115l-21 21l107 114q-62 65 -62 166q0 103 62 168l-107 114l21 21l109 -115q61 47 143 47t142 -48l110 116l21 -21l-108 -115q63 -65 63 -167zM150 358q0 -91 54 -144.5
t136 -53.5t136 53.5t54 144.5q0 93 -54 146.5t-136 53.5q-83 0 -136.5 -53.5t-53.5 -146.5z" />
    <glyph glyph-name="yen" unicode="&#xa5;" horiz-adv-x="676" 
d="M582 710l-224 -377h185v-31h-185v-99h185v-31h-185v-172h-40v172h-185v31h185v99h-185v31h185l-224 377h41l203 -345l203 345h41z" />
    <glyph glyph-name="brokenbar" unicode="&#xa6;" horiz-adv-x="266" 
d="M114 810v-400h38v400h-38zM114 220v-400h38v400h-38z" />
    <glyph glyph-name="section" unicode="&#xa7;" horiz-adv-x="613" 
d="M371 125q68 -20 105.5 -52.5t37.5 -92.5q0 -74 -51 -113t-152 -39q-118 0 -203 62l4 39q85 -66 200 -66q164 0 164 118q0 48 -39 77t-94.5 43t-111.5 29.5t-95 49.5t-39 90q0 108 145 146q-67 21 -104 56t-37 102q0 74 53 120t154 46q175 0 202 -148l-38 -8
q-11 63 -49.5 92.5t-114.5 29.5q-78 0 -123.5 -33.5t-45.5 -97.5q0 -55 38.5 -87.5t93.5 -47.5t109.5 -30t93 -48.5t38.5 -89.5q0 -108 -141 -147zM135 271q0 -24 11 -43.5t25 -31.5t41.5 -23.5t46.5 -17t55 -14.5q5 -1 8 -2q73 17 112.5 46.5t39.5 84.5q0 25 -10 44t-22 31
t-39.5 23t-43 16t-51.5 14q-10 3 -15 4q-158 -28 -158 -131z" />
    <glyph glyph-name="dieresis" unicode="&#xa8;" horiz-adv-x="421" 
d="M144 608q13 0 21 8.5t8 21.5t-8 21.5t-21 8.5t-21.5 -8.5t-8.5 -21.5t8.5 -21.5t21.5 -8.5zM277 608q13 0 21.5 8.5t8.5 21.5t-8.5 21.5t-21.5 8.5t-21 -8.5t-8 -21.5t8 -21.5t21 -8.5z" />
    <glyph glyph-name="copyright" unicode="&#xa9;" horiz-adv-x="1049" 
d="M67 328q0 -218 128 -343t330 -125q201 0 329 125t128 343t-127.5 343t-329.5 125q-203 0 -330.5 -124t-127.5 -344zM104 328q0 204 117.5 319.5t303.5 115.5t303.5 -115.5t117.5 -319.5t-117.5 -319.5t-303.5 -115.5t-303.5 115.5t-117.5 319.5zM701 177
q-75 -66 -172 -66q-86 0 -136 55t-50 162q0 99 48 158t133 59q130 0 142 -126l37 5q-6 71 -50 113t-127 42q-105 0 -163 -70t-58 -183q0 -123 60 -186t163 -63q109 0 182 65z" />
    <glyph glyph-name="ordfeminine" unicode="&#xaa;" horiz-adv-x="412" 
d="M332 403q21 -3 52 -3l-1 -26q-11 -1 -39 -1q-24 0 -33.5 10.5t-9.5 36.5v28q-42 -79 -137 -79q-49 0 -78 26.5t-29 71.5q0 49 35 76.5t104 27.5q60 0 105 -13v33q0 48 -26 75t-75 27q-89 0 -101 -77l-32 6q21 98 133 98q65 0 98.5 -33t33.5 -96v-188zM171 395q54 0 92 37
t38 84v19q-57 13 -100 13q-112 0 -112 -81q0 -72 82 -72z" />
    <glyph glyph-name="guillemotleft" unicode="&#xab;" horiz-adv-x="440" 
d="M231 430l-154 -146l154 -131l-23 -23l-169 149v8l170 167zM363 430l-153 -146l153 -131l-23 -23l-169 149v8l170 167z" />
    <glyph glyph-name="registered" unicode="&#xae;" horiz-adv-x="554" 
d="M277 728q92 0 149.5 -55t57.5 -149t-57.5 -149t-149.5 -55t-149.5 55t-57.5 149t57.5 149t149.5 55zM277 340q81 0 132.5 47.5t51.5 136.5t-51.5 136.5t-132.5 47.5t-132.5 -47.5t-51.5 -136.5t51.5 -136.5t132.5 -47.5zM342 441q9 -15 39 -15v-17q-9 -3 -18 -3
q-26 0 -40 22l-41 72h-51v-91h-26v211h-24v20h102q83 0 83 -70q0 -57 -59 -68zM231 620v-100h50q58 0 58 50t-58 50h-50z" />
    <glyph glyph-name="macron" unicode="&#xaf;" horiz-adv-x="514" 
d="M114 644v-32h286v32h-286z" />
    <glyph glyph-name="degree" unicode="&#xb0;" horiz-adv-x="391" 
d="M195 482q53 0 86 32.5t33 83.5t-33 83.5t-86 32.5t-85.5 -32.5t-32.5 -83.5t32.5 -83.5t85.5 -32.5zM195 511q-40 0 -63.5 23.5t-23.5 63.5t23.5 64t63.5 24t63.5 -24t23.5 -64t-23.5 -63.5t-63.5 -23.5z" />
    <glyph glyph-name="plusminus" unicode="&#xb1;" horiz-adv-x="574" 
d="M257 122v173h-163v33h163v173h38v-173h163v-33h-163v-173h-38zM94 35h386v-35h-386v35z" />
    <glyph glyph-name="acute" unicode="&#xb4;" horiz-adv-x="372" 
d="M213 713l-99 -163h35l109 159z" />
    <glyph glyph-name="paragraph" unicode="&#xb6;" horiz-adv-x="575" 
d="M330 345v309q0 37 -13.5 51.5t-52.5 14.5q-79 0 -128 -49t-49 -138q0 -91 53.5 -139.5t152.5 -48.5h37zM432 720q-26 0 -37.5 -11t-11.5 -37v-772h41v784h84v29q-30 7 -76 7z" />
    <glyph glyph-name="periodcentered" unicode="&#xb7;" horiz-adv-x="193" 
d="M97 259q17 0 28 11.5t11 28.5t-11 28t-28 11t-28.5 -11t-11.5 -28t11.5 -28.5t28.5 -11.5z" />
    <glyph glyph-name="cedilla" unicode="&#xb8;" horiz-adv-x="362" 
d="M163 -36l8 42h-24l-14 -63q46 0 64.5 -10t18.5 -34q0 -61 -97 -61l-5 -29q134 0 134 92q0 63 -85 63z" />
    <glyph glyph-name="ordmasculine" unicode="&#xba;" horiz-adv-x="434" 
d="M57 544q0 -82 44 -128.5t116 -46.5t116 46.5t44 128.5t-44 129t-116 47t-116 -46.5t-44 -129.5zM91 544q0 69 34 108t92 39t92 -39t34 -108q0 -70 -33.5 -108t-92.5 -38t-92.5 38t-33.5 108z" />
    <glyph glyph-name="guillemotright" unicode="&#xbb;" horiz-adv-x="440" 
d="M269 287v-8l-169 -149l-23 23l153 131l-153 146l22 24zM231 454l170 -167v-8l-169 -149l-23 23l153 131l-153 146z" />
    <glyph glyph-name="onequarter" unicode="&#xbc;" horiz-adv-x="826" 
d="M675 720l39 -3l-514 -729l-39 3zM122 361h93v322q-35 -24 -129 -52l-6 28q88 27 135 57h34v-355h73v-27h-200v27zM697 146h69v-27h-69v-119h-32v119h-193l-7 24l202 239h30v-236zM501 146h164v193z" />
    <glyph glyph-name="onehalf" unicode="&#xbd;" horiz-adv-x="856" 
d="M675 720l39 -3l-514 -729l-39 3zM122 361h93v322q-35 -24 -129 -52l-6 28q88 27 135 57h34v-355h73v-27h-200v27zM568 27h228v-27h-261v17q0 38 23 67t55.5 48t64.5 36.5t55 43t23 57.5q0 90 -102 90q-72 0 -92 -58l-32 6q27 81 126 81q67 0 100 -31.5t33 -86.5
q0 -36 -22 -65t-53.5 -48t-63.5 -36.5t-56 -41t-26 -52.5z" />
    <glyph glyph-name="threequarters" unicode="&#xbe;" horiz-adv-x="809" 
d="M335 435q0 -48 -35 -78.5t-98 -30.5q-96 0 -122 70l28 9q19 -52 95 -52q46 0 73.5 21.5t27.5 61.5q0 39 -29 61t-73 22h-35v25h34q38 0 64 19.5t26 55.5q0 34 -22 54t-67 20q-76 0 -89 -55l-29 6q18 76 118 76q59 0 89 -27t30 -72q0 -66 -69 -88q83 -24 83 -98zM671 720
l38 -3l-514 -729l-38 3zM680 146h69v-27h-69v-119h-32v119h-193l-7 24l202 239h30v-236zM484 146h164v193z" />
    <glyph glyph-name="questiondown" unicode="&#xbf;" horiz-adv-x="490" 
d="M275 424q17 0 28.5 11t11.5 28t-11.5 28.5t-28.5 11.5t-28 -11.5t-11 -28.5t11 -28t28 -11zM436 -79l-30 11q-18 -45 -46.5 -66.5t-88.5 -21.5q-66 0 -102.5 37.5t-36.5 101.5q0 73 43 120t122 95l-5 118h-33l-4 -107q-70 -44 -99 -75q-62 -66 -62 -152q0 -82 47.5 -127
t127.5 -45q72 0 109 27t58 84z" />
    <glyph glyph-name="Agrave" unicode="&#xc0;" horiz-adv-x="701" 
d="M334 742l-35 -3l-82 102l44 7zM611 33q19 -6 71 -6l-2 -30q-17 -5 -47 -5q-26 0 -39 8t-22 30l-75 189h-359l-87 -219h-41l284 707l45 9zM151 254h333l-167 421z" />
    <glyph glyph-name="Aacute" unicode="&#xc1;" horiz-adv-x="701" 
d="M414 841l-82 -102l-35 3l73 106zM611 33q19 -6 71 -6l-2 -30q-17 -5 -47 -5q-26 0 -39 8t-22 30l-75 189h-359l-87 -219h-41l284 707l45 9zM151 254h333l-167 421z" />
    <glyph glyph-name="Acircumflex" unicode="&#xc2;" horiz-adv-x="701" 
d="M318 828l-86 -87l-35 6l104 104h34l104 -104l-35 -6zM611 33q19 -6 71 -6l-2 -30q-17 -5 -47 -5q-26 0 -39 8t-22 30l-75 189h-359l-87 -219h-41l284 707l45 9zM151 254h333l-167 421z" />
    <glyph glyph-name="Atilde" unicode="&#xc3;" horiz-adv-x="701" 
d="M262 791q-33 0 -38 -49l-26 4q6 75 62 75q22 0 60 -11.5t55 -11.5q18 0 27 11t11 38l26 -3q-3 -39 -17 -57.5t-45 -18.5q-22 0 -59.5 11.5t-55.5 11.5zM611 33q19 -6 71 -6l-2 -30q-17 -5 -47 -5q-26 0 -39 8t-22 30l-75 189h-359l-87 -219h-41l284 707l45 9zM151 254
h333l-167 421z" />
    <glyph glyph-name="Adieresis" unicode="&#xc4;" horiz-adv-x="701" 
d="M251 763q-12 0 -19.5 7.5t-7.5 19.5t7.5 19.5t19.5 7.5t20 -7.5t8 -19.5t-8 -19.5t-20 -7.5zM384 763q-12 0 -19.5 7.5t-7.5 19.5t7.5 19.5t19.5 7.5t20 -7.5t8 -19.5t-8 -19.5t-20 -7.5zM611 33q19 -6 71 -6l-2 -30q-17 -5 -47 -5q-26 0 -39 8t-22 30l-75 189h-359
l-87 -219h-41l284 707l45 9zM151 254h333l-167 421z" />
    <glyph glyph-name="Aring" unicode="&#xc5;" horiz-adv-x="701" 
d="M318 731q-34 0 -54 19.5t-20 52.5q0 32 20 51.5t54 19.5t54.5 -19.5t20.5 -51.5q0 -33 -20.5 -52.5t-54.5 -19.5zM318 854q-23 0 -37 -14t-14 -37q0 -24 14 -38t37 -14t37.5 14t14.5 38q0 23 -14.5 37t-37.5 14zM611 33q19 -6 71 -6l-2 -30q-17 -5 -47 -5q-26 0 -39 8
t-22 30l-75 189h-359l-87 -219h-41l284 707l45 9zM151 254h333l-167 421z" />
    <glyph glyph-name="AE" unicode="&#xc6;" horiz-adv-x="915" 
d="M529 340v-304h349v-36h-389v340h-269l-159 -340h-42l337 710h522l-5 -35h-344v-300h319v-35h-319zM237 375h252v300h-111z" />
    <glyph glyph-name="Ccedilla" unicode="&#xc7;" horiz-adv-x="692" 
d="M404 -12h-12l-5 -24q85 0 85 -63q0 -92 -134 -92l5 29q97 0 97 61q0 24 -18.5 34t-64.5 10l10 46q-138 11 -219 106t-81 255q0 176 85.5 273t228.5 97q127 0 195.5 -59.5t68.5 -151.5l-40 -4q-2 84 -58 132t-164 48q-125 0 -200 -86.5t-75 -247.5q0 -154 80.5 -240.5
t218.5 -86.5q139 0 224 65l10 -36q-84 -65 -237 -65z" />
    <glyph glyph-name="Egrave" unicode="&#xc8;" horiz-adv-x="563" 
d="M329 742l-35 -3l-82 102l44 7zM138 340v-304h388v-36h-429v710h429l-5 -35h-383v-300h358v-35h-358z" />
    <glyph glyph-name="Eacute" unicode="&#xc9;" horiz-adv-x="563" 
d="M409 841l-82 -102l-35 3l73 106zM138 340v-304h388v-36h-429v710h429l-5 -35h-383v-300h358v-35h-358z" />
    <glyph glyph-name="Ecircumflex" unicode="&#xca;" horiz-adv-x="563" 
d="M313 828l-86 -87l-35 6l104 104h34l104 -104l-35 -6zM138 340v-304h388v-36h-429v710h429l-5 -35h-383v-300h358v-35h-358z" />
    <glyph glyph-name="Edieresis" unicode="&#xcb;" horiz-adv-x="563" 
d="M246 763q-12 0 -19.5 7.5t-7.5 19.5t7.5 19.5t19.5 7.5t20 -7.5t8 -19.5t-8 -19.5t-20 -7.5zM379 763q-12 0 -19.5 7.5t-7.5 19.5t7.5 19.5t19.5 7.5t20 -7.5t8 -19.5t-8 -19.5t-20 -7.5zM138 340v-304h388v-36h-429v710h429l-5 -35h-383v-300h358v-35h-358z" />
    <glyph glyph-name="Igrave" unicode="&#xcc;" horiz-adv-x="235" 
d="M60 848l-44 -7l82 -102l35 3zM97 710v-710h41v710h-41z" />
    <glyph glyph-name="Iacute" unicode="&#xcd;" horiz-adv-x="235" 
d="M169 848l-73 -106l35 -3l82 102zM97 710v-710h41v710h-41z" />
    <glyph glyph-name="Icircumflex" unicode="&#xce;" horiz-adv-x="235" 
d="M134 851l104 -104l-35 -6l-86 87l-86 -87l-35 6l104 104h34zM97 0v710h41v-710h-41z" />
    <glyph glyph-name="Idieresis" unicode="&#xcf;" horiz-adv-x="235" 
d="M50 763q12 0 20 7.5t8 19.5t-8 19.5t-20 7.5t-19.5 -7.5t-7.5 -19.5t7.5 -19.5t19.5 -7.5zM183 763q12 0 20 7.5t8 19.5t-8 19.5t-20 7.5t-19.5 -7.5t-7.5 -19.5t7.5 -19.5t19.5 -7.5zM97 710v-710h41v710h-41z" />
    <glyph glyph-name="Eth" unicode="&#xd0;" horiz-adv-x="742" 
d="M306 720q179 0 274 -102.5t95 -263.5q0 -159 -94 -256.5t-269 -97.5h-201v333h-84v34h84v308h-84v30q44 8 72 8q29 0 42 -13q67 20 165 20zM311 36q161 0 242 88.5t81 229.5q0 143 -82 236.5t-246 93.5q-89 0 -155 -12v-305h146v-34h-146v-297h160z" />
    <glyph glyph-name="Ntilde" unicode="&#xd1;" horiz-adv-x="731" 
d="M319 791q-33 0 -38 -49l-26 4q6 75 62 75q22 0 60 -11.5t55 -11.5q18 0 27 11t11 38l26 -3q-3 -39 -17 -57.5t-45 -18.5q-22 0 -59.5 11.5t-55.5 11.5zM594 710h40v-710h-36l-461 644v-644h-40v707l37 9l460 -646v640z" />
    <glyph glyph-name="Ograve" unicode="&#xd2;" horiz-adv-x="796" 
d="M341 848l-44 -7l82 -102l35 3zM398 -12q152 0 241.5 102.5t89.5 263.5t-89.5 263.5t-241.5 102.5t-241.5 -102.5t-89.5 -263.5t89.5 -263.5t241.5 -102.5zM398 24q-133 0 -211.5 91t-78.5 239t78.5 239t211.5 91t211.5 -91t78.5 -239t-78.5 -239t-211.5 -91z" />
    <glyph glyph-name="Oacute" unicode="&#xd3;" horiz-adv-x="796" 
d="M450 848l-73 -106l35 -3l82 102zM398 -12q152 0 241.5 102.5t89.5 263.5t-89.5 263.5t-241.5 102.5t-241.5 -102.5t-89.5 -263.5t89.5 -263.5t241.5 -102.5zM398 24q-133 0 -211.5 91t-78.5 239t78.5 239t211.5 91t211.5 -91t78.5 -239t-78.5 -239t-211.5 -91z" />
    <glyph glyph-name="Ocircumflex" unicode="&#xd4;" horiz-adv-x="796" 
d="M398 828l-86 -87l-35 6l104 104h34l104 -104l-35 -6zM398 720q152 0 241.5 -102.5t89.5 -263.5t-89.5 -263.5t-241.5 -102.5t-241.5 102.5t-89.5 263.5t89.5 263.5t241.5 102.5zM398 24q133 0 211.5 91t78.5 239t-78.5 239t-211.5 91t-211.5 -91t-78.5 -239t78.5 -239
t211.5 -91z" />
    <glyph glyph-name="Otilde" unicode="&#xd5;" horiz-adv-x="796" 
d="M518 844q-3 -39 -17 -57.5t-45 -18.5q-22 0 -59.5 11.5t-55.5 11.5q-33 0 -38 -49l-26 4q6 75 62 75q22 0 60 -11.5t55 -11.5q18 0 27 11t11 38zM398 -12q152 0 241.5 102.5t89.5 263.5t-89.5 263.5t-241.5 102.5t-241.5 -102.5t-89.5 -263.5t89.5 -263.5t241.5 -102.5z
M398 24q-133 0 -211.5 91t-78.5 239t78.5 239t211.5 91t211.5 -91t78.5 -239t-78.5 -239t-211.5 -91z" />
    <glyph glyph-name="Odieresis" unicode="&#xd6;" horiz-adv-x="796" 
d="M331 763q12 0 20 7.5t8 19.5t-8 19.5t-20 7.5t-19.5 -7.5t-7.5 -19.5t7.5 -19.5t19.5 -7.5zM464 763q12 0 20 7.5t8 19.5t-8 19.5t-20 7.5t-19.5 -7.5t-7.5 -19.5t7.5 -19.5t19.5 -7.5zM398 -12q152 0 241.5 102.5t89.5 263.5t-89.5 263.5t-241.5 102.5t-241.5 -102.5
t-89.5 -263.5t89.5 -263.5t241.5 -102.5zM398 24q-133 0 -211.5 91t-78.5 239t78.5 239t211.5 91t211.5 -91t78.5 -239t-78.5 -239t-211.5 -91z" />
    <glyph glyph-name="multiply" unicode="&#xd7;" horiz-adv-x="524" 
d="M430 462l-145 -145l145 -145l-23 -23l-145 145l-145 -145l-23 23l145 145l-145 145l23 23l145 -145l145 145z" />
    <glyph glyph-name="Oslash" unicode="&#xd8;" horiz-adv-x="796" 
d="M619 639q110 -102 110 -285q0 -161 -89.5 -263.5t-241.5 -102.5q-114 0 -197 61l-57 -81l-37 5l69 98q-109 101 -109 283q0 161 89.5 263.5t241.5 102.5q113 0 195 -60l65 92l37 -5zM108 354q0 -160 90 -252l373 527q-72 55 -173 55q-133 0 -211.5 -91t-78.5 -239z
M398 24q133 0 211.5 91t78.5 239q0 163 -92 253l-373 -527q73 -56 175 -56z" />
    <glyph glyph-name="Ugrave" unicode="&#xd9;" horiz-adv-x="728" 
d="M307 848l-44 -7l82 -102l35 3zM637 710h-41v-442q0 -245 -229 -245q-113 0 -167.5 61t-54.5 186v394q0 26 -11.5 37t-37.5 11q-44 0 -75 -7v-29h84v-406q0 -143 63.5 -212.5t198.5 -69.5q270 0 270 280v442z" />
    <glyph glyph-name="Uacute" unicode="&#xda;" horiz-adv-x="728" 
d="M416 848l-73 -106l35 -3l82 102zM637 710h-41v-442q0 -245 -229 -245q-113 0 -167.5 61t-54.5 186v394q0 26 -11.5 37t-37.5 11q-44 0 -75 -7v-29h84v-406q0 -143 63.5 -212.5t198.5 -69.5q270 0 270 280v442z" />
    <glyph glyph-name="Ucircumflex" unicode="&#xdb;" horiz-adv-x="728" 
d="M364 828l-86 -87l-35 6l104 104h34l104 -104l-35 -6zM596 710h41v-442q0 -280 -270 -280q-135 0 -198.5 69.5t-63.5 212.5v406h-84v29q31 7 75 7q26 0 37.5 -11t11.5 -37v-394q0 -125 54.5 -186t167.5 -61q229 0 229 245v442z" />
    <glyph glyph-name="Udieresis" unicode="&#xdc;" horiz-adv-x="728" 
d="M297 763q12 0 20 7.5t8 19.5t-8 19.5t-20 7.5t-19.5 -7.5t-7.5 -19.5t7.5 -19.5t19.5 -7.5zM430 763q12 0 20 7.5t8 19.5t-8 19.5t-20 7.5t-19.5 -7.5t-7.5 -19.5t7.5 -19.5t19.5 -7.5zM637 710h-41v-442q0 -245 -229 -245q-113 0 -167.5 61t-54.5 186v394q0 26 -11.5 37
t-37.5 11q-44 0 -75 -7v-29h84v-406q0 -143 63.5 -212.5t198.5 -69.5q270 0 270 280v442z" />
    <glyph glyph-name="Yacute" unicode="&#xdd;" horiz-adv-x="606" 
d="M412 841l-82 -102l-35 3l73 106zM561 716l38 -9l-263 -411v-296h-40v296l-226 380h-73v29q24 8 53 8q27 0 38.5 -7t26.5 -33l201 -343z" />
    <glyph glyph-name="Thorn" unicode="&#xde;" horiz-adv-x="573" 
d="M258 575q119 0 183.5 -52t64.5 -158q0 -105 -64.5 -156.5t-183.5 -51.5h-120v-157h-41v710h41v-135h120zM258 192q105 0 157 40.5t52 132.5q0 93 -52 134t-157 41h-120v-348h120z" />
    <glyph glyph-name="germandbls" unicode="&#xdf;" horiz-adv-x="549" 
d="M301 332q0 -17 21.5 -32t52.5 -30t62.5 -33t53 -49.5t21.5 -71.5q0 -128 -149 -128q-89 0 -138 36l2 36q59 -40 134 -40q59 0 88 23t29 74q0 35 -21.5 61.5t-52 43.5t-61.5 31.5t-52.5 33t-21.5 40.5q0 24 22.5 65t45 89.5t22.5 89.5q0 53 -28 84t-88 31
q-121 0 -121 -140v-546h-38v548q0 85 42 128.5t118 43.5q80 0 116.5 -40t36.5 -99q0 -50 -24 -100t-48 -88.5t-24 -60.5z" />
    <glyph glyph-name="agrave" unicode="&#xe0;" horiz-adv-x="565" 
d="M287 550h-35l-109 159l45 4zM453 31q33 -5 75 -5l-2 -30q-24 -3 -55 -3q-29 0 -42 13.5t-13 44.5v57q-28 -56 -80 -88t-119 -32q-71 0 -111.5 38t-40.5 102q0 69 49.5 108.5t148.5 39.5q84 0 153 -19v48q0 72 -37.5 112t-111.5 40q-132 0 -150 -114l-38 7q29 140 188 140
q91 0 138.5 -47.5t47.5 -135.5v-276zM224 21q80 0 136 54.5t56 123.5v28q-70 18 -151 18q-162 0 -162 -118q0 -51 31.5 -78.5t89.5 -27.5z" />
    <glyph glyph-name="aacute" unicode="&#xe1;" horiz-adv-x="565" 
d="M386 709l-109 -159h-35l99 163zM453 31q33 -5 75 -5l-2 -30q-24 -3 -55 -3q-29 0 -42 13.5t-13 44.5v57q-28 -56 -80 -88t-119 -32q-71 0 -111.5 38t-40.5 102q0 69 49.5 108.5t148.5 39.5q84 0 153 -19v48q0 72 -37.5 112t-111.5 40q-132 0 -150 -114l-38 7
q29 140 188 140q91 0 138.5 -47.5t47.5 -135.5v-276zM224 21q80 0 136 54.5t56 123.5v28q-70 18 -151 18q-162 0 -162 -118q0 -51 31.5 -78.5t89.5 -27.5z" />
    <glyph glyph-name="acircumflex" unicode="&#xe2;" horiz-adv-x="565" 
d="M266 692l-103 -130l-36 2l122 153h34l122 -153l-36 -2zM453 31q33 -5 75 -5l-2 -30q-24 -3 -55 -3q-29 0 -42 13.5t-13 44.5v57q-28 -56 -80 -88t-119 -32q-71 0 -111.5 38t-40.5 102q0 69 49.5 108.5t148.5 39.5q84 0 153 -19v48q0 72 -37.5 112t-111.5 40
q-132 0 -150 -114l-38 7q29 140 188 140q91 0 138.5 -47.5t47.5 -135.5v-276zM224 21q80 0 136 54.5t56 123.5v28q-70 18 -151 18q-162 0 -162 -118q0 -51 31.5 -78.5t89.5 -27.5z" />
    <glyph glyph-name="atilde" unicode="&#xe3;" horiz-adv-x="565" 
d="M181 654q-47 0 -53 -70l-27 4q7 95 80 95q30 0 78.5 -23t76.5 -23q23 0 35.5 16t16.5 54l27 -3q-7 -97 -79 -97q-30 0 -80 23.5t-75 23.5zM453 31q33 -5 75 -5l-2 -30q-24 -3 -55 -3q-29 0 -42 13.5t-13 44.5v57q-28 -56 -80 -88t-119 -32q-71 0 -111.5 38t-40.5 102
q0 69 49.5 108.5t148.5 39.5q84 0 153 -19v48q0 72 -37.5 112t-111.5 40q-132 0 -150 -114l-38 7q29 140 188 140q91 0 138.5 -47.5t47.5 -135.5v-276zM224 21q80 0 136 54.5t56 123.5v28q-70 18 -151 18q-162 0 -162 -118q0 -51 31.5 -78.5t89.5 -27.5z" />
    <glyph glyph-name="adieresis" unicode="&#xe4;" horiz-adv-x="565" 
d="M200 608q-13 0 -21.5 8.5t-8.5 21.5t8.5 21.5t21.5 8.5t21 -8.5t8 -21.5t-8 -21.5t-21 -8.5zM333 608q-13 0 -21 8.5t-8 21.5t8 21.5t21 8.5t21.5 -8.5t8.5 -21.5t-8.5 -21.5t-21.5 -8.5zM453 31q33 -5 75 -5l-2 -30q-24 -3 -55 -3q-29 0 -42 13.5t-13 44.5v57
q-28 -56 -80 -88t-119 -32q-71 0 -111.5 38t-40.5 102q0 69 49.5 108.5t148.5 39.5q84 0 153 -19v48q0 72 -37.5 112t-111.5 40q-132 0 -150 -114l-38 7q29 140 188 140q91 0 138.5 -47.5t47.5 -135.5v-276zM224 21q80 0 136 54.5t56 123.5v28q-70 18 -151 18
q-162 0 -162 -118q0 -51 31.5 -78.5t89.5 -27.5z" />
    <glyph glyph-name="aring" unicode="&#xe5;" horiz-adv-x="565" 
d="M266 550q-43 0 -67 24t-24 62t24 62t67 24t67 -24t24 -62t-24 -62t-67 -24zM266 701q-32 0 -49 -18.5t-17 -46.5t17 -46.5t49 -18.5t49 18.5t17 46.5t-17 46.5t-49 18.5zM453 31q33 -5 75 -5l-2 -30q-24 -3 -55 -3q-29 0 -42 13.5t-13 44.5v57q-28 -56 -80 -88t-119 -32
q-71 0 -111.5 38t-40.5 102q0 69 49.5 108.5t148.5 39.5q84 0 153 -19v48q0 72 -37.5 112t-111.5 40q-132 0 -150 -114l-38 7q29 140 188 140q91 0 138.5 -47.5t47.5 -135.5v-276zM224 21q80 0 136 54.5t56 123.5v28q-70 18 -151 18q-162 0 -162 -118q0 -51 31.5 -78.5
t89.5 -27.5z" />
    <glyph glyph-name="ae" unicode="&#xe6;" horiz-adv-x="902" 
d="M464 231q3 -209 190 -209q55 0 97 17.5t59 33.5l10 -33q-22 -20 -67.5 -36t-103.5 -16q-163 0 -208 140q-26 -66 -84.5 -103t-128.5 -37q-71 0 -112.5 38t-41.5 102q0 68 50 108t148 40q84 0 153 -19v48q0 72 -37.5 112t-111.5 40q-131 0 -149 -114l-38 7q29 140 187 140
q141 0 177 -112q53 112 181 112q94 0 144 -64t50 -164v-31h-364zM634 456q-72 0 -118 -49t-51 -145h326q-1 92 -44 143t-113 51zM233 21q82 0 137 54t55 126v26q-68 18 -150 18q-163 0 -163 -118q0 -51 32.5 -78.5t88.5 -27.5z" />
    <glyph glyph-name="ccedilla" unicode="&#xe7;" horiz-adv-x="548" 
d="M297 -36q85 0 85 -63q0 -92 -134 -92l5 29q97 0 97 61q0 24 -18.5 34t-64.5 10l10 46q-94 5 -148.5 67.5t-54.5 180.5q0 113 58 183t163 70q83 0 127 -42t50 -113l-37 -5q-12 126 -142 126q-84 0 -132 -59t-48 -158q0 -107 49.5 -162t135.5 -55q97 0 172 66l10 -35
q-74 -64 -178 -65z" />
    <glyph glyph-name="egrave" unicode="&#xe8;" horiz-adv-x="551" 
d="M303 550h-35l-109 159l45 4zM113 231q3 -209 189 -209q56 0 98 17.5t59 33.5l10 -33q-22 -20 -67.5 -36t-103.5 -16q-109 0 -166.5 64.5t-57.5 188.5q0 116 56.5 182.5t152.5 66.5q94 0 144 -64t50 -164v-31h-364zM283 456q-72 0 -118 -49t-52 -145h327q-1 92 -44 143
t-113 51z" />
    <glyph glyph-name="eacute" unicode="&#xe9;" horiz-adv-x="551" 
d="M402 709l-109 -159h-35l99 163zM113 231q3 -209 189 -209q56 0 98 17.5t59 33.5l10 -33q-22 -20 -67.5 -36t-103.5 -16q-109 0 -166.5 64.5t-57.5 188.5q0 116 56.5 182.5t152.5 66.5q94 0 144 -64t50 -164v-31h-364zM283 456q-72 0 -118 -49t-52 -145h327q-1 92 -44 143
t-113 51z" />
    <glyph glyph-name="ecircumflex" unicode="&#xea;" horiz-adv-x="551" 
d="M282 692l-103 -130l-36 2l122 153h34l122 -153l-36 -2zM113 231q3 -209 189 -209q56 0 98 17.5t59 33.5l10 -33q-22 -20 -67.5 -36t-103.5 -16q-109 0 -166.5 64.5t-57.5 188.5q0 116 56.5 182.5t152.5 66.5q94 0 144 -64t50 -164v-31h-364zM283 456q-72 0 -118 -49
t-52 -145h327q-1 92 -44 143t-113 51z" />
    <glyph glyph-name="edieresis" unicode="&#xeb;" horiz-adv-x="551" 
d="M216 608q-13 0 -21.5 8.5t-8.5 21.5t8.5 21.5t21.5 8.5t21 -8.5t8 -21.5t-8 -21.5t-21 -8.5zM349 608q-13 0 -21 8.5t-8 21.5t8 21.5t21 8.5t21.5 -8.5t8.5 -21.5t-8.5 -21.5t-21.5 -8.5zM113 231q3 -209 189 -209q56 0 98 17.5t59 33.5l10 -33q-22 -20 -67.5 -36
t-103.5 -16q-109 0 -166.5 64.5t-57.5 188.5q0 116 56.5 182.5t152.5 66.5q94 0 144 -64t50 -164v-31h-364zM283 456q-72 0 -118 -49t-52 -145h327q-1 92 -44 143t-113 51z" />
    <glyph glyph-name="igrave" unicode="&#xec;" horiz-adv-x="206" 
d="M-2 713l-45 -4l109 -159h35zM95 30v450h-38v-439q0 -27 12 -37.5t42 -10.5q20 0 56 3l2 30q-49 0 -74 4z" />
    <glyph glyph-name="iacute" unicode="&#xed;" horiz-adv-x="206" 
d="M151 713l-99 -163h35l109 159zM95 30v450h-38v-439q0 -27 12 -37.5t42 -10.5q20 0 56 3l2 30q-49 0 -74 4z" />
    <glyph glyph-name="icircumflex" unicode="&#xee;" horiz-adv-x="206" 
d="M93 717l122 -153l-36 -2l-103 130l-103 -130l-36 2l122 153h34zM95 480v-450q25 -4 74 -4l-2 -30q-36 -3 -56 -3q-30 0 -42 10.5t-12 37.5v439h38z" />
    <glyph glyph-name="idieresis" unicode="&#xef;" horiz-adv-x="206" 
d="M9 608q13 0 21 8.5t8 21.5t-8 21.5t-21 8.5t-21.5 -8.5t-8.5 -21.5t8.5 -21.5t21.5 -8.5zM142 608q13 0 21.5 8.5t8.5 21.5t-8.5 21.5t-21.5 8.5t-21 -8.5t-8 -21.5t8 -21.5t21 -8.5zM95 30v450h-38v-439q0 -27 12 -37.5t42 -10.5q20 0 56 3l2 30q-49 0 -74 4z" />
    <glyph glyph-name="eth" unicode="&#xf0;" horiz-adv-x="601" 
d="M399 626q128 -125 128 -393q0 -118 -62 -181.5t-164 -63.5t-164.5 63.5t-62.5 176.5q0 114 62.5 178t164.5 64q109 0 175 -84q-28 145 -113 224l-189 -84l-6 31l168 74q-79 57 -195 57l5 32q139 0 228 -72l124 55l6 -31zM301 22q86 0 137 54.5t51 151.5t-51 152.5
t-137 55.5t-137 -55.5t-51 -152.5t50.5 -151.5t137.5 -54.5z" />
    <glyph glyph-name="ntilde" unicode="&#xf1;" horiz-adv-x="609" 
d="M224 654q-47 0 -53 -70l-27 4q7 95 80 95q31 0 79.5 -23t75.5 -23q23 0 35.5 16t16.5 54l27 -3q-7 -97 -79 -97q-31 0 -81 23.5t-74 23.5zM498 30q24 -4 74 -4l-2 -30q-45 -3 -56 -3q-32 0 -43 9.5t-11 36.5v252q0 164 -148 164q-74 0 -124.5 -51t-50.5 -114v-290h-38
v441q-16 12 -62 12l1 29q17 5 33 5q66 0 66 -68v-39q24 49 71 79.5t113 30.5q177 0 177 -197v-263z" />
    <glyph glyph-name="ograve" unicode="&#xf2;" horiz-adv-x="601" 
d="M223 713l-45 -4l109 -159h35zM74 238q0 -118 62.5 -184t164.5 -66t164 66t62 184t-62 185t-164 67t-164.5 -66.5t-62.5 -185.5zM113 238q0 102 51 160t137 58t137 -58t51 -160t-51 -159t-137 -57q-87 0 -137.5 57t-50.5 159z" />
    <glyph glyph-name="oacute" unicode="&#xf3;" horiz-adv-x="601" 
d="M376 713l-99 -163h35l109 159zM74 238q0 -118 62.5 -184t164.5 -66t164 66t62 184t-62 185t-164 67t-164.5 -66.5t-62.5 -185.5zM113 238q0 102 51 160t137 58t137 -58t51 -160t-51 -159t-137 -57q-87 0 -137.5 57t-50.5 159z" />
    <glyph glyph-name="ocircumflex" unicode="&#xf4;" horiz-adv-x="601" 
d="M301 692l-103 -130l-36 2l122 153h34l122 -153l-36 -2zM301 490q102 0 164 -67t62 -185t-62 -184t-164 -66t-164.5 66t-62.5 184q0 119 62.5 185.5t164.5 66.5zM301 22q86 0 137 57t51 159t-51 160t-137 58t-137 -58t-51 -160t50.5 -159t137.5 -57z" />
    <glyph glyph-name="otilde" unicode="&#xf5;" horiz-adv-x="601" 
d="M450 704q-7 -97 -79 -97q-31 0 -81 23.5t-74 23.5q-47 0 -53 -70l-27 4q7 95 80 95q30 0 79 -23t76 -23q23 0 35.5 16t16.5 54zM74 238q0 -118 62.5 -184t164.5 -66t164 66t62 184t-62 185t-164 67t-164.5 -66.5t-62.5 -185.5zM113 238q0 102 51 160t137 58t137 -58
t51 -160t-51 -159t-137 -57q-87 0 -137.5 57t-50.5 159z" />
    <glyph glyph-name="odieresis" unicode="&#xf6;" horiz-adv-x="601" 
d="M234 608q13 0 21 8.5t8 21.5t-8 21.5t-21 8.5t-21.5 -8.5t-8.5 -21.5t8.5 -21.5t21.5 -8.5zM367 608q13 0 21.5 8.5t8.5 21.5t-8.5 21.5t-21.5 8.5t-21 -8.5t-8 -21.5t8 -21.5t21 -8.5zM74 238q0 -118 62.5 -184t164.5 -66t164 66t62 184t-62 185t-164 67t-164.5 -66.5
t-62.5 -185.5zM113 238q0 102 51 160t137 58t137 -58t51 -160t-51 -159t-137 -57q-87 0 -137.5 57t-50.5 159z" />
    <glyph glyph-name="divide" unicode="&#xf7;" horiz-adv-x="586" 
d="M293 437q15 0 25.5 10.5t10.5 25.5t-10.5 25.5t-25.5 10.5t-25.5 -10.5t-10.5 -25.5t10.5 -25.5t25.5 -10.5zM492 334h-398v-34h398v34zM293 125q15 0 25.5 10.5t10.5 25.5t-10.5 25.5t-25.5 10.5t-25.5 -10.5t-10.5 -25.5t10.5 -25.5t25.5 -10.5z" />
    <glyph glyph-name="oslash" unicode="&#xf8;" horiz-adv-x="601" 
d="M445 442q82 -69 82 -204q0 -118 -62 -184t-164 -66q-69 0 -120 30l-36 -57l-32 6l43 69q-82 68 -82 202q0 119 62.5 185.5t164.5 66.5q67 0 120 -31l35 57l32 -5zM113 238q0 -112 62 -171l227 362q-46 27 -101 27q-86 0 -137 -58t-51 -160zM301 22q86 0 137 57t51 159
q0 114 -63 172l-226 -361q42 -27 101 -27z" />
    <glyph glyph-name="ugrave" unicode="&#xf9;" 
d="M314 550h-35l-109 159l45 4zM487 31q28 -5 74 -5l-2 -30q-27 -3 -50 -3q-31 0 -45.5 13.5t-14.5 47.5v55q-27 -58 -78 -89.5t-120 -31.5q-81 0 -116.5 43t-35.5 144v266q-19 12 -62 12l1 29q16 4 35 4q34 0 49 -15t15 -48v-242q0 -86 27.5 -122t96.5 -36q87 0 137.5 58.5
t50.5 126.5v272h38v-449z" />
    <glyph glyph-name="uacute" unicode="&#xfa;" 
d="M413 709l-109 -159h-35l99 163zM487 31q28 -5 74 -5l-2 -30q-27 -3 -50 -3q-31 0 -45.5 13.5t-14.5 47.5v55q-27 -58 -78 -89.5t-120 -31.5q-81 0 -116.5 43t-35.5 144v266q-19 12 -62 12l1 29q16 4 35 4q34 0 49 -15t15 -48v-242q0 -86 27.5 -122t96.5 -36
q87 0 137.5 58.5t50.5 126.5v272h38v-449z" />
    <glyph glyph-name="ucircumflex" unicode="&#xfb;" 
d="M293 692l-103 -130l-36 2l122 153h34l122 -153l-36 -2zM487 31q28 -5 74 -5l-2 -30q-27 -3 -50 -3q-31 0 -45.5 13.5t-14.5 47.5v55q-27 -58 -78 -89.5t-120 -31.5q-81 0 -116.5 43t-35.5 144v266q-19 12 -62 12l1 29q16 4 35 4q34 0 49 -15t15 -48v-242q0 -86 27.5 -122
t96.5 -36q87 0 137.5 58.5t50.5 126.5v272h38v-449z" />
    <glyph glyph-name="udieresis" unicode="&#xfc;" 
d="M227 608q-13 0 -21.5 8.5t-8.5 21.5t8.5 21.5t21.5 8.5t21 -8.5t8 -21.5t-8 -21.5t-21 -8.5zM360 608q-13 0 -21 8.5t-8 21.5t8 21.5t21 8.5t21.5 -8.5t8.5 -21.5t-8.5 -21.5t-21.5 -8.5zM487 31q28 -5 74 -5l-2 -30q-27 -3 -50 -3q-31 0 -45.5 13.5t-14.5 47.5v55
q-27 -58 -78 -89.5t-120 -31.5q-81 0 -116.5 43t-35.5 144v266q-19 12 -62 12l1 29q16 4 35 4q34 0 49 -15t15 -48v-242q0 -86 27.5 -122t96.5 -36q87 0 137.5 58.5t50.5 126.5v272h38v-449z" />
    <glyph glyph-name="yacute" unicode="&#xfd;" horiz-adv-x="491" 
d="M371 709l-109 -159h-35l99 163zM441 485l40 -6l-239 -584q-18 -43 -47 -64t-78 -21q-23 0 -60 11l-4 36q39 -13 64 -13q36 0 57.5 13.5t34.5 47.5l38 94l-195 445q-15 7 -47 7l1 30q16 4 30 4q21 0 34.5 -10t23.5 -34l172 -396z" />
    <glyph glyph-name="thorn" unicode="&#xfe;" horiz-adv-x="573" 
d="M287 490q101 0 156.5 -65t55.5 -183q0 -121 -60.5 -187.5t-178.5 -66.5q-82 0 -138 31v-199h-38v890h38v-313q46 93 165 93zM261 22q94 0 146.5 55t52.5 164q0 104 -44.5 159.5t-131.5 55.5q-72 0 -117 -45.5t-45 -105.5v-248q60 -35 139 -35z" />
    <glyph glyph-name="ydieresis" unicode="&#xff;" horiz-adv-x="491" 
d="M185 608q-13 0 -21.5 8.5t-8.5 21.5t8.5 21.5t21.5 8.5t21 -8.5t8 -21.5t-8 -21.5t-21 -8.5zM318 608q-13 0 -21 8.5t-8 21.5t8 21.5t21 8.5t21.5 -8.5t8.5 -21.5t-8.5 -21.5t-21.5 -8.5zM441 485l40 -6l-239 -584q-18 -43 -47 -64t-78 -21q-23 0 -60 11l-4 36
q39 -13 64 -13q36 0 57.5 13.5t34.5 47.5l38 94l-195 445q-15 7 -47 7l1 30q16 4 30 4q21 0 34.5 -10t23.5 -34l172 -396z" />
    <glyph glyph-name="Amacron" unicode="&#x100;" horiz-adv-x="701" 
d="M451 804v-32h-266v32h266zM611 33q19 -6 71 -6l-2 -30q-17 -5 -47 -5q-26 0 -39 8t-22 30l-75 189h-359l-87 -219h-41l284 707l45 9zM151 254h333l-167 421z" />
    <glyph glyph-name="amacron" unicode="&#x101;" horiz-adv-x="565" 
d="M409 644v-32h-286v32h286zM453 31q33 -5 75 -5l-2 -30q-24 -3 -55 -3q-29 0 -42 13.5t-13 44.5v57q-28 -56 -80 -88t-119 -32q-71 0 -111.5 38t-40.5 102q0 69 49.5 108.5t148.5 39.5q84 0 153 -19v48q0 72 -37.5 112t-111.5 40q-132 0 -150 -114l-38 7q29 140 188 140
q91 0 138.5 -47.5t47.5 -135.5v-276zM224 21q80 0 136 54.5t56 123.5v28q-70 18 -151 18q-162 0 -162 -118q0 -51 31.5 -78.5t89.5 -27.5z" />
    <glyph glyph-name="Abreve" unicode="&#x102;" horiz-adv-x="701" 
d="M318 739q-101 0 -109 109l28 3q4 -45 24 -64t57 -19t57.5 19t24.5 64l28 -3q-8 -109 -110 -109zM611 33q19 -6 71 -6l-2 -30q-17 -5 -47 -5q-26 0 -39 8t-22 30l-75 189h-359l-87 -219h-41l284 707l45 9zM151 254h333l-167 421z" />
    <glyph glyph-name="abreve" unicode="&#x103;" horiz-adv-x="565" 
d="M266 561q-63 0 -95.5 34.5t-37.5 106.5l31 2q5 -63 30.5 -87.5t71.5 -24.5t71.5 24.5t30.5 87.5l31 -2q-5 -72 -37.5 -106.5t-95.5 -34.5zM453 31q33 -5 75 -5l-2 -30q-24 -3 -55 -3q-29 0 -42 13.5t-13 44.5v57q-28 -56 -80 -88t-119 -32q-71 0 -111.5 38t-40.5 102
q0 69 49.5 108.5t148.5 39.5q84 0 153 -19v48q0 72 -37.5 112t-111.5 40q-132 0 -150 -114l-38 7q29 140 188 140q91 0 138.5 -47.5t47.5 -135.5v-276zM224 21q80 0 136 54.5t56 123.5v28q-70 18 -151 18q-162 0 -162 -118q0 -51 31.5 -78.5t89.5 -27.5z" />
    <glyph glyph-name="Aogonek" unicode="&#x104;" horiz-adv-x="701" 
d="M681 -3q-103 -51 -103 -113q0 -48 48 -48q27 0 53 12l2 -30q-20 -12 -61 -12q-79 0 -79 70t91 116q-25 0 -38 8t-22 30l-75 189h-359l-87 -219h-41l284 707l45 9l272 -683q19 -6 71 -6l-2 -30h1zM151 254h333l-167 421z" />
    <glyph glyph-name="aogonek" unicode="&#x105;" horiz-adv-x="565" 
d="M526 -4q-103 -52 -103 -113q0 -48 48 -48q27 0 53 12l2 -30q-20 -12 -61 -12q-79 0 -79 70q0 73 96 118h-11q-29 0 -42 13.5t-13 44.5v57q-28 -56 -80 -88t-119 -32q-71 0 -111.5 38t-40.5 102q0 69 49.5 108.5t148.5 39.5q84 0 153 -19v48q0 72 -37.5 112t-111.5 40
q-132 0 -150 -114l-38 7q29 140 188 140q91 0 138.5 -47.5t47.5 -135.5v-276q33 -5 75 -5l-2 -30h-1h1zM224 21q80 0 136 54.5t56 123.5v28q-70 18 -151 18q-162 0 -162 -118q0 -51 31.5 -78.5t89.5 -27.5z" />
    <glyph glyph-name="Cacute" unicode="&#x106;" horiz-adv-x="692" 
d="M433 848l-73 -106l35 -3l82 102zM407 24q-138 0 -218.5 86.5t-80.5 240.5q0 161 75 247.5t200 86.5q108 0 164 -48t58 -132l40 4q0 92 -68.5 151.5t-195.5 59.5q-143 0 -228.5 -97t-85.5 -273q0 -171 91.5 -266.5t245.5 -95.5q153 0 237 65l-10 36q-85 -65 -224 -65z" />
    <glyph glyph-name="cacute" unicode="&#x107;" horiz-adv-x="548" 
d="M369 713l-99 -163h35l109 159zM470 88q-75 -66 -172 -66q-86 0 -135.5 55t-49.5 162q0 99 48 158t132 59q130 0 142 -126l37 5q-6 71 -50 113t-127 42q-105 0 -163 -70t-58 -183q0 -123 60 -186t163 -63q108 0 183 65z" />
    <glyph glyph-name="Cdotaccent" unicode="&#x10a;" horiz-adv-x="692" 
d="M382 766q13 0 21.5 8.5t8.5 22.5q0 13 -8.5 21.5t-21.5 8.5t-22 -8.5t-9 -21.5t8.5 -22t22.5 -9zM407 24q-138 0 -218.5 86.5t-80.5 240.5q0 161 75 247.5t200 86.5q108 0 164 -48t58 -132l40 4q0 92 -68.5 151.5t-195.5 59.5q-143 0 -228.5 -97t-85.5 -273
q0 -171 91.5 -266.5t245.5 -95.5q153 0 237 65l-10 36q-85 -65 -224 -65z" />
    <glyph glyph-name="cdotaccent" unicode="&#x10b;" horiz-adv-x="548" 
d="M294 606q14 0 23 9.5t9 23.5q0 13 -9 22.5t-23 9.5t-23 -9.5t-9 -22.5q0 -14 9 -23.5t23 -9.5zM470 88q-75 -66 -172 -66q-86 0 -135.5 55t-49.5 162q0 99 48 158t132 59q130 0 142 -126l37 5q-6 71 -50 113t-127 42q-105 0 -163 -70t-58 -183q0 -123 60 -186t163 -63
q108 0 183 65z" />
    <glyph glyph-name="Ccaron" unicode="&#x10c;" horiz-adv-x="692" 
d="M398 741h-34l-104 104l35 6l86 -87l86 87l35 -6zM407 24q139 0 224 65l10 -36q-84 -65 -237 -65q-154 0 -245.5 95.5t-91.5 266.5q0 176 85.5 273t228.5 97q127 0 195.5 -59.5t68.5 -151.5l-40 -4q-2 84 -58 132t-164 48q-125 0 -200 -86.5t-75 -247.5
q0 -154 80.5 -240.5t218.5 -86.5z" />
    <glyph glyph-name="ccaron" unicode="&#x10d;" horiz-adv-x="548" 
d="M311 557h-34l-122 153l36 2l103 -130l103 130l36 -2zM470 88l10 -35q-75 -65 -183 -65q-103 0 -163 63t-60 186q0 113 58 183t163 70q83 0 127 -42t50 -113l-37 -5q-12 126 -142 126q-84 0 -132 -59t-48 -158q0 -107 49.5 -162t135.5 -55q97 0 172 66z" />
    <glyph glyph-name="Dcaron" unicode="&#x10e;" horiz-adv-x="742" 
d="M322 741h-34l-104 104l35 6l86 -87l86 87l35 -6zM306 720q179 0 274 -102.5t95 -263.5q0 -159 -94 -256.5t-269 -97.5h-201v675h-84v30q44 8 72 8q29 0 42 -13q67 20 165 20zM311 36q161 0 242 88.5t81 229.5q0 143 -82 236.5t-246 93.5q-89 0 -155 -12v-636h160z" />
    <glyph glyph-name="dcaron" unicode="&#x10f;" horiz-adv-x="562" 
d="M570 713l38 -3l-32 -183l-34 3zM482 710v-679q30 -5 76 -5l-2 -30q-21 -3 -57 -3q-29 0 -42 15t-13 54v24q-55 -98 -173 -98q-89 0 -143 64t-54 182q0 119 59.5 187.5t160.5 68.5q93 0 150 -43v263h38zM276 22q72 0 120 45.5t48 104.5v237q-61 47 -149 47q-84 0 -133 -61
t-49 -161q0 -107 46 -159.5t117 -52.5z" />
    <glyph glyph-name="Dcroat" unicode="&#x110;" horiz-adv-x="742" 
d="M306 720q179 0 274 -102.5t95 -263.5q0 -159 -94 -256.5t-269 -97.5h-201v333h-84v34h84v308h-84v30q44 8 72 8q29 0 42 -13q67 20 165 20zM311 36q161 0 242 88.5t81 229.5q0 143 -82 236.5t-246 93.5q-89 0 -155 -12v-305h146v-34h-146v-297h160z" />
    <glyph glyph-name="dcroat" unicode="&#x111;" horiz-adv-x="585" 
d="M558 572h-76v-541q30 -5 76 -5l-2 -30q-21 -3 -57 -3q-29 0 -42 15t-13 54v24q-55 -98 -173 -98q-89 0 -143 64t-54 182q0 119 59.5 187.5t160.5 68.5q93 0 150 -43v125h-192v31h192v107h38v-107h76v-31zM276 22q72 0 120 45.5t48 104.5v237q-61 47 -149 47
q-84 0 -133 -61t-49 -161q0 -107 46 -159.5t117 -52.5z" />
    <glyph glyph-name="Emacron" unicode="&#x112;" horiz-adv-x="563" 
d="M446 804v-32h-266v32h266zM138 340v-304h388v-36h-429v710h429l-5 -35h-383v-300h358v-35h-358z" />
    <glyph glyph-name="emacron" unicode="&#x113;" horiz-adv-x="551" 
d="M425 644v-32h-286v32h286zM113 231q3 -209 189 -209q56 0 98 17.5t59 33.5l10 -33q-22 -20 -67.5 -36t-103.5 -16q-109 0 -166.5 64.5t-57.5 188.5q0 116 56.5 182.5t152.5 66.5q94 0 144 -64t50 -164v-31h-364zM283 456q-72 0 -118 -49t-52 -145h327q-1 92 -44 143
t-113 51z" />
    <glyph glyph-name="Edotaccent" unicode="&#x116;" horiz-adv-x="563" 
d="M314 766q-14 0 -22.5 9t-8.5 22t9 21.5t22 8.5t21.5 -8.5t8.5 -21.5q0 -14 -8.5 -22.5t-21.5 -8.5zM138 340v-304h388v-36h-429v710h429l-5 -35h-383v-300h358v-35h-358z" />
    <glyph glyph-name="edotaccent" unicode="&#x117;" horiz-adv-x="551" 
d="M282 606q-14 0 -23 9.5t-9 23.5q0 13 9 22.5t23 9.5t23 -9.5t9 -22.5q0 -14 -9 -23.5t-23 -9.5zM113 231q3 -209 189 -209q56 0 98 17.5t59 33.5l10 -33q-22 -20 -67.5 -36t-103.5 -16q-109 0 -166.5 64.5t-57.5 188.5q0 116 56.5 182.5t152.5 66.5q94 0 144 -64t50 -164
v-31h-364zM283 456q-72 0 -118 -49t-52 -145h327q-1 92 -44 143t-113 51z" />
    <glyph glyph-name="Eogonek" unicode="&#x118;" horiz-adv-x="563" 
d="M138 340v-304h388v-36q-103 -52 -103 -113q0 -48 48 -48q27 0 53 12l2 -30q-20 -12 -61 -12q-79 0 -79 70q0 76 102 121h-391v710h429l-5 -35h-383v-300h358v-35h-358z" />
    <glyph glyph-name="eogonek" unicode="&#x119;" horiz-adv-x="551" 
d="M113 231q3 -209 189 -209q56 0 98 17.5t59 33.5l10 -33q-14 -15 -46 -28q-103 -52 -103 -113q0 -48 48 -48q27 0 53 12l2 -30q-20 -12 -61 -12q-79 0 -79 70q0 59 64 100q-24 -3 -49 -3q-109 0 -166.5 64.5t-57.5 188.5q0 116 56.5 182.5t152.5 66.5q94 0 144 -64
t50 -164v-31h-364zM283 456q-72 0 -118 -49t-52 -145h327q-1 92 -44 143t-113 51z" />
    <glyph glyph-name="Ecaron" unicode="&#x11a;" horiz-adv-x="563" 
d="M330 741h-34l-104 104l35 6l86 -87l86 87l35 -6zM138 340v-304h388v-36h-429v710h429l-5 -35h-383v-300h358v-35h-358z" />
    <glyph glyph-name="ecaron" unicode="&#x11b;" horiz-adv-x="551" 
d="M299 557h-34l-122 153l36 2l103 -130l103 130l36 -2zM113 231q3 -209 189 -209q56 0 98 17.5t59 33.5l10 -33q-22 -20 -67.5 -36t-103.5 -16q-109 0 -166.5 64.5t-57.5 188.5q0 116 56.5 182.5t152.5 66.5q94 0 144 -64t50 -164v-31h-364zM283 456q-72 0 -118 -49
t-52 -145h327q-1 92 -44 143t-113 51z" />
    <glyph glyph-name="Gbreve" unicode="&#x11e;" horiz-adv-x="768" 
d="M390 739q-101 0 -109 109l28 3q4 -45 24 -64t57 -19t57.5 19t24.5 64l28 -3q-8 -109 -110 -109zM668 362q23 0 23 -22v-340h-30l-4 137q-64 -149 -260 -149q-154 0 -242 97t-88 269q0 177 91.5 271.5t247.5 94.5q111 0 179 -50.5t79 -141.5l-40 -8q-8 76 -66 120.5
t-152 44.5q-140 0 -219 -87.5t-79 -243.5q0 -155 77.5 -242.5t214.5 -87.5q113 0 183.5 60.5t70.5 185.5v59h-238v33h252z" />
    <glyph glyph-name="gbreve" unicode="&#x11f;" horiz-adv-x="523" 
d="M278 561q-63 0 -95.5 34.5t-37.5 106.5l31 2q5 -63 30.5 -87.5t71.5 -24.5t71.5 24.5t30.5 87.5l31 -2q-5 -72 -37.5 -106.5t-95.5 -34.5zM375 75q65 -1 98 -33.5t33 -81.5q0 -66 -57.5 -108t-166.5 -42q-115 0 -166.5 33t-51.5 101t74 111q-48 22 -48 71q0 59 72 101
q-59 39 -59 115q0 65 46 106.5t128 41.5q65 0 106 -26q27 83 124 89l6 -35q-84 -4 -107 -70q45 -42 45 -105q0 -65 -46 -106t-128 -41q-55 0 -92 18q-61 -37 -61 -80q0 -31 21.5 -44.5t67.5 -13.5zM139 342q0 -56 37 -86.5t101 -30.5t101 30.5t37 86.5t-37 87.5t-101 31.5
t-101 -31t-37 -88zM284 -157q90 0 137 32t47 79q0 41 -26.5 65t-77.5 24h-164q-19 0 -28 2q-70 -35 -70 -99q0 -51 41 -77t141 -26z" />
    <glyph glyph-name="Gdotaccent" unicode="&#x120;" horiz-adv-x="768" 
d="M391 766q-13 0 -22 9t-9 22t9 21.5t22 8.5t21.5 -8.5t8.5 -21.5q0 -14 -8.5 -22.5t-21.5 -8.5zM668 362q23 0 23 -22v-340h-30l-4 137q-64 -149 -260 -149q-154 0 -242 97t-88 269q0 177 91.5 271.5t247.5 94.5q111 0 179 -50.5t79 -141.5l-40 -8q-8 76 -66 120.5
t-152 44.5q-140 0 -219 -87.5t-79 -243.5q0 -155 77.5 -242.5t214.5 -87.5q113 0 183.5 60.5t70.5 185.5v59h-238v33h252z" />
    <glyph glyph-name="gdotaccent" unicode="&#x121;" horiz-adv-x="523" 
d="M278 606q-14 0 -23 9.5t-9 23.5q0 13 9 22.5t23 9.5t23 -9.5t9 -22.5q0 -14 -9 -23.5t-23 -9.5zM375 75q65 -1 98 -33.5t33 -81.5q0 -66 -57.5 -108t-166.5 -42q-115 0 -166.5 33t-51.5 101t74 111q-48 22 -48 71q0 59 72 101q-59 39 -59 115q0 65 46 106.5t128 41.5
q65 0 106 -26q27 83 124 89l6 -35q-84 -4 -107 -70q45 -42 45 -105q0 -65 -46 -106t-128 -41q-55 0 -92 18q-61 -37 -61 -80q0 -31 21.5 -44.5t67.5 -13.5zM139 342q0 -56 37 -86.5t101 -30.5t101 30.5t37 86.5t-37 87.5t-101 31.5t-101 -31t-37 -88zM284 -157q90 0 137 32
t47 79q0 41 -26.5 65t-77.5 24h-164q-19 0 -28 2q-70 -35 -70 -99q0 -51 41 -77t141 -26z" />
    <glyph glyph-name="Gcommaaccent" unicode="&#x122;" horiz-adv-x="768" 
d="M668 362q23 0 23 -22v-340h-30l-4 137q-64 -149 -260 -149q-154 0 -242 97t-88 269q0 177 91.5 271.5t247.5 94.5q111 0 179 -50.5t79 -141.5l-40 -8q-8 76 -66 120.5t-152 44.5q-140 0 -219 -87.5t-79 -243.5q0 -155 77.5 -242.5t214.5 -87.5q113 0 183.5 60.5
t70.5 185.5v59h-238v33h252zM400 -49q42 0 42 -49q0 -65 -67 -83l-6 21q40 15 40 51q-42 0 -42 30t33 30z" />
    <glyph glyph-name="gcommaaccent" unicode="&#x123;" horiz-adv-x="526" 
d="M288 591q-42 0 -42 49q0 65 67 83l5 -21q-39 -14 -39 -51q42 0 42 -30t-33 -30zM375 75q65 -1 98 -33.5t33 -81.5q0 -66 -57.5 -108t-166.5 -42q-115 0 -166.5 33t-51.5 101t74 111q-48 22 -48 71q0 59 72 101q-59 39 -59 115q0 65 46 106.5t128 41.5q65 0 106 -26
q27 83 124 89l6 -35q-84 -4 -107 -70q45 -42 45 -105q0 -65 -46 -106t-128 -41q-55 0 -92 18q-61 -37 -61 -80q0 -31 21.5 -44.5t67.5 -13.5zM139 342q0 -56 37 -86.5t101 -30.5t101 30.5t37 86.5t-37 87.5t-101 31.5t-101 -31t-37 -88zM284 -157q90 0 137 32t47 79
q0 41 -26.5 65t-77.5 24h-164q-19 0 -28 2q-70 -35 -70 -99q0 -51 41 -77t141 -26z" />
    <glyph glyph-name="Hbar" unicode="&#x126;" horiz-adv-x="745" 
d="M711 572h-80v-541q32 -4 78 -4l-2 -30q-23 -5 -62 -5q-28 0 -41 9.5t-13 33.5v293h-453v-328h-41v572h-80v31h80v107h41v-107h453v107h40v-107h80v-31zM591 365v207h-453v-207h453z" />
    <glyph glyph-name="hbar" unicode="&#x127;" horiz-adv-x="594" 
d="M482 30q25 -4 75 -4l-2 -30q-45 -3 -56 -3q-32 0 -43.5 10t-11.5 38v250q0 164 -147 164q-74 0 -124.5 -51t-50.5 -114v-290h-38v572h-84v31h84v107h38v-107h184v-31h-184v-192q24 49 71 79.5t112 30.5q177 0 177 -197v-263z" />
    <glyph glyph-name="Itilde" unicode="&#x128;" horiz-adv-x="235" 
d="M238 844q-3 -39 -17 -57.5t-45 -18.5q-22 0 -59.5 11.5t-55.5 11.5q-33 0 -38 -49l-26 4q6 75 62 75q22 0 60 -11.5t55 -11.5q18 0 27 11t11 38zM97 710v-710h41v710h-41z" />
    <glyph glyph-name="itilde" unicode="&#x129;" horiz-adv-x="206" 
d="M225 704q-7 -97 -79 -97q-30 0 -80.5 23.5t-74.5 23.5q-47 0 -53 -70l-27 4q7 95 80 95q30 0 78.5 -23t76.5 -23q23 0 35.5 16t16.5 54zM95 30v450h-38v-439q0 -27 12 -37.5t42 -10.5q20 0 56 3l2 30q-49 0 -74 4z" />
    <glyph glyph-name="Imacron" unicode="&#x12a;" horiz-adv-x="235" 
d="M34 804v-32h167v32h-167zM97 710v-710h41v710h-41z" />
    <glyph glyph-name="imacron" unicode="&#x12b;" horiz-adv-x="206" 
d="M-29 644v-32h209v32h-209zM95 30v450h-38v-439q0 -27 12 -37.5t42 -10.5q20 0 56 3l2 30q-49 0 -74 4z" />
    <glyph glyph-name="Iogonek" unicode="&#x12e;" horiz-adv-x="235" 
d="M83 -161q27 0 53 12l2 -30q-20 -12 -61 -12q-79 0 -79 70q0 76 102 121h-3v710h41v-710q-103 -52 -103 -113q0 -48 48 -48z" />
    <glyph glyph-name="iogonek" unicode="&#x12f;" horiz-adv-x="206" 
d="M76 606q-14 0 -23 9.5t-9 23.5q0 13 9 22.5t23 9.5t23 -9.5t9 -22.5q0 -14 -9 -23.5t-23 -9.5zM168 -4q-103 -52 -103 -113q0 -48 48 -48q27 0 53 12l2 -30q-20 -12 -61 -12q-79 0 -79 70q0 72 96 119q-4 -1 -13 -1q-30 0 -42 10.5t-12 37.5v439h38v-450q25 -4 74 -4
l-2 -30h1z" />
    <glyph glyph-name="Idotaccent" unicode="&#x130;" horiz-adv-x="235" 
d="M118 766q13 0 21.5 8.5t8.5 22.5q0 13 -8.5 21.5t-21.5 8.5t-22 -8.5t-9 -21.5t8.5 -22t22.5 -9zM97 710v-710h41v710h-41z" />
    <glyph glyph-name="dotlessi" unicode="&#x131;" horiz-adv-x="206" 
d="M95 30v450h-38v-439q0 -27 12 -37.5t42 -10.5q20 0 56 3l2 30q-49 0 -74 4z" />
    <glyph glyph-name="IJ" unicode="&#x132;" horiz-adv-x="603" 
d="M97 710v-710h41v710h-41zM506 710h-40v-541q0 -77 -33.5 -111t-104.5 -34q-79 0 -139 28l-4 -36q70 -28 144 -28q88 0 132.5 42.5t44.5 134.5v545z" />
    <glyph glyph-name="ij" unicode="&#x133;" horiz-adv-x="397" 
d="M76 606q14 0 23 9.5t9 23.5q0 13 -9 22.5t-23 9.5t-23 -9.5t-9 -22.5q0 -14 9 -23.5t23 -9.5zM301 606q14 0 23 9.5t9 23.5q0 13 -9.5 22.5t-22.5 9.5t-22.5 -9.5t-9.5 -22.5q0 -14 9 -23.5t23 -9.5zM95 30v450h-38v-439q0 -27 12 -37.5t42 -10.5q20 0 56 3l2 30
q-49 0 -74 4zM320 480h-38v-583q0 -53 -55 -53q-25 0 -48 10l-3 -33q19 -11 56 -11q46 0 67 21.5t21 66.5v582z" />
    <glyph glyph-name="Kcommaaccent" unicode="&#x136;" horiz-adv-x="610" 
d="M499 64q17 -26 33.5 -31.5t68.5 -5.5l-2 -30q-16 -4 -44 -4q-31 0 -49 9t-35 34l-191 292h-142v-328h-41v710h41v-345h142l271 350l41 -8l-282 -360zM289 -49q42 0 42 -49q0 -65 -67 -83l-6 21q40 15 40 51q-42 0 -42 30t33 30z" />
    <glyph glyph-name="kcommaaccent" unicode="&#x137;" horiz-adv-x="486" 
d="M400 36q20 -10 74 -10l-2 -30q-36 -3 -48 -3q-42 0 -62 33l-143 224l-97 -97v-153h-38v710h38v-511l285 286l41 -5l-203 -204zM243 -49q42 0 42 -49q0 -65 -67 -83l-6 21q40 15 40 51q-42 0 -42 30t33 30z" />
    <glyph glyph-name="kgreenlandic" unicode="&#x138;" horiz-adv-x="492" 
d="M400 36q20 -10 74 -10l-2 -30q-36 -3 -48 -3q-42 0 -62 33l-144 226l-96 -99v-153h-38v483h38v-283l275 285l41 -5l-194 -201z" />
    <glyph glyph-name="Lacute" unicode="&#x139;" horiz-adv-x="521" 
d="M223 841l-82 -102l-35 3l73 106zM138 37h374v-37h-415v710h41v-673z" />
    <glyph glyph-name="lacute" unicode="&#x13a;" horiz-adv-x="238" 
d="M155 848l-73 -106l35 -3l82 102zM84 710v-667q0 -28 13.5 -39t51.5 -11q26 0 60 4l2 29q-71 0 -89 7v677h-38z" />
    <glyph glyph-name="Lcommaaccent" unicode="&#x13b;" horiz-adv-x="521" 
d="M138 37h374v-37h-415v710h41v-673zM303 -49q42 0 42 -49q0 -65 -67 -83l-6 21q40 15 40 51q-42 0 -42 30t33 30z" />
    <glyph glyph-name="lcommaaccent" unicode="&#x13c;" horiz-adv-x="238" 
d="M84 710v-667q0 -28 13.5 -39t51.5 -11q26 0 60 4l2 29q-71 0 -89 7v677h-38zM168 -98q0 -65 -67 -83l-6 21q40 15 40 51q-42 0 -42 30t33 30q42 0 42 -49z" />
    <glyph glyph-name="Lcaron" unicode="&#x13d;" horiz-adv-x="521" 
d="M372 710l-31 -183l-34 3l28 183zM138 37h374v-37h-415v710h41v-673z" />
    <glyph glyph-name="lcaron" unicode="&#x13e;" horiz-adv-x="220" 
d="M266 710l-37 3l-28 -183l34 -3zM84 710v-667q0 -28 13.5 -39t51.5 -11q26 0 60 4l2 29q-71 0 -89 7v677h-38z" />
    <glyph glyph-name="Ldot" unicode="&#x13f;" horiz-adv-x="521" 
d="M138 37h374v-37h-415v710h41v-673zM400 259q-17 0 -28.5 11.5t-11.5 28.5t11.5 28t28.5 11t28 -11t11 -28t-11 -28.5t-28 -11.5z" />
    <glyph glyph-name="ldot" unicode="&#x140;" horiz-adv-x="346" 
d="M84 710v-667q0 -28 13.5 -39t51.5 -11q26 0 60 4l2 29q-71 0 -89 7v677h-38zM268 259q17 0 28 11.5t11 28.5t-11 28t-28 11t-28.5 -11t-11.5 -28t11.5 -28.5t28.5 -11.5z" />
    <glyph glyph-name="Lslash" unicode="&#x141;" horiz-adv-x="521" 
d="M138 37h374v-37h-415v327l-87 -29v34l87 28v350h41v-336l178 58v-34l-178 -58v-303z" />
    <glyph glyph-name="lslash" unicode="&#x142;" horiz-adv-x="243" 
d="M216 401l-91 -35v-333q17 -7 89 -7l-2 -29q-34 -4 -60 -4q-38 0 -51.5 11t-13.5 39v308l-77 -30v34l77 30v325h38v-311l91 35v-33z" />
    <glyph glyph-name="Nacute" unicode="&#x143;" horiz-adv-x="731" 
d="M471 841l-82 -102l-35 3l73 106zM594 710h40v-710h-36l-461 644v-644h-40v707l37 9l460 -646v640z" />
    <glyph glyph-name="nacute" unicode="&#x144;" horiz-adv-x="609" 
d="M428 709l-109 -159h-35l99 163zM498 30q24 -4 74 -4l-2 -30q-45 -3 -56 -3q-32 0 -43 9.5t-11 36.5v252q0 164 -148 164q-74 0 -124.5 -51t-50.5 -114v-290h-38v441q-16 12 -62 12l1 29q17 5 33 5q66 0 66 -68v-39q24 49 71 79.5t113 30.5q177 0 177 -197v-263z" />
    <glyph glyph-name="Ncommaaccent" unicode="&#x145;" horiz-adv-x="731" 
d="M594 710h40v-710h-36l-461 644v-644h-40v707l37 9l460 -646v640zM369 -49q42 0 42 -49q0 -65 -67 -83l-6 21q40 15 40 51q-42 0 -42 30t33 30z" />
    <glyph glyph-name="ncommaaccent" unicode="&#x146;" horiz-adv-x="609" 
d="M498 30q24 -4 74 -4l-2 -30q-45 -3 -56 -3q-32 0 -43 9.5t-11 36.5v252q0 164 -148 164q-74 0 -124.5 -51t-50.5 -114v-290h-38v441q-16 12 -62 12l1 29q17 5 33 5q66 0 66 -68v-39q24 49 71 79.5t113 30.5q177 0 177 -197v-263zM309 -49q42 0 42 -49q0 -65 -67 -83
l-6 21q40 15 40 51q-42 0 -42 30t33 30z" />
    <glyph glyph-name="Ncaron" unicode="&#x147;" horiz-adv-x="731" 
d="M392 741h-34l-104 104l35 6l86 -87l86 87l35 -6zM594 710h40v-710h-36l-461 644v-644h-40v707l37 9l460 -646v640z" />
    <glyph glyph-name="ncaron" unicode="&#x148;" horiz-adv-x="609" 
d="M325 557h-34l-122 153l36 2l103 -130l103 130l36 -2zM498 30q24 -4 74 -4l-2 -30q-45 -3 -56 -3q-32 0 -43 9.5t-11 36.5v252q0 164 -148 164q-74 0 -124.5 -51t-50.5 -114v-290h-38v441q-16 12 -62 12l1 29q17 5 33 5q66 0 66 -68v-39q24 49 71 79.5t113 30.5
q177 0 177 -197v-263z" />
    <glyph glyph-name="Eng" unicode="&#x14a;" horiz-adv-x="731" 
d="M594 710h40v-802q0 -52 -21 -75t-67 -23q-34 0 -56 11l3 32q23 -10 49 -10q29 0 41.5 14t12.5 49v96l-459 642v-644h-40v707l37 9l460 -646v640z" />
    <glyph glyph-name="eng" unicode="&#x14b;" horiz-adv-x="562" 
d="M321 490q177 0 177 -197v-385q0 -52 -21 -75t-67 -23q-37 0 -56 11l2 32q23 -10 49 -10q29 0 42 14t13 49v385q0 164 -148 164q-74 0 -124.5 -51t-50.5 -114v-290h-38v441q-16 12 -62 12l1 29q17 5 33 5q66 0 66 -68v-39q24 49 71 79.5t113 30.5z" />
    <glyph glyph-name="Omacron" unicode="&#x14c;" horiz-adv-x="796" 
d="M265 804v-32h266v32h-266zM398 -12q152 0 241.5 102.5t89.5 263.5t-89.5 263.5t-241.5 102.5t-241.5 -102.5t-89.5 -263.5t89.5 -263.5t241.5 -102.5zM398 24q-133 0 -211.5 91t-78.5 239t78.5 239t211.5 91t211.5 -91t78.5 -239t-78.5 -239t-211.5 -91z" />
    <glyph glyph-name="omacron" unicode="&#x14d;" horiz-adv-x="601" 
d="M158 644v-32h286v32h-286zM74 238q0 -118 62.5 -184t164.5 -66t164 66t62 184t-62 185t-164 67t-164.5 -66.5t-62.5 -185.5zM113 238q0 102 51 160t137 58t137 -58t51 -160t-51 -159t-137 -57q-87 0 -137.5 57t-50.5 159z" />
    <glyph glyph-name="Ohungarumlaut" unicode="&#x150;" horiz-adv-x="796" 
d="M389 848l-73 -106l35 -3l82 102zM491 848l-73 -106l35 -3l82 102zM398 -12q152 0 241.5 102.5t89.5 263.5t-89.5 263.5t-241.5 102.5t-241.5 -102.5t-89.5 -263.5t89.5 -263.5t241.5 -102.5zM398 24q-133 0 -211.5 91t-78.5 239t78.5 239t211.5 91t211.5 -91t78.5 -239
t-78.5 -239t-211.5 -91z" />
    <glyph glyph-name="ohungarumlaut" unicode="&#x151;" horiz-adv-x="601" 
d="M291 713l-99 -163h35l109 159zM410 713l-99 -163h35l109 159zM74 238q0 -118 62.5 -184t164.5 -66t164 66t62 184t-62 185t-164 67t-164.5 -66.5t-62.5 -185.5zM113 238q0 102 51 160t137 58t137 -58t51 -160t-51 -159t-137 -57q-87 0 -137.5 57t-50.5 159z" />
    <glyph glyph-name="OE" unicode="&#x152;" horiz-adv-x="1160" 
d="M735 340v-304h388v-36h-429v176q-39 -88 -115.5 -138t-180.5 -50q-152 0 -241.5 102.5t-89.5 263.5t89.5 263.5t241.5 102.5q104 0 180.5 -50t115.5 -138v178h429l-4 -35h-384v-300h358v-35h-358zM398 24q133 0 211.5 91t78.5 239t-78.5 239t-211.5 91t-211.5 -91
t-78.5 -239t78.5 -239t211.5 -91z" />
    <glyph glyph-name="oe" unicode="&#x153;" horiz-adv-x="966" 
d="M527 231v-2q4 -207 190 -207q56 0 98 17.5t59 33.5l10 -33q-22 -20 -67.5 -36t-104.5 -16q-160 0 -205 133q-26 -64 -80 -98.5t-126 -34.5q-102 0 -164.5 66t-62.5 184q0 119 62.5 185.5t164.5 66.5q72 0 126 -35t80 -100q23 65 72 100t118 35q94 0 144.5 -64t50.5 -164
v-31h-365zM698 456q-72 0 -118.5 -49t-51.5 -145h327q-1 92 -44 143t-113 51zM301 22q86 0 137 57t51 159t-51 160t-137 58t-137 -58t-51 -160t50.5 -159t137.5 -57z" />
    <glyph glyph-name="Racute" unicode="&#x154;" horiz-adv-x="646" 
d="M392 841l-82 -102l-35 3l73 106zM524 65q16 -26 33.5 -32t70.5 -6l-4 -30q-17 -4 -45 -4q-30 0 -50.5 11t-39.5 42l-165 262h-173v-308h-40v675h-84v30q44 8 72 8q29 0 42 -13q64 20 161 20q135 0 202 -55.5t67 -158.5q0 -93 -53 -143t-149 -55zM151 672v-329h197
q182 0 182 165q0 177 -230 177q-78 0 -149 -13z" />
    <glyph glyph-name="racute" unicode="&#x155;" horiz-adv-x="316" 
d="M293 709l-109 -159h-35l99 163zM268 490q18 0 36 -5l-3 -38q-12 4 -34 4q-39 0 -70 -32.5t-45 -73.5t-14 -78v-267h-38v441q-17 12 -63 12l1 29q17 5 35 5q28 0 46.5 -18t18.5 -56v-41q20 54 54 86t76 32z" />
    <glyph glyph-name="Rcommaaccent" unicode="&#x156;" horiz-adv-x="646" 
d="M524 65q16 -26 33.5 -32t70.5 -6l-4 -30q-17 -4 -45 -4q-30 0 -50.5 11t-39.5 42l-165 262h-173v-308h-40v675h-84v30q44 8 72 8q29 0 42 -13q64 20 161 20q135 0 202 -55.5t67 -158.5q0 -93 -53 -143t-149 -55zM151 672v-329h197q182 0 182 165q0 177 -230 177
q-78 0 -149 -13zM323 -49q42 0 42 -49q0 -65 -67 -83l-6 21q40 15 40 51q-42 0 -42 30t33 30z" />
    <glyph glyph-name="rcommaaccent" unicode="&#x157;" horiz-adv-x="316" 
d="M268 490q18 0 36 -5l-3 -38q-12 4 -34 4q-39 0 -70 -32.5t-45 -73.5t-14 -78v-267h-38v441q-17 12 -63 12l1 29q17 5 35 5q28 0 46.5 -18t18.5 -56v-41q20 54 54 86t76 32zM124 -49q42 0 42 -49q0 -65 -67 -83l-6 21q40 15 40 51q-42 0 -42 30t33 30z" />
    <glyph glyph-name="Rcaron" unicode="&#x158;" horiz-adv-x="646" 
d="M313 741h-34l-104 104l35 6l86 -87l86 87l35 -6zM524 65q16 -26 33.5 -32t70.5 -6l-4 -30q-17 -4 -45 -4q-30 0 -50.5 11t-39.5 42l-165 262h-173v-308h-40v675h-84v30q44 8 72 8q29 0 42 -13q64 20 161 20q135 0 202 -55.5t67 -158.5q0 -93 -53 -143t-149 -55zM151 672
v-329h197q182 0 182 165q0 177 -230 177q-78 0 -149 -13z" />
    <glyph glyph-name="rcaron" unicode="&#x159;" horiz-adv-x="316" 
d="M190 557h-34l-122 153l36 2l103 -130l103 130l36 -2zM138 372q20 54 54 86t76 32q18 0 36 -5l-3 -38q-12 4 -34 4q-39 0 -70 -32.5t-45 -73.5t-14 -78v-267h-38v441q-17 12 -63 12l1 29q17 5 35 5q28 0 46.5 -18t18.5 -56v-41z" />
    <glyph glyph-name="Sacute" unicode="&#x15a;" 
d="M329 848l-73 -106l35 -3l82 102zM99 534q0 152 180 152q91 0 139 -31.5t60 -98.5l38 8q-12 77 -68.5 116.5t-168.5 39.5q-105 0 -162 -48t-57 -139q0 -56 24.5 -93.5t63 -56t85.5 -30.5t94.5 -23t86 -26.5t63 -47t24.5 -80.5q0 -152 -205 -152q-69 0 -132 21t-99 46
l-6 -40q105 -63 237 -63q245 0 245 190q0 56 -24.5 93.5t-63.5 56t-86 31t-94 23t-86 26t-63.5 47t-24.5 79.5z" />
    <glyph glyph-name="sacute" unicode="&#x15b;" horiz-adv-x="522" 
d="M326 713l-99 -163h35l109 159zM247 490q-87 0 -130 -37.5t-43 -96.5q0 -54 34.5 -83.5t84 -39t99 -17t84 -30.5t34.5 -67q0 -97 -150 -97q-105 0 -176 52l-7 -36q71 -50 184 -50q187 0 187 134q0 53 -34.5 82t-84 38t-98.5 17t-83.5 30.5t-34.5 66.5q0 100 137 100
q134 0 146 -93l37 7q-3 45 -46 82.5t-140 37.5z" />
    <glyph glyph-name="Scedilla" unicode="&#x15e;" 
d="M541 178q0 -91 -60.5 -140.5t-182.5 -49.5l-5 -24q85 0 85 -63q0 -92 -134 -92l5 29q97 0 97 61q0 24 -18.5 34t-64.5 10l10 46q-119 4 -214 62l6 40q36 -25 99 -46t132 -21q205 0 205 152q0 49 -24.5 80.5t-63 47t-85.5 26.5t-94.5 23t-86 30.5t-63 56t-24.5 93.5
q0 91 57 139t162 48q112 0 168.5 -39.5t68.5 -116.5l-38 -8q-12 67 -60 98.5t-139 31.5q-180 0 -180 -152q0 -48 24.5 -79.5t63.5 -47t86 -26t94 -23t86 -31t63.5 -56t24.5 -93.5z" />
    <glyph glyph-name="scedilla" unicode="&#x15f;" horiz-adv-x="522" 
d="M448 122q0 -130 -175 -134l-5 -24q85 0 85 -63q0 -92 -134 -92l5 29q97 0 97 61q0 24 -18.5 34t-64.5 10l10 45q-102 3 -171 50l7 36q71 -52 176 -52q150 0 150 97q0 44 -34.5 67t-84 30.5t-99 17t-84 39t-34.5 83.5q0 59 43 96.5t130 37.5q97 0 140 -37.5t46 -82.5
l-37 -7q-12 93 -146 93q-137 0 -137 -100q0 -44 34.5 -66.5t83.5 -30.5t98.5 -17t84 -38t34.5 -82z" />
    <glyph glyph-name="Scaron" unicode="&#x160;" 
d="M294 741h-34l-104 104l35 6l86 -87l86 87l35 -6zM99 534q0 -48 24.5 -79.5t63.5 -47t86 -26t94 -23t86 -31t63.5 -56t24.5 -93.5q0 -190 -245 -190q-132 0 -237 63l6 40q36 -25 99 -46t132 -21q205 0 205 152q0 49 -24.5 80.5t-63 47t-85.5 26.5t-94.5 23t-86 30.5
t-63 56t-24.5 93.5q0 91 57 139t162 48q112 0 168.5 -39.5t68.5 -116.5l-38 -8q-12 67 -60 98.5t-139 31.5q-180 0 -180 -152z" />
    <glyph glyph-name="scaron" unicode="&#x161;" horiz-adv-x="522" 
d="M268 557h-34l-122 153l36 2l103 -130l103 130l36 -2zM113 356q0 -44 34.5 -66.5t83.5 -30.5t98.5 -17t84 -38t34.5 -82q0 -134 -187 -134q-113 0 -184 50l7 36q71 -52 176 -52q150 0 150 97q0 44 -34.5 67t-84 30.5t-99 17t-84 39t-34.5 83.5q0 59 43 96.5t130 37.5
q97 0 140 -37.5t46 -82.5l-37 -7q-12 93 -146 93q-137 0 -137 -100z" />
    <glyph glyph-name="uni0162" unicode="&#x162;" horiz-adv-x="547" 
d="M294 0h-8l-7 -36q85 0 85 -63q0 -92 -134 -92l5 29q97 0 97 61q0 24 -18.5 34t-64.5 10l13 57h-9v673h-244v32q53 5 144 5h386v-37h-245v-673z" />
    <glyph glyph-name="uni0163" unicode="&#x163;" horiz-adv-x="309" 
d="M309 448h-164v-348q0 -45 17.5 -61.5t50.5 -16.5q42 0 78 16l3 -34q-40 -16 -85 -16l-5 -24q85 0 85 -63q0 -92 -134 -92l5 29q97 0 97 61q0 24 -18.5 34t-64.5 10l10 46q-38 5 -57.5 30t-19.5 82v347h-90v32h90v140h38v-140h164v-32z" />
    <glyph glyph-name="Tcaron" unicode="&#x164;" horiz-adv-x="547" 
d="M291 741h-34l-104 104l35 6l86 -87l86 87l35 -6zM539 710v-37h-245v-673h-41v673h-244v32q53 5 144 5h386z" />
    <glyph glyph-name="tcaron" unicode="&#x165;" horiz-adv-x="323" 
d="M331 713l38 -3l-32 -183l-34 3zM145 620v-140h164v-32h-164v-348q0 -45 17.5 -61.5t50.5 -16.5q42 0 78 16l3 -34q-40 -16 -85 -16q-51 0 -76.5 24t-25.5 89v347h-90v32h90v140h38z" />
    <glyph glyph-name="Tbar" unicode="&#x166;" horiz-adv-x="547" 
d="M539 673h-245v-306h127v-34h-127v-333h-41v333h-128v34h128v306h-244v32q53 5 144 5h386v-37z" />
    <glyph glyph-name="tbar" unicode="&#x167;" horiz-adv-x="346" 
d="M309 448h-164v-155h153v-32h-153v-161q0 -45 17.5 -61.5t50.5 -16.5q42 0 78 16l3 -34q-40 -16 -85 -16q-51 0 -76.5 24t-25.5 89v160h-90v32h90v155h-90v32h90v140h38v-140h164v-32z" />
    <glyph glyph-name="Utilde" unicode="&#x168;" horiz-adv-x="728" 
d="M484 844q-3 -39 -17 -57.5t-45 -18.5q-22 0 -59.5 11.5t-55.5 11.5q-33 0 -38 -49l-26 4q6 75 62 75q22 0 60 -11.5t55 -11.5q18 0 27 11t11 38zM637 710h-41v-442q0 -245 -229 -245q-113 0 -167.5 61t-54.5 186v394q0 26 -11.5 37t-37.5 11q-44 0 -75 -7v-29h84v-406
q0 -143 63.5 -212.5t198.5 -69.5q270 0 270 280v442z" />
    <glyph glyph-name="utilde" unicode="&#x169;" 
d="M208 654q-47 0 -53 -70l-27 4q7 95 80 95q31 0 79.5 -23t75.5 -23q23 0 35.5 16t16.5 54l27 -3q-7 -97 -79 -97q-30 0 -80 23.5t-75 23.5zM487 31q28 -5 74 -5l-2 -30q-27 -3 -50 -3q-31 0 -45.5 13.5t-14.5 47.5v55q-27 -58 -78 -89.5t-120 -31.5q-81 0 -116.5 43
t-35.5 144v266q-19 12 -62 12l1 29q16 4 35 4q34 0 49 -15t15 -48v-242q0 -86 27.5 -122t96.5 -36q87 0 137.5 58.5t50.5 126.5v272h38v-449z" />
    <glyph glyph-name="Umacron" unicode="&#x16a;" horiz-adv-x="728" 
d="M231 804v-32h266v32h-266zM637 710h-41v-442q0 -245 -229 -245q-113 0 -167.5 61t-54.5 186v394q0 26 -11.5 37t-37.5 11q-44 0 -75 -7v-29h84v-406q0 -143 63.5 -212.5t198.5 -69.5q270 0 270 280v442z" />
    <glyph glyph-name="umacron" unicode="&#x16b;" 
d="M436 644v-32h-286v32h286zM487 31q28 -5 74 -5l-2 -30q-27 -3 -50 -3q-31 0 -45.5 13.5t-14.5 47.5v55q-27 -58 -78 -89.5t-120 -31.5q-81 0 -116.5 43t-35.5 144v266q-19 12 -62 12l1 29q16 4 35 4q34 0 49 -15t15 -48v-242q0 -86 27.5 -122t96.5 -36q87 0 137.5 58.5
t50.5 126.5v272h38v-449z" />
    <glyph glyph-name="Uring" unicode="&#x16e;" horiz-adv-x="728" 
d="M364 731q34 0 54.5 19.5t20.5 52.5q0 32 -20.5 51.5t-54.5 19.5t-54 -19.5t-20 -51.5q0 -33 20 -52.5t54 -19.5zM364 751q-23 0 -37 14t-14 38q0 23 14 37t37 14t37.5 -14t14.5 -37q0 -24 -14.5 -38t-37.5 -14zM637 710h-41v-442q0 -245 -229 -245q-113 0 -167.5 61
t-54.5 186v394q0 26 -11.5 37t-37.5 11q-44 0 -75 -7v-29h84v-406q0 -143 63.5 -212.5t198.5 -69.5q270 0 270 280v442z" />
    <glyph glyph-name="uring" unicode="&#x16f;" 
d="M293 550q-43 0 -67 24t-24 62t24 62t67 24t67 -24t24 -62t-24 -62t-67 -24zM293 701q-32 0 -49 -18.5t-17 -46.5t17 -46.5t49 -18.5t49 18.5t17 46.5t-17 46.5t-49 18.5zM487 31q28 -5 74 -5l-2 -30q-27 -3 -50 -3q-31 0 -45.5 13.5t-14.5 47.5v55q-27 -58 -78 -89.5
t-120 -31.5q-81 0 -116.5 43t-35.5 144v266q-19 12 -62 12l1 29q16 4 35 4q34 0 49 -15t15 -48v-242q0 -86 27.5 -122t96.5 -36q87 0 137.5 58.5t50.5 126.5v272h38v-449z" />
    <glyph glyph-name="Uhungarumlaut" unicode="&#x170;" horiz-adv-x="728" 
d="M355 848l-73 -106l35 -3l82 102zM457 848l-73 -106l35 -3l82 102zM637 710h-41v-442q0 -245 -229 -245q-113 0 -167.5 61t-54.5 186v394q0 26 -11.5 37t-37.5 11q-44 0 -75 -7v-29h84v-406q0 -143 63.5 -212.5t198.5 -69.5q270 0 270 280v442z" />
    <glyph glyph-name="uhungarumlaut" unicode="&#x171;" 
d="M329 709l-109 -159h-35l99 163zM339 550h-35l99 163l45 -4zM487 31q28 -5 74 -5l-2 -30q-27 -3 -50 -3q-31 0 -45.5 13.5t-14.5 47.5v55q-27 -58 -78 -89.5t-120 -31.5q-81 0 -116.5 43t-35.5 144v266q-19 12 -62 12l1 29q16 4 35 4q34 0 49 -15t15 -48v-242
q0 -86 27.5 -122t96.5 -36q87 0 137.5 58.5t50.5 126.5v272h38v-449z" />
    <glyph glyph-name="Uogonek" unicode="&#x172;" horiz-adv-x="728" 
d="M596 710h41v-442q0 -204 -142 -259q-103 -51 -103 -113q0 -48 48 -48q27 0 53 12l2 -30q-20 -12 -61 -12q-79 0 -79 70q0 60 68 103q-25 -3 -56 -3q-135 0 -198.5 69.5t-63.5 212.5v406h-84v29q31 7 75 7q26 0 37.5 -11t11.5 -37v-394q0 -125 54.5 -186t167.5 -61
q229 0 229 245v442z" />
    <glyph glyph-name="uogonek" unicode="&#x173;" 
d="M561 26l-2 -30h-1h1q-103 -52 -103 -113q0 -48 48 -48q27 0 53 12l2 -30q-20 -12 -61 -12q-79 0 -79 70q0 73 96 118h-6q-31 0 -45.5 13.5t-14.5 47.5v55q-27 -58 -78 -89.5t-120 -31.5q-81 0 -116.5 43t-35.5 144v266q-19 12 -62 12l1 29q16 4 35 4q34 0 49 -15t15 -48
v-242q0 -86 27.5 -122t96.5 -36q87 0 137.5 58.5t50.5 126.5v272h38v-449q28 -5 74 -5z" />
    <glyph glyph-name="Wcircumflex" unicode="&#x174;" horiz-adv-x="964" 
d="M507 828l-86 -87l-35 6l104 104h34l104 -104l-35 -6zM912 716l40 -9l-221 -707h-46l-178 651l-178 -651h-46l-208 676h-73v29q32 8 63 8q24 0 36.5 -9t19.5 -34l185 -614l178 654h46l178 -655z" />
    <glyph glyph-name="wcircumflex" unicode="&#x175;" horiz-adv-x="713" 
d="M373 692l-103 -130l-36 2l122 153h34l122 -153l-36 -2zM660 485l38 -6l-156 -479h-35l-134 430l-133 -430h-35l-146 444q-18 7 -64 7l1 30q24 4 41 4q27 0 41.5 -11t22.5 -38l122 -388l130 432h40l131 -435z" />
    <glyph glyph-name="Ycircumflex" unicode="&#x176;" horiz-adv-x="606" 
d="M316 828l-86 -87l-35 6l104 104h34l104 -104l-35 -6zM561 716l38 -9l-263 -411v-296h-40v296l-226 380h-73v29q24 8 53 8q27 0 38.5 -7t26.5 -33l201 -343z" />
    <glyph glyph-name="ycircumflex" unicode="&#x177;" horiz-adv-x="491" 
d="M251 692l-103 -130l-36 2l122 153h34l122 -153l-36 -2zM441 485l40 -6l-239 -584q-18 -43 -47 -64t-78 -21q-23 0 -60 11l-4 36q39 -13 64 -13q36 0 57.5 13.5t34.5 47.5l38 94l-195 445q-15 7 -47 7l1 30q16 4 30 4q21 0 34.5 -10t23.5 -34l172 -396z" />
    <glyph glyph-name="Ydieresis" unicode="&#x178;" horiz-adv-x="606" 
d="M249 763q-12 0 -19.5 7.5t-7.5 19.5t7.5 19.5t19.5 7.5t20 -7.5t8 -19.5t-8 -19.5t-20 -7.5zM382 763q-12 0 -19.5 7.5t-7.5 19.5t7.5 19.5t19.5 7.5t20 -7.5t8 -19.5t-8 -19.5t-20 -7.5zM561 716l38 -9l-263 -411v-296h-40v296l-226 380h-73v29q24 8 53 8q27 0 38.5 -7
t26.5 -33l201 -343z" />
    <glyph glyph-name="Zacute" unicode="&#x179;" horiz-adv-x="609" 
d="M416 841l-82 -102l-35 3l73 106zM572 680l-472 -644h468v-36h-514l-5 29l472 646h-458v30q58 5 126 5h378z" />
    <glyph glyph-name="zacute" unicode="&#x17a;" horiz-adv-x="468" 
d="M359 709l-109 -159h-35l99 163zM431 446l-350 -413h350v-33h-389l-5 34l350 413h-331v33h370z" />
    <glyph glyph-name="Zdotaccent" unicode="&#x17b;" horiz-adv-x="609" 
d="M321 766q-13 0 -22 9t-9 22t9 21.5t22 8.5t21.5 -8.5t8.5 -21.5q0 -14 -8.5 -22.5t-21.5 -8.5zM572 680l-472 -644h468v-36h-514l-5 29l472 646h-458v30q58 5 126 5h378z" />
    <glyph glyph-name="zdotaccent" unicode="&#x17c;" horiz-adv-x="468" 
d="M239 606q-14 0 -23 9.5t-9 23.5q0 13 9.5 22.5t22.5 9.5t22.5 -9.5t9.5 -22.5q0 -14 -9 -23.5t-23 -9.5zM431 446l-350 -413h350v-33h-389l-5 34l350 413h-331v33h370z" />
    <glyph glyph-name="Zcaron" unicode="&#x17d;" horiz-adv-x="609" 
d="M337 741h-34l-104 104l35 6l86 -87l86 87l35 -6zM572 680l-472 -644h468v-36h-514l-5 29l472 646h-458v30q58 5 126 5h378z" />
    <glyph glyph-name="zcaron" unicode="&#x17e;" horiz-adv-x="468" 
d="M256 557h-34l-122 153l36 2l103 -130l103 130l36 -2zM431 446l-350 -413h350v-33h-389l-5 34l350 413h-331v33h370z" />
    <glyph glyph-name="uni01EA" unicode="&#x1ea;" horiz-adv-x="796" 
d="M729 354q0 -123 -54 -214.5t-151 -129.5h1q-103 -52 -103 -113q0 -48 48 -48q27 0 53 12l2 -30q-20 -12 -61 -12q-79 0 -79 70q0 61 67 103q-23 -4 -54 -4q-152 0 -241.5 102.5t-89.5 263.5t89.5 263.5t241.5 102.5t241.5 -102.5t89.5 -263.5zM398 24q133 0 211.5 91
t78.5 239t-78.5 239t-211.5 91t-211.5 -91t-78.5 -239t78.5 -239t211.5 -91z" />
    <glyph glyph-name="uni01EB" unicode="&#x1eb;" horiz-adv-x="601" 
d="M527 238q0 -166 -118 -226q-103 -52 -103 -113q0 -48 48 -48q27 0 53 12l2 -30q-20 -12 -61 -12q-79 0 -79 70q0 58 61 99q-20 -2 -29 -2q-102 0 -164.5 66t-62.5 184q0 119 62.5 185.5t164.5 66.5t164 -67t62 -185zM301 22q86 0 137 57t51 159t-51 160t-137 58t-137 -58
t-51 -160t50.5 -159t137.5 -57z" />
    <glyph glyph-name="AEacute" unicode="&#x1fc;" horiz-adv-x="915" 
d="M625 841l-82 -102l-35 3l73 106zM529 340v-304h349v-36h-389v340h-269l-159 -340h-42l337 710h522l-5 -35h-344v-300h319v-35h-319zM237 375h252v300h-111z" />
    <glyph glyph-name="aeacute" unicode="&#x1fd;" horiz-adv-x="902" 
d="M577 709l-109 -159h-35l99 163zM464 231q3 -209 190 -209q55 0 97 17.5t59 33.5l10 -33q-22 -20 -67.5 -36t-103.5 -16q-163 0 -208 140q-26 -66 -84.5 -103t-128.5 -37q-71 0 -112.5 38t-41.5 102q0 68 50 108t148 40q84 0 153 -19v48q0 72 -37.5 112t-111.5 40
q-131 0 -149 -114l-38 7q29 140 187 140q141 0 177 -112q53 112 181 112q94 0 144 -64t50 -164v-31h-364zM634 456q-72 0 -118 -49t-51 -145h326q-1 92 -44 143t-113 51zM233 21q82 0 137 54t55 126v26q-68 18 -150 18q-163 0 -163 -118q0 -51 32.5 -78.5t88.5 -27.5z" />
    <glyph glyph-name="Oslashacute" unicode="&#x1fe;" horiz-adv-x="796" 
d="M494 841l-82 -102l-35 3l73 106zM619 639q110 -102 110 -285q0 -161 -89.5 -263.5t-241.5 -102.5q-114 0 -197 61l-57 -81l-37 5l69 98q-109 101 -109 283q0 161 89.5 263.5t241.5 102.5q113 0 195 -60l65 92l37 -5zM108 354q0 -160 90 -252l373 527q-72 55 -173 55
q-133 0 -211.5 -91t-78.5 -239zM398 24q133 0 211.5 91t78.5 239q0 163 -92 253l-373 -527q73 -56 175 -56z" />
    <glyph glyph-name="oslashacute" unicode="&#x1ff;" horiz-adv-x="601" 
d="M421 709l-109 -159h-35l99 163zM445 442q82 -69 82 -204q0 -118 -62 -184t-164 -66q-69 0 -120 30l-36 -57l-32 6l43 69q-82 68 -82 202q0 119 62.5 185.5t164.5 66.5q67 0 120 -31l35 57l32 -5zM113 238q0 -112 62 -171l227 362q-46 27 -101 27q-86 0 -137 -58t-51 -160
zM301 22q86 0 137 57t51 159q0 114 -63 172l-226 -361q42 -27 101 -27z" />
    <glyph glyph-name="Scommaaccent" unicode="&#x218;" 
d="M99 534q0 152 180 152q91 0 139 -31.5t60 -98.5l38 8q-12 77 -68.5 116.5t-168.5 39.5q-105 0 -162 -48t-57 -139q0 -56 24.5 -93.5t63 -56t85.5 -30.5t94.5 -23t86 -26.5t63 -47t24.5 -80.5q0 -152 -205 -152q-69 0 -132 21t-99 46l-6 -40q105 -63 237 -63
q245 0 245 190q0 56 -24.5 93.5t-63.5 56t-86 31t-94 23t-86 26t-63.5 47t-24.5 79.5zM331 -98q0 -65 -67 -83l-6 21q40 15 40 51q-42 0 -42 30t33 30q42 0 42 -49z" />
    <glyph glyph-name="scommaaccent" unicode="&#x219;" horiz-adv-x="522" 
d="M247 490q-87 0 -130 -37.5t-43 -96.5q0 -54 34.5 -83.5t84 -39t99 -17t84 -30.5t34.5 -67q0 -97 -150 -97q-105 0 -176 52l-7 -36q71 -50 184 -50q187 0 187 134q0 53 -34.5 82t-84 38t-98.5 17t-83.5 30.5t-34.5 66.5q0 100 137 100q134 0 146 -93l37 7q-3 45 -46 82.5
t-140 37.5zM306 -98q0 -65 -67 -83l-6 21q40 15 40 51q-42 0 -42 30t33 30q42 0 42 -49z" />
    <glyph glyph-name="uni021A" unicode="&#x21a;" horiz-adv-x="547" 
d="M539 710v-37h-245v-673h-41v673h-244v32q53 5 144 5h386zM275 -49q42 0 42 -49q0 -65 -67 -83l-6 21q40 15 40 51q-42 0 -42 30t33 30z" />
    <glyph glyph-name="uni021B" unicode="&#x21b;" horiz-adv-x="309" 
d="M309 448h-164v-348q0 -45 17.5 -61.5t50.5 -16.5q42 0 78 16l3 -34q-40 -16 -85 -16q-51 0 -76.5 24t-25.5 89v347h-90v32h90v140h38v-140h164v-32zM200 -49q42 0 42 -49q0 -65 -67 -83l-6 21q40 15 40 51q-42 0 -42 30t33 30z" />
    <glyph glyph-name="uni0237" unicode="&#x237;" horiz-adv-x="218" 
d="M141 480h-38v-583q0 -53 -55 -53q-25 0 -48 10l-3 -33q19 -11 56 -11q46 0 67 21.5t21 66.5v582z" />
    <glyph glyph-name="circumflex" unicode="&#x2c6;" horiz-adv-x="506" 
d="M392 564l-36 -2l-103 130l-103 -130l-36 2l122 153h34z" />
    <glyph glyph-name="caron" unicode="&#x2c7;" horiz-adv-x="506" 
d="M356 712l36 -2l-122 -153h-34l-122 153l36 2l103 -130z" />
    <glyph glyph-name="breve" unicode="&#x2d8;" horiz-adv-x="494" 
d="M349 704q-5 -63 -30.5 -87.5t-71.5 -24.5t-71.5 24.5t-30.5 87.5l-31 -2q5 -72 37.5 -106.5t95.5 -34.5t95.5 34.5t37.5 106.5z" />
    <glyph glyph-name="dotaccent" unicode="&#x2d9;" horiz-adv-x="292" 
d="M146 606q14 0 23 9.5t9 23.5q0 13 -9 22.5t-23 9.5t-23 -9.5t-9 -22.5q0 -14 9 -23.5t23 -9.5z" />
    <glyph glyph-name="ring" unicode="&#x2da;" horiz-adv-x="410" 
d="M205 550q43 0 67 24t24 62t-24 62t-67 24t-67 -24t-24 -62t24 -62t67 -24zM205 571q-32 0 -49 18.5t-17 46.5t17 46.5t49 18.5t49 -18.5t17 -46.5t-17 -46.5t-49 -18.5z" />
    <glyph glyph-name="ogonek" unicode="&#x2db;" horiz-adv-x="371" 
d="M114 -121q0 -70 79 -70q41 0 61 12l-2 30q-26 -12 -53 -12q-48 0 -48 48q0 61 103 113l-22 7q-118 -47 -118 -128z" />
    <glyph glyph-name="tilde" unicode="&#x2dc;" horiz-adv-x="542" 
d="M428 704q-7 -97 -79 -97q-31 0 -81 23.5t-74 23.5q-47 0 -53 -70l-27 4q7 95 80 95q30 0 79 -23t76 -23q23 0 35.5 16t16.5 54z" />
    <glyph glyph-name="hungarumlaut" unicode="&#x2dd;" horiz-adv-x="491" 
d="M332 713l-99 -163h35l109 159zM213 713l-99 -163h35l109 159z" />
    <glyph glyph-name="uni0326" unicode="&#x326;" horiz-adv-x="0" 
d="M-114 -98q0 -65 -67 -83l-6 21q40 15 40 51q-42 0 -42 30t33 30q42 0 42 -49z" />
    <glyph glyph-name="Wgrave" unicode="&#x1e80;" horiz-adv-x="964" 
d="M523 742l-35 -3l-82 102l44 7zM912 716l40 -9l-221 -707h-46l-178 651l-178 -651h-46l-208 676h-73v29q32 8 63 8q24 0 36.5 -9t19.5 -34l185 -614l178 654h46l178 -655z" />
    <glyph glyph-name="wgrave" unicode="&#x1e81;" horiz-adv-x="713" 
d="M394 550h-35l-109 159l45 4zM660 485l38 -6l-156 -479h-35l-134 430l-133 -430h-35l-146 444q-18 7 -64 7l1 30q24 4 41 4q27 0 41.5 -11t22.5 -38l122 -388l130 432h40l131 -435z" />
    <glyph glyph-name="Wacute" unicode="&#x1e82;" horiz-adv-x="964" 
d="M603 841l-82 -102l-35 3l73 106zM912 716l40 -9l-221 -707h-46l-178 651l-178 -651h-46l-208 676h-73v29q32 8 63 8q24 0 36.5 -9t19.5 -34l185 -614l178 654h46l178 -655z" />
    <glyph glyph-name="wacute" unicode="&#x1e83;" horiz-adv-x="713" 
d="M493 709l-109 -159h-35l99 163zM660 485l38 -6l-156 -479h-35l-134 430l-133 -430h-35l-146 444q-18 7 -64 7l1 30q24 4 41 4q27 0 41.5 -11t22.5 -38l122 -388l130 432h40l131 -435z" />
    <glyph glyph-name="Wdieresis" unicode="&#x1e84;" horiz-adv-x="964" 
d="M440 763q-12 0 -19.5 7.5t-7.5 19.5t7.5 19.5t19.5 7.5t20 -7.5t8 -19.5t-8 -19.5t-20 -7.5zM573 763q-12 0 -19.5 7.5t-7.5 19.5t7.5 19.5t19.5 7.5t20 -7.5t8 -19.5t-8 -19.5t-20 -7.5zM912 716l40 -9l-221 -707h-46l-178 651l-178 -651h-46l-208 676h-73v29q32 8 63 8
q24 0 36.5 -9t19.5 -34l185 -614l178 654h46l178 -655z" />
    <glyph glyph-name="wdieresis" unicode="&#x1e85;" horiz-adv-x="713" 
d="M307 608q-13 0 -21.5 8.5t-8.5 21.5t8.5 21.5t21.5 8.5t21 -8.5t8 -21.5t-8 -21.5t-21 -8.5zM440 608q-13 0 -21 8.5t-8 21.5t8 21.5t21 8.5t21.5 -8.5t8.5 -21.5t-8.5 -21.5t-21.5 -8.5zM660 485l38 -6l-156 -479h-35l-134 430l-133 -430h-35l-146 444q-18 7 -64 7l1 30
q24 4 41 4q27 0 41.5 -11t22.5 -38l122 -388l130 432h40l131 -435z" />
    <glyph glyph-name="Ygrave" unicode="&#x1ef2;" horiz-adv-x="606" 
d="M332 742l-35 -3l-82 102l44 7zM561 716l38 -9l-263 -411v-296h-40v296l-226 380h-73v29q24 8 53 8q27 0 38.5 -7t26.5 -33l201 -343z" />
    <glyph glyph-name="ygrave" unicode="&#x1ef3;" horiz-adv-x="491" 
d="M272 550h-35l-109 159l45 4zM441 485l40 -6l-239 -584q-18 -43 -47 -64t-78 -21q-23 0 -60 11l-4 36q39 -13 64 -13q36 0 57.5 13.5t34.5 47.5l38 94l-195 445q-15 7 -47 7l1 30q16 4 30 4q21 0 34.5 -10t23.5 -34l172 -396z" />
    <glyph glyph-name="uni1EF8" unicode="&#x1ef8;" horiz-adv-x="606" 
d="M259 791q-33 0 -38 -49l-26 4q6 75 62 75q22 0 60 -11.5t55 -11.5q18 0 27 11t11 38l26 -3q-3 -39 -17 -57.5t-45 -18.5q-22 0 -59.5 11.5t-55.5 11.5zM561 716l38 -9l-263 -411v-296h-40v296l-226 380h-73v29q24 8 53 8q27 0 38.5 -7t26.5 -33l201 -343z" />
    <glyph glyph-name="uni1EF9" unicode="&#x1ef9;" horiz-adv-x="491" 
d="M166 654q-47 0 -53 -70l-27 4q7 95 80 95q30 0 79 -23t76 -23q23 0 35.5 16t16.5 54l27 -3q-7 -97 -79 -97q-31 0 -81 23.5t-74 23.5zM441 485l40 -6l-239 -584q-18 -43 -47 -64t-78 -21q-23 0 -60 11l-4 36q39 -13 64 -13q36 0 57.5 13.5t34.5 47.5l38 94l-195 445
q-15 7 -47 7l1 30q16 4 30 4q21 0 34.5 -10t23.5 -34l172 -396z" />
    <glyph glyph-name="endash" unicode="&#x2013;" horiz-adv-x="586" 
d="M519 304h-452v-34h452v34z" />
    <glyph glyph-name="emdash" unicode="&#x2014;" horiz-adv-x="876" 
d="M809 304h-742v-34h742v34z" />
    <glyph glyph-name="quoteleft" unicode="&#x2018;" horiz-adv-x="213" 
d="M77 611q0 -29 12.5 -45t31.5 -16q17 0 26 11t9 26q-18 0 -29 10t-11 26q0 41 35 65l-15 24q-59 -39 -59 -101z" />
    <glyph glyph-name="quoteright" unicode="&#x2019;" horiz-adv-x="213" 
d="M156 641q0 29 -12.5 45t-31.5 16q-35 0 -35 -37q18 0 29 -10t11 -26q0 -41 -35 -65l15 -24q59 40 59 101z" />
    <glyph glyph-name="quotesinglbase" unicode="&#x201a;" horiz-adv-x="192" 
d="M135 2q0 29 -12 45t-31 16q-35 0 -35 -37q18 0 29 -10t11 -26q0 -41 -35 -65l15 -24q58 39 58 101z" />
    <glyph glyph-name="quotedblleft" unicode="&#x201c;" horiz-adv-x="338" 
d="M78 611q0 -29 12 -45t31 -16q35 0 35 37q-18 0 -29 10t-11 26q0 41 35 65l-15 24q-58 -39 -58 -101zM202 611q0 -29 12.5 -45t31.5 -16q17 0 26 11t9 26q-18 0 -29 10t-11 26q0 41 35 65l-15 24q-59 -39 -59 -101z" />
    <glyph glyph-name="quotedblright" unicode="&#x201d;" horiz-adv-x="338" 
d="M156 641q0 29 -12.5 45t-31.5 16q-35 0 -35 -37q18 0 29 -10t11 -26q0 -41 -35 -65l15 -24q59 40 59 101zM280 641q0 29 -12 45t-31 16q-35 0 -35 -37q18 0 29 -10t11 -26q0 -41 -35 -65l15 -24q58 39 58 101z" />
    <glyph glyph-name="quotedblbase" unicode="&#x201e;" horiz-adv-x="317" 
d="M135 2q0 29 -12 45t-31 16q-35 0 -35 -37q18 0 29 -10t11 -26q0 -41 -35 -65l15 -24q58 39 58 101zM260 2q0 29 -12 45t-31 16q-35 0 -35 -37q18 0 29 -10t11 -26q0 -41 -35 -65l15 -24q58 39 58 101z" />
    <glyph glyph-name="dagger" unicode="&#x2020;" horiz-adv-x="586" 
d="M489 498l-5 -42l-175 8l4 -464h-40l4 464l-175 -8l-5 42l180 -8l-7 220h46l-7 -220z" />
    <glyph glyph-name="daggerdbl" unicode="&#x2021;" horiz-adv-x="566" 
d="M464 270l5 -40l-170 8l5 -238h-42l5 238l-170 -8l5 40l165 -8v226l-165 -8l-5 40l170 -8l-7 198h46l-7 -198l170 8l-5 -40l-165 8v-226z" />
    <glyph glyph-name="bullet" unicode="&#x2022;" horiz-adv-x="318" 
d="M159 227q33 0 54 21t21 54t-21 54t-54 21t-54 -21t-21 -54t21 -54t54 -21z" />
    <glyph glyph-name="ellipsis" unicode="&#x2026;" horiz-adv-x="621" 
d="M97 -12q17 0 28 11.5t11 28.5t-11 28t-28 11t-28.5 -11t-11.5 -28t11.5 -28.5t28.5 -11.5zM311 -12q17 0 28 11.5t11 28.5t-11 28t-28 11t-28.5 -11t-11.5 -28t11.5 -28.5t28.5 -11.5zM525 -12q17 0 28 11.5t11 28.5t-11 28t-28 11t-28.5 -11t-11.5 -28t11.5 -28.5
t28.5 -11.5z" />
    <glyph glyph-name="perthousand" unicode="&#x2030;" horiz-adv-x="1248" 
d="M243 326q83 0 122.5 52t39.5 144q0 93 -39.5 145.5t-122.5 52.5t-123 -52t-40 -145t40 -145t123 -52zM676 720l-514 -729l38 -3l514 729zM243 354q-65 0 -97 45t-32 124q0 80 32.5 124.5t96.5 44.5q65 0 96.5 -45t31.5 -125q0 -79 -31.5 -123.5t-96.5 -44.5zM635 -12
q83 0 122.5 52t39.5 144q0 93 -39.5 145.5t-122.5 52.5t-123 -52t-40 -145t40 -145t123 -52zM1026 -12q162 0 162 196q0 198 -162 198q-82 0 -122 -52.5t-40 -144.5t40 -144.5t122 -52.5zM635 16q-65 0 -97 45t-32 124q0 80 32.5 124.5t96.5 44.5q65 0 96.5 -45t31.5 -125
q0 -79 -31.5 -123.5t-96.5 -44.5zM1026 16q-64 0 -96 45t-32 124q0 80 32 124.5t96 44.5q128 0 128 -170q0 -168 -128 -168z" />
    <glyph glyph-name="guilsinglleft" unicode="&#x2039;" horiz-adv-x="308" 
d="M231 430l-154 -146l154 -131l-23 -23l-169 149v8l170 167z" />
    <glyph glyph-name="guilsinglright" unicode="&#x203a;" horiz-adv-x="308" 
d="M99 454l170 -167v-8l-169 -149l-23 23l153 131l-153 146z" />
    <glyph glyph-name="fraction" unicode="&#x2044;" horiz-adv-x="352" 
d="M414 720l-514 -729l38 -3l514 729z" />
    <glyph glyph-name="Euro" unicode="&#x20ac;" horiz-adv-x="700" 
d="M534 420l-5 -31h-483l5 31h89q14 153 91 226.5t193 73.5q112 0 195 -63l-9 -37q-87 65 -185 65q-101 0 -166 -65.5t-78 -199.5h353zM625 87l8 -37q-84 -62 -206 -62q-115 0 -191 68.5t-94 211.5h-108l5 31h481l-5 -31h-332q17 -124 82.5 -184t165.5 -60q63 0 115 20
t79 43z" />
    <glyph glyph-name="trademark" unicode="&#x2122;" horiz-adv-x="640" 
d="M552 446q12 -2 31 -2v-19q-24 -3 -32 -3q-23 0 -24 23l-7 227l-93 -211h-20l-96 211l-6 -246h-25l7 252h-111v-252h-26v252h-93v22h266l94 -210l91 210h36z" />
    <glyph glyph-name="minus" unicode="&#x2212;" horiz-adv-x="574" 
d="M480 335h-386v-35h386v35z" />
    <glyph glyph-name="approxequal" unicode="&#x2248;" horiz-adv-x="552" 
d="M458 455q-10 -91 -86 -91q-32 0 -98 17t-96 17q-49 0 -55 -63l-29 5q10 90 86 90q32 0 98 -17t96 -17q26 0 39 14.5t16 48.5zM458 295q-10 -91 -86 -91q-32 0 -98 17t-96 17q-49 0 -55 -63l-29 5q10 90 86 90q32 0 98 -17t96 -17q26 0 39 14.5t16 48.5z" />
    <glyph glyph-name="notequal" unicode="&#x2260;" horiz-adv-x="608" 
d="M514 390h-181l-48 -147h229v-33h-240l-37 -114h-38l37 114h-142v33h153l48 147h-201v33h212l38 114h37l-37 -114h170v-33z" />
    <glyph glyph-name="uniF8FF" unicode="&#xf8ff;" horiz-adv-x="1451" 
d="M691 583q0 26 17.5 44t43.5 18t44 -18t18 -44t-18 -43.5t-44 -17.5t-43.5 18t-17.5 43zM219 270h-119q0 134 9 314h100q10 -200 10 -314zM694 270q0 92 3 147h-61l3 -65q4 -4 15 -4q13 0 18 5v-74q-14 -15 -68 -15q-82 0 -82 66q0 12 2 49t2 38h-22v79l119 30l1 -17h178
q10 -64 10 -239h-118zM328 265q-92 0 -92 114q0 135 134 135q124 0 124 -117v-127h-83l-8 61q-6 -33 -23.5 -49.5t-51.5 -16.5zM1090 270h-114q0 26 1 56t1 37q0 29 -15 29q-18 0 -18 -29q0 -7 1.5 -37t1.5 -56h-114q0 175 10 239h80q6 -44 6 -76q2 15 6.5 30t24 33t49.5 18
q42 0 58.5 -25t18.5 -81zM1351 391q0 -126 -123 -126q-122 0 -122 124q0 125 124 125q121 0 121 -123zM390 375q0 26 -24 26q-22 0 -22 -26q0 -30 22 -30q24 0 24 30zM1251 375q0 26 -23 26q-21 0 -21 -26q0 -30 21 -30q23 0 23 30zM428 238h104q10 -52 10 -138
q0 -81 -33.5 -115.5t-118.5 -34.5q-61 0 -88 17v83q24 -16 70 -16q21 0 34 6t16.5 11.5t3.5 10.5q-16 -11 -49 -11q-90 0 -90 83v13h-55l3 -65q6 -4 15 -4q13 0 18 5v-73q-19 -15 -68 -15q-45 0 -63 17t-18 54q0 39 3 81h-18v80l117 29l-1 -18h177v-119q0 -16 3 -21.5
t12 -5.5q16 0 16 27v119zM733 243q37 0 58.5 -29t21.5 -84q0 -135 -137 -135q1 -15 1 -39h-119q0 142 10 282h78q7 -42 7 -76q17 81 80 81zM1070 127q0 -21 -3 -35h-124q11 -18 50 -18q34 0 55 12v-75q-23 -16 -78 -16q-141 0 -141 122q0 59 32.5 92.5t92.5 33.5
q55 0 85.5 -30t30.5 -86zM978 109q3 27 -17 27q-23 0 -23 -27h40zM670 72q5 0 12.5 2.5t16 11.5t8.5 23q0 23 -20 23q-22 0 -22 -31q0 -14 5 -29zM1074 13q0 -23 24 -23t24 23t-24 23t-24 -23zM1080 13q0 18 18 18t18 -18t-18 -18t-18 18zM1108 2l-6 9q7 0 7 7t-10 7h-11
v-23h5v9h5l4 -9h6zM1100 15h-7v6h7q4 0 4 -3t-4 -3z" />
    <glyph glyph-name="i.loclTRK" horiz-adv-x="206" 
d="M76 606q14 0 23 9.5t9 23.5q0 13 -9 22.5t-23 9.5t-23 -9.5t-9 -22.5q0 -14 9 -23.5t23 -9.5zM95 30v450h-38v-439q0 -27 12 -37.5t42 -10.5q20 0 56 3l2 30q-49 0 -74 4z" />
    <glyph glyph-name="f_t" horiz-adv-x="564" 
d="M564 448h-164v-348q0 -45 17.5 -61.5t50.5 -16.5q41 0 77 16l4 -34q-43 -16 -86 -16q-50 0 -75.5 24t-25.5 89v347h-210v-448h-38v448h-97v32h97v108q0 132 106 132q40 0 77 -14l-4 -34q-36 14 -69 14q-72 0 -72 -98v-108h210v140h38v-140h164v-32z" />
    <glyph glyph-name="caron.alt" horiz-adv-x="293" 
d="M179 710l-37 3l-28 -183l34 -3z" />
    <glyph glyph-name="acute.case" horiz-adv-x="345" 
d="M187 848l-73 -106l35 -3l82 102z" />
    <glyph glyph-name="breve.case" horiz-adv-x="447" 
d="M305 851q-4 -45 -24.5 -64t-57.5 -19t-57 19t-24 64l-28 -3q8 -109 109 -109q102 0 110 109z" />
    <glyph glyph-name="caron.case" horiz-adv-x="470" 
d="M321 851l35 -6l-104 -104h-34l-104 104l35 6l86 -87z" />
    <glyph glyph-name="circumflex.case" horiz-adv-x="470" 
d="M356 747l-35 -6l-86 87l-86 -87l-35 6l104 104h34z" />
    <glyph glyph-name="dieresis.case" horiz-adv-x="416" 
d="M141 763q12 0 20 7.5t8 19.5t-8 19.5t-20 7.5t-19.5 -7.5t-7.5 -19.5t7.5 -19.5t19.5 -7.5zM274 763q12 0 20 7.5t8 19.5t-8 19.5t-20 7.5t-19.5 -7.5t-7.5 -19.5t7.5 -19.5t19.5 -7.5z" />
    <glyph glyph-name="dotaccent.case" horiz-adv-x="289" 
d="M145 766q13 0 21.5 8.5t8.5 22.5q0 13 -8.5 21.5t-21.5 8.5t-22 -8.5t-9 -21.5t9 -22t22 -9z" />
    <glyph glyph-name="grave.case" horiz-adv-x="348" 
d="M161 848l-44 -7l82 -102l35 3z" />
    <glyph glyph-name="hungarumlaut.case" horiz-adv-x="450" 
d="M187 848l-73 -106l35 -3l82 102zM289 848l-73 -106l35 -3l82 102z" />
    <glyph glyph-name="macron.case" horiz-adv-x="494" 
d="M114 804v-32h266v32h-266z" />
    <glyph glyph-name="ring.case" horiz-adv-x="377" 
d="M188 731q34 0 54.5 19.5t20.5 52.5q0 32 -20.5 51.5t-54.5 19.5t-54 -19.5t-20 -51.5q0 -33 20 -52.5t54 -19.5zM188 751q-23 0 -37 14t-14 38q0 23 14 37t37 14t37.5 -14t14.5 -37q0 -24 -14.5 -38t-37.5 -14z" />
    <glyph glyph-name="tilde.case" horiz-adv-x="469" 
d="M355 844q-3 -39 -17 -57.5t-45 -18.5q-22 0 -59.5 11.5t-55.5 11.5q-33 0 -38 -49l-26 4q6 75 62 75q22 0 60 -11.5t55 -11.5q18 0 27 11t11 38z" />
    <glyph glyph-name="IJacute" horiz-adv-x="603" 
d="M169 848l-73 -106l35 -3l82 102zM537 848l-73 -106l35 -3l82 102zM97 710v-710h41v710h-41zM506 710h-40v-541q0 -77 -33.5 -111t-104.5 -34q-79 0 -139 28l-4 -36q70 -28 144 -28q88 0 132.5 42.5t44.5 134.5v545z" />
    <glyph glyph-name="ijacute" horiz-adv-x="397" 
d="M151 713l-99 -163h35l109 159zM376 713l-99 -163h35l109 159zM95 30v450h-38v-439q0 -27 12 -37.5t42 -10.5q20 0 56 3l2 30q-49 0 -74 4zM320 480h-38v-583q0 -53 -55 -53q-25 0 -48 10l-3 -33q19 -11 56 -11q46 0 67 21.5t21 66.5v582z" />
    </font>
</defs>
</svg>
